# Alias OBJ Model File
# Exported from SketchUp, (c) 2000-2012 Trimble Navigation Limited
# File units = inches

mtllib 23 MILAN ottoman 42 x 34.mtl

g Mesh1 P5__1 Group2 Group1 Model

usemtl _Color_M05_4
v 6 1 -30
vt 27 0
vn 1 7.69487e-27 -4.979e-17
v 6 3 -30
vt 27 2
v 6 3 -6
vt 3 2
v 6 1 -6
vt 3 0
f 1/1/1 2/2/1 3/3/1 4/4/1 

vt 26.163 0
vn 0.707107 4.76389e-10 -0.707107
v 4 1 -32
vt 28.9914 0
v 4 3 -32
vt 28.9914 2
vt 26.163 2
f 1/5/2 5/6/2 6/7/2 2/8/2 

v 4 1 -4
vt 12 1
vn -2.58494e-26 -1 -6.73715e-10
vt 12 29
vt 10 27
vt 10 3
f 7/9/3 5/10/3 1/11/3 4/12/3 

v 4 3 -4
vt -1 2
vn -1 -7.69487e-27 4.979e-17
vt -29 2
vt -29 0
vt -1 0
f 8/13/4 6/14/4 5/15/4 7/16/4 

vt -10 3
vn 2.58494e-26 1 6.73715e-10
vt -10 27
vt -12 29
vt -12 1
f 3/17/5 2/18/5 6/19/5 8/20/5 

vt -7.77817 0
vn 0.707107 -4.76389e-10 0.707107
vt -4.94975 0
vt -4.94975 2
vt -7.77817 2
f 7/21/6 4/22/6 3/23/6 8/24/6 

g Mesh2 P5__2 Group2 Group1 Model

v 36 1 -6
vn -1 7.48115e-26 -7.26747e-17
v 36 3 -6
v 36 3 -30
v 36 1 -30
f 9/4/7 10/3/7 11/2/7 12/1/7 

v 38 3 -4
vn -0.707107 -4.76389e-10 0.707107
v 38 1 -4
f 13/24/8 10/23/8 9/22/8 14/21/8 

v 38 3 -32
f 13/20/5 15/19/5 11/18/5 10/17/5 

vn 1 -7.48115e-26 7.26747e-17
v 38 1 -32
f 14/16/9 16/15/9 15/14/9 13/13/9 

f 9/12/3 12/11/3 16/10/3 14/9/3 

vn -0.707107 4.76389e-10 -0.707107
f 11/8/10 15/7/10 16/6/10 12/5/10 

g Mesh3 P10_1 Group2 Group1 Model

v 37.4668 1 -30.9115
vt 0.0325246 0.320131
v 37.483 1 -30.9613
vt 0.0163519 0.369905
v 37.4938 1 -31.0125
vt 0.0054706 0.421098
v 37.4993 1 -31.0645
vt 0 0.473147
v 37.4993 1 -31.1169
vt 0 0.525483
v 37.4938 1 -31.1689
vt 0.0054706 0.577532
v 37.483 1 -31.2201
vt 0.0163519 0.628724
v 37.4668 1 -31.2699
vt 0.0325246 0.678499
v 37.4455 1 -31.3177
vt 0.0538115 0.72631
v 37.4193 1 -31.363
vt 0.0799795 0.771634
v 37.3886 1 -31.4053
vt 0.110742 0.813975
v 37.3536 1 -31.4442
vt 0.145761 0.852868
v 37.3147 1 -31.4793
vt 0.184655 0.887888
v 37.2723 1 -31.51
vt 0.226995 0.91865
v 37.227 1 -31.5362
vt 0.27232 0.944818
v 37.1792 1 -31.5575
vt 0.320131 0.966105
v 37.1294 1 -31.5737
vt 0.369905 0.982278
v 37.0782 1 -31.5845
vt 0.421098 0.993159
v 37.0262 1 -31.59
vt 0.473147 0.99863
v 36.9738 1 -31.59
vt 0.525483 0.99863
v 36.9218 1 -31.5845
vt 0.577532 0.993159
v 36.8706 1 -31.5737
vt 0.628724 0.982278
v 36.8208 1 -31.5575
vt 0.678499 0.966105
v 36.773 1 -31.5362
vt 0.72631 0.944818
v 36.7277 1 -31.51
vt 0.771634 0.91865
v 36.6853 1 -31.4793
vt 0.813975 0.887888
v 36.6464 1 -31.4442
vt 0.852868 0.852868
v 36.6114 1 -31.4053
vt 0.887888 0.813975
v 36.5807 1 -31.363
vt 0.91865 0.771634
v 36.5545 1 -31.3177
vt 0.944818 0.72631
v 36.5332 1 -31.2699
vt 0.966105 0.678499
v 36.517 1 -31.2201
vt 0.982278 0.628724
v 36.5062 1 -31.1689
vt 0.993159 0.577532
v 36.5007 1 -31.1169
vt 0.99863 0.525483
v 36.5007 1 -31.0645
vt 0.99863 0.473147
v 36.5062 1 -31.0125
vt 0.993159 0.421098
v 36.517 1 -30.9613
vt 0.982278 0.369905
v 36.5332 1 -30.9115
vt 0.966105 0.320131
v 36.5545 1 -30.8637
vt 0.944818 0.27232
v 36.5807 1 -30.8184
vt 0.91865 0.226995
v 36.6114 1 -30.776
vt 0.887888 0.184655
v 36.6464 1 -30.7371
vt 0.852868 0.145761
v 36.6853 1 -30.7021
vt 0.813975 0.110742
v 36.7277 1 -30.6714
vt 0.771634 0.0799795
v 36.773 1 -30.6452
vt 0.72631 0.0538115
v 36.8208 1 -30.6239
vt 0.678499 0.0325246
v 36.8706 1 -30.6077
vt 0.628724 0.0163519
v 36.9218 1 -30.5968
vt 0.577532 0.0054706
v 36.9738 1 -30.5914
vt 0.525483 0
v 37.0262 1 -30.5914
vt 0.473147 0
v 37.0782 1 -30.5968
vt 0.421098 0.0054706
v 37.1294 1 -30.6077
vt 0.369905 0.0163519
v 37.1792 1 -30.6239
vt 0.320131 0.0325246
v 37.227 1 -30.6452
vt 0.27232 0.0538115
v 37.2723 1 -30.6714
vt 0.226995 0.0799795
v 37.3147 1 -30.7021
vt 0.184655 0.110742
v 37.3536 1 -30.7371
vt 0.145761 0.145761
v 37.3886 1 -30.776
vt 0.110742 0.184655
v 37.4193 1 -30.8184
vt 0.0799795 0.226995
v 37.4455 1 -30.8637
vt 0.0538115 0.27232
f 17/25/5 18/26/5 19/27/5 20/28/5 21/29/5 22/30/5 23/31/5 24/32/5 25/33/5 26/34/5 27/35/5 28/36/5 29/37/5 30/38/5 31/39/5 32/40/5 33/41/5 34/42/5 35/43/5 36/44/5 37/45/5 38/46/5 39/47/5 40/48/5 41/49/5 42/50/5 43/51/5 44/52/5 45/53/5 46/54/5 47/55/5 48/56/5 49/57/5 50/58/5 51/59/5 52/60/5 53/61/5 54/62/5 55/63/5 56/64/5 57/65/5 58/66/5 59/67/5 60/68/5 61/69/5 62/70/5 63/71/5 64/72/5 65/73/5 66/74/5 67/75/5 68/76/5 69/77/5 70/78/5 71/79/5 72/80/5 73/81/5 74/82/5 75/83/5 76/84/5 

v 37.4668 2.08256e-08 -30.9115
vt -0.294412 0
vn 0.93358 -2.41438e-10 0.358368
v 37.483 2.08591e-08 -30.9613
vt -0.346748 0
vn 0.965926 -1.7437e-10 0.258819
vt -0.346748 1
vt -0.294412 1
f 77/85/11 78/86/12 18/87/12 17/88/11 

v 37.3886 2.07343e-08 -30.776
vt -0.110742 0.184655
v 37.3536 2.07081e-08 -30.7371
vt -0.145761 0.145761
v 37.3147 2.06845e-08 -30.7021
vt -0.184655 0.110742
v 37.2723 2.06638e-08 -30.6714
vt -0.226995 0.0799795
v 37.227 2.06461e-08 -30.6452
vt -0.27232 0.0538115
v 37.1792 2.06318e-08 -30.6239
vt -0.320131 0.0325246
v 37.1294 2.06209e-08 -30.6077
vt -0.369905 0.0163519
v 37.0782 2.06136e-08 -30.5968
vt -0.421098 0.0054706
v 37.0262 2.06099e-08 -30.5914
vt -0.473147 0
v 36.9738 2.06099e-08 -30.5914
vt -0.525483 0
v 36.9218 2.06136e-08 -30.5968
vt -0.577532 0.0054706
v 36.8706 2.06209e-08 -30.6077
vt -0.628724 0.0163519
v 36.8208 2.06318e-08 -30.6239
vt -0.678499 0.0325246
v 36.773 2.06461e-08 -30.6452
vt -0.72631 0.0538115
v 36.7277 2.06638e-08 -30.6714
vt -0.771634 0.0799795
v 36.6853 2.06845e-08 -30.7021
vt -0.813975 0.110742
v 36.6464 2.07081e-08 -30.7371
vt -0.852868 0.145761
v 36.6114 2.07343e-08 -30.776
vt -0.887888 0.184655
v 36.5807 2.07628e-08 -30.8184
vt -0.91865 0.226995
v 36.5545 2.07933e-08 -30.8637
vt -0.944818 0.27232
v 36.5332 2.08256e-08 -30.9115
vt -0.966105 0.320131
v 36.517 2.08591e-08 -30.9613
vt -0.982278 0.369905
v 36.5062 2.08936e-08 -31.0125
vt -0.993159 0.421098
v 36.5007 2.09286e-08 -31.0645
vt -0.99863 0.473147
v 36.5007 2.09639e-08 -31.1169
vt -0.99863 0.525483
v 36.5062 2.0999e-08 -31.1689
vt -0.993159 0.577532
v 36.517 2.10335e-08 -31.2201
vt -0.982278 0.628724
v 36.5332 2.1067e-08 -31.2699
vt -0.966105 0.678499
v 36.5545 2.10992e-08 -31.3177
vt -0.944818 0.72631
v 36.5807 2.11297e-08 -31.363
vt -0.91865 0.771634
v 36.6114 2.11583e-08 -31.4053
vt -0.887888 0.813975
v 36.6464 2.11845e-08 -31.4442
vt -0.852868 0.852868
v 36.6853 2.12081e-08 -31.4793
vt -0.813975 0.887888
v 36.7277 2.12288e-08 -31.51
vt -0.771634 0.91865
v 36.773 2.12464e-08 -31.5362
vt -0.72631 0.944818
v 36.8208 2.12608e-08 -31.5575
vt -0.678499 0.966105
v 36.8706 2.12717e-08 -31.5737
vt -0.628724 0.982278
v 36.9218 2.1279e-08 -31.5845
vt -0.577532 0.993159
v 36.9738 2.12827e-08 -31.59
vt -0.525483 0.99863
v 37.0262 2.12827e-08 -31.59
vt -0.473147 0.99863
v 37.0782 2.1279e-08 -31.5845
vt -0.421098 0.993159
v 37.1294 2.12717e-08 -31.5737
vt -0.369905 0.982278
v 37.1792 2.12608e-08 -31.5575
vt -0.320131 0.966105
v 37.227 2.12464e-08 -31.5362
vt -0.27232 0.944818
v 37.2723 2.12288e-08 -31.51
vt -0.226995 0.91865
v 37.3147 2.12081e-08 -31.4793
vt -0.184655 0.887888
v 37.3536 2.11845e-08 -31.4442
vt -0.145761 0.852868
v 37.3886 2.11583e-08 -31.4053
vt -0.110742 0.813975
v 37.4193 2.11297e-08 -31.363
vt -0.0799795 0.771634
v 37.4455 2.10992e-08 -31.3177
vt -0.0538115 0.72631
v 37.4668 2.1067e-08 -31.2699
vt -0.0325246 0.678499
v 37.483 2.10335e-08 -31.2201
vt -0.0163519 0.628724
v 37.4938 2.0999e-08 -31.1689
vt -0.0054706 0.577532
v 37.4993 2.09639e-08 -31.1169
v 37.4993 2.09286e-08 -31.0645
v 37.4938 2.08936e-08 -31.0125
vt -0.0054706 0.421098
vt -0.0163519 0.369905
vt -0.0325246 0.320131
v 37.4455 2.07933e-08 -30.8637
vt -0.0538115 0.27232
v 37.4193 2.07628e-08 -30.8184
vt -0.0799795 0.226995
f 79/89/3 80/90/3 81/91/3 82/92/3 83/93/3 84/94/3 85/95/3 86/96/3 87/97/3 88/98/3 89/99/3 90/100/3 91/101/3 92/102/3 93/103/3 94/104/3 95/105/3 96/106/3 97/107/3 98/108/3 99/109/3 100/110/3 101/111/3 102/112/3 103/113/3 104/114/3 105/115/3 106/116/3 107/117/3 108/118/3 109/119/3 110/120/3 111/121/3 112/122/3 113/123/3 114/124/3 115/125/3 116/126/3 117/127/3 118/128/3 119/129/3 120/130/3 121/131/3 122/132/3 123/133/3 124/134/3 125/135/3 126/136/3 127/137/3 128/138/3 129/139/3 130/140/3 131/141/3 132/29/3 133/28/3 134/142/3 78/143/3 77/144/3 135/145/3 136/146/3 

vt -0.0107884 0
vt -0.0631244 0
vn 0.777146 -4.23983e-10 0.62932
vt -0.0631244 1
vt -0.0107884 1
f 80/147/6 79/148/13 74/149/13 73/150/6 

vt -0.0842963 0
vt -0.136632 0
vn 0.838671 -3.66932e-10 0.544639
vt -0.136632 1
vt -0.0842963 1
f 79/151/13 136/152/14 75/153/14 74/154/13 

vt -0.156594 0
vt -0.20893 0
vn 0.891007 -3.0586e-10 0.45399
vt -0.20893 1
vt -0.156594 1
f 136/155/14 135/156/15 76/157/15 75/158/14 

vt -0.226889 0
vt -0.279225 0
vt -0.279225 1
vt -0.226889 1
f 135/159/15 77/160/11 17/161/11 76/162/15 

vt 0.0631244 0
vn 0.62932 -5.23575e-10 0.777146
vt 0.0107884 0
vt 0.0107884 1
vt 0.0631244 1
f 81/163/16 80/164/6 73/165/6 72/166/16 

vt 0.136632 0
vn 0.544639 -5.65025e-10 0.838671
vt 0.0842963 0
vt 0.0842963 1
vt 0.136632 1
f 82/167/17 81/168/16 72/169/16 71/170/17 

vt 0.20893 0
vn 0.45399 -6.00285e-10 0.891007
vt 0.156594 0
vt 0.156594 1
vt 0.20893 1
f 83/171/18 82/172/17 71/173/17 70/174/18 

vt 0.279225 0
vn 0.358368 -6.28968e-10 0.93358
vt 0.226889 0
vt 0.226889 1
vt 0.279225 1
f 84/175/19 83/176/18 70/177/18 69/178/19 

vt 0.346748 0
vn 0.258819 -6.50759e-10 0.965926
vt 0.294412 0
vt 0.294412 1
vt 0.346748 1
f 85/179/20 84/180/19 69/181/19 68/182/20 

vt 0.410758 0
vn 0.156434 -6.65421e-10 0.987688
vt 0.358422 0
vt 0.358422 1
vt 0.410758 1
f 86/183/21 85/184/20 68/185/20 67/186/21 

vt 0.470555 0
vn 0.052336 -6.72792e-10 0.99863
vt 0.418219 0
vt 0.418219 1
vt 0.470555 1
f 87/187/22 86/188/21 67/189/21 66/190/22 

vn -0.052336 -6.72792e-10 0.99863
vt 0.473147 1
vt 0.525483 1
f 88/73/23 87/74/22 66/191/22 65/192/23 

vt 0.57494 0
vn -0.156434 -6.65421e-10 0.987688
vt 0.522604 0
vt 0.522604 1
vt 0.57494 1
f 89/193/24 88/194/23 65/195/23 64/196/24 

vt 0.618385 0
vn -0.258819 -6.50759e-10 0.965926
vt 0.566049 0
vt 0.566049 1
vt 0.618385 1
f 90/197/25 89/198/24 64/199/24 63/200/25 

vt 0.655341 0
vn -0.358368 -6.28968e-10 0.93358
vt 0.603005 0
vt 0.603005 1
vt 0.655341 1
f 91/201/26 90/202/25 63/203/25 62/204/26 

vt 0.685404 0
vn -0.45399 -6.00285e-10 0.891007
vt 0.633068 0
vt 0.633068 1
vt 0.685404 1
f 92/205/27 91/206/26 62/207/26 61/208/27 

vt 0.708245 0
vn -0.544639 -5.65025e-10 0.838671
vt 0.655909 0
vt 0.655909 1
vt 0.708245 1
f 93/209/28 92/210/27 61/211/27 60/212/28 

vt 0.723612 0
vn -0.62932 -5.23575e-10 0.777146
vt 0.671276 0
vt 0.671276 1
vt 0.723612 1
f 94/213/29 93/214/28 60/215/28 59/216/29 

vt 0.731338 0
vt 0.679002 0
vt 0.679002 1
vt 0.731338 1
f 95/217/8 94/218/29 59/219/29 58/220/8 

vn -0.777146 -4.23983e-10 0.62932
f 96/217/30 95/218/8 58/219/8 57/220/30 

vn -0.838671 -3.66932e-10 0.544639
f 97/213/31 96/214/30 57/215/30 56/216/31 

vn -0.891007 -3.0586e-10 0.45399
f 98/209/32 97/210/31 56/211/31 55/212/32 

vn -0.93358 -2.41438e-10 0.358368
f 99/205/33 98/206/32 55/207/32 54/208/33 

vn -0.965926 -1.7437e-10 0.258819
f 100/201/34 99/202/33 54/203/33 53/204/34 

vn -0.987688 -1.05392e-10 0.156434
f 101/197/35 100/198/34 53/199/34 52/200/35 

vn -0.99863 -3.52595e-11 0.052336
f 102/193/36 101/194/35 52/195/35 51/196/36 

vn -0.99863 3.52595e-11 -0.052336
f 103/73/37 102/74/36 51/191/36 50/192/37 

vn -0.987688 1.05392e-10 -0.156434
f 104/187/38 103/188/37 50/189/37 49/190/38 

vn -0.965926 1.7437e-10 -0.258819
f 105/183/39 104/184/38 49/185/38 48/186/39 

vn -0.93358 2.41438e-10 -0.358368
f 106/179/40 105/180/39 48/181/39 47/182/40 

vn -0.891007 3.0586e-10 -0.45399
f 107/175/41 106/176/40 47/177/40 46/178/41 

vn -0.838671 3.66932e-10 -0.544639
f 108/171/42 107/172/41 46/173/41 45/174/42 

vn -0.777146 4.23983e-10 -0.62932
f 109/167/43 108/168/42 45/169/42 44/170/43 

f 110/163/10 109/164/43 44/165/43 43/166/10 

vn -0.62932 5.23575e-10 -0.777146
f 111/147/44 110/148/10 43/149/10 42/150/44 

vn -0.544639 5.65025e-10 -0.838671
f 112/151/45 111/152/44 42/153/44 41/154/45 

vn -0.45399 6.00285e-10 -0.891007
f 113/155/46 112/156/45 41/157/45 40/158/46 

vn -0.358368 6.28968e-10 -0.93358
f 114/159/47 113/160/46 40/161/46 39/162/47 

vn -0.258819 6.50759e-10 -0.965926
f 115/85/48 114/86/47 39/87/47 38/88/48 

vt -0.358422 0
vn -0.156434 6.65421e-10 -0.987688
vt -0.410758 0
vt -0.410758 1
vt -0.358422 1
f 116/221/49 115/222/48 38/223/48 37/224/49 

vt -0.418219 0
vn -0.052336 6.72792e-10 -0.99863
vt -0.470555 0
vt -0.470555 1
vt -0.418219 1
f 117/225/50 116/226/49 37/227/49 36/228/50 

vn 0.052336 6.72792e-10 -0.99863
vt -0.525483 1
vt -0.473147 1
f 118/97/51 117/98/50 36/229/50 35/230/51 

vt -0.522604 0
vn 0.156434 6.65421e-10 -0.987688
vt -0.57494 0
vt -0.57494 1
vt -0.522604 1
f 119/231/52 118/232/51 35/233/51 34/234/52 

vt -0.566049 0
vn 0.258819 6.50759e-10 -0.965926
vt -0.618385 0
vt -0.618385 1
vt -0.566049 1
f 120/235/53 119/236/52 34/237/52 33/238/53 

vt -0.603005 0
vn 0.358368 6.28968e-10 -0.93358
vt -0.655341 0
vt -0.655341 1
vt -0.603005 1
f 121/239/54 120/240/53 33/241/53 32/242/54 

vt -0.633068 0
vn 0.45399 6.00285e-10 -0.891007
vt -0.685404 0
vt -0.685404 1
vt -0.633068 1
f 122/243/55 121/244/54 32/245/54 31/246/55 

vt -0.655909 0
vn 0.544639 5.65025e-10 -0.838671
vt -0.708245 0
vt -0.708245 1
vt -0.655909 1
f 123/247/56 122/248/55 31/249/55 30/250/56 

vt -0.671276 0
vn 0.62932 5.23575e-10 -0.777146
vt -0.723612 0
vt -0.723612 1
vt -0.671276 1
f 124/251/57 123/252/56 30/253/56 29/254/57 

vt -0.679002 0
vt -0.731338 0
vt -0.731338 1
vt -0.679002 1
f 125/255/2 124/256/57 29/257/57 28/258/2 

vn 0.777146 4.23983e-10 -0.62932
f 126/255/58 125/256/2 28/257/2 27/258/58 

vn 0.838671 3.66932e-10 -0.544639
f 127/251/59 126/252/58 27/253/58 26/254/59 

vn 0.891007 3.0586e-10 -0.45399
f 128/247/60 127/248/59 26/249/59 25/250/60 

vn 0.93358 2.41438e-10 -0.358368
f 129/243/61 128/244/60 25/245/60 24/246/61 

vn 0.965926 1.7437e-10 -0.258819
f 130/239/62 129/240/61 24/241/61 23/242/62 

vn 0.987688 1.05392e-10 -0.156434
f 131/235/63 130/236/62 23/237/62 22/238/63 

vn 0.99863 3.52595e-11 -0.052336
f 132/231/64 131/232/63 22/233/63 21/234/64 

vn 0.99863 -3.52595e-11 0.052336
f 133/97/65 132/98/64 21/229/64 20/230/65 

vn 0.987688 -1.05392e-10 0.156434
f 134/225/66 133/226/65 20/227/65 19/228/66 

f 78/221/12 134/222/66 19/223/66 18/224/12 

g Mesh4 P10_2 Group2 Group1 Model

v 5.46679 1 -30.9115
v 5.48296 1 -30.9613
v 5.49384 1 -31.0125
v 5.49931 1 -31.0645
v 5.49931 1 -31.1169
v 5.49384 1 -31.1689
v 5.48296 1 -31.2201
v 5.46679 1 -31.2699
v 5.4455 1 -31.3177
v 5.41934 1 -31.363
v 5.38857 1 -31.4053
v 5.35355 1 -31.4442
v 5.31466 1 -31.4793
v 5.27232 1 -31.51
v 5.227 1 -31.5362
v 5.17918 1 -31.5575
v 5.12941 1 -31.5737
v 5.07822 1 -31.5845
v 5.02617 1 -31.59
v 4.97383 1 -31.59
v 4.92178 1 -31.5845
v 4.87059 1 -31.5737
v 4.82082 1 -31.5575
v 4.773 1 -31.5362
v 4.72768 1 -31.51
v 4.68534 1 -31.4793
v 4.64645 1 -31.4442
v 4.61143 1 -31.4053
v 4.58066 1 -31.363
v 4.5545 1 -31.3177
v 4.53321 1 -31.2699
v 4.51704 1 -31.2201
v 4.50616 1 -31.1689
v 4.50069 1 -31.1169
v 4.50069 1 -31.0645
v 4.50616 1 -31.0125
v 4.51704 1 -30.9613
v 4.53321 1 -30.9115
v 4.5545 1 -30.8637
v 4.58066 1 -30.8184
v 4.61143 1 -30.776
v 4.64645 1 -30.7371
v 4.68534 1 -30.7021
v 4.72768 1 -30.6714
v 4.773 1 -30.6452
v 4.82082 1 -30.6239
v 4.87059 1 -30.6077
v 4.92178 1 -30.5968
v 4.97383 1 -30.5914
v 5.02617 1 -30.5914
v 5.07822 1 -30.5968
v 5.12941 1 -30.6077
v 5.17918 1 -30.6239
v 5.227 1 -30.6452
v 5.27232 1 -30.6714
v 5.31466 1 -30.7021
v 5.35355 1 -30.7371
v 5.38857 1 -30.776
v 5.41934 1 -30.8184
v 5.4455 1 -30.8637
f 137/25/5 138/26/5 139/27/5 140/28/5 141/29/5 142/30/5 143/31/5 144/32/5 145/33/5 146/34/5 147/35/5 148/36/5 149/37/5 150/38/5 151/39/5 152/40/5 153/41/5 154/42/5 155/43/5 156/44/5 157/45/5 158/46/5 159/47/5 160/48/5 161/49/5 162/50/5 163/51/5 164/52/5 165/53/5 166/54/5 167/55/5 168/56/5 169/57/5 170/58/5 171/59/5 172/60/5 173/61/5 174/62/5 175/63/5 176/64/5 177/65/5 178/66/5 179/67/5 180/68/5 181/69/5 182/70/5 183/71/5 184/72/5 185/73/5 186/74/5 187/75/5 188/76/5 189/77/5 190/78/5 191/79/5 192/80/5 193/81/5 194/82/5 195/83/5 196/84/5 

v 5.46679 2.08256e-08 -30.9115
v 5.48296 2.08591e-08 -30.9613
f 197/85/11 198/86/12 138/87/12 137/88/11 

v 5.38857 2.07343e-08 -30.776
v 5.35355 2.07081e-08 -30.7371
v 5.31466 2.06845e-08 -30.7021
v 5.27232 2.06638e-08 -30.6714
v 5.227 2.06461e-08 -30.6452
v 5.17918 2.06318e-08 -30.6239
v 5.12941 2.06209e-08 -30.6077
v 5.07822 2.06136e-08 -30.5968
v 5.02617 2.06099e-08 -30.5914
v 4.97383 2.06099e-08 -30.5914
v 4.92178 2.06136e-08 -30.5968
v 4.87059 2.06209e-08 -30.6077
v 4.82082 2.06318e-08 -30.6239
v 4.773 2.06461e-08 -30.6452
v 4.72768 2.06638e-08 -30.6714
v 4.68534 2.06845e-08 -30.7021
v 4.64645 2.07081e-08 -30.7371
v 4.61143 2.07343e-08 -30.776
v 4.58066 2.07628e-08 -30.8184
v 4.5545 2.07933e-08 -30.8637
v 4.53321 2.08256e-08 -30.9115
v 4.51704 2.08591e-08 -30.9613
v 4.50616 2.08936e-08 -31.0125
v 4.50069 2.09286e-08 -31.0645
v 4.50069 2.09639e-08 -31.1169
v 4.50616 2.0999e-08 -31.1689
v 4.51704 2.10335e-08 -31.2201
v 4.53321 2.1067e-08 -31.2699
v 4.5545 2.10992e-08 -31.3177
v 4.58066 2.11297e-08 -31.363
v 4.61143 2.11583e-08 -31.4053
v 4.64645 2.11845e-08 -31.4442
v 4.68534 2.12081e-08 -31.4793
v 4.72768 2.12288e-08 -31.51
v 4.773 2.12464e-08 -31.5362
v 4.82082 2.12608e-08 -31.5575
v 4.87059 2.12717e-08 -31.5737
v 4.92178 2.1279e-08 -31.5845
v 4.97383 2.12827e-08 -31.59
v 5.02617 2.12827e-08 -31.59
v 5.07822 2.1279e-08 -31.5845
v 5.12941 2.12717e-08 -31.5737
v 5.17918 2.12608e-08 -31.5575
v 5.227 2.12464e-08 -31.5362
v 5.27232 2.12288e-08 -31.51
v 5.31466 2.12081e-08 -31.4793
v 5.35355 2.11845e-08 -31.4442
v 5.38857 2.11583e-08 -31.4053
v 5.41934 2.11297e-08 -31.363
v 5.4455 2.10992e-08 -31.3177
v 5.46679 2.1067e-08 -31.2699
v 5.48296 2.10335e-08 -31.2201
v 5.49384 2.0999e-08 -31.1689
v 5.49931 2.09639e-08 -31.1169
v 5.49931 2.09286e-08 -31.0645
v 5.49384 2.08936e-08 -31.0125
v 5.4455 2.07933e-08 -30.8637
v 5.41934 2.07628e-08 -30.8184
f 199/89/3 200/90/3 201/91/3 202/92/3 203/93/3 204/94/3 205/95/3 206/96/3 207/97/3 208/98/3 209/99/3 210/100/3 211/101/3 212/102/3 213/103/3 214/104/3 215/105/3 216/106/3 217/107/3 218/108/3 219/109/3 220/110/3 221/111/3 222/112/3 223/113/3 224/114/3 225/115/3 226/116/3 227/117/3 228/118/3 229/119/3 230/120/3 231/121/3 232/122/3 233/123/3 234/124/3 235/125/3 236/126/3 237/127/3 238/128/3 239/129/3 240/130/3 241/131/3 242/132/3 243/133/3 244/134/3 245/135/3 246/136/3 247/137/3 248/138/3 249/139/3 250/140/3 251/141/3 252/29/3 253/28/3 254/142/3 198/143/3 197/144/3 255/145/3 256/146/3 

f 200/147/6 199/148/13 194/149/13 193/150/6 

f 199/151/13 256/152/14 195/153/14 194/154/13 

f 256/155/14 255/156/15 196/157/15 195/158/14 

f 255/159/15 197/160/11 137/161/11 196/162/15 

f 201/163/16 200/164/6 193/165/6 192/166/16 

f 202/167/17 201/168/16 192/169/16 191/170/17 

f 203/171/18 202/172/17 191/173/17 190/174/18 

f 204/175/19 203/176/18 190/177/18 189/178/19 

f 205/179/20 204/180/19 189/181/19 188/182/20 

f 206/183/21 205/184/20 188/185/20 187/186/21 

f 207/187/22 206/188/21 187/189/21 186/190/22 

f 208/73/23 207/74/22 186/191/22 185/192/23 

f 209/193/24 208/194/23 185/195/23 184/196/24 

f 210/197/25 209/198/24 184/199/24 183/200/25 

f 211/201/26 210/202/25 183/203/25 182/204/26 

f 212/205/27 211/206/26 182/207/26 181/208/27 

f 213/209/28 212/210/27 181/211/27 180/212/28 

f 214/213/29 213/214/28 180/215/28 179/216/29 

f 215/217/8 214/218/29 179/219/29 178/220/8 

f 216/217/30 215/218/8 178/219/8 177/220/30 

f 217/213/31 216/214/30 177/215/30 176/216/31 

f 218/209/32 217/210/31 176/211/31 175/212/32 

f 219/205/33 218/206/32 175/207/32 174/208/33 

f 220/201/34 219/202/33 174/203/33 173/204/34 

f 221/197/35 220/198/34 173/199/34 172/200/35 

f 222/193/36 221/194/35 172/195/35 171/196/36 

f 223/73/37 222/74/36 171/191/36 170/192/37 

f 224/187/38 223/188/37 170/189/37 169/190/38 

f 225/183/39 224/184/38 169/185/38 168/186/39 

f 226/179/40 225/180/39 168/181/39 167/182/40 

f 227/175/41 226/176/40 167/177/40 166/178/41 

f 228/171/42 227/172/41 166/173/41 165/174/42 

f 229/167/43 228/168/42 165/169/42 164/170/43 

f 230/163/10 229/164/43 164/165/43 163/166/10 

f 231/147/44 230/148/10 163/149/10 162/150/44 

f 232/151/45 231/152/44 162/153/44 161/154/45 

f 233/155/46 232/156/45 161/157/45 160/158/46 

f 234/159/47 233/160/46 160/161/46 159/162/47 

f 235/85/48 234/86/47 159/87/47 158/88/48 

f 236/221/49 235/222/48 158/223/48 157/224/49 

f 237/225/50 236/226/49 157/227/49 156/228/50 

f 238/97/51 237/98/50 156/229/50 155/230/51 

f 239/231/52 238/232/51 155/233/51 154/234/52 

f 240/235/53 239/236/52 154/237/52 153/238/53 

f 241/239/54 240/240/53 153/241/53 152/242/54 

f 242/243/55 241/244/54 152/245/54 151/246/55 

f 243/247/56 242/248/55 151/249/55 150/250/56 

f 244/251/57 243/252/56 150/253/56 149/254/57 

f 245/255/2 244/256/57 149/257/57 148/258/2 

f 246/255/58 245/256/2 148/257/2 147/258/58 

f 247/251/59 246/252/58 147/253/58 146/254/59 

f 248/247/60 247/248/59 146/249/59 145/250/60 

f 249/243/61 248/244/60 145/245/60 144/246/61 

f 250/239/62 249/240/61 144/241/61 143/242/62 

f 251/235/63 250/236/62 143/237/62 142/238/63 

f 252/231/64 251/232/63 142/233/63 141/234/64 

f 253/97/65 252/98/64 141/229/64 140/230/65 

f 254/225/66 253/226/65 140/227/65 139/228/66 

f 198/221/12 254/222/66 139/223/66 138/224/12 

g Mesh5 P10_3 Group2 Group1 Model

v 37.4668 1 -4.82082
v 37.483 1 -4.87059
v 37.4938 1 -4.92178
v 37.4993 1 -4.97383
v 37.4993 1 -5.02617
v 37.4938 1 -5.07822
v 37.483 1 -5.12941
v 37.4668 1 -5.17918
v 37.4455 1 -5.227
v 37.4193 1 -5.27232
v 37.3886 1 -5.31466
v 37.3536 1 -5.35355
v 37.3147 1 -5.38857
v 37.2723 1 -5.41934
v 37.227 1 -5.4455
v 37.1792 1 -5.46679
v 37.1294 1 -5.48296
v 37.0782 1 -5.49384
v 37.0262 1 -5.49931
v 36.9738 1 -5.49931
v 36.9218 1 -5.49384
v 36.8706 1 -5.48296
v 36.8208 1 -5.46679
v 36.773 1 -5.4455
v 36.7277 1 -5.41934
v 36.6853 1 -5.38857
v 36.6464 1 -5.35355
v 36.6114 1 -5.31466
v 36.5807 1 -5.27232
v 36.5545 1 -5.227
v 36.5332 1 -5.17918
v 36.517 1 -5.12941
v 36.5062 1 -5.07822
v 36.5007 1 -5.02617
v 36.5007 1 -4.97383
v 36.5062 1 -4.92178
v 36.517 1 -4.87059
v 36.5332 1 -4.82082
v 36.5545 1 -4.773
v 36.5807 1 -4.72768
v 36.6114 1 -4.68534
v 36.6464 1 -4.64645
v 36.6853 1 -4.61143
v 36.7277 1 -4.58066
v 36.773 1 -4.5545
v 36.8208 1 -4.53321
v 36.8706 1 -4.51704
v 36.9218 1 -4.50616
v 36.9738 1 -4.50069
v 37.0262 1 -4.50069
v 37.0782 1 -4.50616
v 37.1294 1 -4.51704
v 37.1792 1 -4.53321
v 37.227 1 -4.5545
v 37.2723 1 -4.58066
v 37.3147 1 -4.61143
v 37.3536 1 -4.64645
v 37.3886 1 -4.68534
v 37.4193 1 -4.72768
v 37.4455 1 -4.773
f 257/25/5 258/26/5 259/27/5 260/28/5 261/29/5 262/30/5 263/31/5 264/32/5 265/33/5 266/34/5 267/35/5 268/36/5 269/37/5 270/38/5 271/39/5 272/40/5 273/41/5 274/42/5 275/43/5 276/44/5 277/45/5 278/46/5 279/47/5 280/48/5 281/49/5 282/50/5 283/51/5 284/52/5 285/53/5 286/54/5 287/55/5 288/56/5 289/57/5 290/58/5 291/59/5 292/60/5 293/61/5 294/62/5 295/63/5 296/64/5 297/65/5 298/66/5 299/67/5 300/68/5 301/69/5 302/70/5 303/71/5 304/72/5 305/73/5 306/74/5 307/75/5 308/76/5 309/77/5 310/78/5 311/79/5 312/80/5 313/81/5 314/82/5 315/83/5 316/84/5 

v 37.4668 3.24786e-09 -4.82082
v 37.483 3.28139e-09 -4.87059
f 317/85/11 318/86/12 258/87/12 257/88/11 

v 37.3886 3.15659e-09 -4.68534
v 37.3536 3.13038e-09 -4.64645
v 37.3147 3.10679e-09 -4.61143
v 37.2723 3.08606e-09 -4.58066
v 37.227 3.06843e-09 -4.5545
v 37.1792 3.05409e-09 -4.53321
v 37.1294 3.0432e-09 -4.51704
v 37.0782 3.03587e-09 -4.50616
v 37.0262 3.03218e-09 -4.50069
v 36.9738 3.03218e-09 -4.50069
v 36.9218 3.03587e-09 -4.50616
v 36.8706 3.0432e-09 -4.51704
v 36.8208 3.05409e-09 -4.53321
v 36.773 3.06843e-09 -4.5545
v 36.7277 3.08606e-09 -4.58066
v 36.6853 3.10679e-09 -4.61143
v 36.6464 3.13038e-09 -4.64645
v 36.6114 3.15659e-09 -4.68534
v 36.5807 3.18511e-09 -4.72768
v 36.5545 3.21565e-09 -4.773
v 36.5332 3.24786e-09 -4.82082
v 36.517 3.28139e-09 -4.87059
v 36.5062 3.31588e-09 -4.92178
v 36.5007 3.35095e-09 -4.97383
v 36.5007 3.38621e-09 -5.02617
v 36.5062 3.42127e-09 -5.07822
v 36.517 3.45576e-09 -5.12941
v 36.5332 3.4893e-09 -5.17918
v 36.5545 3.52151e-09 -5.227
v 36.5807 3.55204e-09 -5.27232
v 36.6114 3.58057e-09 -5.31466
v 36.6464 3.60677e-09 -5.35355
v 36.6853 3.63036e-09 -5.38857
v 36.7277 3.65109e-09 -5.41934
v 36.773 3.66872e-09 -5.4455
v 36.8208 3.68306e-09 -5.46679
v 36.8706 3.69396e-09 -5.48296
v 36.9218 3.70129e-09 -5.49384
v 36.9738 3.70497e-09 -5.49931
v 37.0262 3.70497e-09 -5.49931
v 37.0782 3.70129e-09 -5.49384
v 37.1294 3.69396e-09 -5.48296
v 37.1792 3.68306e-09 -5.46679
v 37.227 3.66872e-09 -5.4455
v 37.2723 3.65109e-09 -5.41934
v 37.3147 3.63036e-09 -5.38857
v 37.3536 3.60677e-09 -5.35355
v 37.3886 3.58057e-09 -5.31466
v 37.4193 3.55204e-09 -5.27232
v 37.4455 3.52151e-09 -5.227
v 37.4668 3.4893e-09 -5.17918
v 37.483 3.45576e-09 -5.12941
v 37.4938 3.42127e-09 -5.07822
v 37.4993 3.38621e-09 -5.02617
v 37.4993 3.35095e-09 -4.97383
v 37.4938 3.31588e-09 -4.92178
v 37.4455 3.21565e-09 -4.773
v 37.4193 3.18511e-09 -4.72768
f 319/89/3 320/90/3 321/91/3 322/92/3 323/93/3 324/94/3 325/95/3 326/96/3 327/97/3 328/98/3 329/99/3 330/100/3 331/101/3 332/102/3 333/103/3 334/104/3 335/105/3 336/106/3 337/107/3 338/108/3 339/109/3 340/110/3 341/111/3 342/112/3 343/113/3 344/114/3 345/115/3 346/116/3 347/117/3 348/118/3 349/119/3 350/120/3 351/121/3 352/122/3 353/123/3 354/124/3 355/125/3 356/126/3 357/127/3 358/128/3 359/129/3 360/130/3 361/131/3 362/132/3 363/133/3 364/134/3 365/135/3 366/136/3 367/137/3 368/138/3 369/139/3 370/140/3 371/141/3 372/29/3 373/28/3 374/142/3 318/143/3 317/144/3 375/145/3 376/146/3 

f 320/147/6 319/148/13 314/149/13 313/150/6 

f 319/151/13 376/152/14 315/153/14 314/154/13 

f 376/155/14 375/156/15 316/157/15 315/158/14 

f 375/159/15 317/160/11 257/161/11 316/162/15 

f 321/163/16 320/164/6 313/165/6 312/166/16 

f 322/167/17 321/168/16 312/169/16 311/170/17 

f 323/171/18 322/172/17 311/173/17 310/174/18 

f 324/175/19 323/176/18 310/177/18 309/178/19 

f 325/179/20 324/180/19 309/181/19 308/182/20 

f 326/183/21 325/184/20 308/185/20 307/186/21 

f 327/187/22 326/188/21 307/189/21 306/190/22 

f 328/73/23 327/74/22 306/191/22 305/192/23 

f 329/193/24 328/194/23 305/195/23 304/196/24 

f 330/197/25 329/198/24 304/199/24 303/200/25 

f 331/201/26 330/202/25 303/203/25 302/204/26 

f 332/205/27 331/206/26 302/207/26 301/208/27 

f 333/209/28 332/210/27 301/211/27 300/212/28 

f 334/213/29 333/214/28 300/215/28 299/216/29 

f 335/217/8 334/218/29 299/219/29 298/220/8 

f 336/217/30 335/218/8 298/219/8 297/220/30 

f 337/213/31 336/214/30 297/215/30 296/216/31 

f 338/209/32 337/210/31 296/211/31 295/212/32 

f 339/205/33 338/206/32 295/207/32 294/208/33 

f 340/201/34 339/202/33 294/203/33 293/204/34 

f 341/197/35 340/198/34 293/199/34 292/200/35 

f 342/193/36 341/194/35 292/195/35 291/196/36 

f 343/73/37 342/74/36 291/191/36 290/192/37 

f 344/187/38 343/188/37 290/189/37 289/190/38 

f 345/183/39 344/184/38 289/185/38 288/186/39 

f 346/179/40 345/180/39 288/181/39 287/182/40 

f 347/175/41 346/176/40 287/177/40 286/178/41 

f 348/171/42 347/172/41 286/173/41 285/174/42 

f 349/167/43 348/168/42 285/169/42 284/170/43 

f 350/163/10 349/164/43 284/165/43 283/166/10 

f 351/147/44 350/148/10 283/149/10 282/150/44 

f 352/151/45 351/152/44 282/153/44 281/154/45 

f 353/155/46 352/156/45 281/157/45 280/158/46 

f 354/159/47 353/160/46 280/161/46 279/162/47 

f 355/85/48 354/86/47 279/87/47 278/88/48 

f 356/221/49 355/222/48 278/223/48 277/224/49 

f 357/225/50 356/226/49 277/227/49 276/228/50 

f 358/97/51 357/98/50 276/229/50 275/230/51 

f 359/231/52 358/232/51 275/233/51 274/234/52 

f 360/235/53 359/236/52 274/237/52 273/238/53 

f 361/239/54 360/240/53 273/241/53 272/242/54 

f 362/243/55 361/244/54 272/245/54 271/246/55 

f 363/247/56 362/248/55 271/249/55 270/250/56 

f 364/251/57 363/252/56 270/253/56 269/254/57 

f 365/255/2 364/256/57 269/257/57 268/258/2 

f 366/255/58 365/256/2 268/257/2 267/258/58 

f 367/251/59 366/252/58 267/253/58 266/254/59 

f 368/247/60 367/248/59 266/249/59 265/250/60 

f 369/243/61 368/244/60 265/245/60 264/246/61 

f 370/239/62 369/240/61 264/241/61 263/242/62 

f 371/235/63 370/236/62 263/237/62 262/238/63 

f 372/231/64 371/232/63 262/233/63 261/234/64 

f 373/97/65 372/98/64 261/229/64 260/230/65 

f 374/225/66 373/226/65 260/227/65 259/228/66 

f 318/221/12 374/222/66 259/223/66 258/224/12 

g Mesh6 P10_4 Group2 Group1 Model

v 5.46679 1 -4.82082
v 5.48296 1 -4.87059
v 5.49384 1 -4.92178
v 5.49931 1 -4.97383
v 5.49931 1 -5.02617
v 5.49384 1 -5.07822
v 5.48296 1 -5.12941
v 5.46679 1 -5.17918
v 5.4455 1 -5.227
v 5.41934 1 -5.27232
v 5.38857 1 -5.31466
v 5.35355 1 -5.35355
v 5.31466 1 -5.38857
v 5.27232 1 -5.41934
v 5.227 1 -5.4455
v 5.17918 1 -5.46679
v 5.12941 1 -5.48296
v 5.07822 1 -5.49384
v 5.02617 1 -5.49931
v 4.97383 1 -5.49931
v 4.92178 1 -5.49384
v 4.87059 1 -5.48296
v 4.82082 1 -5.46679
v 4.773 1 -5.4455
v 4.72768 1 -5.41934
v 4.68534 1 -5.38857
v 4.64645 1 -5.35355
v 4.61143 1 -5.31466
v 4.58066 1 -5.27232
v 4.5545 1 -5.227
v 4.53321 1 -5.17918
v 4.51704 1 -5.12941
v 4.50616 1 -5.07822
v 4.50069 1 -5.02617
v 4.50069 1 -4.97383
v 4.50616 1 -4.92178
v 4.51704 1 -4.87059
v 4.53321 1 -4.82082
v 4.5545 1 -4.773
v 4.58066 1 -4.72768
v 4.61143 1 -4.68534
v 4.64645 1 -4.64645
v 4.68534 1 -4.61143
v 4.72768 1 -4.58066
v 4.773 1 -4.5545
v 4.82082 1 -4.53321
v 4.87059 1 -4.51704
v 4.92178 1 -4.50616
v 4.97383 1 -4.50069
v 5.02617 1 -4.50069
v 5.07822 1 -4.50616
v 5.12941 1 -4.51704
v 5.17918 1 -4.53321
v 5.227 1 -4.5545
v 5.27232 1 -4.58066
v 5.31466 1 -4.61143
v 5.35355 1 -4.64645
v 5.38857 1 -4.68534
v 5.41934 1 -4.72768
v 5.4455 1 -4.773
f 377/25/5 378/26/5 379/27/5 380/28/5 381/29/5 382/30/5 383/31/5 384/32/5 385/33/5 386/34/5 387/35/5 388/36/5 389/37/5 390/38/5 391/39/5 392/40/5 393/41/5 394/42/5 395/43/5 396/44/5 397/45/5 398/46/5 399/47/5 400/48/5 401/49/5 402/50/5 403/51/5 404/52/5 405/53/5 406/54/5 407/55/5 408/56/5 409/57/5 410/58/5 411/59/5 412/60/5 413/61/5 414/62/5 415/63/5 416/64/5 417/65/5 418/66/5 419/67/5 420/68/5 421/69/5 422/70/5 423/71/5 424/72/5 425/73/5 426/74/5 427/75/5 428/76/5 429/77/5 430/78/5 431/79/5 432/80/5 433/81/5 434/82/5 435/83/5 436/84/5 

v 5.46679 3.24786e-09 -4.82082
v 5.48296 3.28139e-09 -4.87059
f 437/85/11 438/86/12 378/87/12 377/88/11 

v 5.38857 3.15659e-09 -4.68534
v 5.35355 3.13038e-09 -4.64645
v 5.31466 3.10679e-09 -4.61143
v 5.27232 3.08606e-09 -4.58066
v 5.227 3.06843e-09 -4.5545
v 5.17918 3.05409e-09 -4.53321
v 5.12941 3.0432e-09 -4.51704
v 5.07822 3.03587e-09 -4.50616
v 5.02617 3.03218e-09 -4.50069
v 4.97383 3.03218e-09 -4.50069
v 4.92178 3.03587e-09 -4.50616
v 4.87059 3.0432e-09 -4.51704
v 4.82082 3.05409e-09 -4.53321
v 4.773 3.06843e-09 -4.5545
v 4.72768 3.08606e-09 -4.58066
v 4.68534 3.10679e-09 -4.61143
v 4.64645 3.13038e-09 -4.64645
v 4.61143 3.15659e-09 -4.68534
v 4.58066 3.18511e-09 -4.72768
v 4.5545 3.21565e-09 -4.773
v 4.53321 3.24786e-09 -4.82082
v 4.51704 3.28139e-09 -4.87059
v 4.50616 3.31588e-09 -4.92178
v 4.50069 3.35095e-09 -4.97383
v 4.50069 3.38621e-09 -5.02617
v 4.50616 3.42127e-09 -5.07822
v 4.51704 3.45576e-09 -5.12941
v 4.53321 3.4893e-09 -5.17918
v 4.5545 3.52151e-09 -5.227
v 4.58066 3.55204e-09 -5.27232
v 4.61143 3.58057e-09 -5.31466
v 4.64645 3.60677e-09 -5.35355
v 4.68534 3.63036e-09 -5.38857
v 4.72768 3.65109e-09 -5.41934
v 4.773 3.66872e-09 -5.4455
v 4.82082 3.68306e-09 -5.46679
v 4.87059 3.69396e-09 -5.48296
v 4.92178 3.70129e-09 -5.49384
v 4.97383 3.70497e-09 -5.49931
v 5.02617 3.70497e-09 -5.49931
v 5.07822 3.70129e-09 -5.49384
v 5.12941 3.69396e-09 -5.48296
v 5.17918 3.68306e-09 -5.46679
v 5.227 3.66872e-09 -5.4455
v 5.27232 3.65109e-09 -5.41934
v 5.31466 3.63036e-09 -5.38857
v 5.35355 3.60677e-09 -5.35355
v 5.38857 3.58057e-09 -5.31466
v 5.41934 3.55204e-09 -5.27232
v 5.4455 3.52151e-09 -5.227
v 5.46679 3.4893e-09 -5.17918
v 5.48296 3.45576e-09 -5.12941
v 5.49384 3.42127e-09 -5.07822
v 5.49931 3.38621e-09 -5.02617
v 5.49931 3.35095e-09 -4.97383
v 5.49384 3.31588e-09 -4.92178
v 5.4455 3.21565e-09 -4.773
v 5.41934 3.18511e-09 -4.72768
f 439/89/3 440/90/3 441/91/3 442/92/3 443/93/3 444/94/3 445/95/3 446/96/3 447/97/3 448/98/3 449/99/3 450/100/3 451/101/3 452/102/3 453/103/3 454/104/3 455/105/3 456/106/3 457/107/3 458/108/3 459/109/3 460/110/3 461/111/3 462/112/3 463/113/3 464/114/3 465/115/3 466/116/3 467/117/3 468/118/3 469/119/3 470/120/3 471/121/3 472/122/3 473/123/3 474/124/3 475/125/3 476/126/3 477/127/3 478/128/3 479/129/3 480/130/3 481/131/3 482/132/3 483/133/3 484/134/3 485/135/3 486/136/3 487/137/3 488/138/3 489/139/3 490/140/3 491/141/3 492/29/3 493/28/3 494/142/3 438/143/3 437/144/3 495/145/3 496/146/3 

f 440/147/6 439/148/13 434/149/13 433/150/6 

f 439/151/13 496/152/14 435/153/14 434/154/13 

f 496/155/14 495/156/15 436/157/15 435/158/14 

f 495/159/15 437/160/11 377/161/11 436/162/15 

f 441/163/16 440/164/6 433/165/6 432/166/16 

f 442/167/17 441/168/16 432/169/16 431/170/17 

f 443/171/18 442/172/17 431/173/17 430/174/18 

f 444/175/19 443/176/18 430/177/18 429/178/19 

f 445/179/20 444/180/19 429/181/19 428/182/20 

f 446/183/21 445/184/20 428/185/20 427/186/21 

f 447/187/22 446/188/21 427/189/21 426/190/22 

f 448/73/23 447/74/22 426/191/22 425/192/23 

f 449/193/24 448/194/23 425/195/23 424/196/24 

f 450/197/25 449/198/24 424/199/24 423/200/25 

f 451/201/26 450/202/25 423/203/25 422/204/26 

f 452/205/27 451/206/26 422/207/26 421/208/27 

f 453/209/28 452/210/27 421/211/27 420/212/28 

f 454/213/29 453/214/28 420/215/28 419/216/29 

f 455/217/8 454/218/29 419/219/29 418/220/8 

f 456/217/30 455/218/8 418/219/8 417/220/30 

f 457/213/31 456/214/30 417/215/30 416/216/31 

f 458/209/32 457/210/31 416/211/31 415/212/32 

f 459/205/33 458/206/32 415/207/32 414/208/33 

f 460/201/34 459/202/33 414/203/33 413/204/34 

f 461/197/35 460/198/34 413/199/34 412/200/35 

f 462/193/36 461/194/35 412/195/35 411/196/36 

f 463/73/37 462/74/36 411/191/36 410/192/37 

f 464/187/38 463/188/37 410/189/37 409/190/38 

f 465/183/39 464/184/38 409/185/38 408/186/39 

f 466/179/40 465/180/39 408/181/39 407/182/40 

f 467/175/41 466/176/40 407/177/40 406/178/41 

f 468/171/42 467/172/41 406/173/41 405/174/42 

f 469/167/43 468/168/42 405/169/42 404/170/43 

f 470/163/10 469/164/43 404/165/43 403/166/10 

f 471/147/44 470/148/10 403/149/10 402/150/44 

f 472/151/45 471/152/44 402/153/44 401/154/45 

f 473/155/46 472/156/45 401/157/45 400/158/46 

f 474/159/47 473/160/46 400/161/46 399/162/47 

f 475/85/48 474/86/47 399/87/47 398/88/48 

f 476/221/49 475/222/48 398/223/48 397/224/49 

f 477/225/50 476/226/49 397/227/49 396/228/50 

f 478/97/51 477/98/50 396/229/50 395/230/51 

f 479/231/52 478/232/51 395/233/51 394/234/52 

f 480/235/53 479/236/52 394/237/52 393/238/53 

f 481/239/54 480/240/53 393/241/53 392/242/54 

f 482/243/55 481/244/54 392/245/54 391/246/55 

f 483/247/56 482/248/55 391/249/55 390/250/56 

f 484/251/57 483/252/56 390/253/56 389/254/57 

f 485/255/2 484/256/57 389/257/57 388/258/2 

f 486/255/58 485/256/2 388/257/2 387/258/58 

f 487/251/59 486/252/58 387/253/58 386/254/59 

f 488/247/60 487/248/59 386/249/59 385/250/60 

f 489/243/61 488/244/60 385/245/60 384/246/61 

f 490/239/62 489/240/61 384/241/61 383/242/62 

f 491/235/63 490/236/62 383/237/62 382/238/63 

f 492/231/64 491/232/63 382/233/63 381/234/64 

f 493/97/65 492/98/64 381/229/64 380/230/65 

f 494/225/66 493/226/65 380/227/65 379/228/66 

f 438/221/12 494/222/66 379/223/66 378/224/12 

g Mesh7 P4_22_1 Group2 Group1 Model

v 4 3 -4
vt 46 2
v 38 3 -4
vt 12 2
v 36 3 -6
vt 14 0
v 6 3 -6
vt 44 0
f 497/259/5 498/260/5 499/261/5 500/262/5 

vt -12 2
vn 6.93889e-17 -6.73715e-10 1
vt -46 2
v 4 1 -4
vt -46 0
v 38 1 -4
vt -12 0
f 498/263/67 497/264/67 501/265/67 502/266/67 

v 6 1 -6
vt 31.1127 0
vt 33.9411 0
vt 33.9411 2
vt 31.1127 2
f 503/267/10 501/268/10 497/269/10 500/270/10 

vt -44 0
v 36 1 -6
vt -14 0
f 502/263/3 501/264/3 503/271/3 504/272/3 

vn -6.93889e-17 6.73715e-10 -1
vt 44 2
vt 14 2
f 503/262/68 500/273/68 499/274/68 504/261/68 

vt 7.07107 0
vt 9.89949 0
vt 9.89949 2
vt 7.07107 2
f 502/275/2 504/276/2 499/277/2 498/278/2 

g Mesh8 P3_31_1 Group2 Group1 Model

v 1 3 -6.5
vt 1 0
vn -1 -2.0899e-26 6.93889e-17
v 1 3 -5.5
vt 7.38731e-15 0
v 1 4 -5.5
vt 7.38731e-15 1
v 1 4 -6.5
vt 1 1
f 505/279/69 506/280/69 507/281/69 508/282/69 

v 41 3 -6.5
v 41 3 -5.5
vt -52 0
vt -52 1
f 509/20/3 510/266/3 506/283/3 505/284/3 

vt 0 0
v 41 4 -6.5
vt -1 1
v 41 4 -5.5
vt 0 1
f 510/285/9 509/16/9 511/286/9 512/287/9 

f 511/20/68 509/266/68 505/283/68 508/284/68 

vt 12 0
vt 52 1
vt 52 0
f 512/288/5 511/9/5 508/289/5 507/290/5 

f 510/288/67 512/9/67 507/289/67 506/290/67 

g Mesh9 P3_33_1 Group2 Group1 Model

v 1 3 -30.5
v 1 3 -29.5
v 1 4 -29.5
v 1 4 -30.5
f 513/279/7 514/285/7 515/287/7 516/282/7 

v 41 3 -30.5
v 41 3 -29.5
f 517/20/3 518/266/3 514/283/3 513/284/3 

v 41 4 -30.5
v 41 4 -29.5
f 518/285/9 517/16/9 519/286/9 520/287/9 

f 519/20/68 517/266/68 513/283/68 516/284/68 

f 520/288/5 519/9/5 516/289/5 515/290/5 

f 518/288/67 520/9/67 515/289/67 514/290/67 

g Mesh10 P4_23_1 Group2 Group1 Model

v 6 3 -30
v 36 3 -30
v 38 3 -32
v 4 3 -32
f 521/262/5 522/261/5 523/260/5 524/259/5 

v 36 1 -30
v 6 1 -30
f 525/261/67 522/274/67 521/273/67 526/262/67 

v 38 1 -32
f 523/278/6 522/277/6 525/276/6 527/275/6 

v 4 1 -32
f 525/272/3 526/271/3 528/264/3 527/263/3 

f 521/270/8 524/269/8 528/268/8 526/267/8 

f 527/266/68 528/265/68 524/264/68 523/263/68 

g Mesh11 P2_1 Group2 Group1 Model

v 7.05564e-15 4 2.69485e-09
v 5.36278e-15 4 -34
vt -35 1
v 5.36278e-15 3 -34
vt -35 0
v 7.05564e-15 3 2.02114e-09
f 529/286/69 530/291/69 531/292/69 532/16/69 

v 1 4 -1
vt 1 2
v 1 4 -33
vt 1 34
vt 1.05403e-33 35
vt 1.05403e-33 1
f 533/293/5 534/294/5 530/295/5 529/296/5 

v 1 3 -33
vt 34 0
vn 1 2.0899e-26 -6.93889e-17
vt 34 1
vt 2 1
v 1 3 -1
vt 2 0
f 535/297/70 534/298/70 533/299/70 536/300/70 

vt 23.3345 0
vt 24.7487 0
vt 24.7487 1
vt 23.3345 1
f 535/301/2 531/302/2 530/303/2 534/304/2 

vt 0 35
vt -1 34
f 532/287/3 531/305/3 535/306/3 536/13/3 

vt 0.707107 0
vt 2.12132 0
vt 2.12132 1
vt 0.707107 1
f 532/307/6 536/308/6 533/309/6 529/310/6 

g Mesh12 P1_21_1 Group2 Group1 Model

v 7.10543e-15 4 -34
vt -54 1
v 42 4 -34
v 42 3 -34
vt -12 3.55271e-15
v 7.10543e-15 3 -34
vt -54 3.55271e-15
f 537/311/68 538/20/68 539/312/68 540/313/68 

v 1 4 -33
vt 53 0
v 41 4 -33
vt 13 0
vt 54 1
f 541/314/5 542/315/5 538/9/5 537/316/5 

vt 53 1
v 1 3 -33
vt 53 3.55271e-15
v 41 3 -33
vt 13 3.55271e-15
vt 13 1
f 541/317/67 543/318/67 544/319/67 542/320/67 

vt 38.8909 3.55271e-15
vt 37.4767 3.55271e-15
vt 37.4767 1
vt 38.8909 1
f 540/321/8 543/322/8 541/323/8 537/324/8 

vt -13 0
vt -53 0
f 540/311/3 539/20/3 544/325/3 543/326/3 

vt 9.19239 3.55271e-15
vt 7.77817 3.55271e-15
vt 7.77817 1
vt 9.19239 1
f 544/327/6 539/328/6 538/329/6 542/330/6 

g Mesh13 P1_20_1 Group2 Group1 Model

v 7.10543e-15 3 2.02109e-09
v 42 3 2.02108e-09
v 42 4 2.6948e-09
v 7.10543e-15 4 2.6948e-09
f 545/313/67 546/312/67 547/20/67 548/311/67 

v 1 3 -1
v 41 3 -1
f 549/326/3 550/325/3 546/20/3 545/311/3 

v 41 4 -1
v 1 4 -1
f 551/320/68 550/319/68 549/318/68 552/317/68 

f 551/330/2 547/329/2 546/328/2 550/327/2 

f 548/316/5 547/9/5 551/315/5 552/314/5 

f 548/324/10 552/323/10 549/322/10 545/321/10 

g Mesh14 P2_2 Group2 Group1 Model

v 42 3 2.02108e-09
vn 1 -8.80156e-26 9.22737e-17
v 42 3 -34
v 42 4 -34
v 42 4 2.6948e-09
f 553/16/71 554/292/71 555/291/71 556/286/71 

v 41 3 -1
v 41 3 -33
f 557/13/3 558/306/3 554/305/3 553/287/3 

vn -1 8.80156e-26 -9.22737e-17
v 41 4 -1
v 41 4 -33
f 557/300/72 559/299/72 560/298/72 558/297/72 

f 556/310/8 559/309/8 557/308/8 553/307/8 

f 556/296/5 555/295/5 560/294/5 559/293/5 

f 560/304/10 555/303/10 554/302/10 558/301/10 

g Mesh15 P3_32_1 Group2 Group1 Model

v 1 3 -18.5
v 1 3 -17.5
v 1 4 -17.5
v 1 4 -18.5
f 561/279/69 562/280/69 563/281/69 564/282/69 

v 41 3 -18.5
v 41 3 -17.5
f 565/20/3 566/266/3 562/283/3 561/284/3 

v 41 4 -18.5
v 41 4 -17.5
f 566/285/9 565/16/9 567/286/9 568/287/9 

f 567/20/68 565/266/68 561/283/68 564/284/68 

f 568/288/5 567/9/5 564/289/5 563/290/5 

f 566/288/67 568/9/67 563/289/67 562/290/67 

g Mesh16 P9_1 Group2 Group1 Model

v 15.5 4 -5.78213e-06
v 14.5 4 -5.78213e-06
v 14.5 4 -34
v 15.5 4 -34
vt 0 34
f 569/285/3 570/16/3 571/306/3 572/331/3 

v 15.5 4.125 -5.78204e-06
vt 0 0.125
vn -7.26747e-17 -6.73715e-10 1
v 14.5 4.125 -5.78204e-06
vt 1 0.125
f 573/332/73 574/333/73 570/279/73 569/285/73 

v 15.5 4.125 -34
v 14.5 4.125 -34
f 574/279/5 573/285/5 575/331/5 576/294/5 

vt -34 0.125
vt -34 0
f 575/334/70 573/332/70 569/285/70 572/335/70 

vt -1 0.125
vt 4.83016e-15 0.125
vt 4.83016e-15 0
f 576/336/68 575/337/68 572/338/68 571/16/68 

vt 1.42064e-16 0.125
vt 34 0.125
vt 1.42064e-16 0
f 574/339/69 576/340/69 571/297/69 570/341/69 

g Mesh17 P9_2 Group2 Group1 Model

v 4 4 -1.1567e-05
v 3 4 -1.1567e-05
v 3 4 -34
v 4 4 -34
f 577/285/3 578/16/3 579/306/3 580/331/3 

v 4 4.125 -1.15669e-05
v 3 4.125 -1.15669e-05
f 581/332/73 582/333/73 578/279/73 577/285/73 

v 4 4.125 -34
v 3 4.125 -34
f 582/279/5 581/285/5 583/331/5 584/294/5 

f 583/334/70 581/332/70 577/285/70 580/335/70 

f 584/336/68 583/337/68 580/338/68 579/16/68 

f 582/339/69 584/340/69 579/297/69 578/341/69 

g Mesh18 P9_3 Group2 Group1 Model

v 27.5 4 -5.78213e-06
v 26.5 4 -5.78213e-06
v 26.5 4 -34
v 27.5 4 -34
f 585/285/3 586/16/3 587/306/3 588/331/3 

v 27.5 4.125 -5.78204e-06
v 26.5 4.125 -5.78204e-06
f 589/332/73 590/333/73 586/279/73 585/285/73 

v 27.5 4.125 -34
v 26.5 4.125 -34
f 590/279/5 589/285/5 591/331/5 592/294/5 

f 591/334/70 589/332/70 585/285/70 588/335/70 

f 592/336/68 591/337/68 588/338/68 587/16/68 

f 590/339/69 592/340/69 587/297/69 586/341/69 

g Mesh19 P9_4 Group2 Group1 Model

v 39 4 2.6948e-09
v 38 4 2.6948e-09
v 38 4 -34
v 39 4 -34
f 593/285/3 594/16/3 595/306/3 596/331/3 

v 39 4.125 2.77901e-09
v 38 4.125 2.77901e-09
f 597/332/73 598/333/73 594/279/73 593/285/73 

v 39 4.125 -34
v 38 4.125 -34
f 598/279/5 597/285/5 599/331/5 600/294/5 

f 599/334/70 597/332/70 593/285/70 596/335/70 

f 600/336/68 599/337/68 596/338/68 595/16/68 

f 598/339/69 600/340/69 595/297/69 594/341/69 

g Mesh20 Group3 Group1 Model

usemtl M00_Soft_Cloud1
v 42 4 2.6948e-09
vt -1.17594e-15 0
v 42 4 -34
v 42 16 -34
vt 34 12
v 42 16 1.07794e-08
vt -1.17594e-15 12
f 601/342/70 602/297/70 603/343/70 604/344/70 

vt -60 0
v 1.06581e-14 4 2.6948e-09
vt -18 0
v 1.06581e-14 4 -34
vt -18 34
vt -60 34
f 601/345/3 605/346/3 606/347/3 602/348/3 

vt 60 0
vt 60 12
v 1.06581e-14 16 1.07794e-08
vt 18 12
vt 18 0
f 601/349/67 604/350/67 607/351/67 605/352/67 

vt 60 34
v 1.06581e-14 16 -34
vt 18 34
f 603/353/5 608/354/5 607/352/5 604/349/5 

vt -18 12
vt -60 12
f 606/346/68 608/355/68 603/356/68 602/345/68 

vt 3.52782e-16 0
vt 3.52782e-16 12
vt -34 12
f 606/335/69 605/357/69 607/358/69 608/359/69 

