# Alias OBJ Model File
# Exported from SketchUp, (c) 2000-2012 Trimble Navigation Limited
# File units = inches

mtllib 28 Bravada coffee table 42 x 28.mtl

g Mesh1 Group2 Group1 Model

usemtl _Carrera_Marble_14
v 0 16 -28
vt 0 0.777778
vn 0 1 -0
v 0 16 -1.13687e-13
vt 0 0
v 42 16 -1.13687e-13
vt 1.16667 0
v 42 16 -28
vt 1.16667 0.777778
f 1/1/1 2/2/1 3/3/1 4/4/1 

v 0 15 -28
vt -0.777778 0
vn -1 0 -0
v 0 15 -1.13687e-13
vt 0 0.0277778
vt -0.777778 0.0277778
f 5/5/2 6/2/2 2/6/2 1/7/2 

vn 0 -1 -0
v 42 15 -28
vt -1.16667 0.777778
v 42 15 -1.13687e-13
vt -1.16667 0
f 6/2/3 5/1/3 7/8/3 8/9/3 

vn 0 0 -1
vt -1.16667 0.0277778
f 7/9/4 5/2/4 1/6/4 4/10/4 

vn 1 0 -0
vt 0.777778 0
vt 0.777778 0.0277778
f 8/2/5 7/11/5 4/12/5 3/6/5 

vn 0 0 1
vt 1.16667 0.0277778
f 6/2/6 8/3/6 3/13/6 2/6/6 

g Mesh2 Group4 Group3 Group1 Model

usemtl _Color_M06_4
v 40 13 -28
vt 2 3.55271e-15
vn 1 7.10543e-15 7.10543e-15
v 40 15 -28
vt 2 2
v 40 15 -26
vt 4.26326e-14 2
v 40 13 -26
vt 4.26326e-14 3.55271e-15
f 9/14/7 10/15/7 11/16/7 12/17/7 

vt -38 2
vn 7.10543e-15 0 -1
vt -38 2.73559e-13
v 2 13 -28
vt 1.42109e-14 0
v 2 15 -28
vt 1.42109e-14 2
f 10/18/8 9/19/8 13/20/8 14/21/8 

vn 7.10543e-15 -1 -0
vt -38 -2.27374e-13
v 2 13 -26
vt 0 2.27374e-13
vt 0 2
f 9/18/9 12/22/9 15/23/9 13/24/9 

vt 38 2.73559e-13
vn -7.10543e-15 -1.00974e-28 1
vt 38 2
v 2 15 -26
vt -1.61559e-27 2
vt -1.61559e-27 -2.29589e-41
f 12/25/10 11/26/10 16/27/10 15/28/10 

vt 38 -2.27374e-13
vn -7.10543e-15 1 -1.00974e-28
vt 1.42109e-14 2.27374e-13
f 11/29/11 10/26/11 14/21/11 16/30/11 

vt -2 2
vn -1 -7.10543e-15 -7.10543e-15
vt -2 1.00974e-28
vt -2.27374e-13 1.14794e-41
vt -2.27374e-13 2
f 14/31/12 13/32/12 15/33/12 16/34/12 

g Mesh3 Group5 Group3 Group1 Model

v 40 2.73559e-13 -15
v 40 2 -15
v 40 2 -13
vt 1.56319e-13 2
v 40 2.73559e-13 -13
vt 1.56319e-13 3.55271e-15
f 17/14/7 18/15/7 19/35/7 20/36/7 

v 2 0 -15
v 2 2 -15
f 18/18/8 17/19/8 21/20/8 22/21/8 

vt -38 -1.13687e-13
v 2 0 -13
vt 0 1.13687e-13
f 17/18/9 20/37/9 23/38/9 21/24/9 

v 2 2 -13
vt -8.07794e-28 2
vt -8.07794e-28 -1.14794e-41
f 20/25/10 19/26/10 24/39/10 23/40/10 

vt 38 -1.13687e-13
vt 1.42109e-14 1.13687e-13
f 19/41/11 18/26/11 22/21/11 24/42/11 

vt -1.13687e-13 5.73972e-42
vt -1.13687e-13 2
f 22/31/12 21/32/12 23/43/12 24/44/12 

g Mesh4 Group7 Group6 Group3 Group1 Model

v 42 15 -28
vt 2 15
vn 1 0 -1.42109e-14
v 42 13 -26
vt -4.03897e-28 13
v 42 2 -26
vt -4.03897e-28 2
v 42 0 -28
vt 2 0
f 25/45/13 26/46/13 27/47/13 28/48/13 

vt 2 9.19239
vn 1.00486e-14 0.707107 0.707107
vt 2 12.0208
v 40 15 -28
vt 2.84217e-14 12.0208
v 40 13 -26
vt 2.84217e-14 9.19239
f 26/49/14 25/50/14 29/51/14 30/52/14 

vt -2 15
vn -1.42109e-14 0 -1
vt -2 0
v 40 0 -28
vt -2.84217e-14 0
vt -2.84217e-14 15
f 25/53/15 28/54/15 31/55/15 29/56/15 

vt 2 -1.41421
vn 1.00486e-14 -0.707107 0.707107
vt 2 1.41421
v 40 2 -26
vt 2.84217e-14 1.41421
vt 2.84217e-14 -1.41421
f 28/57/16 27/58/16 32/59/16 31/60/16 

vn 1.42109e-14 0 1
vt 2 13
vt 2.84217e-14 13
vt 2.84217e-14 2
f 27/15/17 26/61/17 30/62/17 32/63/17 

vt 4.03897e-28 13
vn -1 0 1.42109e-14
vt 4.03897e-28 2
f 30/64/18 29/53/18 31/54/18 32/65/18 

g Mesh5 Group8 Group6 Group3 Group1 Model

v 40 2 -2
vt 0 2.82843
vn 0 0.707107 0.707107
v 40 0 -1.13687e-13
v 42 0 -1.13687e-13
v 42 2 -2
vt 2 2.82843
f 33/66/19 34/2/19 35/48/19 36/67/19 

v 40 2 -26
vt -26 2
v 40 0 -28
vt -28 0
f 33/31/2 37/68/2 38/69/2 34/2/2 

vt 0 26
vt 2 26
f 37/70/1 33/24/1 36/15/1 27/71/1 

vt 26 2
vn 1 -1.42109e-14 -0
vt 0 2.84217e-14
vt 28 2.84217e-14
f 27/72/20 36/15/20 35/73/20 28/74/20 

vt -2 28
vt 0 28
f 28/75/3 35/54/3 34/2/3 38/76/3 

vt 0 -19.799
vn 0 0.707107 -0.707107
vt 0 -16.9706
vt -2 -16.9706
vt -2 -19.799
f 38/77/21 37/78/21 27/79/21 28/80/21 

g Mesh6 Group9 Group6 Group3 Group1 Model

vt -2 2.82843
vn 1.00486e-14 -0.707107 -0.707107
vt -2 2.00972e-14
v 40 0 -1.42109e-13
vt 4.03897e-28 2.00972e-14
v 40 2 -2
vt 4.03897e-28 2.82843
f 36/81/22 35/82/22 39/83/22 40/84/22 

v 42 13 -2
vn 1 0 1.42109e-14
v 42 15 -1.13687e-13
vt 2.84217e-14 15
vt 2.84217e-14 0
f 41/61/23 42/85/23 35/86/23 36/15/23 

vt -2 10.6066
vn 1.00486e-14 0.707107 -0.707107
vt -2 7.77817
v 40 13 -2
vt 4.03897e-28 7.77817
v 40 15 -1.42109e-13
vt 4.03897e-28 10.6066
f 42/87/24 41/88/24 43/89/24 44/90/24 

vt -2 13
vn 1.42109e-14 0 -1
f 41/91/25 36/31/25 40/65/25 43/64/25 

vn -1 0 -1.42109e-14
f 44/56/26 43/91/26 40/31/26 39/55/26 

vn -1.42109e-14 0 1
vt -4.03897e-28 15
vt -4.03897e-28 0
f 35/48/27 42/45/27 44/92/27 39/93/27 

g Mesh7 Group10 Group6 Group3 Group1 Model

vt 28 2
vn 1 1.42109e-14 -0
vt 2 -2.84217e-14
vt 26 -2.84217e-14
f 25/94/28 42/24/28 41/95/28 26/96/28 

v 40 15 -1.13687e-13
vt 2 28
v 40 15 -28
f 45/2/1 42/48/1 25/97/1 46/76/1 

vt 0 1.41421
vn 0 -0.707107 0.707107
v 40 13 -2
vt 0 -1.41421
f 45/98/29 47/99/29 41/57/29 42/58/29 

vt -28 2
v 40 13 -26
vt -26 0
f 45/24/2 46/100/2 48/101/2 47/54/2 

vt 0 18.3848
vn 0 -0.707107 -0.707107
vt 0 21.2132
vt -2 21.2132
vt -2 18.3848
f 48/102/30 46/103/30 25/104/30 26/105/30 

vt -2 26
f 47/24/3 48/70/3 26/106/3 41/31/3 

g Mesh8 Group11 Group3 Group1 Model

v 40 13 -15
vt 2 -5.32907e-15
v 40 15 -15
v 40 15 -13
v 40 13 -13
vt 1.56319e-13 -5.32907e-15
f 49/107/7 50/15/7 51/35/7 52/108/7 

vt -38 2.64677e-13
v 2 13 -15
v 2 15 -15
f 50/18/8 49/109/8 53/20/8 54/21/8 

v 2 13 -13
f 49/18/9 52/37/9 55/38/9 53/24/9 

vt 38 2.64677e-13
v 2 15 -13
f 52/110/10 51/26/10 56/39/10 55/40/10 

f 51/41/11 50/26/11 54/21/11 56/42/11 

f 54/31/12 53/32/12 55/43/12 56/44/12 

g Mesh9 Group12 Group3 Group1 Model

v 40 13 -2
v 40 15 -2
v 40 15 1.13687e-13
v 40 13 1.13687e-13
f 57/14/7 58/15/7 59/35/7 60/36/7 

v 2 13 -2
v 2 15 -2
f 58/18/8 57/19/8 61/20/8 62/21/8 

v 2 13 -1.13687e-13
f 57/18/9 60/37/9 63/38/9 61/24/9 

v 2 15 -1.13687e-13
f 60/25/10 59/26/10 64/39/10 63/40/10 

f 59/41/11 58/26/11 62/21/11 64/42/11 

f 62/31/12 61/32/12 63/43/12 64/44/12 

g Mesh10 Group14 Group13 Group3 Group1 Model

v 2 15 -28
v 2 13 -26
v 2 2 -26
v 2 0 -28
f 65/45/13 66/46/13 67/47/13 68/48/13 

v 0 15 -28
v 2.84217e-14 13 -26
f 66/49/14 65/50/14 69/51/14 70/52/14 

v 0 0 -28
f 65/53/15 68/54/15 71/55/15 69/56/15 

v 2.84217e-14 2 -26
f 68/57/16 67/58/16 72/59/16 71/60/16 

f 67/15/17 66/61/17 70/62/17 72/63/17 

f 70/64/18 69/53/18 71/54/18 72/65/18 

g Mesh11 Group15 Group13 Group3 Group1 Model

v 0 2 -2
v 0 0 -0
v 2 0 -0
v 2 2 -2
f 73/66/19 74/2/19 75/48/19 76/67/19 

v 0 2 -26
v 0 0 -28
f 73/31/2 77/68/2 78/69/2 74/2/2 

f 77/70/1 73/24/1 76/15/1 67/71/1 

f 67/72/20 76/15/20 75/73/20 68/74/20 

f 68/75/3 75/54/3 74/2/3 78/76/3 

f 78/77/21 77/78/21 67/79/21 68/80/21 

g Mesh12 Group16 Group13 Group3 Group1 Model

v 0 0 -2.84217e-14
v 2.84217e-14 2 -2
f 76/81/22 75/82/22 79/83/22 80/84/22 

v 2 13 -2
v 2 15 -0
f 81/61/23 82/85/23 75/86/23 76/15/23 

v 2.84217e-14 13 -2
v 0 15 -2.84217e-14
f 82/87/24 81/88/24 83/89/24 84/90/24 

f 81/91/25 76/31/25 80/65/25 83/64/25 

f 84/56/26 83/91/26 80/31/26 79/55/26 

f 75/48/27 82/45/27 84/92/27 79/93/27 

g Mesh13 Group17 Group13 Group3 Group1 Model

f 65/94/28 82/24/28 81/95/28 66/96/28 

v 0 15 -0
v 0 15 -28
f 85/2/1 82/48/1 65/97/1 86/76/1 

v 0 13 -2
f 85/98/29 87/99/29 81/57/29 82/58/29 

v 0 13 -26
f 85/24/2 86/100/2 88/101/2 87/54/2 

f 88/102/30 86/103/30 65/104/30 66/105/30 

f 87/24/3 88/70/3 66/106/3 81/31/3 

