# Alias OBJ Model File
# Exported from SketchUp, (c) 2000-2012 Trimble Navigation Limited
# File units = inches

mtllib 29 BRAVADA side table 20 x 20.mtl

g Mesh1 Group2 Group1 Model

usemtl _Carrera_Marble_14
v 0 15 -0
vt 0 0
vn 0 -1 -0
v 0 15 -20
vt 0 0.555556
v 20 15 -20
vt -0.555556 0.555556
v 20 15 -0
vt -0.555556 0
f 1/1/1 2/2/1 3/3/1 4/4/1 

vn -1 0 -0
v 0 16 -0
vt 0 0.0277778
v 0 16 -20
vt -0.555556 0.0277778
f 2/4/2 1/1/2 5/5/2 6/6/2 

vn 0 0 1
vt 0.555556 0
v 20 16 -0
vt 0.555556 0.0277778
f 1/1/3 4/7/3 7/8/3 5/5/3 

vn 1 0 -0
v 20 16 -20
f 4/1/4 3/7/4 8/8/4 7/5/4 

vn 0 0 -1
f 3/4/5 2/1/5 6/5/5 8/6/5 

vn 0 1 -0
vt 0.555556 0.555556
f 6/2/6 5/1/6 7/7/6 8/9/6 

g Mesh2 Group4 Group3 Group1 Model

usemtl _Color_M06_4
v 18 1.1724e-13 -11
vt 2 3.55271e-15
vn 1 7.10543e-15 7.10543e-15
v 18 2 -11
vt 2 2
v 18 2 -9
vt 1.7053e-13 2
v 18 1.1724e-13 -9
vt 1.7053e-13 3.55271e-15
f 9/10/7 10/11/7 11/12/7 12/13/7 

vt -16 2
vn 7.10543e-15 0 -1
vt -16 1.1724e-13
v 2 0 -11
vt 1.42109e-14 0
v 2 2 -11
vt 1.42109e-14 2
f 10/14/8 9/15/8 13/16/8 14/17/8 

vn 7.10543e-15 -1 -0
vt -16 5.68434e-14
v 2 0 -9
vt 0 1.7053e-13
vt 0 2
f 9/14/9 12/18/9 15/19/9 13/20/9 

vt 16 1.1724e-13
vn -7.10543e-15 -1.00974e-28 1
vt 16 2
v 2 2 -9
vt -1.21169e-27 2
vt -1.21169e-27 -1.72192e-41
f 12/21/10 11/22/10 16/23/10 15/24/10 

vt 16 5.68434e-14
vn -7.10543e-15 1 -1.00974e-28
vt 1.42109e-14 1.7053e-13
f 11/25/11 10/22/11 14/17/11 16/26/11 

vt -2 2
vn -1 -7.10543e-15 -7.10543e-15
vt -2 1.00974e-28
vt -1.7053e-13 8.60958e-42
vt -1.7053e-13 2
f 14/27/12 13/28/12 15/29/12 16/30/12 

g Mesh3 Group6 Group5 Group3 Group1 Model

v 20 15 -20
vt 2 15
vn 1 0 -1.42109e-14
v 20 13 -18
vt -4.03897e-28 13
v 20 2 -18
vt -4.03897e-28 2
v 20 0 -20
vt 2 0
f 17/31/13 18/32/13 19/33/13 20/34/13 

vt 2 9.19239
vn 1.00486e-14 0.707107 0.707107
vt 2 12.0208
v 18 15 -20
vt 2.84217e-14 12.0208
v 18 13 -18
vt 2.84217e-14 9.19239
f 18/35/14 17/36/14 21/37/14 22/38/14 

vt -2 15
vn -1.42109e-14 0 -1
vt -2 0
v 18 0 -20
vt -2.84217e-14 0
vt -2.84217e-14 15
f 17/39/15 20/40/15 23/41/15 21/42/15 

vt 2 -1.41421
vn 1.00486e-14 -0.707107 0.707107
vt 2 1.41421
v 18 2 -18
vt 2.84217e-14 1.41421
vt 2.84217e-14 -1.41421
f 20/43/16 19/44/16 24/45/16 23/46/16 

vn 1.42109e-14 0 1
vt 2 13
vt 2.84217e-14 13
vt 2.84217e-14 2
f 19/11/17 18/47/17 22/48/17 24/49/17 

vt 4.03897e-28 13
vn -1 0 1.42109e-14
vt 4.03897e-28 2
f 22/50/18 21/39/18 23/40/18 24/51/18 

g Mesh4 Group7 Group5 Group3 Group1 Model

v 18 2 -2
vt 0 2.82843
vn 0 0.707107 0.707107
v 18 0 -0
v 20 0 -0
v 20 2 -2
vt 2 2.82843
f 25/52/19 26/1/19 27/34/19 28/53/19 

vn -1 4.68393e-15 1.59077e-16
v 18 2 -18
vt -18 2
v 18 2.84217e-14 -20
vt -20 2.84217e-14
f 25/27/20 29/54/20 30/55/20 26/1/20 

vt 2 18
vn 7.10543e-15 1 8.88178e-16
vt -1.42109e-14 18
vt -1.42109e-14 2
f 19/56/21 29/57/21 25/58/21 28/11/21 

vt -2 -11.3137
vn 1.00486e-14 0.707107 -0.707107
vt -2 -14.1421
vt 3.12639e-13 -14.1421
vt 2.55795e-13 -11.3137
f 19/59/22 20/60/22 30/61/22 29/62/22 

vt 0 2.84217e-14
vn 1 -1.42109e-14 -0
vt 20 2.84217e-14
vt 18 2
f 27/63/23 20/64/23 19/65/23 28/11/23 

vn -7.10543e-15 -1 -7.10543e-16
vt 2.84217e-14 20
vt -2 20
vt -2 1.00974e-29
f 26/1/24 30/66/24 20/67/24 27/68/24 

g Mesh5 Group8 Group5 Group3 Group1 Model

vt -2 2.82843
vn 1.00486e-14 -0.707107 -0.707107
vt -2 2.00972e-14
v 18 0 -2.84217e-14
vt 4.03897e-28 2.00972e-14
v 18 2 -2
vt 4.03897e-28 2.82843
f 28/69/25 27/70/25 31/71/25 32/72/25 

v 20 13 -2
vn 1 0 1.42109e-14
v 20 15 -0
vt 2.84217e-14 15
vt 2.84217e-14 0
f 33/47/26 34/73/26 27/74/26 28/11/26 

vt -2 10.6066
vt -2 7.77817
v 18 13 -2
vt 4.03897e-28 7.77817
v 18 15 -2.84217e-14
vt 4.03897e-28 10.6066
f 34/75/22 33/76/22 35/77/22 36/78/22 

vt -2 13
vn 1.42109e-14 0 -1
f 33/79/27 28/27/27 32/51/27 35/50/27 

vn -1 0 -1.42109e-14
f 36/42/28 35/79/28 32/27/28 31/41/28 

vn -1.42109e-14 0 1
vt -4.03897e-28 15
vt -4.03897e-28 0
f 27/34/29 34/31/29 36/80/29 31/81/29 

g Mesh6 Group9 Group5 Group3 Group1 Model

vt 2 -2.84217e-14
vn 1 1.42109e-14 -0
vt 18 -2.84217e-14
vt 20 2
f 33/82/30 18/83/30 17/84/30 34/20/30 

v 18 13 -2
vn 7.99361e-15 -1 9.99201e-16
v 18 13 -18
vt -2.84217e-14 18
vt -2 18
f 37/20/31 38/85/31 18/86/31 33/27/31 

v 18 15 -0
vn -1 -4.7723e-15 -1.06051e-16
v 18 15 -20
vt -20 2
vt -18 -3.19744e-14
vt -2 1.01222e-30
f 39/20/32 40/87/32 38/88/32 37/89/32 

vt 2 20
vn -7.99361e-15 1 -7.99361e-16
vt 1.59872e-14 20
vt 1.59872e-14 -1.59872e-15
vt 2 -1.59872e-15
f 17/90/33 40/91/33 39/92/33 34/93/33 

vt -2 15.5563
vn 1.13047e-14 -0.707107 -0.707107
vt -2 12.7279
vt 2.59348e-13 12.7279
vt 3.19744e-13 15.5563
f 17/94/34 18/95/34 38/96/34 40/97/34 

vt 0 1.41421
vn 0 -0.707107 0.707107
vt 0 -1.41421
f 39/98/35 37/99/35 33/43/35 34/44/35 

g Mesh7 Group10 Group3 Group1 Model

v 18 13 -20
v 18 15 -20
v 18 15 -18
v 18 13 -18
f 41/10/7 42/11/7 43/12/7 44/13/7 

v 2 13 -20
v 2 15 -20
f 42/14/8 41/15/8 45/16/8 46/17/8 

v 2 13 -18
f 41/14/9 44/18/9 47/19/9 45/20/9 

v 2 15 -18
f 44/21/10 43/22/10 48/23/10 47/24/10 

f 43/25/11 42/22/11 46/17/11 48/26/11 

f 46/27/12 45/28/12 47/29/12 48/30/12 

g Mesh8 Group11 Group3 Group1 Model

v 18 13 -2
v 18 15 -2
v 18 15 -8.52651e-14
v 18 13 -8.52651e-14
f 49/10/7 50/11/7 51/12/7 52/13/7 

v 2 13 -2
v 2 15 -2
f 50/14/8 49/15/8 53/16/8 54/17/8 

v 2 13 -1.98952e-13
f 49/14/9 52/18/9 55/19/9 53/20/9 

v 2 15 -1.98952e-13
f 52/21/10 51/22/10 56/23/10 55/24/10 

f 51/25/11 50/22/11 54/17/11 56/26/11 

f 54/27/12 53/28/12 55/29/12 56/30/12 

g Mesh9 Group13 Group12 Group3 Group1 Model

v 2 15 -20
v 2 13 -18
v 2 2 -18
v 2 0 -20
f 57/31/13 58/32/13 59/33/13 60/34/13 

v 0 15 -20
v 2.84217e-14 13 -18
f 58/35/14 57/36/14 61/37/14 62/38/14 

v 0 0 -20
f 57/39/15 60/40/15 63/41/15 61/42/15 

v 2.84217e-14 2 -18
f 60/43/16 59/44/16 64/45/16 63/46/16 

f 59/11/17 58/47/17 62/48/17 64/49/17 

f 62/50/18 61/39/18 63/40/18 64/51/18 

g Mesh10 Group14 Group12 Group3 Group1 Model

v 0 2 -2
v 0 0 -0
v 2 0 -0
v 2 2 -2
f 65/52/19 66/1/19 67/34/19 68/53/19 

vn -1 7.10543e-15 -6.93212e-16
v 0 -2.22045e-16 -20
vt -20 -2.22045e-16
f 65/27/36 64/54/36 69/100/36 66/1/36 

vn 2.66454e-15 1 -3.33067e-16
v 2 2 -18
vt 2.30926e-14 18
vt -5.32907e-15 2
f 68/11/37 70/56/37 64/101/37 65/102/37 

vt -8.48409e-16 1.8665e-14
vn 1 -9.3325e-15 -4.24205e-16
v 2 -1.08802e-14 -20
vt 20 7.78482e-15
f 67/103/38 71/104/38 70/65/38 68/11/38 

vt -5.91646e-31 20
vn -2.66454e-15 -1 2.77556e-16
vt -2 -1.47911e-30
f 69/105/39 71/67/39 67/106/39 66/1/39 

vt 3.66374e-14 -14.1421
vn 1.29533e-15 0.707107 -0.707107
vt 4.55191e-15 -11.3137
f 69/107/40 64/108/40 70/59/40 71/60/40 

g Mesh11 Group15 Group12 Group3 Group1 Model

v 0 0 -2.84217e-14
v 2.84217e-14 2 -2
f 68/69/25 67/70/25 72/71/25 73/72/25 

v 2 13 -2
v 2 15 -0
f 74/47/26 75/73/26 67/74/26 68/11/26 

v 2.84217e-14 13 -2
v 0 15 -2.84217e-14
f 75/75/22 74/76/22 76/77/22 77/78/22 

f 74/79/27 68/27/27 73/51/27 76/50/27 

f 77/42/28 76/79/28 73/27/28 72/41/28 

f 67/34/29 75/31/29 77/80/29 72/81/29 

g Mesh12 Group16 Group12 Group3 Group1 Model

vn 1 1.42109e-14 1.34224e-30
v 2 13 -18
vt 18 -1.77636e-14
v 2 15 -20
vt 2.68448e-30 2
f 74/82/41 78/109/41 79/84/41 75/110/41 

vn 2.66454e-15 -1 -3.33067e-16
v 0 13 -2
f 62/85/42 78/86/42 74/27/42 80/20/42 

vt 3.55271e-15 12.7279
vn 1.25607e-15 -0.707107 -0.707107
vt 3.55271e-14 15.5563
f 62/111/43 61/112/43 79/94/43 78/95/43 

v 0 15 -0
vn -1 -7.10543e-15 -6.93212e-16
vt -18 -1.13288e-28
vt -2 9.85114e-30
f 81/20/44 61/87/44 62/113/44 80/114/44 

vt 2 5.32907e-16
vn -2.66454e-15 1 2.66454e-16
vt 5.32907e-15 20
vt 5.32907e-15 5.32907e-16
f 75/115/45 79/90/45 61/116/45 81/117/45 

f 81/98/35 80/99/35 74/43/35 75/44/35 

