# Alias OBJ Model File
# Exported from SketchUp, (c) 2000-2012 Trimble Navigation Limited
# File units = inches

mtllib 30 OCEAN coffe table 56 x 28.mtl

g Mesh1 Group2 Group1 Model

usemtl _Carrera_Marble_14
v 56 16 -4.37002e-10
vt -0.777778 0.0196419
vn 0.707107 -0.707107 -5.51796e-12
v 55 15 -1
vt -0.75 -0.0196419
v 55 15 -27
vt -0.0277778 -0.0196419
v 56 16 -28
vt 0 0.0196419
f 1/1/1 2/2/1 3/3/1 4/4/1 

v 1.07794e-08 16 -0
vt -1.55556 0.569614
vn -4.70871e-10 -0.707107 0.707107
v 1 15 -1
vt -1.52778 0.53033
vt -0.0277778 0.53033
vt 0 0.569614
f 5/5/2 6/6/2 2/7/2 1/8/2 

v 1.05609e-08 16 -28
vt 0 1.11959
vn -0.707107 -0.707107 5.51796e-12
v 1 15 -27
vt 0.0277778 1.0803
vt 0.75 1.0803
vt 0.777778 1.11959
f 7/9/3 8/10/3 6/11/3 5/12/3 

vn -4.81907e-10 -0.707107 -0.707107
vt 0.0277778 -0.0196419
vt 1.52778 -0.0196419
vt 1.55556 0.0196419
f 4/4/4 3/13/4 8/14/4 7/15/4 

vt -1.52778 0.75
vn -6.73715e-10 -1 0
vt -1.52778 0.0277778
vt -0.0277778 0.0277778
vt -0.0277778 0.75
f 6/16/5 8/17/5 3/18/5 2/19/5 

vt 1.55556 0
vn 6.73715e-10 1 -0
vt 1.55556 0.777778
vt 0 0.777778
vt 0 0
f 7/20/6 5/21/6 1/22/6 4/23/6 

g Mesh2 Group4 Group3 Group1 Model

usemtl _Color_M06_4
v 50.5 -3.40226e-08 -21
vt 0 2
v 49 -3.30121e-08 -21
vt -1.5 2
v 49 -3.30121e-08 -22.5
vt -1.5 0.5
v 50.5 -3.40226e-08 -22.5
vt 0 0.5
f 9/24/5 10/25/5 11/26/5 12/27/5 

vt -1.5 0
vn 7.80358e-12 -5.25739e-21 1
v 50.5 15 -21
vt 0 15
v 49 15 -21
vt -1.5 15
f 10/28/7 9/23/7 13/29/7 14/30/7 

vt -2 0
vn 1 -6.73715e-10 -7.80358e-12
vt -0.5 0
v 50.5 15 -22.5
vt -0.5 15
vt -2 15
f 9/31/8 12/32/8 15/33/8 13/34/8 

vn -7.80358e-12 5.25739e-21 -1
vt 1.5 0
v 49 15 -22.5
vt 1.5 15
f 12/23/9 11/35/9 16/36/9 15/29/9 

vt 0.5 0
vn -1 6.73715e-10 7.80358e-12
vt 2 0
vt 2 15
vt 0.5 15
f 11/37/10 10/38/10 14/39/10 16/40/10 

vt 1.5 2
vt 1.5 0.5
f 14/41/6 13/24/6 15/27/6 16/42/6 

g Mesh3 Group5 Group3 Group1 Model

v 50.5 -3.40226e-08 -5.5
v 49 -3.30121e-08 -5.5
v 49 -3.30121e-08 -7
v 50.5 -3.40226e-08 -7
f 17/24/5 18/25/5 19/26/5 20/27/5 

v 50.5 15 -5.5
v 49 15 -5.5
f 18/28/7 17/23/7 21/29/7 22/30/7 

v 50.5 15 -7
f 17/31/8 20/32/8 23/33/8 21/34/8 

v 49 15 -7
f 20/23/9 19/35/9 24/36/9 23/29/9 

f 19/37/10 18/38/10 22/39/10 24/40/10 

f 22/41/6 21/24/6 23/27/6 24/42/6 

g Mesh4 Group6 Group3 Group1 Model

v 7 -4.716e-09 -21
v 5.5 -3.70543e-09 -21
v 5.5 -3.70543e-09 -22.5
v 7 -4.716e-09 -22.5
f 25/24/5 26/25/5 27/26/5 28/27/5 

v 7 15 -21
v 5.5 15 -21
f 26/28/7 25/23/7 29/29/7 30/30/7 

v 7 15 -22.5
f 25/31/8 28/32/8 31/33/8 29/34/8 

v 5.5 15 -22.5
f 28/23/9 27/35/9 32/36/9 31/29/9 

f 27/37/10 26/38/10 30/39/10 32/40/10 

f 30/41/6 29/24/6 31/27/6 32/42/6 

g Mesh5 Group7 Group3 Group1 Model

v 7 -4.71599e-09 -5.5
v 5.5 -3.70542e-09 -5.5
v 5.5 -3.70542e-09 -7
v 7 -4.71599e-09 -7
f 33/24/5 34/25/5 35/26/5 36/27/5 

v 7 15 -5.5
v 5.5 15 -5.5
f 34/28/7 33/23/7 37/29/7 38/30/7 

v 7 15 -7
f 33/31/8 36/32/8 39/33/8 37/34/8 

v 5.5 15 -7
f 36/23/9 35/35/9 40/36/9 39/29/9 

f 35/37/10 34/38/10 38/39/10 40/40/10 

f 38/41/6 37/24/6 39/27/6 40/42/6 

g Mesh6 Group9 Group8 Group3 Group1 Model

v 52 14.25 -24
v 4 14.25 -24
vt 48 1.77636e-15
v 4 15 -24
vt 48 0.75
v 52 15 -24
vt 0 0.75
f 41/23/9 42/43/9 43/44/9 44/45/9 

vt -48 -1.66251e-31
vn -6.73715e-10 -1 -3.40495e-16
v 50.5 14.25 -22.5
vt -1.5 1.5
v 5.5 14.25 -22.5
vt -46.5 1.5
f 42/46/11 41/23/11 45/47/11 46/48/11 

vt -2.12132 0
vn 0.707107 -4.76389e-10 0.707107
v 50.5 15 -22.5
vt -2.12132 0.75
f 45/49/12 41/23/12 44/45/12 47/50/12 

vt 48 0
v 5.5 15 -22.5
vt 46.5 1.5
vt 1.5 1.5
f 44/23/6 43/51/6 48/52/6 47/53/6 

vt -31.8198 0.75
vn -0.707107 4.76389e-10 0.707107
vt -33.9411 0.75
vt -33.9411 1.77636e-15
vt -31.8198 1.77636e-15
f 48/54/13 43/55/13 42/56/13 46/57/13 

vt -46.5 0.75
vt -46.5 1.77636e-15
vt -1.5 0.75
f 48/58/7 46/59/7 45/28/7 47/60/7 

g Mesh7 Group10 Group8 Group3 Group1 Model

v 52 14.25 -4
vt 0 1.5
vn -6.73715e-10 -1 6.81338e-16
v 4 14.25 -4
vt -48 1.5
v 5.5 14.25 -5.5
vt -46.5 -5.29995e-31
v 50.5 14.25 -5.5
vt -1.5 -1.70966e-32
f 49/61/14 50/62/14 51/63/14 52/64/14 

v 4 15 -4
vt -48 0.75
vt -48 1.77636e-15
v 52 15 -4
f 53/65/7 50/66/7 49/23/7 54/45/7 

vt 35.0018 0.75
vn -0.707107 4.76389e-10 -0.707107
v 5.5 15 -5.5
vt 32.8805 0.75
vt 32.8805 -2.0868e-26
vt 35.0018 1.77636e-15
f 53/67/15 55/68/15 51/69/15 50/70/15 

v 50.5 15 -5.5
vt 1.5 8.88178e-16
vn 6.73715e-10 1 -1.18424e-15
vt 46.5 8.88178e-16
vt 48 1.5
vt -2.76979e-17 1.5
f 56/71/16 55/72/16 53/73/16 54/74/16 

vt 46.5 0
vt 46.5 0.75
vt 1.5 0.75
f 52/35/9 51/75/9 55/76/9 56/77/9 

vt -1.06066 0
vn 0.707107 -4.76389e-10 -0.707107
vt 1.06066 0
vt 1.06066 0.75
vt -1.06066 0.75
f 49/78/17 52/79/17 56/80/17 54/81/17 

g Mesh8 Group11 Group8 Group3 Group1 Model

v 4 15 -24
vt 1.5 -2
vn 6.73715e-10 1 -7.05646e-17
v 4 15 -4
vt 1.5 18
vt -4.74511e-16 16.5
v 5.5 15 -22.5
vt -4.74511e-16 -0.5
f 57/82/18 58/83/18 55/84/18 59/85/18 

v 4 14.25 -4
vt 18 0
vt 18 0.75
vt -2 0.75
v 4 14.25 -24
f 60/86/10 58/87/10 57/88/10 61/31/10 

vt -13.7886 -3.70239e-28
v 5.5 14.25 -5.5
vt -11.6673 -3.70239e-28
vt -11.6673 0.75
vt -13.7886 0.75
f 60/89/12 62/90/12 55/91/12 58/92/12 

v 5.5 14.25 -22.5
vt 0 -0.5
vt 0 16.5
vt -1.5 18
vt -1.5 -2
f 63/93/5 62/94/5 60/95/5 61/96/5 

vt 0.5 0.75
vt -16.5 0.75
vt -16.5 0
f 59/97/8 55/98/8 62/99/8 63/37/8 

vt 0.353553 0
vt 2.47487 0
vt 2.47487 0.75
vt 0.353553 0.75
f 63/100/17 61/101/17 57/102/17 59/103/17 

g Mesh9 Group12 Group8 Group3 Group1 Model

vt 16.5 0.75
vt -0.5 0.75
v 50.5 14.25 -22.5
v 50.5 14.25 -5.5
vt 16.5 0
f 21/104/10 15/105/10 64/32/10 65/106/10 

vt 1.5 -0.5
vn 6.73715e-10 1 -4.46429e-17
vt 1.5 16.5
v 52 15 -4
vt -5.17714e-16 18
v 52 15 -24
vt -5.17714e-16 -2
f 15/107/19 21/108/19 66/109/19 67/110/19 

vt 10.6066 0
v 52 14.25 -4
vt 12.7279 0
vt 12.7279 0.75
vt 10.6066 0.75
f 65/111/13 68/112/13 66/113/13 21/114/13 

vt -1.5 16.5
vt -1.5 -0.5
v 52 14.25 -24
vt 0 -2
v 52 14.25 -7.5
vt 0 14.5
vt 0 18
f 65/115/5 64/116/5 69/117/5 70/118/5 68/119/5 

vt -1.41421 -2.24387e-29
vt 0.707107 -2.24387e-29
vt 0.707107 0.75
vt -1.41421 0.75
f 69/120/15 64/121/15 15/122/15 67/123/15 

vt 2 0.75
vt -18 0.75
vt -18 0
vt -14.5 0
f 69/38/8 67/124/8 66/125/8 68/126/8 70/127/8 

g Mesh10 Group14 Group13 Group3 Group1 Model

v 52 7.25 -24
v 4 7.25 -24
v 4 8 -24
v 52 8 -24
f 71/23/9 72/43/9 73/44/9 74/45/9 

v 50.5 7.25 -22.5
v 5.5 7.25 -22.5
f 72/46/11 71/23/11 75/47/11 76/48/11 

v 50.5 8 -22.5
f 75/49/12 71/23/12 74/45/12 77/50/12 

v 5.5 8 -22.5
f 74/23/6 73/51/6 78/52/6 77/53/6 

f 78/54/13 73/55/13 72/56/13 76/57/13 

f 78/58/7 76/59/7 75/28/7 77/60/7 

g Mesh11 Group15 Group13 Group3 Group1 Model

v 52 7.25 -4
v 4 7.25 -4
v 5.5 7.25 -5.5
v 50.5 7.25 -5.5
f 79/61/14 80/62/14 81/63/14 82/64/14 

v 4 8 -4
v 52 8 -4
f 83/65/7 80/66/7 79/23/7 84/45/7 

v 5.5 8 -5.5
f 83/67/15 85/68/15 81/69/15 80/70/15 

v 50.5 8 -5.5
f 86/71/16 85/72/16 83/73/16 84/74/16 

f 82/35/9 81/75/9 85/76/9 86/77/9 

f 79/78/17 82/79/17 86/80/17 84/81/17 

g Mesh12 Group16 Group13 Group3 Group1 Model

v 4 8 -24
v 4 8 -4
v 5.5 8 -22.5
f 87/82/18 88/83/18 85/84/18 89/85/18 

v 4 7.25 -4
v 4 7.25 -24
f 90/86/10 88/87/10 87/88/10 91/31/10 

v 5.5 7.25 -5.5
f 90/89/12 92/90/12 85/91/12 88/92/12 

v 5.5 7.25 -22.5
f 93/93/5 92/94/5 90/95/5 91/96/5 

f 89/97/8 85/98/8 92/99/8 93/37/8 

f 93/100/17 91/101/17 87/102/17 89/103/17 

g Mesh13 Group17 Group13 Group3 Group1 Model

v 50.5 8 -5.5
v 50.5 8 -22.5
v 50.5 7.25 -22.5
v 50.5 7.25 -5.5
f 94/104/10 95/105/10 96/32/10 97/106/10 

v 52 8 -4
v 52 8 -24
f 95/107/19 94/108/19 98/109/19 99/110/19 

v 52 7.25 -4
f 97/111/13 100/112/13 98/113/13 94/114/13 

v 52 7.25 -24
v 52 7.25 -7.5
f 97/115/5 96/116/5 101/117/5 102/118/5 100/119/5 

f 101/120/15 96/121/15 95/122/15 99/123/15 

f 101/38/8 99/124/8 98/125/8 100/126/8 102/127/8 

g Mesh14 Group19 Group18 Group3 Group1 Model

v 52 -3.50332e-08 -24
v 4 -2.69485e-09 -24
v 4 0.75 -24
v 52 0.75 -24
f 103/23/9 104/43/9 105/44/9 106/45/9 

v 50.5 -3.40226e-08 -22.5
v 5.5 -3.70542e-09 -22.5
f 104/46/11 103/23/11 107/47/11 108/48/11 

v 50.5 0.75 -22.5
f 107/49/12 103/23/12 106/45/12 109/50/12 

v 5.5 0.75 -22.5
f 106/23/6 105/51/6 110/52/6 109/53/6 

f 110/54/13 105/55/13 104/56/13 108/57/13 

f 110/58/7 108/59/7 107/28/7 109/60/7 

g Mesh15 Group20 Group18 Group3 Group1 Model

v 52 -3.50332e-08 -4
v 4 -2.69485e-09 -4
v 5.5 -3.70542e-09 -5.5
v 50.5 -3.40226e-08 -5.5
f 111/61/14 112/62/14 113/63/14 114/64/14 

v 4 0.75 -4
v 52 0.75 -4
f 115/65/7 112/66/7 111/23/7 116/45/7 

v 5.5 0.75 -5.5
f 115/67/15 117/68/15 113/69/15 112/70/15 

v 50.5 0.75 -5.5
f 118/71/16 117/72/16 115/73/16 116/74/16 

f 114/35/9 113/75/9 117/76/9 118/77/9 

f 111/78/17 114/79/17 118/80/17 116/81/17 

g Mesh16 Group21 Group18 Group3 Group1 Model

v 4 0.75 -24
v 4 0.75 -4
v 5.5 0.75 -5.5
v 5.5 0.75 -22.5
f 119/82/18 120/83/18 121/84/18 122/85/18 

v 4 -2.69485e-09 -4
v 4 -2.69485e-09 -24
f 123/86/10 120/87/10 119/88/10 124/31/10 

v 5.5 -3.70542e-09 -5.5
f 123/89/12 125/90/12 121/91/12 120/92/12 

v 5.5 -3.70542e-09 -22.5
f 126/93/5 125/94/5 123/95/5 124/96/5 

f 122/97/8 121/98/8 125/99/8 126/37/8 

f 126/100/17 124/101/17 119/102/17 122/103/17 

g Mesh17 Group22 Group18 Group3 Group1 Model

v 50.5 0.75 -22.5
f 118/104/10 127/105/10 107/32/10 114/106/10 

v 52 0.75 -4
v 52 0.75 -24
f 127/107/19 118/108/19 128/109/19 129/110/19 

v 52 -3.50332e-08 -4
f 114/111/13 130/112/13 128/113/13 118/114/13 

v 52 -3.50332e-08 -24
v 52 -3.50332e-08 -7.5
f 114/115/5 107/116/5 131/117/5 132/118/5 130/119/5 

f 131/120/15 107/121/15 127/122/15 129/123/15 

f 131/38/8 129/124/8 128/125/8 130/126/8 132/127/8 

