# Alias OBJ Model File
# Exported from SketchUp, (c) 2000-2012 Trimble Navigation Limited
# File units = inches

mtllib 31 Fly table 34 x 12.mtl

g Mesh1 Group2 Group1 Model

usemtl _Carrera_Marble_14
v 29.9875 2 -9.9875
vt 7.975 0
vn 0 1 -0
v 2.0125 2 -9.9875
vt 7.975 27.975
v 2.0125 2 -2.0125
vt 0 27.975
v 29.9875 2 -2.0125
vt 0 0
f 1/1/1 2/2/1 3/3/1 4/4/1 

vt 27.975 1
vn 8.32667e-17 0 -1
vt 0 1
v 29.9875 1 -9.9875
v 2.0125 1 -9.9875
vt 27.975 0
f 2/5/2 1/6/2 5/4/2 6/7/2 

vt 7.975 1
vn 1 0 8.32667e-17
v 29.9875 1 -2.0125
f 1/8/3 4/6/3 7/4/3 5/1/3 

vn -8.32667e-17 0 1
vt -27.975 1
v 2.0125 1 -2.0125
vt -27.975 0
f 4/6/4 3/9/4 8/10/4 7/4/4 

vn -1 0 -8.32667e-17
vt -7.975 1
vt -7.975 0
f 3/6/5 2/11/5 6/12/5 8/4/5 

vn 0 -1 -0
vt -7.975 27.975
f 5/12/6 7/4/6 8/3/6 6/13/6 

g Mesh2 Group5 Group4 Group3 Group1 Model

usemtl _Color_M05_4
v 32 0 -12
v -1.42109e-14 0 -12
vt 32 0
v -1.42109e-14 2 -12
vt 32 2
v 32 2 -12
vt 0 2
f 9/4/2 10/14/2 11/15/2 12/16/2 

vt -2 32
vt -2 0
v 30 0 -10
v 2 0 -10
vt 0 30
f 10/17/6 9/18/6 13/16/6 14/19/6 

vt -1.41421 0
vn 0.707107 0 0.707107
vt 1.41421 0
vt 1.41421 2
v 30 2 -10
vt -1.41421 2
f 13/20/7 9/21/7 12/22/7 15/23/7 

vt 2 0
vt 2 32
v 2 2 -10
f 12/24/1 11/25/1 16/19/1 15/16/1 

vt -24.0416 0
vn -0.707107 0 0.707107
vt -21.2132 0
vt -21.2132 2
vt -24.0416 2
f 10/26/8 14/27/8 16/28/8 11/29/8 

vt -30 0
vt -2 2
vt -30 2
f 14/30/4 13/18/4 15/31/4 16/32/4 

g Mesh3 Group6 Group4 Group3 Group1 Model

v -1.33227e-14 0 -12
vt -12 2
v 2 0 -10
vt -10 0
v 2 0 -2
v -1.42109e-14 0 8.88178e-16
f 17/33/6 18/34/6 19/18/6 20/16/6 

vt 7.07107 0
vn 0.707107 0 -0.707107
vt 9.89949 0
v -1.33227e-14 2 -12
vt 9.89949 2
v 2 2 -10
vt 7.07107 2
f 18/35/9 17/36/9 21/37/9 22/38/9 

vt -12 0
v -1.42109e-14 2 8.88178e-16
f 17/39/5 20/4/5 23/16/5 21/33/5 

v 2 2 -2
f 20/20/7 19/21/7 24/22/7 23/23/7 

vt 10 0
vt 10 2
vt 2 2
f 19/24/3 18/40/3 22/41/3 24/42/3 

vt 12 2
f 22/40/1 21/43/1 23/16/1 24/24/1 

g Mesh4 Group7 Group4 Group3 Group1 Model

v 30 2 -2
v 32 2 3.55271e-15
vt 12 0
f 25/42/1 26/4/1 12/44/1 15/41/1 

v 30 0 -2
vt -2.82843 0
v 32 0 3.55271e-15
vt -2.82843 2
f 27/45/8 28/4/8 26/16/8 25/46/8 

vt -10 2
f 28/4/6 27/31/6 13/47/6 9/39/6 

f 13/34/5 27/18/5 25/31/5 15/47/5 

vt -8.48528 0
vn -0.707107 0 -0.707107
vt -5.65685 0
vt -5.65685 2
vt -8.48528 2
f 9/48/10 13/49/10 15/50/10 12/51/10 

f 28/4/3 9/44/3 12/43/3 26/16/3 

g Mesh5 Group8 Group4 Group3 Group1 Model

vt 2 30
vt 0 32
f 25/42/1 24/52/1 23/53/1 26/4/1 

vt 30 0
vt 30 2
f 27/24/2 19/54/2 24/55/2 25/42/2 

vt -2 30
f 19/56/6 27/31/6 28/4/6 20/53/6 

vt 2.82843 0
vt 2.82843 2
f 28/4/9 27/57/9 25/58/9 26/16/9 

vt -32 0
vt -32 2
f 20/59/4 28/4/4 26/16/4 23/60/4 

vt 19.799 0
vt 22.6274 0
vt 22.6274 2
vt 19.799 2
f 19/61/10 20/62/10 23/63/10 24/64/10 

g Mesh6 Group10 Group9 Group3 Group1 Model

v 5.5 0.675 -10
v 4.5 0.675 -10
vt 1 0
v 4.5 1 -10
vt 1 0.325
v 5.5 1 -10
vt 0 0.325
f 29/4/2 30/65/2 31/66/2 32/67/2 

vt -8 1
vt -8 0
v 5.5 0.675 -2
v 4.5 0.675 -2
f 30/68/6 29/69/6 33/4/6 34/6/6 

vt 8 0
vt 8 0.325
v 5.5 1 -2
f 29/70/3 32/71/3 35/67/3 33/4/3 

vt 8 1
v 4.5 1 -2
f 32/70/1 31/72/1 36/6/1 35/4/1 

vt -8 0.325
f 31/73/5 30/69/5 34/4/5 36/67/5 

vt -1 0
vt -1 0.325
f 34/74/4 33/4/4 35/67/4 36/75/4 

g Mesh7 Group11 Group9 Group3 Group1 Model

v 16.5 0.675 -10
v 15.5 0.675 -10
v 15.5 1 -10
v 16.5 1 -10
f 37/4/2 38/65/2 39/66/2 40/67/2 

v 16.5 0.675 -2
v 15.5 0.675 -2
f 38/68/6 37/69/6 41/4/6 42/6/6 

v 16.5 1 -2
f 37/70/3 40/71/3 43/67/3 41/4/3 

v 15.5 1 -2
f 40/70/1 39/72/1 44/6/1 43/4/1 

f 39/73/5 38/69/5 42/4/5 44/67/5 

f 42/74/4 41/4/4 43/67/4 44/75/4 

g Mesh8 Group12 Group9 Group3 Group1 Model

v 27.4838 0.675 -10
v 26.4838 0.675 -10
v 26.4838 1 -10
v 27.4838 1 -10
f 45/4/2 46/65/2 47/66/2 48/67/2 

v 27.4838 0.675 -2
v 26.4838 0.675 -2
f 46/68/6 45/69/6 49/4/6 50/6/6 

v 27.4838 1 -2
f 45/70/3 48/71/3 51/67/3 49/4/3 

v 26.4838 1 -2
f 48/70/1 47/72/1 52/6/1 51/4/1 

f 47/73/5 46/69/5 50/4/5 52/67/5 

f 50/74/4 49/4/4 51/67/4 52/75/4 

g Mesh9 Group14 Group13 Group3 Group1 Model

v 27.4838 0 -14.25
vt -4.25 0
v 27.4838 0 -14
vt -4 0
v 26.7338 0 -14
vt -4 0.75
v 26.7338 0 -14.25
vt -4.25 0.75
f 53/76/6 54/77/6 55/78/6 56/79/6 

v 27.4838 2 -10
v 27.4838 2 -14
vt 4 2
vt 4 0
vt 4.25 0
v 27.4838 2.25 -14.25
vt 4.25 2.25
v 27.4838 2.25 -10
vt 0 2.25
f 57/16/3 58/80/3 54/81/3 53/82/3 59/83/3 60/84/3 

v 26.7338 2 -10
vt 0 0.75
v 26.7338 2 -14
f 61/85/6 62/78/6 58/77/6 57/4/6 

vt -4 2
v 26.7338 2.25 -10
v 26.7338 2.25 -14.25
vt -4.25 2.25
f 62/86/5 61/16/5 63/84/5 64/87/5 56/76/5 55/77/5 

vt -0.75 2
vt -0.75 2.25
f 61/88/4 57/16/4 60/84/4 63/89/4 

vt 4.25 0.75
f 63/85/1 60/4/1 59/82/1 64/90/1 

vt 0.75 0
vt 0.75 2.25
f 59/84/2 53/4/2 56/91/2 64/92/2 

vt -0.75 0
f 58/16/4 62/88/4 55/93/4 54/4/4 

g Mesh10 Group15 Group13 Group3 Group1 Model

v 5.25 0 -14.25
v 5.25 0 -14
v 4.5 0 -14
v 4.5 0 -14.25
f 65/76/6 66/77/6 67/78/6 68/79/6 

v 5.25 2 -10
v 5.25 2 -14
v 5.25 2.25 -14.25
v 5.25 2.25 -10
f 69/16/3 70/80/3 66/81/3 65/82/3 71/83/3 72/84/3 

v 4.5 2 -10
v 4.5 2 -14
f 73/85/6 74/78/6 70/77/6 69/4/6 

v 4.5 2.25 -10
v 4.5 2.25 -14.25
f 74/86/5 73/16/5 75/84/5 76/87/5 68/76/5 67/77/5 

f 73/88/4 69/16/4 72/84/4 75/89/4 

f 75/85/1 72/4/1 71/82/1 76/90/1 

f 71/84/2 65/4/2 68/91/2 76/92/2 

f 70/16/4 74/88/4 67/93/4 66/4/4 

