# Alias OBJ Model File
# Exported from SketchUp, (c) 2000-2012 Trimble Navigation Limited
# File units = inches

mtllib 32 Triangle side table 32 x 32.mtl

g Mesh1 Group4 Group3 Group2 Group1 Model

usemtl _Color_M05_4
v 32 14 -2.82843
vt -29.1716 32
vn -6.73715e-10 -1 -0
v 32 14 -5.95787e-09
vt -32 32
v 3.87861e-08 14 -32
vt 0 0
v 2.82843 14 -32
vt 0 2.82843
f 1/1/1 2/2/1 3/3/1 4/4/1 

vt -32 0
vn 1 -6.73715e-10 -8.03128e-12
vt -29.1716 0
v 32 17 -2.82843
vt -29.1716 3
v 32 17 -5.95787e-09
vt -32 3
f 2/5/2 1/6/2 5/7/2 6/8/2 

vt -43.2548 0
vn 0.707107 -4.76389e-10 -0.707107
vt -2 0
v 2.82843 17 -32
vt -2 3
vt -43.2548 3
f 1/9/3 4/10/3 7/11/3 5/12/3 

vt -2.82843 0
vn -8.03128e-12 5.4108e-21 -1
v 4.08073e-08 17 -32
vt 0 3
vt -2.82843 3
f 4/13/4 3/3/4 8/14/4 7/15/4 

vn -0.707107 4.76389e-10 0.707107
vt 45.2548 0
vt 45.2548 3
f 3/3/5 2/16/5 6/17/5 8/14/5 

vt 32 32
vn 6.73715e-10 1 -0
vt 29.1716 32
f 6/18/6 5/19/6 7/4/6 8/3/6 

g Mesh2 Group5 Group3 Group2 Group1 Model

v 32 14 -32
vt 2 2
vn -6.73715e-10 -1 -3.43606e-18
v 32 14 -29
vt -1 2
v 32 14 -2.82843
vt -27.1716 2
v 30 14 -4.82843
vt -25.1716 -3.96881e-34
v 30 14 -30
f 9/20/7 10/21/7 11/22/7 12/23/7 13/3/7 

vt -27.1716 3
vt -27.1716 -2.22045e-16
vt -1 0
vt 2 0
v 32 17 -32
vt 2 3
f 5/24/2 11/25/2 10/26/2 9/27/2 14/28/2 

vt 20.6274 3
v 30 17 -4.82843
vt 17.799 3
vt 17.799 -2.22045e-16
vt 20.6274 -2.22045e-16
f 5/29/5 15/30/5 12/31/5 11/32/5 

v 30 17 -30
vt 25.1716 0
vt 27.1716 2
vt -2 2
f 16/3/6 15/33/6 5/34/6 14/35/6 

vn -1 6.73715e-10 8.03128e-12
vt 25.1716 -2.22045e-16
vt 25.1716 3
f 13/3/8 12/36/8 15/37/8 16/14/8 

vn -0.707107 4.76389e-10 -0.707107
f 16/14/9 14/15/9 9/13/9 13/3/9 

g Mesh3 Group6 Group3 Group2 Group1 Model

v 4.82843 17 -30
vt 4.82843 3
vn 8.03128e-12 -5.4108e-21 1
v 4.82843 14 -30
vt 4.82843 0
vt 30 0
vt 30 3
f 17/38/10 18/39/10 13/40/10 16/41/10 

f 17/38/5 7/28/5 4/27/5 18/39/5 

v 32 17 -32
vt 0 32
vt 2 4.82843
vt 2 30
f 19/42/6 7/4/6 17/43/6 16/44/6 

v 32 14 -32
f 20/5/4 4/13/4 7/15/4 19/8/4 

vt -2 30
vt -2 4.82843
f 13/45/1 18/46/1 4/4/1 20/42/1 

vt 22.6274 3
vn 0.707107 -4.76389e-10 0.707107
vt 19.799 3
vt 19.799 0
vt 22.6274 0
f 19/47/11 16/48/11 13/49/11 20/50/11 

g Mesh4 Group7 Group3 Group2 Group1 Model

v 27 15.875 -30
v 27 16 -30
vt 0 0.125
v 28 16 -30
vt -1 0.125
v 28 15.875 -30
f 21/3/4 22/51/4 23/52/4 24/26/4 

v 27 15.875 -7.82843
vt 22.1716 0
v 27 16 -7.82843
vt 22.1716 0.125
f 21/3/8 25/53/8 26/54/8 22/51/8 

vt 0 1
v 28 15.875 -6.82843
vt -23.1716 1
vt -22.1716 0
f 21/3/1 24/55/1 27/56/1 25/57/1 

v 28 16 -6.82843
vt -23.1716 0.125
vt -23.1716 0
f 28/58/2 27/59/2 24/3/2 23/51/2 

vt 17.0919 0.125
vt 15.6777 0.125
vt 15.6777 0
vt 17.0919 0
f 28/60/5 26/61/5 25/62/5 27/63/5 

vt 23.1716 1
f 22/3/6 26/53/6 28/64/6 23/55/6 

g Mesh5 Group8 Group3 Group2 Group1 Model

v 18 15.875 -30
v 18 16 -30
v 19 16 -30
v 19 15.875 -30
f 29/3/4 30/51/4 31/52/4 32/26/4 

v 18 15.875 -16.8284
vt 13.1716 0
v 18 16 -16.8284
vt 13.1716 0.125
f 29/3/8 33/65/8 34/66/8 30/51/8 

v 19 15.875 -15.8284
vt -14.1716 1
vt -13.1716 0
f 29/3/1 32/55/1 35/67/1 33/68/1 

v 19 16 -15.8284
vt -14.1716 0.125
vt -14.1716 0
f 36/69/2 35/70/2 32/3/2 31/51/2 

vt 10.7279 0.125
vt 9.31371 0.125
vt 9.31371 0
vt 10.7279 0
f 36/71/5 34/72/5 33/73/5 35/74/5 

vt 14.1716 1
f 30/3/6 34/65/6 36/75/6 31/55/6 

g Mesh6 Group9 Group3 Group2 Group1 Model

v 9 15.875 -30
v 9 16 -30
v 10 16 -30
v 10 15.875 -30
f 37/3/4 38/51/4 39/52/4 40/26/4 

v 9 15.875 -25.8284
vt 4.17157 0
v 9 16 -25.8284
vt 4.17157 0.125
f 37/3/8 41/76/8 42/77/8 38/51/8 

v 10 15.875 -24.8284
vt -5.17157 1
vt -4.17157 0
f 37/3/1 40/55/1 43/78/1 41/79/1 

v 10 16 -24.8284
vt -5.17157 0.125
vt -5.17157 0
f 44/80/2 43/81/2 40/3/2 39/51/2 

vt 4.36396 0.125
vt 2.94975 0.125
vt 2.94975 0
vt 4.36396 0
f 44/82/5 42/83/5 41/84/5 43/85/5 

vt 5.17157 1
f 38/3/6 42/76/6 44/86/6 39/55/6 

g Mesh7 Group11 Group10 Group2 Group1 Model

v 2 3 -30
v 3.13762e-08 3 -32
v 0.353553 3 -32
vt 0 0.353553
v 2.35355 3 -30
vt -2 2.35355
f 45/35/1 46/3/1 47/87/1 48/88/1 

vt 2.82843 0
v 2 14 -30
vt 2.82843 11
v 3.8787e-08 14 -32
vt 0 11
f 46/3/5 45/89/5 49/90/5 50/91/5 

vt 2.35355 0
v 2.35355 14 -30
vt 2.35355 11
vt 2 11
f 45/27/10 48/92/10 51/93/10 49/94/10 

vt -3.07843 0
vt -0.25 0
v 0.353553 14 -32
vt -0.25 11
vt -3.07843 11
f 48/95/3 47/96/3 52/97/3 51/98/3 

vt -0.353553 0
vt -0.353553 11
f 47/99/4 46/3/4 50/91/4 52/100/4 

vt 2 2.35355
f 50/3/6 49/20/6 51/101/6 52/87/6 

g Mesh8 Group12 Group10 Group2 Group1 Model

v 30 3 -32
v 30 3 -30
v 30 14 -30
v 30 14 -32
f 53/3/8 54/27/8 55/94/8 56/91/8 

v 32 3 -32
vt 0 2
v 32 3 -30
f 54/10/1 53/3/1 57/102/1 58/35/1 

vt -2 11
f 57/10/4 53/3/4 56/91/4 20/103/4 

v 32 14 -30
f 56/3/6 55/27/6 59/20/6 20/102/6 

f 54/3/10 58/27/10 59/94/10 55/91/10 

f 58/10/2 57/3/2 20/91/2 59/103/2 

g Mesh9 Group13 Group10 Group2 Group1 Model

v 30 3 -2.35355
v 32 3 -0.353553
v 32 3 -5.95787e-09
vt -2.35355 2
v 30 3 -2
f 60/3/1 61/35/1 62/104/1 63/99/1 

v 30 14 -2.35355
v 32 14 -0.353553
vt -2.82843 11
f 61/13/3 60/3/3 64/91/3 65/105/3 

vt 0.353553 0
v 30 14 -2
vt 0.353553 11
f 60/3/8 63/106/8 66/107/8 64/91/8 

vt 0.25 0
vt 3.07843 0
v 32 14 -5.95787e-09
vt 3.07843 11
vt 0.25 11
f 63/108/5 62/109/5 67/110/5 66/111/5 

vt -2.35355 0
vt -2.35355 11
f 62/112/2 61/10/2 65/103/2 67/113/2 

vt 2.35355 2
f 65/20/6 64/3/6 66/106/6 67/114/6 

g Mesh10 Group15 Group14 Group2 Group1 Model

v 32 6.73698e-11 -2.82843
v 32 6.73698e-11 -5.95787e-09
v 2.93541e-08 2.16263e-08 -32
v 2.82843 1.97207e-08 -32
f 68/1/1 69/2/1 70/3/1 71/4/1 

v 32 3 -2.82843
v 32 3 -5.95787e-09
f 69/5/2 68/6/2 72/7/2 73/8/2 

v 2.82843 3 -32
f 68/9/3 71/10/3 74/11/3 72/12/3 

v 3.13752e-08 3 -32
f 71/13/4 70/3/4 75/14/4 74/15/4 

f 70/3/5 69/16/5 73/17/5 75/14/5 

f 73/18/6 72/19/6 74/4/6 75/3/6 

g Mesh11 Group16 Group14 Group2 Group1 Model

v 32 6.737e-11 -32
v 32 6.737e-11 -29
v 32 6.73698e-11 -2.82843
v 30 1.4148e-09 -4.82843
v 30 1.4148e-09 -30
f 76/20/7 77/21/7 78/22/7 79/23/7 80/3/7 

v 32 3 -32
f 72/24/2 78/25/2 77/26/2 76/27/2 81/28/2 

v 30 3 -4.82843
f 72/29/5 82/30/5 79/31/5 78/32/5 

v 30 3 -30
f 83/3/6 82/33/6 72/34/6 81/35/6 

f 80/3/8 79/36/8 82/37/8 83/14/8 

f 83/14/9 81/15/9 76/13/9 80/3/9 

g Mesh12 Group17 Group14 Group2 Group1 Model

v 4.82843 3 -30
v 4.82843 1.83733e-08 -30
v 30 1.4148e-09 -30
f 84/38/10 85/39/10 86/40/10 83/41/10 

f 84/38/5 74/28/5 71/27/5 85/39/5 

v 32 3 -32
f 87/42/6 74/4/6 84/43/6 83/44/6 

v 32 6.73698e-11 -32
f 88/5/4 71/13/4 74/15/4 87/8/4 

f 86/45/1 85/46/1 71/4/1 88/42/1 

f 87/47/11 83/48/11 86/49/11 88/50/11 

g Mesh13 Group18 Group1 Model

usemtl _Carrera_Marble_14
v 30 16 -4.82843
vt -25.1716 25.1716
v 4.82843 16 -30
v 30 16 -30
vt 0 25.1716
f 89/115/1 90/3/1 91/116/1

vt 35.598 0
v 30 17 -4.82843
vt 35.598 1
f 90/3/5 89/117/5 92/118/5 17/55/5 

vt -25.1716 0
v 30 17 -30
vt -25.1716 1
f 89/119/2 91/3/2 93/55/2 92/120/2 

f 91/119/4 90/3/4 17/55/4 93/120/4 

vt 25.1716 25.1716
f 17/3/6 92/121/6 93/116/6

