# Alias OBJ Model File
# Exported from SketchUp, (c) 2000-2012 Trimble Navigation Limited
# File units = inches

mtllib 33 T table 13 x 30.mtl

g Mesh1 Group4 Group3 Group2 Group1 Model

usemtl _Color_M05_4
v 1.5 15.25 -15.75
vt 10 1.5
vn 6.73715e-10 1 -0
v 1.5 15.25 -14.25
vt 10 0
v 11.5 15.25 -14.25
vt 0 0
v 11.5 15.25 -15.75
vt 0 1.5
f 1/1/1 2/2/1 3/3/1 4/4/1 

v 1.5 14.5 -15.75
vt 1.5 0
vn -1 6.73715e-10 7.80411e-12
v 1.5 14.5 -14.25
vt 0 0.75
vt 1.5 0.75
f 5/5/2 6/3/2 2/6/2 1/7/2 

vt -10 0
vn -6.73715e-10 -1 -0
vt -10 1.5
v 11.5 14.5 -15.75
v 11.5 14.5 -14.25
f 6/8/3 5/9/3 7/4/3 8/3/3 

vn -7.80411e-12 5.25775e-21 -1
vt -10 0.75
f 5/8/4 1/10/4 4/6/4 7/3/4 

vn 1 -6.73715e-10 -7.80411e-12
vt -1.5 0
vt -1.5 0.75
f 8/3/5 7/11/5 4/12/5 3/6/5 

vt 10 0.75
vn 7.80411e-12 -5.25775e-21 1
f 2/13/6 6/2/6 8/3/6 3/6/6 

g Mesh2 Group5 Group3 Group2 Group1 Model

v 1.5 15.25 -1.5
v 1.5 15.25 -5.86142e-09
v 11.5 15.25 -5.93946e-09
v 11.5 15.25 -1.5
f 9/1/1 10/2/1 11/3/1 12/4/1 

v 1.5 14.5 -1.5
v 1.5 14.5 -5.86142e-09
f 13/5/2 14/3/2 10/6/2 9/7/2 

v 11.5 14.5 -1.5
v 11.5 14.5 -5.93946e-09
f 14/8/3 13/9/3 15/4/3 16/3/3 

f 13/8/4 9/10/4 12/6/4 15/3/4 

f 16/3/5 15/11/5 12/12/5 11/6/5 

f 10/13/6 14/2/6 16/3/6 11/6/6 

g Mesh3 Group6 Group3 Group2 Group1 Model

v 1.5 15.25 -30
v 1.5 15.25 -28.5
v 11.5 15.25 -28.5
v 11.5 15.25 -30
f 17/1/1 18/2/1 19/3/1 20/4/1 

v 1.5 14.5 -30
v 1.5 14.5 -28.5
f 21/5/2 22/3/2 18/6/2 17/7/2 

v 11.5 14.5 -30
v 11.5 14.5 -28.5
f 22/8/3 21/9/3 23/4/3 24/3/3 

f 21/8/4 17/10/4 20/6/4 23/3/4 

f 24/3/5 23/11/5 20/12/5 19/6/5 

f 18/13/6 22/2/6 24/3/6 19/6/6 

g Mesh4 Group8 Group7 Group2 Group1 Model

v 13 -1.77636e-15 -5.95116e-09
v 13 1.5 -5.95116e-09
v 11.5 1.5 -5.93946e-09
vt 1.5 1.5
v 11.5 1.01057e-09 -5.93946e-09
f 25/3/6 26/4/6 27/14/6 28/5/6 

v 13 1.5 -30
vt -30 1.5
v 13 -1.7762e-15 -30
vt -30 0
f 29/15/5 26/4/5 25/3/5 30/16/5 

vt 0 30
v 11.5 1.5 -30
vt 1.5 30
f 26/3/1 29/17/1 31/18/1 27/5/1 

v 11.5 1.01057e-09 -30
vt -1.5 1.5
f 29/4/4 30/3/4 32/11/4 31/19/4 

vt -1.5 30
f 30/17/3 25/3/3 28/11/3 32/20/3 

vt 30 1.5
vt 30 0
f 27/4/2 31/21/2 32/22/2 28/3/2 

g Mesh5 Group9 Group7 Group2 Group1 Model

v 13 14.5 -5.95116e-09
v 13 16 -5.95116e-09
v 11.5 16 -5.93946e-09
f 33/3/6 34/4/6 35/14/6 16/5/6 

v 13 16 -30
v 13 14.5 -30
f 36/15/5 34/4/5 33/3/5 37/16/5 

v 11.5 16 -30
f 34/3/1 36/17/1 38/18/1 35/5/1 

v 11.5 14.5 -30
f 36/4/4 37/3/4 39/11/4 38/19/4 

f 37/17/3 33/3/3 16/11/3 39/20/3 

f 35/4/2 38/21/2 39/22/2 16/3/2 

g Mesh6 Group11 Group10 Group2 Group1 Model

v 11.5 14.5 -15.75
v 11.5 14.5 -14.25
v 13 14.5 -14.25
v 13 14.5 -15.75
f 40/14/1 41/5/1 42/3/1 43/4/1 

vt 0 13
vt 1.5 13
v 11.5 1.5 -15.75
v 11.5 1.5 -14.25
f 41/23/2 40/24/2 44/5/2 45/3/2 

vt -1.5 13
v 13 1.5 -15.75
f 40/25/4 43/23/4 46/3/4 44/11/4 

v 13 1.5 -14.25
f 43/25/5 42/23/5 47/3/5 46/11/5 

f 42/23/6 41/24/6 45/5/6 47/3/6 

f 45/11/3 44/19/3 46/4/3 47/3/3 

g Mesh7 Group12 Group10 Group2 Group1 Model

v 1.5 14.5 -5.86142e-09
v 1.5 16 -5.86142e-09
v 4.1149e-08 16 -5.84971e-09
v 4.01384e-08 14.5 -5.84971e-09
f 48/3/6 49/4/6 50/14/6 51/5/6 

v 1.5 16 -30
v 1.5 14.5 -30
f 52/15/5 49/4/5 48/3/5 53/16/5 

v 4.09148e-08 16 -30
f 49/3/1 52/17/1 54/18/1 50/5/1 

v 3.99043e-08 14.5 -30
f 52/4/4 53/3/4 55/11/4 54/19/4 

f 53/17/3 48/3/3 51/11/3 55/20/3 

f 50/4/2 54/21/2 55/22/2 51/3/2 

g Mesh8 Group13 Group10 Group2 Group1 Model

v 1.5 7.74773e-09 -5.86142e-09
v 1.5 1.5 -5.86142e-09
v 3.13801e-08 1.5 -5.84971e-09
v 3.03695e-08 8.7583e-09 -5.84971e-09
f 56/3/6 57/4/6 58/14/6 59/5/6 

v 1.5 1.5 -30
v 1.5 7.74773e-09 -30
f 60/15/5 57/4/5 56/3/5 61/16/5 

v 3.1146e-08 1.5 -30
f 57/3/1 60/17/1 62/18/1 58/5/1 

v 3.01354e-08 8.7583e-09 -30
f 60/4/4 61/3/4 63/11/4 62/19/4 

f 61/17/3 56/3/3 59/11/3 63/20/3 

f 58/4/2 62/21/2 63/22/2 59/3/2 

g Mesh9 Group14 Group10 Group2 Group1 Model

v 4.00155e-08 14.5 -15.75
v 4.00272e-08 14.5 -14.25
v 1.5 14.5 -14.25
v 1.5 14.5 -15.75
f 64/14/1 65/5/1 66/3/1 67/4/1 

v 3.12572e-08 1.5 -15.75
v 3.12689e-08 1.5 -14.25
f 65/23/2 64/24/2 68/5/2 69/3/2 

v 1.5 1.5 -15.75
f 64/25/4 67/23/4 70/3/4 68/11/4 

v 1.5 1.5 -14.25
f 67/25/5 66/23/5 71/3/5 70/11/5 

f 66/23/6 65/24/6 69/5/6 71/3/6 

f 69/11/3 68/19/3 70/4/3 71/3/3 

g Mesh10 Group15 Group2 Group1 Model

v 1.5 7.74773e-09 -15.75
v 1.5 7.74773e-09 -14.25
v 1.5 1.5 -15.75
f 72/5/2 73/3/2 71/4/2 74/14/2 

v 11.5 1.01057e-09 -15.75
v 11.5 1.01057e-09 -14.25
f 75/4/3 76/3/3 73/8/3 72/9/3 

v 11.5 1.5 -15.75
v 11.5 1.5 -14.25
f 76/3/5 75/11/5 77/19/5 78/4/5 

f 77/4/4 75/3/4 72/8/4 74/9/4 

f 78/3/1 77/4/1 74/1/1 71/2/1 

f 76/3/6 78/4/6 71/1/6 73/2/6 

g Mesh11 Group16 Group1 Model

usemtl _Carrera_Marble_14
v 1.625 15.25 -30
vt -9.75 30
v 11.375 15.25 -30
v 11.375 15.25 -5.93848e-09
v 1.625 15.25 -5.86239e-09
vt -9.75 0
f 79/26/3 80/17/3 81/3/3 82/27/3 

v 1.625 16.25 -30
vt -9.75 1
v 11.375 16.25 -30
vt 0 1
f 83/28/4 84/29/4 80/3/4 79/27/4 

vt 9.75 30
v 1.625 16.25 -5.86239e-09
vt 9.75 0
v 11.375 16.25 -5.93848e-09
f 84/17/1 83/30/1 85/31/1 86/3/1 

vt 30 1
f 85/29/2 83/32/2 79/22/2 82/3/2 

vt 9.75 1
f 86/29/6 85/33/6 82/31/6 81/3/6 

vt -30 1
f 84/34/5 86/29/5 81/3/5 80/16/5 

