# Alias OBJ Model File
# Exported from SketchUp, (c) 2000-2012 Trimble Navigation Limited
# File units = inches

mtllib 34 Waterfall side table 40 x 13.mtl

g Mesh1 Group2 Group1 Model

usemtl _Color_M05_4
v 13 1.09479e-10 -1
vt 1.20426e-09 4.37912e-09
vn 1 -3.36855e-10 -1.8643e-16
v 13 6.08446e-10 -2.5
vt 1.5 4.87809e-09
v 13 9.5 -2.5
vt 1.5 9.5
v 13 9.5 -37.5
vt 36.5 9.5
v 13 8.49092e-09 -37.5
vt 36.5 1.27606e-08
v 13 8.64882e-09 -39
vt 38 1.29185e-08
v 13 11 -39
vt 38 11
v 13 11 -1
vt -2.42359e-15 11
f 1/1/1 2/2/1 3/3/1 4/4/1 5/5/1 6/6/1 7/7/1 8/8/1 

v 0 8.86778e-09 -1
vt 5.08083e-18 1.20427e-09
vn -5.80116e-10 -1 4.74801e-10
v 1.09537e-10 8.8044e-09 -2.5
vt -1.09537e-10 1.5
vt -13 1.5
vt -13 1.20427e-09
f 9/9/2 10/10/2 2/11/2 1/12/2 

v 0 8.64882e-09 -39
vt -38 8.53934e-09
vn -1 3.31575e-10 -9.3144e-17
v 1.09544e-10 1.66869e-08 -37.5
vt -36.5 1.65774e-08
v 3.20021e-09 9.5 -37.5
vt -36.5 9.5
v 3.2002e-09 9.5 -2.5
vt -1.5 9.5
vt -1.5 8.69492e-09
vt -1.20427e-09 8.7583e-09
v 3.70547e-09 11 -1
vt -3.45142e-25 11
v 3.70547e-09 11 -39
vt -38 11
f 11/13/3 12/14/3 13/15/3 14/16/3 10/17/3 9/18/3 15/19/3 16/20/3 

vt -13 36.5
vn -3.20167e-10 -1 1.93373e-09
vt -1.09544e-10 36.5
vt 2.73401e-18 38
vt -13 38
f 5/21/4 12/22/4 11/23/4 6/24/4 

vt 2.08763e-10 1.22629e-08
vn 2.71832e-12 -1.18206e-10 1
vt 13 4.06693e-09
vt 13 9.5
v 11.5 9.5 -37.5
vt 11.5 9.5
v 11.5 1.5 -37.5
vt 11.5 1.5
v 1.5 1.5 -37.5
vt 1.5 1.5
v 1.5 9.5 -37.5
vt 3.29942e-09 9.5
f 12/25/5 5/26/5 4/27/5 17/28/5 18/29/5 19/30/5 20/3/5 13/31/5 

vn -3.36856e-10 -1 -2.15469e-10
v 11.5 9.5 -2.5
vt -11.5 1.5
vt -11.5 36.5
f 3/11/6 21/32/6 17/33/6 4/21/6 

v 1.5 9.5 -2.5
vn -8.35925e-13 1.18658e-10 -1
v 1.5 1.5 -2.5
vt -1.5 1.5
v 11.5 1.5 -2.5
vt -11.5 9.5
vt -13 9.5
vt -13 3.20981e-10
vt -1.10791e-10 8.51693e-09
vt -3.20145e-09 9.5
f 22/16/7 23/34/7 24/32/7 21/35/7 3/36/7 2/37/7 10/38/7 14/39/7 

v 1.5 9.5 -1
vt 3.32689e-10 9.5
vn 1 -3.15806e-10 1.12313e-10
v 1.5 1.5 -1
vt 1.20852e-09 1.5
f 25/40/8 26/41/8 23/30/8 22/3/8 

vt 3.70547e-09 11
vn -7.37575e-20 -1.09479e-10 1
f 15/42/9 26/30/9 25/3/9

vt -8.88237e-29 8.7583e-09
f 9/43/9 26/30/9 15/42/9

v 11.5 1.5 -1
f 26/30/9 9/43/9 27/29/9

vt 13 -1.31842e-19
f 1/44/9 27/29/9 9/43/9

vt 13 11
f 27/29/9 1/44/9 8/45/9

v 11.5 9.5 -1
f 27/29/9 8/45/9 28/28/9

f 28/28/9 8/45/9 25/3/9

f 15/42/9 25/3/9 8/45/9

v 1.5 11 -2.5
vn 3.36858e-10 1 1.09479e-10
vt 3.12192e-14 1.20427e-09
vt 13 1.20427e-09
f 29/30/10 15/46/10 8/47/10

vt 3.12193e-14 38
f 15/46/10 29/30/10 16/48/10

v 1.5 11 -37.5
vt 1.5 36.5
f 30/49/10 16/48/10 29/30/10

vt 13 38
f 16/48/10 30/49/10 7/50/10

v 11.5 11 -37.5
vt 11.5 36.5
f 7/50/10 30/49/10 31/51/10

vt 11.5 11
vn -4.87077e-13 -1.11423e-10 1
vt 1.5 11
f 31/52/11 30/53/11 20/3/11 17/28/11 

vt 36.5 11
vn 1 -3.36854e-10 -2.0668e-20
f 30/54/12 29/53/12 22/3/12 20/4/12 

vt -1.5 11
vn 4.87166e-13 1.1143e-10 -1
v 11.5 11 -2.5
vt -11.5 11
f 29/55/13 32/56/13 21/35/13 22/16/13 

f 29/30/10 8/47/10 32/29/10

f 32/29/10 8/47/10 31/51/10

f 7/50/10 31/51/10 8/47/10

vn -1 3.36854e-10 -9.6244e-12
vt -36.5 11
f 32/55/14 31/57/14 17/15/14 21/16/14 

vt -11.5 1.2043e-09
vn -6.73716e-10 -1 -1.09482e-10
vt -1.5 1.2043e-09
f 28/58/15 25/59/15 22/34/15 21/32/15 

vt -1.04016e-09 1.5
vn -1 2.94747e-10 -9.47387e-15
vt -1.64329e-10 9.5
f 27/60/16 28/61/16 21/16/16 24/34/16 

vt 1.5 4.56257e-10
vn 4.9918e-10 1 -3.89194e-10
vt 11.5 4.56257e-10
f 26/62/17 27/63/17 24/29/17 23/30/17 

vt -2.38619e-13 36.5
vn -3.36839e-10 -1 -1.19223e-10
vt -1.5 36.5
vt -2.31516e-13 1.5
f 13/64/18 20/65/18 22/34/18 14/66/18 

v 1.5 9.5 -39
vt -1.5 38
vn 5.3326e-23 -1 -1.09482e-10
v 11.5 9.5 -39
vt -11.5 38
f 33/67/19 34/68/19 17/33/19 20/65/19 

vn 0 1.09479e-10 -1
vt -3.70547e-09 11
f 33/16/20 16/69/20 34/35/20

v 1.5 1.5 -39
f 35/34/20 16/69/20 33/16/20

vt 0 4.37915e-09
f 35/34/20 11/70/20 16/69/20

vt -13 4.37915e-09
f 11/70/20 35/34/20 6/71/20

v 11.5 1.5 -39
f 36/32/20 6/71/20 35/34/20

vt -13 11
f 6/71/20 36/32/20 7/72/20

f 7/72/20 36/32/20 34/35/20

vt -38 9.5
vn -1 3.78963e-10 4.14888e-20
vt -38 1.5
vt -36.5 1.5
f 34/73/21 36/74/21 18/75/21 17/15/21 

vt 11.5 38
vn 1.85481e-10 1 -1.12706e-09
vt 1.5 38
f 36/76/22 35/77/22 19/49/22 18/51/22 

vt 38 1.5
vn 1 -3.57913e-10 1.12266e-10
vt 38 9.5
vt 36.5 1.5
f 35/78/23 33/79/23 20/4/23 19/80/23 

f 7/72/20 34/35/20 16/69/20

g Mesh2 Group3 Group1 Model

usemtl _Carrera_Marble_14
v 8.0846e-09 11 -1
vt -8.0846e-09 1
vn -1.95597e-26 -1 -2.2472e-10
vt -3.70547e-09 39
vt -13 39
vt -13 1
f 37/81/24 16/82/24 7/83/24 8/84/24 

v 8.0846e-09 12 -0
vt 2.69283e-19 12
vn -1 7.04456e-10 3.33082e-11
v 8.0846e-09 12 -40
vt -40 12
v 8.0846e-09 6.56872e-09 -40
vt -40 6.56872e-09
v 3.70547e-09 1.08384e-08 -39
vt -39 1.08384e-08
vt -39 11
vt -1 11
vt -1 8.86778e-09
v 0 8.7583e-09 -1.31375e-09
vt -1.31375e-09 8.7583e-09
f 38/85/25 39/86/25 40/87/25 41/88/25 16/89/25 37/90/25 9/91/25 42/92/25 

v 13 12 -0
vt 13 1.31374e-09
vn 6.73715e-10 1 1.09479e-10
v 13 12 -40
vt 13 40
vt 1.25585e-14 40
vt 1.25615e-14 1.31374e-09
f 43/93/26 44/94/26 39/95/26 38/96/26 

v 13 1.09479e-10 -1
vt 1 8.86779e-09
vn 1 -6.73716e-10 -3.46004e-17
vt 1 11
vt 39 11
v 13 1.08384e-08 -39
vt 39 1.95967e-08
v 13 6.56872e-09 -40
vt 40 1.5327e-08
vt 40 12
vt -4.49806e-16 12
v 13 0 -1.31375e-09
vt 1.31374e-09 8.75831e-09
f 45/97/27 8/98/27 7/99/27 46/100/27 47/101/27 44/102/27 43/103/27 48/104/27 

vt 3.68788e-20 8.7583e-09
vn 3.68788e-20 1.09479e-10 -1
vt -8.0846e-09 11
vt -13 -1.87412e-19
f 9/105/28 37/106/28 8/72/28 45/107/28 

vt 5.97436e-18 1
vn -6.73715e-10 -1 -1.09479e-10
vt -13 1.31375e-09
vt 5.9006e-18 1.31375e-09
f 9/108/29 45/84/29 48/109/29 42/110/29 

vt 13 12
vt 8.0846e-09 12
vt -9.68986e-29 8.7583e-09
vt 13 -1.43827e-19
f 43/111/9 38/112/9 42/113/9 48/114/9 

vn 0 4.26968e-09 1
vt 3.70547e-09 1.77356e-07
vt 13 1.77356e-07
f 7/45/30 16/42/30 41/115/30 46/116/30 

vt -13 40
vn 2.24712e-27 -1 4.26968e-09
vt -8.0846e-09 40
f 47/117/31 46/83/31 41/82/31 40/118/31 

vt -13 12
vn 3.68769e-20 1.09473e-10 -1
vt -13 2.18979e-09
vt -8.0846e-09 2.18979e-09
vt -8.0846e-09 12
f 44/119/32 47/120/32 40/121/32 39/122/32 

