# Alias OBJ Model File
# Exported from SketchUp, (c) 2000-2012 Trimble Navigation Limited
# File units = inches

mtllib 36 Daisy base table 120 x 42 bar height.mtl

g Mesh1 Group4 Group3 Group2 Group1 Model

usemtl _Color_M06_4
v 14 10 -14
vt -2 28
vn -6.73715e-10 -1 -1.34743e-09
v 14 10 -28
vt -2 14
v 16 10 -26
vt -2.05433e-33 16
v 16 10 -16
vt 0 26
f 1/1/1 2/2/1 3/3/1 4/4/1 

v 14 12 -28
vt 14 2
vn -1 6.73715e-10 7.80361e-12
vt 14 1.77636e-15
vt 28 0
v 14 12 -14
vt 28 2
f 5/5/2 2/6/2 1/7/2 6/8/2 

vt -8.48528 2
vn 0.707107 4.76389e-10 -0.707107
v 16 12 -26
vt -11.3137 2
vt -11.3137 1.77636e-15
vt -8.48528 1.77636e-15
f 5/9/3 7/10/3 3/11/3 2/12/3 

v 16 12 -16
vn 6.73715e-10 1 1.34743e-09
vt 0 16
vt 2 14
vt 2 28
f 8/4/4 7/13/4 5/14/4 6/15/4 

vt -26 0
vn 1 -6.73715e-10 -7.80361e-12
vt -16 1.77636e-15
vt -16 2
vt -26 2
f 4/16/5 3/17/5 7/18/5 8/19/5 

vt -21.2132 0
vn 0.707107 -1.42917e-09 0.707107
vt -18.3848 0
vt -18.3848 2
vt -21.2132 2
f 1/20/6 4/21/6 8/22/6 6/23/6 

g Mesh2 Group5 Group3 Group2 Group1 Model

v 104 10 -16
vt -2 26
v 104 10 -26
vt -2 16
v 106 10 -28
vt 2.05433e-33 14
v 106 10 -14
vt 0 28
f 9/24/1 10/25/1 11/26/1 12/27/1 

v 104 12 -26
vt 16 2
vt 16 1.77636e-15
vt 26 0
v 104 12 -16
vt 26 2
f 13/28/2 10/29/2 9/30/2 14/31/2 

vt 12.7279 2
vn -0.707107 1.42917e-09 -0.707107
v 106 12 -28
vt 9.89949 2
vt 9.89949 1.77636e-15
vt 12.7279 1.77636e-15
f 13/32/7 15/33/7 11/34/7 10/35/7 

v 106 12 -14
vt 0 14
vt 2 16
vt 2 26
f 16/27/4 15/36/4 13/37/4 14/38/4 

vt -28 0
vt -14 1.77636e-15
vt -14 2
vt -28 2
f 12/39/5 11/40/5 15/41/5 16/42/5 

vt 16.9706 0
vn -0.707107 -4.76389e-10 0.707107
vt 19.799 0
vt 19.799 2
vt 16.9706 2
f 9/43/8 12/44/8 16/45/8 14/46/8 

g Mesh3 Group6 Group3 Group2 Group1 Model

v 104 10 -16
vt 2 0
vn -7.80361e-12 1.34743e-09 -1
v 16 10 -16
vt 90 0
v 16 12 -16
vt 90 2
vt 2 2
f 17/47/9 18/48/9 19/49/9 14/50/9 

vt -90 0
vt -2 0
vt 0 2
v 14 10 -14
vt -92 2
f 18/51/1 17/52/1 12/53/1 20/54/1 

vt 1.41421 2
vt -1.41421 2
vt -1.41421 0
vt 1.41421 0
f 14/55/3 16/56/3 12/57/3 17/58/3 

v 14 12 -14
vt 92 2
f 14/47/4 19/48/4 21/59/4 16/53/4 

vt 66.468 2
vt 63.6396 2
vt 63.6396 0
vt 66.468 0
f 21/60/7 19/61/7 18/62/7 20/63/7 

vt -92 0
vn 7.80361e-12 -1.34743e-09 1
vt 0 0
f 20/64/10 12/65/10 16/53/10 21/54/10 

g Mesh4 Group7 Group3 Group2 Group1 Model

v 16 12 -26
vt -62.2254 2
vt -65.0538 2
vt -65.0538 0
vt -62.2254 0
f 22/66/8 5/67/8 2/68/8 3/69/8 

vt 92 0
f 15/65/4 5/70/4 22/49/4 13/50/4 

v 106 10 -28
f 23/65/9 2/70/9 5/59/9 15/53/9 

vt -2 2
vt -90 2
f 2/64/1 23/65/1 10/71/1 3/72/1 

vt -2.82843 2
vt -2.82843 0
f 15/53/6 13/73/6 10/74/6 23/65/6 

f 3/51/10 10/52/10 13/71/10 22/72/10 

g Mesh5 Group9 Group8 Group2 Group1 Model

v 38 41 -5
v 36 41 -5
v 36 40 -5
vt -2 1
v 38 40 -5
vt 0 1
f 24/53/10 25/71/10 26/75/10 27/76/10 

vt 2 39
vt 0 39
v 38 41 -37
vt 0 7
v 36 41 -37
vt 2 7
f 25/77/4 24/78/4 28/79/4 29/80/4 

vt -39 2
vt -39 1
v 38 40 -37
vt -7 1
vt -7 2
f 24/81/5 27/82/5 30/83/5 28/84/5 

vt -2 39
v 36 40 -37
vt -2 7
f 27/78/1 26/85/1 31/86/1 30/79/1 

vt 39 1
vt 39 2
vt 7 2
vt 7 1
f 26/87/2 25/88/2 29/89/2 31/90/2 

vt 2 1
f 29/50/9 28/53/9 30/76/9 31/91/9 

g Mesh6 Group10 Group8 Group2 Group1 Model

v 84 41 -5
v 82 41 -5
v 82 40 -5
v 84 40 -5
f 32/53/10 33/71/10 34/75/10 35/76/10 

v 84 41 -37
v 82 41 -37
f 33/77/4 32/78/4 36/79/4 37/80/4 

v 84 40 -37
f 32/81/5 35/82/5 38/83/5 36/84/5 

v 82 40 -37
f 35/78/1 34/85/1 39/86/1 38/79/1 

f 34/87/2 33/88/2 37/89/2 39/90/2 

f 37/50/9 36/53/9 38/76/9 39/91/9 

g Mesh7 Group11 Group8 Group2 Group1 Model

v 115 41 -20
vt -9 2
v 115 41 -22
vt -9 0
v 84 41 -22
vt 22 0
v 84 41 -20
vt 22 2
f 40/92/4 41/93/4 42/94/4 43/95/4 

v 115 40 -20
v 115 40 -22
f 44/75/5 45/76/5 41/53/5 40/71/5 

vt 9 0
vt 9 2
v 84 40 -20
vt -22 2
v 84 40 -22
vt -22 0
f 45/96/1 44/97/1 46/98/1 47/99/1 

vt 9 1
vt -22 1
f 44/100/10 40/97/10 43/98/10 46/101/10 

f 47/76/2 46/91/2 43/50/2 42/53/2 

vt -9 1
vt 22 1
f 41/92/9 45/102/9 47/103/9 42/95/9 

g Mesh8 Group12 Group8 Group2 Group1 Model

v 36 41 -20
v 36 41 -22
v 5 41 -22
vt 29 0
v 5 41 -20
vt 29 2
f 48/71/4 49/52/4 50/104/4 51/105/4 

v 36 40 -20
v 36 40 -22
f 52/75/5 53/76/5 49/53/5 48/71/5 

v 5 40 -20
vt -29 2
v 5 40 -22
vt -29 0
f 53/47/1 52/50/1 54/106/1 55/107/1 

vt -29 1
f 52/91/10 48/50/10 51/106/10 54/108/10 

f 55/76/2 54/91/2 51/50/2 50/53/2 

vt 29 1
f 49/71/9 53/75/9 55/109/9 50/105/9 

g Mesh9 Group13 Group8 Group2 Group1 Model

v 82 41 -20
v 82 41 -22
v 38 41 -22
vt 42 0
v 38 41 -20
vt 42 2
f 56/71/4 57/52/4 58/110/4 59/111/4 

v 82 40 -20
v 82 40 -22
f 60/75/5 61/76/5 57/53/5 56/71/5 

v 38 40 -20
vt -42 2
v 38 40 -22
vt -42 0
f 61/47/1 60/50/1 62/112/1 63/113/1 

vt -42 1
f 60/91/10 56/50/10 59/112/10 62/114/10 

f 63/76/2 62/91/2 59/50/2 58/53/2 

vt 42 1
f 57/71/9 61/75/9 63/115/9 58/111/9 

g Mesh10 Group15 Group14 Group2 Group1 Model

v 3 40 -3
vt -2 41
v 3 40 -39
vt -2 5
v 5 40 -37
v 5 40 -5
f 64/116/1 65/117/1 66/79/1 67/78/1 

v 3 41 -39
vt 5 2
vt 5 1
vt 41 1
v 3 41 -3
vt 41 2
f 68/118/2 65/119/2 64/120/2 69/121/2 

vt -2.12132 2
v 5 41 -37
vt -4.94975 2
vt -4.94975 1
vt -2.12132 1
f 68/122/3 70/123/3 66/124/3 65/125/3 

v 5 41 -5
vt 2 5
vt 2 41
f 71/78/4 70/79/4 68/126/4 69/127/4 

f 67/82/5 66/83/5 70/84/5 71/81/5 

vt -27.5772 2
vt -30.4056 2
vt -30.4056 1
vt -27.5772 1
f 71/128/6 69/129/6 64/130/6 67/131/6 

g Mesh11 Group16 Group14 Group2 Group1 Model

v 117 40 -3
vt -41 1
v 117 40 -39
vt -5 1
v 117 41 -39
vt -5 2
v 117 41 -3
vt -41 2
f 72/132/5 73/133/5 74/134/5 75/135/5 

v 115 40 -5
vn -6.73716e-10 -1 -1.34743e-09
v 115 40 -37
vt -8.40343e-17 5
vt -8.40343e-17 41
f 76/85/11 77/86/11 73/136/11 72/137/11 

v 115 41 -37
v 115 41 -5
f 78/89/2 77/90/2 76/87/2 79/88/2 

vt 6.36396 2
vt 3.53553 2
vt 3.53553 1
vt 6.36396 1
f 78/138/7 74/139/7 73/140/7 77/141/7 

vt 0 41
vt 0 5
f 75/142/4 74/143/4 78/80/4 79/77/4 

vt 28.9914 2
vt 26.163 2
vt 26.163 1
vt 28.9914 1
f 75/144/8 79/145/8 76/146/8 72/147/8 

g Mesh12 Group17 Group14 Group2 Group1 Model

v 3 40 -3
vt -105 1
v 117 40 -3
v 117 41 -3
v 3 41 -3
vt -105 2
f 80/148/10 81/100/10 82/97/10 83/149/10 

v 5 40 -5
vt -103 0
v 115 40 -5
vt 7 0
f 81/97/1 80/149/1 84/150/1 85/151/1 

vt 75.6604 2
v 5 41 -5
vt 72.832 2
vt 72.832 1
vt 75.6604 1
f 83/152/7 86/153/7 84/154/7 80/155/7 

v 115 41 -5
vt -7 0
vt 103 0
vt 105 2
f 87/156/4 86/157/4 83/158/4 82/92/4 

vt 103 1
vt 103 2
f 85/83/9 84/159/9 86/160/9 87/84/9 

vt -7.77817 2
vt -7.77817 1
f 87/123/3 82/161/3 81/162/3 85/124/3 

g Mesh13 Group18 Group14 Group2 Group1 Model

v 117 40 -39
v 3 40 -39
vt 105 1
v 3 41 -39
f 88/102/9 89/163/9 90/158/9 74/92/9 

vt -105 -5.09382e-16
vt 9 -5.09382e-16
v 115 40 -37
v 5 40 -37
vt -103 2
f 89/164/1 88/165/1 91/89/1 92/166/1 

f 74/138/6 78/139/6 91/140/6 88/141/6 

v 5 41 -37
vt 105 0
f 93/160/4 78/84/4 74/93/4 90/167/4 

vt -103 1
f 92/168/10 91/90/10 78/89/10 93/166/10 

vt -71.4178 2
vt -74.2462 2
vt -74.2462 1
vt -71.4178 1
f 93/169/8 90/170/8 89/171/8 92/172/8 

g Mesh14 Group20 Group19 Group2 Group1 Model

v 12 2 -22
v 14 2 -22
v 14 2 -20
v 12 2 -20
f 94/52/1 95/65/1 96/53/1 97/71/1 

v 12 40 -22
vt 2 38
v 14 40 -22
vt 0 38
f 95/65/9 94/47/9 98/173/9 99/174/9 

v 12 40 -20
f 94/65/2 97/47/2 100/173/2 98/174/2 

v 14 40 -20
vt -2 38
f 97/52/10 96/65/10 101/174/10 100/175/10 

f 96/52/5 95/65/5 99/174/5 101/175/5 

f 99/65/4 98/47/4 100/50/4 101/53/4 

g Mesh15 Group21 Group19 Group2 Group1 Model

v 36 2 -14
v 38 2 -14
v 38 2 -12
v 36 2 -12
f 102/52/1 103/65/1 104/53/1 105/71/1 

v 36 40 -14
v 38 40 -14
f 103/65/9 102/47/9 106/173/9 107/174/9 

v 36 40 -12
f 102/65/2 105/47/2 108/173/2 106/174/2 

v 38 40 -12
f 105/52/10 104/65/10 109/174/10 108/175/10 

f 104/52/5 103/65/5 107/174/5 109/175/5 

f 107/65/4 106/47/4 108/50/4 109/53/4 

g Mesh16 Group22 Group19 Group2 Group1 Model

v 82 2 -30
v 84 2 -30
v 84 2 -28
v 82 2 -28
f 110/52/1 111/65/1 112/53/1 113/71/1 

v 82 40 -30
v 84 40 -30
f 111/65/9 110/47/9 114/173/9 115/174/9 

v 82 40 -28
f 110/65/2 113/47/2 116/173/2 114/174/2 

v 84 40 -28
f 113/52/10 112/65/10 117/174/10 116/175/10 

f 112/52/5 111/65/5 115/174/5 117/175/5 

f 115/65/4 114/47/4 116/50/4 117/53/4 

g Mesh17 Group23 Group19 Group2 Group1 Model

v 36 2 -30
v 38 2 -30
v 38 2 -28
v 36 2 -28
f 118/52/1 119/65/1 120/53/1 121/71/1 

v 36 40 -30
v 38 40 -30
f 119/65/9 118/47/9 122/173/9 123/174/9 

v 36 40 -28
f 118/65/2 121/47/2 124/173/2 122/174/2 

v 38 40 -28
f 121/52/10 120/65/10 125/174/10 124/175/10 

f 120/52/5 119/65/5 123/174/5 125/175/5 

f 123/65/4 122/47/4 124/50/4 125/53/4 

g Mesh18 Group24 Group19 Group2 Group1 Model

v 106 2 -22
v 108 2 -22
v 108 2 -20
v 106 2 -20
f 126/52/1 127/65/1 128/53/1 129/71/1 

v 106 40 -22
v 108 40 -22
f 127/65/9 126/47/9 130/173/9 131/174/9 

v 106 40 -20
f 126/65/2 129/47/2 132/173/2 130/174/2 

v 108 40 -20
f 129/52/10 128/65/10 133/174/10 132/175/10 

f 128/52/5 127/65/5 131/174/5 133/175/5 

f 131/65/4 130/47/4 132/50/4 133/53/4 

g Mesh19 Group25 Group19 Group2 Group1 Model

v 82 2 -14
v 84 2 -14
v 84 2 -12
v 82 2 -12
f 134/52/1 135/65/1 136/53/1 137/71/1 

v 82 40 -14
v 84 40 -14
f 135/65/9 134/47/9 138/173/9 139/174/9 

v 82 40 -12
f 134/65/2 137/47/2 140/173/2 138/174/2 

v 84 40 -12
f 137/52/10 136/65/10 141/174/10 140/175/10 

f 136/52/5 135/65/5 139/174/5 141/175/5 

f 139/65/4 138/47/4 140/50/4 141/53/4 

g Mesh20 Group27 Group26 Group2 Group1 Model

v 12 8.08463e-09 -12
vt -2 32
vn -6.73708e-10 -1 -1.34743e-09
v 12 3.23384e-08 -30
v 14 2.82961e-08 -28
vt 2.44691e-28 16
v 14 9.43206e-09 -14
vt 0 30
f 142/176/12 143/2/12 144/177/12 145/178/12 

v 12 2 -30
vt 14 -1.13244e-14
vt 32 0
v 12 2 -12
vt 32 2
f 146/5/2 143/179/2 142/180/2 147/181/2 

v 14 2 -28
vt -11.3137 3.30845e-14
vt -8.48528 -1.13244e-14
f 146/9/3 148/10/3 144/182/3 143/183/3 

v 14 2 -14
vt -2.22045e-14 30
vn 6.73704e-10 1 1.34743e-09
vt -2.22045e-14 16
vt 2 32
f 149/184/13 148/185/13 146/14/13 147/186/13 

vt -30 0
vt -16 3.30845e-14
vt -30 2
f 145/187/5 144/188/5 148/18/5 149/189/5 

vt -24.0416 0
vt -24.0416 2
f 142/190/6 145/20/6 149/23/6 147/191/6 

g Mesh21 Group28 Group26 Group2 Group1 Model

v 108 -5.65921e-08 -12
vt -32 0
v 108 -3.23383e-08 -30
vt -14 2.21892e-16
v 108 2 -30
v 108 2 -12
vt -32 2
f 150/192/5 151/193/5 152/41/5 153/194/5 

vt 0 32
v 106 -5.25498e-08 -14
vt -2 30
v 106 -3.36857e-08 -28
vt -2.41354e-35 14
f 150/195/1 154/196/1 155/25/1 151/197/1 

vt 22.6274 0
vt 22.6274 2
v 106 2 -14
f 154/44/8 150/198/8 153/199/8 156/45/8 

v 106 2 -28
vt 2 30
f 153/195/4 152/36/4 157/37/4 156/200/4 

vt 9.89949 2.21892e-16
vt 12.7279 2.21892e-16
f 157/32/7 152/33/7 151/201/7 155/202/7 

vt 16 2.21892e-16
vt 30 0
vt 30 2
f 157/28/2 155/203/2 154/204/2 156/205/2 

g Mesh22 Group29 Group26 Group2 Group1 Model

v 12 2 -12
vt 69.2965 2
v 14 2 -14
v 14 9.43206e-09 -14
v 12 8.08463e-09 -12
vt 69.2965 0
f 158/206/7 159/60/7 160/63/7 161/207/7 

vt 94 0
vt 96 2
f 156/47/4 159/208/4 158/209/4 153/53/4 

vt 94 2
f 154/47/9 160/208/9 159/210/9 156/50/9 

vt -94 0
vt -96 2
f 160/211/1 154/52/1 150/53/1 161/212/1 

f 156/55/3 153/56/3 150/57/3 154/58/3 

vt -96 0
f 161/213/10 150/65/10 153/53/10 158/212/10 

g Mesh23 Group30 Group26 Group2 Group1 Model

v 108 -3.23383e-08 -30
v 12 3.23383e-08 -30
vt 96 0
f 162/65/9 163/214/9 146/209/9 152/53/9 

v 106 -3.36858e-08 -28
v 14 2.8296e-08 -28
vt -94 2
f 163/213/1 162/65/1 164/71/1 165/215/1 

f 152/53/6 157/73/6 164/74/6 162/65/6 

v 14 2 -28
f 152/65/4 146/214/4 166/210/4 157/50/4 

vt -67.8823 2
vt -67.8823 0
f 166/67/8 146/216/8 163/217/8 165/68/8 

f 165/211/10 164/52/10 157/71/10 166/215/10 

g Mesh24 Group31 Group1 Model

usemtl _Carrera_Marble_14
v 2.79683e-08 42 -42
vt 0 2.7695
vn -0.707107 -0.707107 -9.4726e-10
v 1 41 -41.25
vt 0.0277778 2.73022
v 1 41 -0.75
vt 1.52778 2.73022
v 2.8296e-08 42 5.65921e-08
vt 1.55556 2.7695
f 167/218/14 168/219/14 169/220/14 170/221/14 

vt 3.33333 0.412479
vn -5.43655e-10 -0.8 -0.6
v 1 42 -42
vt 3.30556 0.412479
v 120 42 -42
vt 0 0.412479
v 119 41 -41.25
vt 0.0277778 0.373195
vt 3.30556 0.373195
f 167/222/15 171/223/15 172/224/15 173/225/15 168/226/15 

vt 3.30556 0
vt 3.33333 0
vt 3.33333 1.55556
v 120 42 5.56557e-08
vt 0 1.55556
f 172/65/4 171/227/4 167/228/4 170/229/4 174/230/4 

vt -3.33333 1.51242
vn -5.3429e-10 -0.8 0.6
vt -3.30556 1.47314
v 119 41 -0.75
vt -0.0277778 1.47314
vt 0 1.51242
f 170/231/16 169/232/16 175/233/16 174/234/16 

vt -0.0277778 0.0277778
vt -0.0277778 1.52778
vt -3.30556 1.52778
vt -3.30556 0.0277778
f 173/235/1 175/236/1 169/237/1 168/238/1 

vt -1.55556 0.412479
vn 0.707107 -0.707107 -9.58296e-10
vt -1.52778 0.373195
vt -0.0277778 0.373195
f 174/239/17 175/240/17 173/241/17 172/224/17 

