# Alias OBJ Model File
# Exported from SketchUp, (c) 2000-2012 Trimble Navigation Limited
# File units = inches

mtllib 37 BROOKLYN table bar height 120 x 28..mtl

g Mesh1 Group2 Group1 Model

usemtl _Carrera_Marble_14
v -28.8792 42 -122.49
vt 0 0
vn -6.73718e-10 -1 5.92119e-16
v -0.879229 42 -122.49
vt 0 28
v -0.879229 42 -2.48972
vt -120 28
v -28.8792 42 -2.48972
vt -120 -1.80311e-28
f 1/1/1 2/2/1 3/3/1 4/4/1 

vt -28 0
vn -7.80405e-12 -5.92114e-16 -1
v -28.8792 43 -122.49
vt 0 1
v -0.879229 43 -122.49
vt -28 1
f 2/5/2 1/1/2 5/6/2 6/7/2 

vn -1 6.73718e-10 7.80405e-12
vt 120 1.42109e-13
v -28.8792 43 -2.48972
vt 120 1
f 1/1/3 4/8/3 7/9/3 5/6/3 

vt -3.60622e-28 7.10543e-14
vn 7.80405e-12 5.92114e-16 1
vt 28 -7.10543e-14
v -0.879229 43 -2.48972
vt 28 1
vt -3.60622e-28 1
f 4/10/4 3/11/4 8/12/4 7/13/4 

vt -120 7.10543e-14
vn 1 -6.73718e-10 -7.80405e-12
vt 0 7.10543e-14
vt -120 1
f 3/14/5 2/15/5 6/6/5 8/16/5 

vt 5.92119e-16 28
vn 6.73718e-10 1 -5.92119e-16
vt 5.92119e-16 -2.53765e-15
vt 120 -2.53765e-15
vt 120 28
f 6/17/6 5/18/6 7/19/6 8/20/6 

g Mesh2 Group5 Group4 Group3 Group1 Model

usemtl _Color_M06_4
v -27.1292 42 -118.74
vt -0.75 0.75
vn 6.73715e-10 1 -0
v -27.8792 42 -118.74
vt -0.75 0
v -27.8792 42 -6.23972
vt 111.75 0
v -27.1292 42 -6.23972
vt 111.75 0.75
f 9/21/7 10/22/7 11/23/7 12/24/7 

vt -0.75 1.5
vn -7.80405e-12 5.25771e-21 -1
v -27.1292 40.5 -118.74
v -27.8792 40.5 -118.74
vt 0 1.5
f 9/25/8 13/22/8 14/1/8 10/26/8 

vt 0.75 0
vn 1 -6.73715e-10 -7.80405e-12
vt 0.75 1.5
vt -111.75 1.5
v -27.1292 40.5 -6.23972
vt -111.75 0
f 13/27/9 9/28/9 12/29/9 15/30/9 

vn 7.80405e-12 -5.25771e-21 1
v -27.8792 40.5 -6.23972
f 15/27/10 12/28/10 11/26/10 16/1/10 

vn -1 6.73715e-10 7.80405e-12
vt 111.75 1.5
f 10/25/11 14/22/11 16/23/11 11/31/11 

vn -6.73715e-10 -1 -0
vt 0.75 0.75
vt -111.75 0.75
f 14/27/12 13/32/12 15/33/12 16/30/12 

g Mesh3 Group6 Group4 Group3 Group1 Model

v -10.2542 42 -118.74
v -11.0042 42 -118.74
v -11.0042 42 -6.23972
v -10.2542 42 -6.23972
f 17/25/7 18/21/7 19/24/7 20/31/7 

vt -1.5 1.5
v -10.2542 40.5 -118.74
vt -1.5 0
v -11.0042 40.5 -118.74
f 17/34/8 21/35/8 22/22/8 18/25/8 

v -10.2542 40.5 -6.23972
f 21/27/9 17/28/9 20/29/9 23/30/9 

vt 1.5 0
vt 1.5 1.5
v -11.0042 40.5 -6.23972
f 23/36/10 20/37/10 19/28/10 24/27/10 

f 18/25/11 22/22/11 24/23/11 19/31/11 

f 22/32/12 21/28/12 23/29/12 24/33/12 

g Mesh4 Group7 Group4 Group3 Group1 Model

v -1.87923 40.5 -6.23972
v -1.87923 42 -6.23972
v -1.87923 42 -5.48972
v -1.87923 40.5 -5.48972
f 25/22/9 26/25/9 27/34/9 28/35/9 

vt -26 1.5
vt -26 0
v -27.8792 40.5 -6.23972
v -27.8792 42 -6.23972
f 26/38/8 25/39/8 29/1/8 30/26/8 

vt -0.75 26
vt -1.5 26
v -27.8792 40.5 -5.48972
f 25/40/12 28/41/12 31/35/12 29/22/12 

vt 26 0
vt 26 1.5
v -27.8792 42 -5.48972
f 28/42/10 27/43/10 32/26/10 31/1/10 

vt 1.5 26
vt 0.75 26
f 27/44/7 26/45/7 30/27/7 32/36/7 

f 30/28/11 29/27/11 31/36/11 32/37/11 

g Mesh5 Group8 Group4 Group3 Group1 Model

v -1.87923 40.5 -119.49
v -1.87923 42 -119.49
v -1.87923 42 -118.74
v -1.87923 40.5 -118.74
f 33/1/9 34/26/9 35/25/9 36/22/9 

v -27.8792 40.5 -119.49
v -27.8792 42 -119.49
f 34/38/8 33/39/8 37/1/8 38/26/8 

vt 0 26
v -27.8792 40.5 -118.74
f 33/46/12 36/40/12 39/22/12 37/1/12 

v -27.8792 42 -118.74
f 36/42/10 35/43/10 40/26/10 39/1/10 

f 35/45/7 34/46/7 38/1/7 40/27/7 

f 38/26/11 37/1/11 39/27/11 40/28/11 

g Mesh6 Group9 Group4 Group3 Group1 Model

v -1.87923 42 -118.74
v -2.62923 42 -118.74
v -2.62923 42 -6.23972
v -1.87923 42 -6.23972
f 41/25/7 42/21/7 43/24/7 44/31/7 

v -1.87923 40.5 -118.74
vt -1.5 -7.10543e-15
v -2.62923 40.5 -118.74
vt -0.75 -7.10543e-15
f 41/34/8 45/47/8 46/48/8 42/25/8 

vt 0.75 -7.10543e-15
v -1.87923 40.5 -6.23972
vt -111.75 -7.10543e-15
f 45/49/9 41/28/9 44/29/9 47/50/9 

vt 1.5 -7.10543e-15
v -2.62923 40.5 -6.23972
f 47/51/10 44/37/10 43/28/10 48/49/10 

vt 111.75 -7.10543e-15
f 42/25/11 46/48/11 48/52/11 43/31/11 

f 46/32/12 45/28/12 47/29/12 48/33/12 

g Mesh7 Group10 Group4 Group3 Group1 Model

v -18.7542 42 -118.74
v -19.5042 42 -118.74
v -19.5042 42 -6.23972
v -18.7542 42 -6.23972
f 49/25/7 50/21/7 51/24/7 52/31/7 

v -18.7542 40.5 -118.74
v -19.5042 40.5 -118.74
f 49/34/8 53/35/8 54/22/8 50/25/8 

v -18.7542 40.5 -6.23972
f 53/27/9 49/28/9 52/29/9 55/30/9 

v -19.5042 40.5 -6.23972
f 55/36/10 52/37/10 51/28/10 56/27/10 

f 50/25/11 54/22/11 56/23/11 51/31/11 

f 54/32/12 53/28/12 55/29/12 56/33/12 

g Mesh8 Group12 Group11 Group3 Group1 Model

v -2.87923 42 -96.8647
vt 8.8555e-29 1.5
v -2.87923 42 -96.1147
v -2.87923 40.5 -96.1147
v -2.87923 40.5 -96.8647
vt 8.8555e-29 -7.10543e-15
f 57/53/9 58/25/9 59/48/9 60/54/9 

vt 0.75 25
vt 0 25
v -27.8792 42 -96.8647
v -27.8792 42 -96.1147
vt 0.75 3.55271e-15
f 58/55/7 57/56/7 61/1/7 62/57/7 

vt -25 1.5
vt -25 -7.10543e-15
v -27.8792 40.5 -96.8647
f 57/58/8 60/59/8 63/1/8 61/26/8 

vt -0.75 25
v -27.8792 40.5 -96.1147
f 60/56/12 59/60/12 64/22/12 63/1/12 

vt 25 -7.10543e-15
vt 25 1.5
vt 3.55271e-15 1.5
vt -2.65665e-30 0
f 59/61/10 58/62/10 62/63/10 64/64/10 

f 62/28/11 61/26/11 63/1/11 64/27/11 

g Mesh9 Group13 Group11 Group3 Group1 Model

v -2.87923 42 -73.8647
v -2.87923 42 -73.1147
v -2.87923 40.5 -73.1147
vt -0.75 -1.42109e-14
v -2.87923 40.5 -73.8647
vt 8.8555e-29 -1.42109e-14
f 65/53/9 66/25/9 67/65/9 68/66/9 

v -27.8792 42 -73.8647
v -27.8792 42 -73.1147
f 66/55/7 65/56/7 69/1/7 70/27/7 

vt -25 -1.42109e-14
v -27.8792 40.5 -73.8647
f 65/58/8 68/67/8 71/1/8 69/26/8 

v -27.8792 40.5 -73.1147
f 68/56/12 67/60/12 72/48/12 71/1/12 

vt 25 -1.42109e-14
vt -2.65665e-30 1.5
vt -7.10543e-15 0
f 67/68/10 66/62/10 70/69/10 72/70/10 

f 70/28/11 69/26/11 71/1/11 72/27/11 

g Mesh10 Group14 Group11 Group3 Group1 Model

v -2.87923 42 -50.8647
v -2.87923 42 -50.1147
v -2.87923 40.5 -50.1147
v -2.87923 40.5 -50.8647
f 73/53/9 74/25/9 75/65/9 76/66/9 

v -27.8792 42 -50.8647
v -27.8792 42 -50.1147
f 74/55/7 73/56/7 77/1/7 78/27/7 

v -27.8792 40.5 -50.8647
f 73/58/8 76/67/8 79/1/8 77/26/8 

v -27.8792 40.5 -50.1147
f 76/56/12 75/60/12 80/48/12 79/1/12 

f 75/68/10 74/62/10 78/69/10 80/70/10 

f 78/28/11 77/26/11 79/1/11 80/27/11 

g Mesh11 Group15 Group11 Group3 Group1 Model

v -2.87923 42 -27.8647
v -2.87923 42 -27.1147
v -2.87923 40.5 -27.1147
v -2.87923 40.5 -27.8647
f 81/53/9 82/25/9 83/48/9 84/54/9 

v -27.8792 42 -27.8647
v -27.8792 42 -27.1147
f 82/55/7 81/56/7 85/1/7 86/27/7 

v -27.8792 40.5 -27.8647
f 81/58/8 84/59/8 87/1/8 85/26/8 

v -27.8792 40.5 -27.1147
vt -0.75 -3.55271e-15
f 84/56/12 83/60/12 88/71/12 87/1/12 

vt -3.55271e-15 0
f 83/61/10 82/62/10 86/69/10 88/72/10 

f 86/28/11 85/26/11 87/1/11 88/27/11 

g Mesh12 Group18 Group17 Group16 Group3 Group1 Model

v -1.87923 1 -122.49
vt 6.73408e-29 0.707107
vn -0.707107 -0.707107 5.51851e-12
v -0.879229 2.23296e-14 -122.49
vt 2.96059e-16 -0.707107
v -0.879229 2.41059e-14 -119.49
vt 3 -0.707107
v -1.87923 1 -119.49
vt 3 0.707107
f 89/73/13 90/74/13 91/75/13 92/76/13 

v -1.87923 41 -122.49
vt -2.27374e-13 41
v -0.879229 41 -122.49
vt -1 41
vt -1 1.24345e-14
vt -2.27374e-13 1
f 93/77/8 94/78/8 90/79/8 89/80/8 

v -0.879229 38 -119.49
vt 1 24.7487
vn 4.81892e-10 0.707107 0.707107
vt 1 28.9914
vt 2.27374e-13 28.9914
v -1.87923 38 -119.49
vt 2.91323e-13 24.7487
f 95/81/14 94/82/14 93/83/14 96/84/14 

vt 0 1.24345e-14
vt 0 41
vt -3 38
vt -3 1.42109e-14
f 90/85/9 94/86/9 95/87/9 91/88/9 

vt 2.27374e-13 1
vt 1 1.42109e-14
vt 1 38
vt 2.27374e-13 38
f 92/89/10 91/90/10 95/91/10 96/92/10 

vt 3 1
vt 3 38
f 92/93/11 96/94/11 93/86/11 89/6/11 

g Mesh13 Group19 Group17 Group16 Group3 Group1 Model

v -1.87923 1 -5.48972
vt 2.57195e-26 0.707107
vn -0.707107 -0.707107 5.55828e-12
v -0.879229 2.41053e-14 -5.48972
vt 5.65474e-14 -0.707107
v -0.879229 2.23289e-14 -2.48972
v -1.87923 1 -2.48972
f 97/95/15 98/96/15 99/75/15 100/76/15 

v -1.87923 38 -5.48972
vt 9.09495e-13 38
vn -7.8283e-12 -4.84978e-14 -1
v -0.879229 38 -5.48972
vt -1 38
vt -1 1.42109e-14
vt -4.54747e-13 1
f 101/97/16 102/98/16 98/99/16 97/100/16 

v -0.879229 41 -2.48972
vt -1 31.1127
vn 4.70918e-10 0.707107 -0.707107
vt -1 26.8701
vt 9.09495e-13 26.8701
v -1.87923 41 -2.48972
vt 7.0699e-13 31.1127
f 103/101/17 102/102/17 101/103/17 104/104/17 

vt -3 -3.05664e-14
vn 1 -6.73672e-10 -7.93924e-12
vt -1.35187e-13 -2.87901e-14
vt 1.6838e-12 38
vt -3 41
f 99/105/18 98/106/18 102/107/18 103/108/18 

vt -9.76854e-13 41
vn 7.8265e-12 4.49065e-14 1
vt 3.87388e-13 1
vt 1 -1.22285e-13
vt 1 41
f 104/109/19 100/110/19 99/111/19 103/112/19 

vn -1 6.7368e-10 7.82174e-12
vt 3 41
vt -1.81899e-12 38
vt 8.04474e-27 1
f 100/93/20 104/113/20 101/114/20 97/115/20 

g Mesh14 Group20 Group17 Group16 Group3 Group1 Model

v -28.8792 1.8864e-08 -122.49
vt 0 1.60777e-13
vn 0.707107 -0.707107 -5.5183e-12
v -27.8792 1 -122.49
vt 0 1.41421
v -27.8792 1 -119.49
vt -3 1.41421
v -28.8792 1.8864e-08 -119.49
vt -3 1.60777e-13
f 105/116/21 106/117/21 107/118/21 108/119/21 

v -28.8792 41 -122.49
vt -4.54747e-13 41
v -27.8792 41 -122.49
vt -1 1
vt -2.27374e-13 0
f 109/120/8 110/78/8 106/121/8 105/122/8 

vt 4.54747e-13 28.9914
vn 4.81895e-10 0.707107 0.707107
v -28.8792 38 -119.49
vt 7.35412e-13 24.7487
v -27.8792 38 -119.49
f 109/123/22 111/124/22 112/81/22 110/82/22 

vt 3 8.59098e-28
vn -1 6.73724e-10 7.8462e-12
vt 1.91685e-26 41
vt 9.58427e-27 1.9356e-27
f 108/125/23 111/94/23 109/126/23 105/127/23 

vt 2.27374e-13 0
vt 1 1
vt 6.82121e-13 38
f 108/128/10 107/129/10 112/91/10 111/130/10 

vt -2.94843e-15 1
vn 1 -6.73721e-10 -7.807e-12
vt -2.94843e-15 41
vt -3 1
f 106/131/24 110/132/24 112/87/24 107/133/24 

g Mesh15 Group21 Group17 Group16 Group3 Group1 Model

v -28.8792 1.8864e-08 -5.48972
vt -1.30593e-26 1.6329e-13
vn 0.707107 -0.707107 -5.55891e-12
v -27.8792 1 -5.48972
vt -5.74355e-14 1.41421
v -27.8792 1 -2.48972
v -28.8792 1.8864e-08 -2.48972
vt -3 3.60493e-13
f 113/134/25 114/135/25 115/118/25 116/136/25 

v -28.8792 38 -5.48972
vt -2.27374e-13 38
vn -7.79193e-12 -2.42489e-14 -1
v -27.8792 38 -5.48972
vt -2.27374e-13 3.55271e-15
f 117/137/26 118/98/26 114/121/26 113/138/26 

vt -2.27374e-13 26.8701
vn 4.7083e-10 0.707107 -0.707107
v -28.8792 41 -2.48972
vt 3.97904e-13 31.1127
v -27.8792 41 -2.48972
f 117/139/27 119/140/27 120/101/27 118/102/27 

vt 3 -7.92588e-27
vn -1 6.73704e-10 7.81002e-12
vt -9.09495e-13 38
vt 1.35658e-27 3.55271e-15
f 116/141/28 119/113/28 117/142/28 113/143/28 

vt -1.93694e-13 41
vn 7.79282e-12 2.24532e-14 1
vt 7.15801e-13 -6.73597e-14
f 119/144/29 116/145/29 115/129/29 120/112/29 

vt -1.47421e-14 1
vn 1 -6.73686e-10 -7.81879e-12
vt 8.94753e-13 38
f 114/146/30 118/147/30 120/108/30 115/133/30 

g Mesh16 Group22 Group17 Group16 Group3 Group1 Model

v -0.879229 41 -122.49
vt -1 2.12132
vn -4.82004e-10 -0.707107 -0.707107
v -0.879229 38 -119.49
vt -1 -2.12132
v -1.87923 38 -119.49
vt 4.1056e-13 -2.12132
v -1.87923 41 -122.49
vt -2.27374e-13 2.12132
f 121/148/31 122/149/31 123/150/31 124/151/31 

vt 3.99013e-15 3
vn 1 -6.73683e-10 -7.80006e-12
v -0.879229 41 -2.48972
vt -120 3
v -0.879229 38 -5.48972
vt -117 1.02086e-13
vt -3 1.30508e-13
f 121/152/32 125/153/32 126/154/32 122/155/32 

v -1.87923 41 -2.48972
vt 120 1.35003e-13
vn 6.73708e-10 1 5.92119e-16
vt -1.77636e-15 1
vt -1.77636e-15 2.4869e-13
f 127/156/33 125/9/33 121/157/33 124/158/33 

vt -1.7792e-11 86.9741
vn -4.70765e-10 -0.707107 0.707107
v -1.87923 38 -5.48972
vt -1.73443e-11 82.7315
vt 1 82.7315
vt 1 86.9741
f 127/159/34 128/160/34 126/161/34 125/162/34 

vt 3 2.98428e-13
vn -1 6.73753e-10 7.80403e-12
vt 117 -1.42109e-14
vt 120 3
vt -5.66128e-30 3
f 123/163/35 128/164/35 127/165/35 124/166/35 

vn -6.73708e-10 -1 -1.49588e-15
vt -117 1
vt -117 1.13687e-13
vt -3 2.15234e-27
f 122/133/36 126/167/36 128/168/36 123/169/36 

g Mesh17 Group23 Group17 Group16 Group3 Group1 Model

v -27.8792 38 -119.49
vt -3 2.16907e-13
vn 1 -6.73769e-10 -7.79976e-12
v -27.8792 41 -122.49
vt 4.2938e-15 3
v -27.8792 41 -2.48972
v -27.8792 38 -5.48972
vt -117 -3.36159e-15
f 129/170/37 130/171/37 131/153/37 132/172/37 

v -28.8792 38 -119.49
v -28.8792 41 -122.49
f 130/148/31 129/149/31 133/150/31 134/151/31 

vn -6.73804e-10 -1 -2.33731e-15
v -28.8792 38 -5.48972
vt -3 -2.71285e-26
f 129/133/38 132/167/38 135/168/38 133/173/38 

v -28.8792 41 -2.48972
vt 5.34328e-12 86.9741
vn -4.70901e-10 -0.707107 0.707107
vt 5.1017e-12 82.7315
f 136/174/39 135/175/39 132/161/39 131/162/39 

vn -1 6.73772e-10 7.80452e-12
vt 1.07564e-28 3
f 133/163/40 135/164/40 136/165/40 134/176/40 

vt 120 -3.90799e-14
vn 6.73804e-10 1 7.99361e-16
vt -2.39808e-15 1
vt -2.39808e-15 -3.90799e-14
f 136/177/41 131/9/41 130/178/41 134/179/41 

g Mesh18 Group24 Group17 Group16 Group3 Group1 Model

v -0.879229 -2.53943e-15 -122.49
v -0.879229 -2.53944e-15 -119.49
vt -3 28
v -28.8792 1.8864e-08 -119.49
vt -3 0
v -28.8792 1.8864e-08 -122.49
f 137/2/12 138/180/12 139/181/12 140/1/12 

vt 0 -19.799
vn 0.707107 0.707107 -5.5183e-12
v -1.87923 1 -122.49
vt 0 -18.3848
v -1.87923 1 -119.49
vt -3 -18.3848
vt -3 -19.799
f 137/182/42 141/183/42 142/184/42 138/185/42 

v -27.8792 1 -122.49
vt -27 1
f 137/5/8 140/1/8 143/121/8 141/186/8 

vn -0.707107 0.707107 5.5183e-12
vt 3 0
v -27.8792 1 -119.49
vt 3 1.41421
f 143/117/43 140/1/43 139/187/43 144/188/43 

vt 28 0
vt 27 1
f 139/1/10 138/189/10 142/190/10 144/129/10 

vt 3 27
vt 0 27
f 143/6/7 144/93/7 142/191/7 141/192/7 

g Mesh19 Group25 Group17 Group16 Group3 Group1 Model

v -0.879229 1.01267e-15 -5.48972
v -0.879229 1.01266e-15 -2.48972
v -28.8792 1.8864e-08 -2.48972
f 145/2/12 146/180/12 147/181/12 113/1/12 

v -1.87923 1 -5.48972
v -1.87923 1 -2.48972
f 145/182/42 148/183/42 149/184/42 146/185/42 

v -27.8792 1 -5.48972
f 145/5/8 113/1/8 150/121/8 148/186/8 

v -27.8792 1 -2.48972
f 150/117/43 113/1/43 147/187/43 151/188/43 

f 147/1/10 146/189/10 149/190/10 151/129/10 

f 150/6/7 151/93/7 149/191/7 148/192/7 

g Mesh20 Group27 Group26 Group16 Group3 Group1 Model

v -27.8792 13 -121.49
v -27.8792 13 -120.49
vt 1 3.55271e-15
v -27.8792 16 -120.49
vt 1 3
v -27.8792 16 -121.49
vt 0 3
f 152/1/11 153/193/11 154/194/11 155/195/11 

v -1.87923 13 -121.49
vn -6.73715e-10 -1 3.55271e-15
v -1.87923 13 -120.49
vt -1 26
vt -1 0
f 156/46/44 157/196/44 153/197/44 152/1/44 

vt -1 3.55271e-15
v -1.87923 16 -121.49
v -1.87923 16 -120.49
vt -1 3
f 157/198/9 156/1/9 158/195/9 159/199/9 

vt -26 3
f 158/200/8 156/39/8 152/1/8 155/195/8 

vt 1 26
vt 1 0
f 159/201/7 158/46/7 155/1/7 154/202/7 

vt 26 3.55271e-15
vt 26 3
vt 0 3.55271e-15
f 157/203/10 159/204/10 154/195/10 153/205/10 

g Mesh21 Group28 Group26 Group16 Group3 Group1 Model

v -27.8792 25 -121.49
v -27.8792 25 -120.49
v -27.8792 28 -120.49
v -27.8792 28 -121.49
f 160/1/11 161/193/11 162/194/11 163/195/11 

v -1.87923 25 -121.49
v -1.87923 25 -120.49
f 164/46/44 165/196/44 161/197/44 160/1/44 

v -1.87923 28 -121.49
v -1.87923 28 -120.49
f 165/198/9 164/1/9 166/195/9 167/199/9 

f 166/200/8 164/39/8 160/1/8 163/195/8 

f 167/201/7 166/46/7 163/1/7 162/202/7 

f 165/203/10 167/204/10 162/195/10 161/205/10 

g Mesh22 Group29 Group26 Group16 Group3 Group1 Model

v -27.8792 25 -4.48972
v -27.8792 25 -3.48972
v -27.8792 28 -3.48972
v -27.8792 28 -4.48972
f 168/1/11 169/193/11 170/194/11 171/195/11 

v -1.87923 25 -4.48972
v -1.87923 25 -3.48972
f 172/46/44 173/196/44 169/197/44 168/1/44 

v -1.87923 28 -4.48972
v -1.87923 28 -3.48972
f 173/198/9 172/1/9 174/195/9 175/199/9 

f 174/200/8 172/39/8 168/1/8 171/195/8 

f 175/201/7 174/46/7 171/1/7 170/202/7 

f 173/203/10 175/204/10 170/195/10 169/205/10 

g Mesh23 Group30 Group26 Group16 Group3 Group1 Model

v -27.8792 13 -4.48972
v -27.8792 13 -3.48972
v -27.8792 16 -3.48972
v -27.8792 16 -4.48972
f 176/1/11 177/193/11 178/194/11 179/195/11 

v -1.87923 13 -4.48972
v -1.87923 13 -3.48972
f 180/46/44 181/196/44 177/197/44 176/1/44 

v -1.87923 16 -4.48972
v -1.87923 16 -3.48972
f 181/198/9 180/1/9 182/195/9 183/199/9 

f 182/200/8 180/39/8 176/1/8 179/195/8 

f 183/201/7 182/46/7 179/1/7 178/202/7 

f 181/203/10 183/204/10 178/195/10 177/205/10 

g Mesh24 Group32 Group31 Group3 Group1 Model

v -1.87923 40 -2.48972
vt 26 1.47793e-12
vn 7.7851e-12 -5.24495e-21 1
v -1.87923 41 -2.48972
vt 26 1
v -27.8792 41 -2.48972
vt 5.68434e-14 1
v -27.8792 40 -2.48972
vt 1.7053e-13 6.46235e-27
f 184/206/45 185/207/45 186/208/45 187/209/45 

vt -3 4.44286e-26
vn 1 -6.73659e-10 -7.7851e-12
v -1.87923 40 -5.48972
vt 4.92643e-13 4.76598e-26
v -1.87923 41 -5.48972
vt 4.92643e-13 1
f 184/210/46 188/211/46 189/212/46 185/133/46 

vn -6.73659e-10 -1 -4.43609e-25
vt -3 26
vt -3 1.13687e-13
v -27.8792 40 -5.48972
vt 0 1.13687e-13
f 188/46/47 184/213/47 187/214/47 190/215/47 

vt -2.15412e-27 -6.46235e-27
vn -1 6.73659e-10 7.7851e-12
vt 3 -9.69352e-27
v -27.8792 41 -5.48972
vt -2.15412e-27 1
f 190/216/48 187/217/48 186/93/48 191/218/48 

vt 3 26
vn 6.73659e-10 1 4.41455e-25
vt 2.15412e-27 26
vt 2.15412e-27 1.7053e-13
vt 3 5.68434e-14
f 185/219/49 189/220/49 191/221/49 186/222/49 

vt -26 1
vn -7.7851e-12 5.24494e-21 -1
vt -26 1.47793e-12
vt -1.13687e-13 0
vt -1.13687e-13 1
f 189/223/50 188/224/50 190/225/50 191/226/50 

g Mesh25 Group33 Group31 Group3 Group1 Model

v -1.87923 40 -119.49
v -1.87923 41 -119.49
v -27.8792 41 -119.49
v -27.8792 40 -119.49
f 192/206/45 193/207/45 194/208/45 195/209/45 

v -1.87923 40 -122.49
v -1.87923 41 -122.49
f 192/210/46 196/211/46 197/212/46 193/133/46 

v -27.8792 40 -122.49
f 196/46/47 192/213/47 195/214/47 198/215/47 

v -27.8792 41 -122.49
f 198/216/48 195/217/48 194/93/48 199/218/48 

f 193/219/49 197/220/49 199/221/49 194/222/49 

f 197/223/50 196/224/50 198/225/50 199/226/50 

