# Alias OBJ Model File
# Exported from SketchUp, (c) 2000-2012 Trimble Navigation Limited
# File units = inches

mtllib 38 Star leg table 36 x 36 bar height.mtl

g Mesh1 Group5 Group4 Group3 Group2 Group1 Model

usemtl _Color_M06_4
v -22.6292 41 -40.4897
vt 0 0.75
vn -7.80405e-12 5.25771e-21 -1
v -21.1292 41 -40.4897
vt -1.5 0.75
v -21.1292 40.25 -40.4897
vt -1.5 0
v -22.6292 40.25 -40.4897
vt 0 0
f 1/1/1 2/2/1 3/3/1 4/4/1 

v -22.6292 41 -24.2397
vt 13.25 1.77636e-15
vn 6.73713e-10 1 1.84837e-26
v -21.1292 41 -24.2397
vt 13.25 1.5
vt -3 1.5
vt -3 1.77636e-15
f 5/5/2 6/6/2 2/7/2 1/8/2 

vt 1.5 0.75
vn 7.80405e-12 -5.25771e-21 1
v -22.6292 40.25 -24.2397
v -21.1292 40.25 -24.2397
vt 1.5 0
f 6/9/3 5/1/3 7/4/3 8/10/3 

vt -3 0.75
vn -1 6.73715e-10 7.80405e-12
vt -3 0
vt 13.25 0
vt 13.25 0.75
f 1/11/4 4/12/4 7/13/4 5/14/4 

vt 3 0
vn -6.73715e-10 -1 -0
vt 3 1.5
vt -13.25 1.5
vt -13.25 0
f 4/15/5 3/16/5 8/17/5 7/18/5 

vn 1 -6.73715e-10 -7.80405e-12
vt 3 0.75
vt -13.25 0.75
f 3/15/6 2/19/6 6/20/6 8/18/6 

g Mesh2 Group6 Group4 Group3 Group2 Group1 Model

v -22.6292 41 -22.7397
v -21.1292 41 -22.7397
v -21.1292 40.25 -22.7397
v -22.6292 40.25 -22.7397
f 9/1/1 10/2/1 11/3/1 12/4/1 

v -22.6292 41 -6.48972
vt 16.25 1.77636e-15
v -21.1292 41 -6.48972
vt 16.25 1.5
vt 0 1.5
vt 0 1.77636e-15
f 13/21/2 14/22/2 10/23/2 9/24/2 

v -22.6292 40.25 -6.48972
v -21.1292 40.25 -6.48972
f 14/9/3 13/1/3 15/4/3 16/10/3 

vt 16.25 0
vt 16.25 0.75
f 9/1/4 12/4/4 15/25/4 13/26/4 

vt -16.25 1.5
vt -16.25 0
f 12/4/5 11/23/5 16/27/5 15/28/5 

vt -16.25 0.75
f 11/4/6 10/1/6 14/29/6 16/28/6 

g Mesh3 Group7 Group4 Group3 Group2 Group1 Model

v -17.3792 40.25 -24.2397
vt -18.5 0
v -26.3792 40.25 -24.2397
vt -9.5 0
v -38.8792 40.25 -24.2397
v -38.8792 41 -24.2397
v -4.87923 41 -24.2397
vt -31 0.75
v -4.87923 40.25 -24.2397
vt -31 0
f 17/30/1 18/31/1 19/15/1 20/19/1 21/32/1 22/33/1 

vt -6.5 9.5
v -26.3792 40.25 -22.7397
vt -8 9.5
v -38.8792 40.25 -22.7397
vt -8 -3
vt -6.5 -3
f 18/34/5 23/35/5 24/36/5 19/37/5 

vt 9.5 0
v -17.3792 40.25 -22.7397
vt 18.5 0
v -4.87923 40.25 -22.7397
vt 31 0
v -4.87923 41 -22.7397
vt 31 0.75
v -38.8792 41 -22.7397
f 23/38/3 25/39/3 26/40/3 27/41/3 28/11/3 24/12/3 

vt -8 18.5
vt -6.5 18.5
vt -6.5 31
vt -8 31
f 25/42/5 17/43/5 22/44/5 26/45/5 

vt -8 0
vt -6.5 0
vt -6.5 0.75
vt -8 0.75
f 26/46/6 22/47/6 21/48/6 27/49/6 

vt 6.5 31
vn 6.73715e-10 1 -0
vt 6.5 -3
vt 8 -3
vt 8 31
f 21/50/7 20/51/7 28/52/7 27/53/7 

vt 6.5 0
vt 8 0
vt 8 0.75
vt 6.5 0.75
f 19/54/4 24/55/4 28/56/4 20/57/4 

g Mesh4 Group9 Group8 Group4 Group3 Group2 Group1 Model

v -40.3792 40.25 -41.9897
vt 0 -3
v -3.37923 40.25 -41.9897
vt 0 34
v -4.87923 40.25 -40.4897
vt -1.5 32.5
v -38.8792 40.25 -40.4897
vt -1.5 -1.5
f 29/58/5 30/59/5 31/60/5 32/61/5 

v -3.37923 41 -41.9897
vt -34 0.75
vt -34 0
v -40.3792 41 -41.9897
f 33/62/1 30/63/1 29/15/1 34/19/1 

vt 24.0416 0.75
vn 0.707107 -4.76389e-10 0.707107
v -4.87923 41 -40.4897
vt 21.9203 0.75
vt 21.9203 0
vt 24.0416 0
f 33/64/8 35/65/8 31/66/8 30/67/8 

v -38.8792 41 -40.4897
vt 1.5 -1.5
vt 1.5 32.5
f 36/68/7 35/69/7 33/59/7 34/58/7 

vt 32.5 0
vt 32.5 0.75
f 32/3/3 31/70/3 35/71/3 36/2/3 

vn -0.707107 4.76389e-10 0.707107
vt -2.12132 0.75
vt -2.12132 0
f 36/1/9 34/72/9 29/73/9 32/4/9 

g Mesh5 Group10 Group8 Group4 Group3 Group2 Group1 Model

v -3.37923 40.25 -4.98972
vt -1.5 34
vn -6.73715e-10 -1 -1.01648e-15
v -40.3792 40.25 -4.98972
vt -1.5 -3
v -38.8792 40.25 -6.48972
vt 0 -1.5
v -4.87923 40.25 -6.48972
vt 3.61126e-30 32.5
f 37/74/10 38/75/10 39/76/10 40/77/10 

vt 34 0
v -3.37923 41 -4.98972
vt 34 0.75
v -40.3792 41 -4.98972
f 38/12/3 37/78/3 41/79/3 42/11/3 

v -4.87923 41 -6.48972
vt -22.981 0.75
vn 0.707107 -4.76389e-10 -0.707107
vt -25.1023 0.75
vt -25.1023 0
vt -22.981 3.55271e-15
f 43/80/11 41/81/11 37/82/11 40/83/11 

vt 0 32.5
v -38.8792 41 -6.48972
vt 1.5 -3
vt 1.5 34
f 43/84/7 44/76/7 42/85/7 41/86/7 

vt -32.5 3.55271e-15
vt -32.5 0.75
f 40/87/1 39/10/1 44/9/1 43/88/1 

vt 3.18198 0.75
vn -0.707107 4.76389e-10 -0.707107
vt 1.06066 0.75
vt 1.06066 0
vt 3.18198 0
f 42/89/12 44/90/12 39/91/12 38/92/12 

g Mesh6 Group11 Group8 Group4 Group3 Group2 Group1 Model

v -3.37923 40.25 -4.98972
v -3.37923 40.25 -41.9897
v -3.37923 41 -41.9897
v -3.37923 41 -4.98972
f 45/63/6 46/15/6 47/19/6 48/62/6 

vn -6.73716e-10 -1 -5.52132e-17
vt -34 1.5
v -4.87923 40.25 -6.48972
vt -32.5 -1.824e-30
v -4.87923 40.25 -40.4897
vt 1.5 -3.52708e-30
f 46/16/13 45/93/13 49/94/13 50/95/13 

vt 25.1023 0.75
v -4.87923 41 -6.48972
vt 22.981 0.75
vt 22.981 0
vt 25.1023 0
f 48/96/9 51/97/9 49/98/9 45/99/9 

v -4.87923 41 -40.4897
vt 34 1.5
f 52/3/7 51/70/7 48/100/7 47/7/7 

vt -1.5 3.55271e-15
f 50/101/4 49/70/4 51/71/4 52/2/4 

vt -1.06066 0.75
vt -3.18198 0.75
vt -3.18198 0
vt -1.06066 3.55271e-15
f 52/102/12 47/103/12 46/104/12 50/105/12 

g Mesh7 Group12 Group8 Group4 Group3 Group2 Group1 Model

v -40.3792 40.25 -4.98972
v -40.3792 40.25 -41.9897
v -38.8792 40.25 -40.4897
vt 1.5 1.5
v -38.8792 40.25 -6.48972
vt -32.5 1.5
f 53/63/5 54/15/5 55/106/5 56/107/5 

v -40.3792 41 -4.98972
v -40.3792 41 -41.9897
f 54/12/4 53/78/4 57/79/4 58/11/4 

v -38.8792 41 -6.48972
vt -21.9203 0.75
vt -24.0416 0.75
vt -24.0416 0
vt -21.9203 0
f 59/108/8 57/109/8 53/110/8 56/111/8 

vt 32.5 1.5
v -38.8792 41 -40.4897
vt -1.5 1.5
f 59/112/7 60/113/7 58/12/7 57/78/7 

vt -32.5 0
f 56/114/6 55/10/6 60/9/6 59/88/6 

vt 2.12132 0.75
vt -2.02061e-14 0.75
vt -2.02061e-14 0
vt 2.12132 0
f 58/115/11 60/116/11 55/117/11 54/118/11 

g Mesh8 Group14 Group13 Group3 Group2 Group1 Model

v -23.3792 1.51586e-08 -11.4897
v -20.3792 1.31375e-08 -11.4897
v -20.3792 2 -11.4897
vt 3 2
v -23.3792 2 -11.4897
vt 0 2
f 61/4/3 62/15/3 63/119/3 64/120/3 

vt -24 0
v -23.3792 1.51586e-08 -35.4897
v -20.3792 1.31375e-08 -35.4897
vt 0 3
vt -24 3
f 61/121/5 65/4/5 66/122/5 62/123/5 

vt 24 0
vt 24 2
v -23.3792 2 -35.4897
f 65/4/4 61/124/4 64/125/4 67/120/4 

vt 24 3
v -20.3792 2 -35.4897
f 67/4/7 64/124/7 63/126/7 68/122/7 

vt -24 2
f 62/121/6 66/4/6 68/120/6 63/127/6 

vt -3 2
f 66/12/1 65/4/1 67/120/1 68/128/1 

g Mesh9 Group15 Group13 Group3 Group2 Group1 Model

v -9.87923 2 -21.9897
vt 3 10.5
v -9.87923 2 -24.9897
vt 0 10.5
v -20.3792 2 -24.9897
v -20.3792 2 -21.9897
f 69/129/7 70/130/7 71/4/7 72/15/7 

v -9.87923 6.06344e-09 -21.9897
v -9.87923 6.06344e-09 -24.9897
f 70/120/6 69/128/6 73/12/6 74/4/6 

vt 10.5 0
vt 10.5 2
v -20.3792 1.31375e-08 -21.9897
f 73/131/3 69/132/3 72/120/3 75/4/3 

v -20.3792 1.31375e-08 -24.9897
f 72/119/4 71/120/4 76/4/4 75/15/4 

vt -10.5 2
vt -10.5 0
f 70/133/1 74/134/1 76/4/1 71/120/1 

vt -3 10.5
f 74/130/5 73/135/5 75/12/5 76/4/5 

g Mesh10 Group16 Group13 Group3 Group2 Group1 Model

v -23.3792 2 -21.9897
v -23.3792 2 -24.9897
v -33.8792 2 -24.9897
v -33.8792 2 -21.9897
f 77/129/7 78/130/7 79/4/7 80/15/7 

v -23.3792 1.51586e-08 -21.9897
v -23.3792 1.51586e-08 -24.9897
f 78/120/6 77/128/6 81/12/6 82/4/6 

v -33.8792 2.22326e-08 -21.9897
f 81/131/3 77/132/3 80/120/3 83/4/3 

v -33.8792 2.22326e-08 -24.9897
f 80/119/4 79/120/4 84/4/4 83/15/4 

f 78/133/1 82/134/1 84/4/1 79/120/1 

f 82/130/5 81/135/5 83/12/5 84/4/5 

g Mesh11 Group17 Group13 Group3 Group2 Group1 Model

vt -3 -0.5
vt 0 -0.5
v -20.3792 40 -24.9897
vt 0 37.5
v -20.3792 40 -21.9897
vt -3 37.5
f 72/136/6 71/137/6 85/138/6 86/139/6 

vt -3 3
f 77/12/5 78/4/5 71/122/5 72/140/5 

vt 3 -0.5
v -23.3792 40 -21.9897
vt 3 37.5
v -23.3792 40 -24.9897
f 78/137/4 77/141/4 87/142/4 88/138/4 

f 77/137/3 72/141/3 86/142/3 87/138/3 

vt 3 3
f 88/4/7 87/15/7 86/143/7 85/122/7 

f 71/136/1 78/137/1 88/138/1 85/139/1 

g Mesh12 Group18 Group3 Group2 Group1 Model

v -26.3792 40 -27.9897
v -17.3792 40 -27.9897
vt 0 9
v -17.3792 40 -18.9897
vt -9 9
v -26.3792 40 -18.9897
vt -9 0
f 89/4/5 90/144/5 91/145/5 92/146/5 

v -26.3792 40.25 -27.9897
vt 0 0.25
v -17.3792 40.25 -27.9897
vt -9 0.25
f 90/146/1 89/4/1 93/147/1 94/148/1 

vt 9 0
v -26.3792 40.25 -18.9897
vt 9 0.25
f 89/4/4 92/149/4 95/150/4 93/147/4 

v -17.3792 40.25 -18.9897
f 92/4/3 91/149/3 96/150/3 95/147/3 

f 91/146/6 90/4/6 94/147/6 96/148/6 

vt 9 9
f 94/144/7 93/4/7 95/149/7 96/151/7 

g Mesh13 Group19 Group1 Model

usemtl _Carrera_Marble_14
v -42.8792 42 -44.4897
v -42.8792 42 -2.48972
vt 1.16667 0
v -0.879229 42 -2.48972
vt 1.16667 1.16667
v -0.879229 42 -44.4897
vt 0 1.16667
f 97/4/7 98/152/7 99/153/7 100/154/7 

vt 0 0.0196419
vn -0.707107 -0.707107 5.5183e-12
v -41.8792 41 -43.4897
vt 0.0277778 -0.0196419
v -41.8792 41 -3.48972
vt 1.13889 -0.0196419
vt 1.16667 0.0196419
f 97/155/14 101/156/14 102/157/14 98/158/14 

vt -1.16667 0.0196419
vn -4.81907e-10 -0.707107 -0.707107
v -1.87923 41 -43.4897
vt -1.13889 -0.0196419
vt -0.0277778 -0.0196419
f 100/159/15 103/160/15 101/161/15 97/155/15 

vt -1.16667 0.8446
vn 0.707107 -0.707107 -5.5183e-12
v -1.87923 41 -3.48972
vt -1.13889 0.805316
vt -0.0277778 0.805316
vt 0 0.8446
f 99/162/16 104/163/16 103/164/16 100/165/16 

vn -4.7087e-10 -0.707107 0.707107
vt 0.0277778 0.805316
vt 1.13889 0.805316
vt 1.16667 0.8446
f 98/165/17 102/166/17 104/167/17 99/168/17 

vt -1.13889 0.0277778
vt -0.0277778 0.0277778
vt -0.0277778 1.13889
vt -1.13889 1.13889
f 102/169/5 101/170/5 103/171/5 104/172/5 

