# Alias OBJ Model File
# Exported from SketchUp, (c) 2000-2012 Trimble Navigation Limited
# File units = inches

mtllib 39 Waterfall table 120 x 28 bar height.mtl

g Mesh1 Group5 Group4 Group3 Group2 Group1 Model

usemtl _Color_M06_4
v -27 1.81927e-08 -119
vt 0 0
vn -7.80378e-12 4.14427e-15 -1
v -25 2 -119
vt -2 2
v -3 2 -119
vt -24 2
v -1 6.76092e-10 -119
vt -26 -2.94751e-29
f 1/1/1 2/2/1 3/3/1 4/4/1 

vt 0 2.82843
vn -0.707107 0.707107 5.5183e-12
v -27 1.81927e-08 -117
vt 2 0
v -25 2 -117
vt 2 2.82843
f 2/5/2 1/1/2 5/6/2 6/7/2 

vn -6.73715e-10 -1 -0
vt 0 26
v -1 6.76092e-10 -117
vt -2 26
vt -2 0
f 1/1/3 4/8/3 7/9/3 5/10/3 

v -3 2 -117
vt -2 -15.5563
vn 0.707107 0.707107 -5.5183e-12
vt -2 -18.3848
vt 0 -18.3848
vt -2.84217e-14 -15.5563
f 8/11/4 7/12/4 4/13/4 3/14/4 

vn 7.80405e-12 -5.25771e-21 1
vt 26 0
vt 24 2
vt 2 2
f 5/1/5 7/15/5 8/16/5 6/17/5 

vt 2 24
vn 6.73715e-10 1 -0
vt 2.84217e-14 24
vt 0 2
f 8/18/6 3/19/6 2/20/6 6/17/6 

g Mesh2 Group6 Group4 Group3 Group2 Group1 Model

v -27 1.81927e-08 -3
v -25 2 -3
v -3 2 -3
v -1 6.76092e-10 -3
f 9/1/1 10/2/1 11/3/1 12/4/1 

v -27 1.81927e-08 -1
v -25 2 -1
f 10/5/2 9/1/2 13/6/2 14/7/2 

v -1 6.76092e-10 -1
f 9/1/3 12/8/3 15/9/3 13/10/3 

v -3 2 -1
f 16/11/4 15/12/4 12/13/4 11/14/4 

f 13/1/5 15/15/5 16/16/5 14/17/5 

f 16/18/6 11/19/6 10/20/6 14/17/6 

g Mesh3 Group7 Group4 Group3 Group2 Group1 Model

v -27 39 -117
vt -7.10543e-15 -1.41421
vn -4.81905e-10 -0.707107 -0.707107
v -27 41 -119
vt 3.9443e-31 1.41421
v -25 41 -119
vt -2 1.41421
v -25 39 -117
vt -2 -1.41421
f 17/21/7 18/22/7 19/23/7 20/24/7 

vn -1 6.73715e-10 7.80405e-12
v -27 39 -3
vt 116 0
v -27 41 -1
vt 118 2
f 17/6/8 21/25/8 22/26/8 18/20/8 

v -25 39 -3
vt -116 2
vt -116 0
f 20/2/3 23/27/3 21/28/3 17/10/3 

vt 7.81894e-15 2
vn 1 -6.73715e-10 -7.80014e-12
v -25 41 -1
vt -118 2
vt -116 -1.09504e-15
vt -2 -1.09504e-15
f 19/29/9 24/30/9 23/31/9 20/32/9 

vt 118 7.10543e-15
vn 6.73712e-10 1 6.02155e-17
vt -1.20431e-16 2
vt -1.20431e-16 7.10543e-15
f 22/33/10 24/26/10 19/34/10 18/35/10 

vt -1.52511e-24 84.8528
vn -4.7087e-10 -0.707107 0.707107
vt -1.49926e-24 82.0244
vt 2 82.0244
vt 2 84.8528
f 22/36/11 21/37/11 23/38/11 24/39/11 

g Mesh4 Group8 Group4 Group3 Group2 Group1 Model

v -1 39 -3
vt 0 39
vn -7.81096e-12 3.83551e-16 -1
v -1 6.76092e-10 -3
v -3 2 -3
v -3 39 -3
vt -2 39
f 25/40/12 26/1/12 27/2/12 28/41/12 

v -1 41 -1
vt 2 41
vn 1 -6.73715e-10 -7.80405e-12
v -1 6.76092e-10 -1
f 29/42/13 30/6/13 26/1/13 25/40/13 

v -3 39 -1
vt 2 39
v -3 2 -1
vt 0 41
v -3 41 -1
f 31/43/5 32/17/5 30/1/5 29/44/5 33/42/5 

vn -1 6.7374e-10 7.80405e-12
f 28/40/14 27/20/14 32/2/14 31/41/14 

vn -0.707107 -0.707107 5.5183e-12
vt -2 2.82843
f 27/5/15 26/1/15 30/10/15 32/45/15 

vn -1 6.73488e-10 7.80405e-12
vt -2 41
f 31/41/16 33/46/16 28/40/16

vt -2 27.5772
vn 4.7087e-10 0.707107 -0.707107
vt -2 30.4056
vt -4.84676e-27 30.4056
vt 1.14794e-41 27.5772
f 28/47/17 33/48/17 29/49/17 25/50/17 

g Mesh5 Group9 Group4 Group3 Group2 Group1 Model

vt -2.84217e-14 2
v -3 39 -117
v -3 41 -119
v -3 2 -119
f 8/51/8 34/40/8 35/46/8 36/2/8 

v -1 39 -117
vn 7.79676e-12 -3.63882e-16 1
f 37/40/18 34/41/18 8/2/18 7/1/18 

vt 0 27.5772
vn 4.81907e-10 0.707107 0.707107
v -1 41 -119
vt 0 30.4056
f 37/52/19 38/53/19 35/48/19 34/47/19 

v -1 6.76092e-10 -119
f 39/6/13 38/42/13 37/40/13 7/1/13 

vn -7.80405e-12 5.25771e-21 -1
f 36/17/20 35/42/20 38/44/20 39/1/20 

vt -2.84217e-14 2.82843
f 36/45/15 39/10/15 7/1/15 8/54/15 

g Mesh6 Group10 Group4 Group3 Group2 Group1 Model

v -3 39 -117
vn -4.8191e-10 -0.707107 -0.707107
v -3 41 -119
v -1 41 -119
v -1 39 -117
f 40/24/21 41/23/21 42/22/21 43/21/21 

vt -2 2.5424e-13
vn -1 6.73588e-10 7.82581e-12
v -3 39 -3
vt -116 2.5424e-13
v -3 41 -1
vt 4.35133e-14 2
f 40/55/22 44/56/22 45/30/22 41/57/22 

vn -6.73715e-10 -1 0
v -1 39 -3
f 40/2/23 43/10/23 46/28/23 44/27/23 

v -1 41 -1
f 46/25/13 43/6/13 42/20/13 47/26/13 

vn 6.73719e-10 1 6.02155e-17
f 47/33/24 42/35/24 41/34/24 45/26/24 

vt -2.99853e-24 82.0244
vt -3.05023e-24 84.8528
f 45/39/11 44/38/11 46/58/11 47/59/11 

g Mesh7 Group11 Group4 Group3 Group2 Group1 Model

v -25 2 -1
vn 1 -6.73683e-10 -8.01137e-12
vt -4.14637e-13 2
v -25 39 -3
vt -4.14637e-13 39
v -25 41 -1
f 48/2/25 10/60/25 49/61/25 50/46/25 

vn 0.707107 -0.707107 -5.5183e-12
v -27 1.81927e-08 -1
f 48/45/26 51/10/26 9/1/26 10/5/26 

v -27 41 -1
f 48/17/5 50/42/5 52/44/5 51/1/5 

vt 3.49764e-42 27.5772
f 21/62/17 52/49/17 50/48/17 49/47/17 

f 51/6/8 52/42/8 21/40/8 9/1/8 

f 21/40/20 49/41/20 10/2/20 9/1/20 

g Mesh8 Group12 Group4 Group3 Group2 Group1 Model

vn 1 -6.73706e-10 -7.60359e-12
v -25 39 -117
vt -4.0093e-13 39
vt -4.29352e-13 2
f 19/46/27 53/63/27 6/64/27 2/2/27 

v -27 41 -119
vt 5.73972e-42 27.5772
f 53/47/19 19/48/19 54/49/19 17/65/19 

f 2/17/20 1/1/20 54/44/20 19/42/20 

f 6/54/26 5/1/26 1/10/26 2/45/26 

vn 7.81134e-12 -3.63882e-16 1
f 17/40/28 5/1/28 6/2/28 53/41/28 

f 54/42/8 1/6/8 5/1/8 17/40/8 

g Mesh9 Group14 Group13 Group3 Group2 Group1 Model

v -3 14 -1
vt 1 22
v -3 14 -2
vt 0 22
v -25 14 -2
v -25 14 -1
vt 1 0
f 55/66/6 56/67/6 57/1/6 58/68/6 

vt -1 2
v -3 12 -1
vt -1 0
v -3 12 -2
f 56/20/13 55/69/13 59/70/13 60/1/13 

vt 22 0
vt 22 2
v -25 12 -1
f 59/71/5 55/72/5 58/20/5 61/1/5 

vt 1 2
v -25 12 -2
f 58/73/8 57/20/8 62/1/8 61/68/8 

vt -22 2
vt -22 0
f 56/74/20 60/75/20 62/1/20 57/20/20 

vt -1 22
f 60/67/3 59/76/3 61/70/3 62/1/3 

g Mesh10 Group15 Group13 Group3 Group2 Group1 Model

v -3 29 -1
v -3 29 -2
v -25 29 -2
v -25 29 -1
f 63/66/6 64/67/6 65/1/6 66/68/6 

v -3 27 -1
v -3 27 -2
f 64/20/13 63/69/13 67/70/13 68/1/13 

v -25 27 -1
f 67/71/5 63/72/5 66/20/5 69/1/5 

v -25 27 -2
f 66/73/8 65/20/8 70/1/8 69/68/8 

f 64/74/20 68/75/20 70/1/20 65/20/20 

f 68/67/3 67/76/3 69/70/3 70/1/3 

g Mesh11 Group16 Group13 Group3 Group2 Group1 Model

v -3 14 -118
v -3 14 -119
v -25 14 -119
v -25 14 -118
f 71/66/6 72/67/6 73/1/6 74/68/6 

v -3 12 -118
v -3 12 -119
f 72/20/13 71/69/13 75/70/13 76/1/13 

v -25 12 -118
f 75/71/5 71/72/5 74/20/5 77/1/5 

v -25 12 -119
f 74/73/8 73/20/8 78/1/8 77/68/8 

f 72/74/20 76/75/20 78/1/20 73/20/20 

f 76/67/3 75/76/3 77/70/3 78/1/3 

g Mesh12 Group17 Group13 Group3 Group2 Group1 Model

v -3 29 -118
v -3 29 -119
v -25 29 -119
v -25 29 -118
f 79/66/6 80/67/6 81/1/6 82/68/6 

v -3 27 -118
v -3 27 -119
f 80/20/13 79/69/13 83/70/13 84/1/13 

v -25 27 -118
f 83/71/5 79/72/5 82/20/5 85/1/5 

v -25 27 -119
f 82/73/8 81/20/8 86/1/8 85/68/8 

f 80/74/20 84/75/20 86/1/20 81/20/20 

f 84/67/3 83/76/3 85/70/3 86/1/3 

g Mesh13 Group19 Group18 Group3 Group2 Group1 Model

v -3 39 -117
v -3 41 -117
v -25 41 -117
v -25 39 -117
f 87/71/5 88/72/5 89/20/5 90/1/5 

v -3 41 -119
v -3 39 -119
f 91/20/13 88/2/13 87/10/13 92/1/13 

v -25 41 -119
f 88/72/6 91/67/6 93/1/6 89/6/6 

v -25 39 -119
f 91/74/20 92/75/20 94/1/20 93/20/20 

f 92/67/3 87/74/3 90/10/3 94/1/3 

f 89/17/8 93/20/8 94/1/8 90/6/8 

g Mesh14 Group20 Group18 Group3 Group2 Group1 Model

v -3 41 -95.5
v -3 39 -95.5
v -25 39 -95.5
v -25 41 -95.5
f 95/74/20 96/75/20 97/1/20 98/20/20 

v -3 41 -93.5
v -3 39 -93.5
f 95/20/13 99/2/13 100/10/13 96/1/13 

vn 6.73715e-10 1 3.55271e-15
vt -7.10543e-15 22
vt -7.10543e-15 0
v -25 41 -93.5
f 99/72/29 95/77/29 98/78/29 101/6/29 

v -25 39 -93.5
f 101/17/8 98/20/8 97/1/8 102/6/8 

f 96/67/3 100/74/3 102/10/3 97/1/3 

f 100/71/5 99/72/5 101/20/5 102/1/5 

g Mesh15 Group21 Group18 Group3 Group2 Group1 Model

v -3 41 -72.5
v -3 39 -72.5
v -25 39 -72.5
v -25 41 -72.5
f 103/74/20 104/75/20 105/1/20 106/20/20 

v -3 41 -70.5
v -3 39 -70.5
f 103/20/13 107/2/13 108/10/13 104/1/13 

v -25 41 -70.5
f 107/72/29 103/77/29 106/78/29 109/6/29 

v -25 39 -70.5
f 109/17/8 106/20/8 105/1/8 110/6/8 

f 104/67/3 108/74/3 110/10/3 105/1/3 

f 108/71/5 107/72/5 109/20/5 110/1/5 

g Mesh16 Group22 Group18 Group3 Group2 Group1 Model

v -3 41 -49.5
v -3 39 -49.5
v -25 39 -49.5
v -25 41 -49.5
f 111/74/20 112/75/20 113/1/20 114/20/20 

v -3 41 -47.5
v -3 39 -47.5
f 111/20/13 115/2/13 116/10/13 112/1/13 

v -25 41 -47.5
f 115/72/29 111/77/29 114/78/29 117/6/29 

v -25 39 -47.5
f 117/17/8 114/20/8 113/1/8 118/6/8 

f 112/67/3 116/74/3 118/10/3 113/1/3 

f 116/71/5 115/72/5 117/20/5 118/1/5 

g Mesh17 Group23 Group18 Group3 Group2 Group1 Model

v -3 41 -26.5
v -3 39 -26.5
v -25 39 -26.5
v -25 41 -26.5
f 119/74/20 120/75/20 121/1/20 122/20/20 

v -3 41 -24.5
v -3 39 -24.5
f 119/20/13 123/2/13 124/10/13 120/1/13 

v -25 41 -24.5
f 123/72/29 119/77/29 122/78/29 125/6/29 

v -25 39 -24.5
f 125/17/8 122/20/8 121/1/8 126/6/8 

f 120/67/3 124/74/3 126/10/3 121/1/3 

f 124/71/5 123/72/5 125/20/5 126/1/5 

g Mesh18 Group24 Group18 Group3 Group2 Group1 Model

v -3 41 -3
v -3 39 -3
v -25 39 -3
v -25 41 -3
f 127/74/20 128/75/20 129/1/20 130/20/20 

v -3 41 -1
v -3 39 -1
f 127/20/13 131/2/13 132/10/13 128/1/13 

v -25 41 -1
f 131/72/29 127/77/29 130/78/29 133/6/29 

v -25 39 -1
f 133/17/8 130/20/8 129/1/8 134/6/8 

f 128/67/3 132/74/3 134/10/3 129/1/3 

f 132/71/5 131/72/5 133/20/5 134/1/5 

g Mesh19 Group26 Group25 Group1 Model

usemtl _Carrera_Marble_14
v -27 1.81904e-08 -1
vt 2.31774 -0.361111
vn -0.707107 4.76403e-10 -0.707107
v -28 1.88641e-08 2.17611e-10
vt 2.35702 -0.361111
v -28 42 2.1852e-10
vt 2.35702 0.805556
v -27 41 -1
vt 2.31774 0.777778
f 135/79/30 136/80/30 137/81/30 138/82/30 

v -3.55271e-15 0 -9.09495e-13
vt -3.33333 0.777778
vn -6.73719e-10 -1 -3.01981e-14
vt -3.33333 1.13003e-15
vt -3.30556 0.0277778
v -1 6.73776e-10 -1
vt -3.30556 0.75
f 139/83/31 136/84/31 135/85/31 140/86/31 

vt 2.12228e-28 0.805556
vn 7.80405e-12 -1.56809e-14 1
vt 2.12228e-28 -0.361111
vt 0.777778 -0.361111
v 2.8296e-08 42 -0
vt 0.777778 0.805556
f 137/87/32 136/88/32 139/89/32 141/90/32 

v -1 41 -1
vt -2.86771 0.777778
vn 0.707107 -4.76389e-10 -0.707107
vt -2.90699 0.805556
vt -2.90699 -0.361111
vt -2.86771 -0.361111
f 142/91/33 141/92/33 139/93/33 140/94/33 

v -1 41 -119
vt -0.0277778 1.0803
vn 0.707107 -0.707107 -5.51593e-12
v 2.73596e-08 42 -120
vt -6.16361e-13 1.11959
vt -3.33333 1.11959
vt -3.30556 1.0803
f 143/95/34 144/96/34 141/97/34 142/98/34 

v -1 6.76064e-10 -119
vt 0.510688 -0.361111
vn 0.707107 -4.76665e-10 0.707107
v -9.36488e-10 3.12994e-12 -120
vt 0.549972 -0.361111
vt 0.549972 0.805556
vt 0.510688 0.777778
f 145/99/35 146/100/35 144/101/35 143/102/35 

v -28 1.88672e-08 -120
vt 7.89492e-16 1.82773e-16
vn -6.73716e-10 -1 -7.67386e-13
vt 7.89492e-16 0.777778
vt -0.0277778 0.75
v -27 1.81927e-08 -119
vt -0.0277778 0.0277778
f 147/103/36 146/104/36 145/105/36 148/106/36 

vt -0.777778 0.805556
vn -7.80405e-12 7.68366e-13 -1
vt -0.777778 -0.361111
vt 0 -0.361111
v -28 42 -120
vt 0 0.805556
f 144/107/37 146/108/37 147/109/37 149/110/37 

v -27 41 -119
vt 0.0392837 0.777778
vn -0.707107 4.76112e-10 0.707107
vt 4.37672e-13 0.805556
vt -1.96506e-13 -0.361111
vt 0.0392837 -0.361111
f 150/111/38 149/112/38 147/113/38 148/114/38 

vt 3.30556 0.53033
vt 3.33333 0.569614
vt 6.18962e-13 0.569614
vt 0.0277778 0.53033
f 138/115/15 137/116/15 149/117/15 150/118/15 

vt 6.19343e-13 0.777778
vn 6.73717e-10 1 -4.73695e-16
vt 6.19343e-13 -1.63538e-15
vt 3.33333 -1.63538e-15
vt 3.33333 0.777778
f 144/119/39 149/120/39 137/121/39 141/122/39 

vn -6.73999e-10 -1 1.68603e-15
f 150/106/40 143/105/40 142/86/40 138/85/40 

vt 0.0277778 -0.361111
vn 8.22382e-12 -3.89783e-13 1
vt 0.75 -0.361111
vt 0.75 0.777778
vt 0.0277778 0.777778
f 148/123/41 145/124/41 143/125/41 150/126/41 

vt -0.0277778 0.777778
vn -7.79531e-12 8.12049e-15 -1
vt -0.75 0.777778
vt -0.75 -0.361111
vt -0.0277778 -0.361111
f 138/127/42 142/128/42 140/129/42 135/130/42 

