# Alias OBJ Model File
# Exported from SketchUp, (c) 2000-2012 Trimble Navigation Limited
# File units = inches

mtllib 41 Propane fire pit table 56 x 42.mtl

g Mesh1 Group4 Group3 Group2 Group1 Model

usemtl _Color_M06_4
v -16.75 0.75 -23.75
vt 8.75 1.5
vn 6.73715e-10 1 -0
v -15.25 0.75 -23.75
vt 8.75 0
v -15.25 0.75 -32.25
vt 0.25 0
v -16.75 0.75 -32.25
vt 0.25 1.5
f 1/1/1 2/2/1 3/3/1 4/4/1 

v -15.25 1.02759e-08 -23.75
vt 0 0
vn 7.80405e-12 -5.25771e-21 1
vt 0 0.75
vt 1.5 0.75
v -16.75 1.12865e-08 -23.75
vt 1.5 0
f 5/5/2 2/6/2 1/7/2 6/8/2 

vt 8.75 0.75
vn 1 -6.73715e-10 -7.80405e-12
v -15.25 1.02759e-08 -32.25
vt 0.25 0.75
f 2/9/3 5/2/3 7/3/3 3/10/3 

vt -8.75 0
vn -6.73715e-10 -1 0
vt -8.75 1.5
v -16.75 1.12865e-08 -32.25
vt -0.25 1.5
vt -0.25 0
f 5/11/4 6/12/4 8/13/4 7/14/4 

vn -1 6.73715e-10 7.80405e-12
vt -8.75 0.75
vt -0.25 0.75
f 6/11/5 1/15/5 4/16/5 8/14/5 

vn -7.80405e-12 5.25771e-21 -1
vt -1.5 0
vt -1.5 0.75
f 3/6/6 7/5/6 8/17/6 4/18/6 

g Mesh2 Group5 Group3 Group2 Group1 Model

v -25.255 0.75 -23.75
v -25.255 1.70165e-08 -23.75
v -25.255 1.70165e-08 -32.25
v -25.255 0.75 -32.25
f 9/9/3 10/2/3 11/3/3 12/10/3 

v -26.755 0.75 -23.75
v -26.755 1.8027e-08 -23.75
f 10/5/2 9/6/2 13/7/2 14/8/2 

v -26.755 0.75 -32.25
f 13/1/1 9/2/1 12/3/1 15/4/1 

v -26.755 1.8027e-08 -32.25
f 12/6/6 11/5/6 16/17/6 15/18/6 

f 10/11/4 14/12/4 16/13/4 11/14/4 

f 14/11/5 13/15/5 15/16/5 16/14/5 

g Mesh3 Group6 Group3 Group2 Group1 Model

v -11 18.25 -37.25
vt -19.1071 1.5
vn -6.73715e-10 -1 -0
v -11 18.25 -18.75
vt -0.607143 1.5
v -12.5 18.25 -18.75
vt -0.607143 0
v -12.5 18.25 -37.25
vt -19.1071 8.52651e-14
f 17/19/7 18/20/7 19/21/7 20/22/7 

v -11 19 -38
vt -19.8571 -6.25
vn 1 -6.73715e-10 -7.79963e-12
v -11 19 -18
vt 0.142857 -6.25
vt -0.607143 -7
vt -19.1071 -7
f 21/23/8 22/24/8 18/25/8 17/26/8 

vt 19.8571 1.5
v -12.5 19 -38
vt 19.8571 8.52651e-14
v -12.5 19 -18
vt -0.142857 0
vt -0.142857 1.5
f 21/27/1 23/28/1 24/29/1 22/30/1 

vt 1.5 9.6217
vn -4.81907e-10 -0.707107 -0.707107
vt 1.5 8.56104
vt 8.10225e-14 8.56104
vt 8.0856e-14 9.6217
f 21/31/9 17/32/9 20/33/9 23/34/9 

vt 0.607143 -7
vn -1 6.73715e-10 7.79963e-12
vt -0.142857 -6.25
vt 19.8571 -6.25
vt 19.1071 -7
f 19/35/10 24/36/10 23/37/10 20/38/10 

vt -3.17207e-17 -4.3184
vn -4.7087e-10 -0.707107 0.707107
vt 1.34813e-16 -5.37906
vt -1.5 -5.37906
vt -1.5 -4.3184
f 24/39/11 19/40/11 18/41/11 22/42/11 

g Mesh4 Group7 Group3 Group2 Group1 Model

v -29.5 1.98764e-08 -18
v -29.5 19 -18
vt -1.5 19
v -31 19 -18
vt 8.52334e-14 19
v -31 2.0887e-08 -18
vt 1.70499e-13 0
f 25/17/2 26/43/2 27/44/2 28/45/2 

v -29.5 0.75 -18.75
vt -0.607143 0.75
vn 1 -6.73716e-10 -7.7851e-12
v -29.5 18.25 -18.75
vt -0.607143 18.25
vt 0.142857 19
vt 0.142857 1.11813e-15
f 29/46/12 30/47/12 26/48/12 25/49/12 

v -31 0.75 -18.75
vt -1.70665e-13 0.75
v -31 18.25 -18.75
vt -5.69782e-14 18.25
vt 1.5 18.25
f 29/7/6 31/50/6 32/51/6 30/52/6 

vt -1.70499e-13 -0.101015
vt -1.70665e-13 0.959645
vt 1.5 0.959645
vt 1.5 -0.101015
f 28/53/9 31/54/9 29/55/9 25/56/9 

vt 0.607143 18.25
vn -1 6.73719e-10 7.82586e-12
vt 0.607143 0.75
vt -0.142857 -6.36966e-28
vt -0.142857 19
f 32/57/13 31/58/13 28/59/13 27/60/13 

vt -4.54742e-14 12.4754
vn 4.70857e-10 0.707107 -0.707107
vt -8.79402e-14 13.536
vt 1.5 13.536
vt 1.5 12.4754
f 32/61/14 27/62/14 26/63/14 30/64/14 

g Mesh5 Group8 Group3 Group2 Group1 Model

v -29.5 1.98764e-08 -38
v -31 2.0887e-08 -38
vt -1.66533e-16 0
v -31 19 -38
vt -1.66533e-16 19
v -29.5 19 -38
vt 1.5 19
f 33/8/6 34/65/6 35/66/6 36/67/6 

v -31 0.75 -37.25
vt 1.2326e-32 0.53033
vt 1.66533e-16 -0.53033
vt -1.5 -0.53033
v -29.5 0.75 -37.25
vt -1.5 0.53033
f 37/68/11 34/69/11 33/70/11 38/71/11 

vn -1 6.73717e-10 7.83684e-12
v -31 18.25 -37.25
vt -2.77702e-27 18.25
vt 0.75 19
vt 0.75 2.95303e-29
f 37/6/15 39/72/15 35/73/15 34/74/15 

v -29.5 18.25 -37.25
vt -1.5 18.25
vt -8.52651e-14 18.25
f 38/18/2 40/75/2 39/76/2 37/6/2 

vt -0.75 -1.06382e-14
vn 1 -6.73708e-10 -7.86089e-12
vt -0.75 19
vt 8.49321e-14 18.25
vt 8.49321e-14 0.75
f 33/77/16 36/78/16 40/79/16 38/80/16 

vt 4.10227e-14 13.9654
vn 4.81869e-10 0.707107 0.707107
vt -8.52651e-14 12.9047
vt -1.5 12.9047
vt -1.5 13.9654
f 35/81/17 39/82/17 40/83/17 36/84/17 

g Mesh6 Group10 Group9 Group3 Group2 Group1 Model

v -11 0.75 -37.25
vt 0.75 0.75
v -11 0.75 -32.25
vt 5.75 0.75
v -11 7.41264e-09 -32.25
vt 5.75 -2.22045e-15
v -11 7.41264e-09 -38
f 41/85/3 42/86/3 43/87/3 44/5/3 

v -12.5 0.75 -37.25
vt 0.75 1.5
v -12.5 0.75 -33.75
vt 4.25 1.5
vt 5.75 0
vt 0.75 0
f 45/88/1 46/89/1 42/90/1 41/91/1 

vt -0.75 0.75
v -12.5 8.42322e-09 -38
v -12.5 8.42321e-09 -33.75
vt -4.25 -2.10942e-15
vt -4.25 0.75
f 45/92/5 47/5/5 48/93/5 46/94/5 

vn 4.7087e-10 0.707107 -0.707107
vt -1.5 1.06066
vt 0 1.06066
f 47/17/18 45/95/18 41/96/18 44/5/18 

vt -5.75 -2.10106e-33
vn -6.73715e-10 -1 -3.90852e-16
vt -4.25 1.5
vt 0 1.5
f 43/97/19 48/98/19 47/99/19 44/5/19 

vt -1.94454 -2.10942e-15
vn -0.707107 4.76389e-10 0.707107
vt -4.06586 -2.22045e-15
vt -4.06586 0.75
vt -1.94454 0.75
f 48/100/20 43/101/20 42/102/20 46/103/20 

g Mesh7 Group11 Group3 Group2 Group1 Model

v -11 0.75 -18.75
vt 6.75 0.75
v -11 7.41264e-09 -18
vt 7.5 0
v -11 7.41264e-09 -23.75
vt 1.75 1.44329e-15
v -11 0.75 -23.75
vt 1.75 0.75
f 49/104/3 50/105/3 51/106/3 52/107/3 

v -12.5 0.75 -18.75
vt 1.5 -4.24264
vn 4.81907e-10 0.707107 0.707107
v -12.5 8.42322e-09 -18
vt 1.5 -5.3033
vt 0 -5.3033
vt 0 -4.24264
f 53/108/21 54/109/21 50/110/21 49/111/21 

vt -6.75 0.75
v -12.5 0.75 -22.25
vt -3.25 0.75
v -12.5 8.42144e-09 -22.25
vt -3.25 -1.77258e-12
vt -7.5 0
f 53/112/5 55/113/5 56/114/5 54/115/5 

vt 6.75 5.72231e-15
vn 6.73723e-10 1 4.97141e-15
vt 1.75 5.72231e-15
vt 3.25 1.5
vt 6.75 1.5
f 49/116/22 52/117/22 55/118/22 53/119/22 

vt -1.23744 1.35694e-15
vn -0.707107 4.76389e-10 -0.707107
vt -3.35876 -1.77267e-12
vt -3.35876 0.75
vt -1.23744 0.75
f 51/120/23 56/121/23 55/122/23 52/123/23 

vt -7.5 1.5
vn -6.7298e-10 -1 1.72027e-13
vt -3.25 1.5
vt -1.75 2.20428e-25
vt -7.5 9.49241e-25
f 54/124/24 56/125/24 51/126/24 50/127/24 

g Mesh8 Group12 Group3 Group2 Group1 Model

v -11 7.41264e-09 -18
v -11 19 -18
v -12.5 19 -18
vt -5.68751e-14 19
v -12.5 8.42322e-09 -18
vt -3.17207e-17 0
f 57/17/2 58/43/2 59/128/2 60/129/2 

v -11 0.75 -18.75
v -11 18.25 -18.75
vt 0.142857 0
f 61/46/3 62/47/3 58/48/3 57/130/3 

v -12.5 0.75 -18.75
vt -1.34813e-16 0.75
v -12.5 18.25 -18.75
vt 8.51303e-14 18.25
f 61/7/6 63/131/6 64/132/6 62/52/6 

vt 3.17207e-17 -0.101015
vt -1.34813e-16 0.959645
f 60/133/9 63/134/9 61/55/9 57/56/9 

vn -1 6.73719e-10 7.79354e-12
vt -0.142857 5.35721e-30
f 64/57/25 63/58/25 60/135/25 59/60/25 

vt 8.51303e-14 12.4754
vt 5.68751e-14 13.536
f 64/136/18 59/137/18 58/63/18 62/64/18 

g Mesh9 Group13 Group3 Group2 Group1 Model

v -29.5 1.98764e-08 -33.75
vt -3.5 2.08441e-31
vn -6.73715e-10 -1 -6.05686e-16
v -31 2.08869e-08 -32.25
vt -5 1.5
v -31 2.0887e-08 -38
v -29.5 1.98764e-08 -38
vt 0.75 5.04488e-32
f 65/138/26 66/139/26 67/88/26 68/140/26 

vt 4.59619 -3.9968e-15
vn 0.707107 -4.76389e-10 0.707107
vt 2.47487 -3.9968e-15
v -29.5 0.75 -33.75
vt 2.47487 0.75
v -31 0.75 -32.25
vt 4.59619 0.75
f 66/141/27 65/142/27 69/143/27 70/144/27 

v -29.5 0.75 -37.25
vt 3.5 0.75
vt 3.5 -3.9968e-15
vt -0.75 0
f 71/6/3 69/145/3 65/146/3 68/147/3 

v -31 0.75 -37.25
vt 5 1.5
vt 3.5 0
f 72/99/1 70/148/1 69/149/1 71/5/1 

vt -5 -3.9968e-15
vt -5 0.75
f 72/6/5 67/91/5 66/150/5 70/151/5 

vt 0 0.53033
vt 0 -0.53033
f 67/70/18 72/71/18 71/152/18 68/153/18 

g Mesh10 Group14 Group3 Group2 Group1 Model

vt -7.64286 1.5
vn -6.73715e-10 -1 3.16725e-17
v -31 2.0887e-08 -23.75
vt -1.89286 1.5
v -29.5 1.98764e-08 -22.25
vt -3.39286 7.38964e-13
vt -7.64286 1.98952e-13
f 28/154/28 73/155/28 74/156/28 25/157/28 

v -31 0.75 -18.75
vt -6.89286 0.75
vn -1 6.73758e-10 7.88825e-12
v -31 0.75 -23.75
vt -1.89286 0.75
vt -1.89286 -6.27017e-14
vt -7.64286 -6.32568e-14
f 75/158/29 76/159/29 73/160/29 28/161/29 

v -29.5 0.75 -18.75
vt 6.89286 1.98944e-13
vn 6.73715e-10 1 -5.09816e-18
v -29.5 0.75 -22.25
vt 3.39286 7.38957e-13
vt 1.89286 1.5
vt 6.89286 1.5
f 77/162/30 78/163/30 76/164/30 75/165/30 

vt 6.89286 0.75
vn 1 -6.73784e-10 -7.94212e-12
vt 7.64286 -1.11022e-16
vt 3.39286 3.10862e-15
vt 3.39286 0.75
f 77/166/31 25/167/31 74/168/31 78/169/31 

vt 1.5 -4.34366
vt 1.5 -5.40432
vt 1.98952e-13 -5.40432
vt 1.98952e-13 -4.34366
f 75/170/21 28/171/21 25/172/21 77/173/21 

vt 2.39911 3.10862e-15
vn 0.707107 -4.76389e-10 -0.707107
vt 0.277792 4.44089e-16
vt 0.277792 0.75
vt 2.39911 0.75
f 74/174/32 73/175/32 76/176/32 78/177/32 

g Mesh11 Group15 Group3 Group2 Group1 Model

v -11 7.41264e-09 -23.75
vt -2 1.57073e-29
vn -6.73715e-10 -1 1.03251e-14
v -12.5 8.42325e-09 -22.25
vt -3.5 1.5
v -29.5 1.98764e-08 -22.25
vt -3.5 18.5
v -31 2.0887e-08 -23.75
vt -2 20
f 79/178/33 80/179/33 81/180/33 82/181/33 

v -11 0.75 -23.75
vt 1.41421 0.75
v -12.5 0.75 -22.25
vt 3.53553 0.75
vt 3.53553 3.09752e-14
vt 1.41421 1.11022e-16
f 83/182/27 84/183/27 80/184/27 79/185/27 

vt 3.5 1.5
vn 6.73715e-10 1 -1.03251e-14
vt 2 -5.73562e-16
v -31 0.75 -23.75
vt 2 20
v -29.5 0.75 -22.25
vt 3.5 18.5
f 84/186/34 83/187/34 85/188/34 86/189/34 

vt -20 0.75
vn -7.78131e-12 5.24239e-21 -1
vt 4.54747e-14 0.75
vt 4.54747e-14 1.11022e-16
vt -20 3.59019e-29
f 85/190/35 83/191/35 79/192/35 82/193/35 

vt 10.6066 0.75
vt 12.7279 0.75
vt 12.7279 -2.1711e-15
vt 10.6066 -2.06008e-15
f 86/194/20 85/195/20 82/196/20 81/197/20 

vn 7.7238e-12 -5.20364e-21 1
vt 18.5 0.75
vt 18.5 1.11022e-16
vt 1.5 3.09752e-14
f 84/7/36 86/198/36 81/199/36 80/200/36 

g Mesh12 Group16 Group3 Group2 Group1 Model

v -11 7.41264e-09 -38
v -12.5 8.42322e-09 -38
v -12.5 19 -38
v -11 19 -38
f 87/8/6 88/65/6 89/66/6 90/67/6 

v -12.5 0.75 -37.25
v -11 0.75 -37.25
f 91/68/11 88/69/11 87/70/11 92/71/11 

vn -1 6.73716e-10 7.81498e-12
v -12.5 18.25 -37.25
vt -3.0435e-28 18.25
vt 0.75 3.2364e-30
f 91/6/37 93/201/37 89/73/37 88/202/37 

v -11 18.25 -37.25
vt -2.84217e-14 18.25
f 92/18/2 94/75/2 93/203/2 91/6/2 

vt -0.75 -9.32837e-15
vn 1 -6.73709e-10 -7.80405e-12
vt -3.33067e-16 18.25
vt -3.33067e-16 0.75
f 87/204/38 90/78/38 94/205/38 92/206/38 

vt 1.66533e-16 13.9654
vt -2.84217e-14 12.9047
f 89/207/21 93/208/21 94/83/21 90/84/21 

g Mesh13 Group17 Group3 Group2 Group1 Model

v -29.5 18.25 -37.25
v -29.5 18.25 -18.75
v -31 18.25 -18.75
v -31 18.25 -37.25
vt -19.1071 5.68434e-14
f 95/19/7 96/20/7 97/21/7 98/209/7 

v -29.5 19 -38
vt -19.8571 0.75
vn 1 -6.73753e-10 -7.80116e-12
v -29.5 19 -18
vt 0.142857 0.75
vt -0.607143 5.68434e-14
f 99/210/39 100/211/39 96/212/39 95/209/39 

v -31 19 -38
vt 19.8571 5.68434e-14
v -31 19 -18
f 99/27/1 101/213/1 102/29/1 100/30/1 

vt 1.5 14.5715
vn -4.81908e-10 -0.707107 -0.707107
vt 1.5 13.5108
vt 6.67898e-14 13.5108
vt 6.71802e-14 14.5715
f 99/214/40 95/215/40 98/216/40 101/217/40 

vt 0.607143 2.05168e-31
vn -1 6.73715e-10 7.80259e-12
vt -0.142857 0.75
vt 19.8571 0.75
vt 19.1071 -4.92169e-30
f 97/218/41 102/219/41 101/220/41 98/221/41 

vt -3.17207e-17 0.631345
vt 1.34813e-16 -0.429315
vt -1.5 -0.429315
vt -1.5 0.631345
f 102/222/11 97/223/11 96/224/11 100/225/11 

g Mesh14 Group18 Group3 Group2 Group1 Model

v -31 0.75 -32.25
vt -14.1421 0.75
vt -12.0208 0.75
v -29.5 1.98764e-08 -33.75
vt -12.0208 0
v -31 2.0887e-08 -32.25
vt -14.1421 0
f 103/226/23 69/227/23 104/228/23 105/229/23 

v -11 0.75 -32.25
v -12.5 0.75 -33.75
vt -1.5 1.5
vt -1.5 18.5
vt 9.09495e-13 20
f 106/5/1 107/230/1 69/231/1 103/232/1 

vt -2.12132 0.75
v -11 7.41264e-09 -32.25
v -12.5 8.42322e-09 -33.75
vt -2.12132 0
f 107/233/32 106/6/32 108/5/32 109/234/32 

vn 7.84953e-12 -5.28835e-21 1
vt 20 0.75
vt 20 0
f 106/6/42 103/235/42 105/236/42 108/5/42 

vt 1.5 1.5
vt -9.09495e-13 20
vt 1.5 18.5
f 109/237/4 108/5/4 105/238/4 104/239/4 

vt -18.5 0.75
vn -7.75055e-12 5.22167e-21 -1
vt -18.5 0
f 69/240/43 107/18/43 109/17/43 104/241/43 

g Mesh15 Group19 Group2 Group1 Model

v -11 7.41264e-09 -38.0714
vt -1.81899e-12 3.72324e-12
vn -6.73715e-10 -1 4.17792e-17
v -11 7.41264e-09 -38
vt -0.0714286 3.72324e-12
v -31 2.0887e-08 -38
vt -0.0714286 20
v -31 2.0887e-08 -18
vt -20.0714 20
v -11 7.41264e-09 -18
vt -20.0714 2.27374e-13
v -11 7.41264e-09 -17.9286
vt -20.1429 -2.76011e-34
v -31.0714 2.09351e-08 -17.9286
vt -20.1429 20.0714
v -31.0714 2.09351e-08 -38.0714
vt 0 20.0714
f 110/242/44 111/243/44 112/244/44 113/245/44 114/246/44 115/247/44 116/248/44 117/249/44 

vt 1.81899e-12 5.01269e-39
vn 1 -6.73715e-10 -7.77563e-12
v -11 19 -38.0714
vt 1.05821e-25 19
v -11 19 -38
vt 0.0714286 19
vt 0.0714286 1.77636e-15
f 110/250/45 118/251/45 119/252/45 111/253/45 

vt -3.72324e-12 19
vn -7.77563e-12 -2.36848e-14 -1
vt -3.72324e-12 -4.30823e-26
vt -20.0714 -1.35113e-26
v -31.0714 19 -38.0714
vt -20.0714 19
f 118/254/46 110/255/46 117/256/46 120/257/46 

vt -20.1429 1.77636e-15
v -31.0714 19 -17.9286
vt -20.1429 19
vt 0 19
f 117/5/5 116/258/5 121/259/5 120/260/5 

vt 20.0714 1.77636e-15
vt 0 1.77636e-15
v -11 19 -17.9286
vt 20.0714 19
f 116/261/2 115/262/2 122/260/2 121/263/2 

vt 20.1429 1.77636e-15
vn 1 -6.73715e-10 -1.09873e-11
v -11 19 -18
vt 20.1429 19
f 115/264/47 114/261/47 123/263/47 122/265/47 

vt -6.41194e-11 19
vn -1.09873e-11 7.4023e-21 -1
vt -6.41194e-11 1.77636e-15
vt -20 1.77636e-15
v -31 19 -18
vt -20 19
f 123/266/48 114/267/48 113/268/48 124/269/48 

v -31 19 -38
vn 1 -6.73715e-10 -7.79268e-12
f 125/252/49 124/263/49 113/261/49 112/253/49 

vt 0 3.72324e-12
vt 20.1429 20.0714
vt 20.1429 0
vt 20.0714 2.27374e-13
vt 20.0714 20
vt 0.0714286 20
vt 0.0714286 3.72324e-12
f 118/270/1 120/249/1 121/271/1 122/272/1 123/273/1 124/274/1 125/275/1 119/276/1 

vt 3.72121e-12 19
vn 7.77563e-12 2.36848e-14 1
vt 20 19
vt 20 8.45884e-17
vt 3.72121e-12 8.45884e-17
f 119/277/50 125/278/50 112/279/50 111/280/50 

g Mesh16 Group21 Group20 Group2 Group1 Model

v -10.9286 0.875 -37.125
vt 9.54117e-44 1
vn -6.73712e-10 -1 -2.99301e-26
v -10.9286 0.875 -18.875
vt -18.25 1
v -11.9286 0.875 -18.875
vt -18.25 1.98952e-13
v -11.9286 0.875 -37.125
vt 0 8.52651e-14
f 126/281/51 127/282/51 128/283/51 129/284/51 

vt -6.22942e-15 1.64662e-16
vn 1 -6.73712e-10 -7.81028e-12
v -10.9286 1.875 -36.125
vt -1 1
vt -18.25 1.64662e-16
f 126/285/52 130/286/52 127/287/52

v -10.9286 18.125 -37.125
vt -6.22942e-15 17.25
f 130/286/52 126/285/52 131/288/52

vt -1 17.25
vn -7.81028e-12 5.26191e-21 -1
vt -1 3.9968e-15
vt -8.52651e-14 -1.26797e-56
v -11.9286 18.125 -37.125
vt 0 17.25
f 131/289/53 126/290/53 129/291/53 132/292/53 

vt 5.31152e-28 -3.26748e-28
vn -1 6.73712e-10 7.81028e-12
v -11.9286 1.875 -36.125
vt 1 1
f 129/293/54 133/294/54 132/292/54

v -11.9286 1.875 -19.875
vt 17.25 1
f 133/294/54 129/293/54 134/295/54

vt 18.25 -3.26748e-28
f 128/296/54 134/295/54 129/293/54

v -11.9286 18.125 -18.875
vt 18.25 17.25
f 134/295/54 128/296/54 135/297/54

vt 1 3.9968e-15
vn 7.81028e-12 -5.26191e-21 1
v -10.9286 18.125 -18.875
vt 1 17.25
vt -4.26616e-27 17.25
vt 8.52651e-14 -4.35664e-28
f 127/298/55 136/299/55 135/300/55 128/301/55 

v -10.9286 1.875 -19.875
vt -17.25 1
vt -18.25 17.25
f 127/287/52 137/302/52 136/303/52

f 137/302/52 127/287/52 130/286/52

vn 6.73712e-10 1 2.99263e-26
vt 1 1.17519e-13
vt 17.25 2.02784e-13
f 137/295/56 130/294/56 133/304/56 134/305/56 

v -10.9286 17.125 -36.125
vt 1 16.25
v -11.9286 17.125 -36.125
vt 5.0614e-14 16.25
vt 1.07457e-13 1
f 130/294/55 138/306/55 139/307/55 133/308/55 

vt -1 16.25
f 130/286/52 131/288/52 138/309/52

v -10.9286 17.125 -19.875
vt -17.25 16.25
f 138/309/52 131/288/52 140/310/52

f 136/303/52 140/310/52 131/288/52

f 136/303/52 137/302/52 140/310/52

vt -9.14945e-14 1
v -11.9286 17.125 -19.875
vt -6.22942e-15 16.25
f 140/309/53 137/286/53 134/311/53 141/312/53 

vt 17.25 16.25
f 134/295/54 135/297/54 141/313/54

f 141/313/54 135/297/54 139/306/54

f 132/292/54 139/306/54 135/297/54

f 132/292/54 133/294/54 139/306/54

vt 18.25 1
vn 6.73712e-10 1 2.99301e-26
vt -4.11792e-28 1
vt -4.11792e-28 6.61044e-14
vt 18.25 1.79791e-13
f 136/314/57 131/315/57 132/316/57 135/317/57 

vn -6.73712e-10 -1 -2.99263e-26
vt -17.25 1.75959e-13
vt -1 1.19116e-13
f 138/286/58 140/302/58 141/318/58 139/319/58 

g Mesh17 Group22 Group20 Group2 Group1 Model

vt -5.56198e-17 4.56207e-17
vn 1 -6.73716e-10 -7.80483e-12
v -11.9286 18.125 -37.125
vt -5.56198e-17 17.25
v -11.9286 18.125 -18.875
v -11.9286 0.875 -18.875
vt -18.25 4.56207e-17
f 129/320/59 142/321/59 143/303/59 144/322/59 

vt -0.0714286 17.25
vn -7.80483e-12 5.25823e-21 -1
vt -0.0714286 0
v -12 0.875 -37.125
v -12 18.125 -37.125
f 142/323/60 129/324/60 145/5/60 146/292/60 

vt 0 0.0714286
vn -6.73716e-10 -1 4.98437e-27
vt -18.25 0.0714286
v -12 0.875 -18.875
vt -18.25 0
f 129/325/61 144/326/61 147/327/61 145/5/61 

vt 0.0714286 1.81527e-29
vn 7.80483e-12 -5.25823e-21 1
vt 0.0714286 17.25
v -12 18.125 -18.875
vt 1.42109e-14 17.25
vt -1.42109e-14 1.81527e-29
f 144/328/62 143/329/62 148/330/62 147/331/62 

vt 18.25 0.0714286
vn 6.73716e-10 1 -4.98536e-27
vt 1.7158e-29 0.0714286
vt 1.7158e-29 -1.10174e-14
vt 18.25 1.74043e-14
f 143/332/63 142/333/63 146/334/63 148/335/63 

vn -1 6.73716e-10 7.80483e-12
vt 18.25 -9.07633e-30
f 146/292/64 145/5/64 147/336/64 148/297/64 

g Mesh18 Group25 Group24 Group23 Group2 Group1 Model

v -26.625 20.75 -35.625
vt -2 11.25
v -15.5 20.75 -35.5
vt -1.875 0.125
v -15.375 20.75 -35.625
vt -2 0
f 149/337/1 150/338/1 151/339/1

v -26.5 20.75 -35.5
vt -1.875 11.125
f 150/338/1 149/337/1 152/340/1

v -26.625 20.75 -20.375
vt 13.25 11.25
f 153/341/1 152/340/1 149/337/1

v -26.5 20.75 -20.5
vt 13.125 11.125
f 154/342/1 152/340/1 153/341/1

v -26.5 18.75 -20.5
vt 13.125 0
v -26.5 18.75 -35.5
vt -1.875 0
vt -1.875 2
vt 13.125 2
f 155/343/3 156/344/3 152/345/3 154/346/3 

vt -13.125 11.125
v -26.625 18.75 -20.375
vt -13.25 11.25
vt 1.875 11.125
f 155/347/4 157/348/4 156/349/4

v -15.5 18.75 -20.5
vt -13.125 0.125
f 158/350/4 157/348/4 155/347/4

v -15.375 18.75 -20.375
vt -13.25 0
f 157/348/4 158/350/4 159/351/4

v -15.5 18.75 -35.5
vt 1.875 0.125
f 158/350/4 160/352/4 159/351/4

vt 1.875 0
vt -13.125 0
v -15.5 20.75 -20.5
vt -13.125 2
vt 1.875 2
f 160/353/5 158/354/5 161/355/5 150/356/5 

vt -0.125 0
vt -11.125 0
vt -11.125 2
vt -0.125 2
f 158/357/6 155/358/6 154/359/6 161/360/6 

v -15.375 20.75 -20.375
vt 13.25 0
vt 13.125 0.125
f 154/342/1 162/361/1 161/362/1

f 162/361/1 154/342/1 153/341/1

vt 11.25 0
vt 0 2
vt 11.25 2
f 157/363/2 159/5/2 162/364/2 153/365/2 

v -15.375 18.75 -35.625
vt -2 2
vt 13.25 2
f 159/361/3 163/339/3 151/366/3 162/367/3 

vt 2 0
f 159/351/4 160/352/4 163/368/4

f 156/349/4 163/368/4 160/352/4

v -26.625 18.75 -35.625
vt 2 11.25
f 163/368/4 156/349/4 164/369/4

f 157/348/4 164/369/4 156/349/4

vt -13.25 2
vt 2 2
f 164/368/5 157/351/5 153/370/5 149/371/5 

vt -11.25 0
vt -11.25 2
f 163/5/6 164/372/6 149/373/6 151/364/6 

vt 11.125 0
vt 0.125 0
vt 0.125 2
vt 11.125 2
f 156/374/2 160/375/2 150/376/2 152/377/2 

f 162/361/1 151/339/1 150/338/1

f 161/362/1 162/361/1 150/338/1

g Mesh19 Group26 Group24 Group23 Group2 Group1 Model

v -27.625 20.75 -36.625
vt -2 13.25
v -14.375 20.75 -36.625
f 165/378/1 151/286/1 166/339/1

v -26.625 20.75 -35.625
vt -1 12.25
f 151/286/1 165/378/1 167/379/1

v -27.625 20.75 -19.375
vt 15.25 13.25
f 168/380/1 167/379/1 165/378/1

vt 14.25 12.25
f 153/381/1 167/379/1 168/380/1

v -26.625 20.6786 -20.375
vt 14.25 0
v -26.625 20.6786 -35.625
vt -1 0
vt -1 0.0714286
vt 14.25 0.0714286
f 169/382/3 170/383/3 167/384/3 153/385/3 

vt -14.25 12.25
v -27.625 20.6786 -19.375
vt -15.25 13.25
vt 1 12.25
f 169/386/4 171/387/4 170/388/4

v -15.375 20.6786 -20.375
vt -14.25 1
f 172/389/4 171/387/4 169/386/4

v -14.375 20.6786 -19.375
vt -15.25 0
f 171/387/4 172/389/4 173/390/4

v -15.375 20.6786 -35.625
f 172/389/4 174/294/4 173/390/4

vt 1 0
vt -14.25 0
v -15.375 20.75 -20.375
vt -14.25 0.0714286
vt 1 0.0714286
f 174/391/5 172/392/5 175/393/5 151/394/5 

vt -12.25 0
vt -12.25 0.0714286
f 172/383/6 169/395/6 153/396/6 175/384/6 

v -14.375 20.75 -19.375
vt 15.25 0
vt 14.25 1
f 153/381/1 176/397/1 175/398/1

f 176/397/1 153/381/1 168/380/1

vt 13.25 0.0714286
f 171/361/2 173/5/2 176/325/2 168/399/2 

v -14.375 20.6786 -36.625
vt -2 0.0714286
vt 15.25 0.0714286
f 173/397/3 177/339/3 166/400/3 176/401/3 

f 173/390/4 174/294/4 177/368/4

f 170/388/4 177/368/4 174/294/4

v -27.625 20.6786 -36.625
vt 2 13.25
f 177/368/4 170/388/4 178/402/4

f 171/387/4 178/402/4 170/388/4

vt -15.25 0.0714286
vt 2 0.0714286
f 178/368/5 171/390/5 168/403/5 165/404/5 

vt -13.25 0.0714286
f 177/5/6 178/351/6 165/405/6 166/325/6 

vt 12.25 0
vt 12.25 0.0714286
f 170/406/2 174/391/2 151/394/2 167/407/2 

f 176/397/1 166/339/1 151/286/1

f 175/398/1 176/397/1 151/286/1

g Mesh20 Group27 Group24 Group23 Group2 Group1 Model

v -26.5 18.8214 -35.5
vt -11 0.0714286
v -15.5 18.8214 -35.5
v -15.5 18.75 -35.5
vt -11 0
f 179/408/6 180/325/6 181/5/6 156/409/6 

vt -2 11
v -26.5 18.8214 -20.5
vt 13 11
v -15.5 18.8214 -20.5
vt 13 0
f 180/339/1 179/410/1 182/411/1 183/412/1 

vt -13 0.0714286
v -26.5 18.75 -20.5
vt -13 0
f 182/413/5 179/404/5 156/368/5 184/414/5 

vt 2 11
vt -13 11
f 156/415/4 181/368/4 158/414/4 184/416/4 

vt 13 0.0714286
f 180/400/3 183/417/3 158/412/3 181/339/3 

vt 11 0.0714286
vt 11 0
f 183/325/2 182/418/2 184/419/2 158/5/2 

g Mesh21 Group28 Group23 Group2 Group1 Model

v -14 20.75 -37
vt 2.5 -0.5
vt 1 12
v -28 20.75 -37
vt 2.5 13.5
f 185/420/4 152/421/4 186/422/4

f 152/421/4 185/420/4 150/294/4

v -14 20.75 -19
vt -15.5 -0.5
f 187/423/4 150/294/4 185/420/4

vt -14 1
f 161/424/4 150/294/4 187/423/4

vt -14 0
v -15.5 21.5 -20.5
vt -14 0.75
v -15.5 21.5 -35.5
vt 1 0.75
f 150/391/5 161/425/5 188/426/5 189/427/5 

vt -12 0
v -26.5 21.5 -20.5
vt -12 0.75
vt -1 0.75
f 161/383/6 154/428/6 190/429/6 188/430/6 

v -28 20.75 -19
vt -15.5 13.5
vt -14 12
f 161/424/4 191/431/4 154/432/4

f 191/431/4 161/424/4 187/423/4

v -14 21.5 -19
vt -0.5 0.75
v -28 21.5 -19
vt 13.5 0.75
vt 13.5 0
vt -0.5 0
f 192/433/2 193/434/2 191/435/2 187/436/2 

vt 15.5 -0.5
vt 14 12
vt 15.5 13.5
f 192/437/1 190/438/1 193/439/1

vt 14 1
f 190/438/1 192/437/1 188/440/1

f 188/440/1 192/437/1 189/286/1

v -14 21.5 -37
vt -2.5 -0.5
f 192/437/1 194/441/1 189/286/1

vt -2.5 0.75
vt 15.5 0.75
vt 15.5 0
vt -2.5 0
f 194/442/3 192/443/3 187/444/3 185/445/3 

v -28 21.5 -37
vt -13.5 0.75
vt 0.5 0.75
vt 0.5 0
vt -13.5 0
f 195/446/6 194/447/6 185/448/6 186/449/6 

vt -2.5 13.5
f 195/450/1 189/286/1 194/441/1

v -26.5 21.5 -35.5
vt -1 12
f 189/286/1 195/450/1 196/451/1

f 193/439/1 196/451/1 195/450/1

f 190/438/1 196/451/1 193/439/1

vt 14 0
vt 14 0.75
f 154/452/3 152/383/3 196/430/3 190/453/3 

f 154/432/4 191/431/4 152/421/4

f 191/431/4 186/422/4 152/421/4

vt -15.5 0.75
vt 2.5 0.75
vt 2.5 0
vt -15.5 0
f 193/454/5 195/455/5 186/456/5 191/457/5 

vt 12 0
vt 12 0.75
f 152/458/2 150/391/2 189/427/2 196/459/2 

g Mesh22 Group30 Group29 Group2 Group1 Model

v -39.5 19 -53.5
vt 10.5 3.55271e-15
v -39.5 19 -2.5
vt -40.5 3.55271e-15
v -39.5 19.75 -2.5
vt -40.5 0.75
v -39.5 19.75 -53.5
vt 10.5 0.75
f 197/460/5 198/461/5 199/462/5 200/463/5 

v -38 19 -52
vt 9 3.83671e-30
vn -6.73717e-10 -1 -3.47666e-17
v -38 19 -4
vt -39 1.60571e-30
vt -40.5 1.5
vt 10.5 1.5
f 201/464/65 202/465/65 198/466/65 197/467/65 

vt -9 3.55271e-15
v -38 19.75 -52
vt -9 0.75
v -38 19.75 -4
vt 39 0.75
vt 39 0
f 201/468/3 203/469/3 204/470/3 202/471/3 

vt -6.36396 3.55271e-15
vt -8.48528 3.55271e-15
vt -8.48528 0.75
vt -6.36396 0.75
f 201/472/32 197/473/32 200/474/32 203/475/32 

vt 39 2.55513e-16
vn 6.73716e-10 1 9.54038e-18
vt -9 2.55513e-16
vt -10.5 1.5
vt 40.5 1.5
f 204/476/66 203/477/66 200/478/66 199/479/66 

vt 27.5772 0.75
vt 29.6985 0.75
vt 29.6985 3.55271e-15
vt 27.5772 5.64271e-24
f 204/480/27 199/481/27 198/482/27 202/483/27 

g Mesh23 Group31 Group29 Group2 Group1 Model

v -4 19 -52
vt -1.5 -7
vn -6.73715e-10 -1 1.69983e-15
v -38 19 -52
vt -1.5 27
v -39.5 19 -53.5
vt -6.41194e-11 28.5
v -2.5 19 -53.5
vt 0 -8.5
f 205/484/67 206/485/67 207/486/67 208/487/67 

v -38 19.75 -52
vt 27 0.75
vt 27 3.55271e-15
vt -7 3.55271e-15
v -4 19.75 -52
vt -7 0.75
f 209/488/2 206/489/2 205/490/2 210/491/2 

vt 20.1525 2.88544e-24
vt 18.0312 3.55271e-15
vt 18.0312 0.75
v -39.5 19.75 -53.5
vt 20.1525 0.75
f 207/492/20 206/493/20 209/494/20 211/495/20 

vt 1.5 27
vt 1.5 -7
v -2.5 19.75 -53.5
vt 6.41194e-11 28.5
f 209/496/1 210/497/1 212/487/1 211/498/1 

vt -3.88909 3.55271e-15
vt -6.01041 0
vt -6.01041 0.75
vt -3.88909 0.75
f 205/499/27 208/500/27 212/501/27 210/502/27 

vt -28.5 0.75
vn -9.53701e-12 6.42523e-21 -1
vt 8.5 0.75
vt 8.5 0
vt -28.5 0
f 211/503/68 212/504/68 208/505/68 207/506/68 

g Mesh24 Group32 Group29 Group2 Group1 Model

v -2.5 19 -2.5
vt -1.5 -8.5
vn -6.73715e-10 -1 -6.83347e-16
v -39.5 19 -2.5
vt -1.5 28.5
v -38 19 -4
vt -6.16183e-11 27
v -4 19 -4
vt -2.50111e-12 -7
f 213/507/69 214/508/69 215/509/69 216/510/69 

v -2.5 19.75 -2.5
vt -8.5 0.75
v -39.5 19.75 -2.5
vt 28.5 0.75
vt 28.5 0
vt -8.5 0
f 217/511/2 218/512/2 214/513/2 213/514/2 

vt 1.5 28.5
vt 1.5 -8.5
v -4 19.75 -4
vt 2.50111e-12 -7
v -38 19.75 -4
vt 6.16183e-11 27
f 218/515/1 217/516/1 219/517/1 220/518/1 

vt 7.07107 2.51314e-26
vt 4.94975 3.55271e-15
vt 4.94975 0.75
vt 7.07107 0.75
f 213/519/32 216/520/32 219/521/32 217/522/32 

vt -27 0.75
vn -9.54279e-12 6.42913e-21 -1
vt 7 0.75
vt 7 3.55271e-15
vt -27 9.54862e-51
f 220/523/70 219/524/70 216/525/70 215/526/70 

vt -19.0919 0
vt -21.2132 0
vt -21.2132 0.75
vt -19.0919 0.75
f 215/527/23 214/528/23 218/529/23 220/530/23 

g Mesh25 Group33 Group29 Group2 Group1 Model

v -2.5 19 -53.5
vt 10.5 0
v -2.5 19 -2.5
vt -40.5 0
v -4 19 -4
vt -39 1.5
vt 9 1.5
f 221/531/4 222/532/4 223/533/4 205/534/4 

vt -10.5 3.55271e-15
v -2.5 19.75 -53.5
vt -10.5 0.75
v -2.5 19.75 -2.5
vt 40.5 0.75
vt 40.5 3.55271e-15
f 221/535/3 224/536/3 225/537/3 222/538/3 

vt 7.42462 3.55271e-15
vt 5.3033 3.55271e-15
vt 5.3033 0.75
vt 7.42462 0.75
f 221/539/23 205/540/23 210/541/23 224/542/23 

vt 9 3.55271e-15
vt -39 3.55271e-15
v -4 19.75 -4
vt -39 0.75
vt 9 0.75
f 205/543/5 223/544/5 226/545/5 210/546/5 

vt -28.6378 0.75
vt -26.5165 0.75
vt -26.5165 3.55271e-15
vt -28.6378 3.55271e-15
f 225/547/20 226/548/20 223/549/20 222/550/20 

vt -9 1.5
vn 6.73715e-10 1 9.54038e-18
vt 39 1.5
vt 40.5 -2.55513e-16
vt -10.5 -2.55513e-16
f 210/551/71 226/552/71 225/553/71 224/554/71 

g Mesh26 Group34 Group29 Group2 Group1 Model

v -4 19.75 -18
vt 10.5 -7
v -4 19.75 -19.5
vt 9 -7
v -38 19.75 -19.5
vt 9 27
v -38 19.75 -18
vt 10.5 27
f 227/555/1 228/556/1 229/557/1 230/558/1 

v -4 19 -18
v -4 19 -19.5
vt 9 0
f 228/546/3 227/463/3 231/531/3 232/559/3 

v -38 19 -18
vt 27 0
vt -7 0
f 227/491/2 230/488/2 233/560/2 231/561/2 

v -38 19 -19.5
vt -9 0
vt -10.5 0
f 230/536/5 229/469/5 234/562/5 233/563/5 

vn -9.68992e-12 6.52825e-21 -1
vt 7 0
vt -27 0
f 229/523/72 228/524/72 232/564/72 234/565/72 

vt -9 -7
vt -10.5 -7
vt -10.5 27
vt -9 27
f 232/566/4 231/567/4 233/568/4 234/569/4 

g Mesh27 Group35 Group29 Group2 Group1 Model

v -4 19 -38.5
vt -4.5 -7
v -4 19 -37
vt -6 -7
v -38 19 -37
vt -6 27
v -38 19 -38.5
vt -4.5 27
f 235/570/4 236/571/4 237/572/4 238/573/4 

v -4 19.75 -38.5
vt 4.5 0.75
v -4 19.75 -37
vt 6 0.75
vt 6 0
vt 4.5 0
f 239/574/3 240/575/3 236/576/3 235/577/3 

vt 6 -7
vt 4.5 -7
v -38 19.75 -38.5
vt 4.5 27
v -38 19.75 -37
vt 6 27
f 240/578/1 239/579/1 241/580/1 242/581/1 

f 241/523/72 239/524/72 235/564/72 238/565/72 

vt -6 0.75
vt -4.5 0.75
vt -4.5 0
vt -6 0
f 242/582/5 241/583/5 238/584/5 237/585/5 

f 240/491/2 242/488/2 237/560/2 236/561/2 

g Mesh28 Group36 Group2 Group1 Model

v -32.5714 0.75 -39.5714
vt 3.10036e-17 23.0714
vn 6.73716e-10 1 -4.13381e-17
v -11 0.75 -38.0714
v -9.5 0.75 -39.5714
vt 3.10036e-17 3.11139e-17
f 243/586/73 244/237/73 245/587/73

v -31.0714 0.75 -38.0714
vt 1.5 21.5714
f 244/237/73 243/586/73 246/588/73

v -32.5714 0.75 -16.4286
vt 23.1429 23.0714
f 247/589/73 246/588/73 243/586/73

v -31.0714 0.75 -17.9286
vt 21.6429 21.5714
f 248/590/73 246/588/73 247/589/73

vn 1 -6.73716e-10 -7.80405e-12
vt 21.6429 0.75
v -31.0714 2.09351e-08 -17.9286
vt 21.6429 7.94344e-16
v -31.0714 2.09351e-08 -38.0714
vt 1.5 -9.82013e-16
f 246/7/74 248/591/74 249/592/74 250/593/74 

vt -21.5714 0.75
vn -7.80405e-12 -4.53288e-17 -1
v -11 0.75 -17.9286
v -11 7.41264e-09 -17.9286
vt -1.5 -9.8116e-16
vt -21.5714 7.95197e-16
f 248/594/75 251/18/75 252/595/75 249/596/75 

v -9.5 0.75 -16.4286
vt 23.1429 3.11139e-17
vt 21.6429 1.5
f 248/590/73 253/597/73 251/598/73

f 253/597/73 248/590/73 247/589/73

v -32.5714 2.19456e-08 -16.4286
vt 23.0714 8.19675e-16
vn 7.80405e-12 4.13328e-17 1
v -9.5 6.40207e-09 -16.4286
vt 7.93763e-32 -9.56682e-16
vt 7.93763e-32 0.75
vt 23.0714 0.75
f 254/599/76 255/600/76 253/601/76 247/602/76 

vt -23.1429 23.0714
vn -6.73716e-10 -1 4.13381e-17
vt -21.6429 1.5
vt -23.1429 -3.96881e-32
f 254/603/77 252/604/77 255/605/77

vt -21.6429 21.5714
f 252/604/77 254/603/77 249/606/77

vt -1.5 21.5714
f 249/606/77 254/603/77 250/607/77

v -32.5714 2.19456e-08 -39.5714
vt 0 23.0714
f 254/603/77 256/608/77 250/607/77

vt -7.91313e-32 -9.57123e-16
vn -1 6.73716e-10 7.80405e-12
vt -23.1429 8.19234e-16
vt -23.1429 0.75
vt -7.91313e-32 0.75
f 256/609/78 254/610/78 247/611/78 243/612/78 

v -9.5 6.40207e-09 -39.5714
vn -7.80405e-12 -4.13328e-17 -1
vt -23.0714 0
vt -23.0714 0.75
f 257/5/79 256/613/79 243/614/79 245/6/79 

f 257/5/77 250/607/77 256/608/77

v -11 7.41264e-09 -38.0714
f 250/607/77 257/5/77 258/230/77

f 255/605/77 258/230/77 257/5/77

f 252/604/77 258/230/77 255/605/77

vt -21.6429 0.75
vt -1.5 -6.82857e-17
vt -21.6429 -6.82857e-17
f 251/615/78 244/18/78 258/616/78 252/617/78 

f 251/598/73 253/597/73 244/237/73

f 253/597/73 245/587/73 244/237/73

vt 23.1429 0
vt 23.1429 0.75
f 255/618/74 257/5/74 245/6/74 253/619/74 

vn 7.80405e-12 4.53288e-17 1
vt 21.5714 0.75
vt 21.5714 -6.80012e-17
vt 1.5 -6.80012e-17
f 244/7/80 246/620/80 250/621/80 258/622/80 

g Mesh29 Group37 Group2 Group1 Model

v -31.0714 7 -17.9286
vn -6.73716e-10 -1 4.08418e-17
v -11 7 -17.9286
v -11 7 -16.4286
vt -23.1429 1.5
v -32.5714 7 -16.4286
v -32.5714 7 -39.5714
v -11 7 -39.5714
v -11 7 -38.0714
v -31.0714 7 -38.0714
f 259/606/81 260/604/81 261/623/81 262/603/81 263/608/81 264/99/81 265/230/81 266/607/81 

v -31.0714 7.75 -17.9286
v -11 7.75 -17.9286
vt -21.5714 1.77636e-15
f 267/594/6 268/18/6 260/17/6 259/624/6 

v -32.5714 7.75 -39.5714
vt 3.06313e-17 23.0714
vn 6.73716e-10 1 -4.08418e-17
v -32.5714 7.75 -16.4286
v -11 7.75 -16.4286
vt 23.1429 1.5
v -31.0714 7.75 -38.0714
v -11 7.75 -38.0714
v -11 7.75 -39.5714
vt 3.06313e-17 1.5
f 269/625/82 270/589/82 271/626/82 268/598/82 267/590/82 272/588/82 273/237/82 274/627/82 

f 263/609/78 262/610/78 270/611/78 269/612/78 

vt 1.5 -9.56682e-16
f 262/599/76 261/628/76 271/7/76 270/602/76 

vn 1 -6.73715e-10 -1.03431e-11
vt 21.6429 0
f 271/619/83 261/618/83 260/629/83 268/591/83 

f 264/17/79 263/613/79 269/614/79 274/18/79 

vt 1.86162e-12 0.75
vn 1 -6.76198e-10 -6.56297e-12
vt 1.5 -3.72324e-12
vt 1.86162e-12 -3.72324e-12
f 274/630/84 273/7/84 265/631/84 264/632/84 

vt 21.5714 0
f 273/7/2 272/620/2 266/633/2 265/8/2 

f 272/7/74 267/591/74 259/592/74 266/593/74 

g Mesh30 Group38 Group2 Group1 Model

v -31.0714 12 -17.9286
v -11 12 -17.9286
v -11 12 -16.4286
v -32.5714 12 -16.4286
v -32.5714 12 -39.5714
v -11 12 -39.5714
v -11 12 -38.0714
v -31.0714 12 -38.0714
f 275/606/81 276/604/81 277/623/81 278/603/81 279/608/81 280/99/81 281/230/81 282/607/81 

v -31.0714 12.75 -17.9286
v -11 12.75 -17.9286
f 283/594/6 284/18/6 276/17/6 275/624/6 

v -32.5714 12.75 -39.5714
v -32.5714 12.75 -16.4286
v -11 12.75 -16.4286
v -31.0714 12.75 -38.0714
v -11 12.75 -38.0714
v -11 12.75 -39.5714
f 285/625/82 286/589/82 287/626/82 284/598/82 283/590/82 288/588/82 289/237/82 290/627/82 

f 279/609/78 278/610/78 286/611/78 285/612/78 

f 278/599/76 277/628/76 287/7/76 286/602/76 

f 287/619/83 277/618/83 276/629/83 284/591/83 

f 280/17/79 279/613/79 285/614/79 290/18/79 

f 290/630/84 289/7/84 281/631/84 280/632/84 

f 289/7/2 288/620/2 282/633/2 281/8/2 

f 288/7/74 283/591/74 275/592/74 282/593/74 

g Mesh31 Group40 Group39 Group1 Model

usemtl _Carrera_Marble_14
v -42 20.75 -56
vt 0 0.8446
vn -0.707107 -0.707107 5.5183e-12
v -41 19.75 -54.6667
vt -0.0277778 0.805316
v -41 19.75 -1.33333
vt -1.13889 0.805316
v -42 20.75 3.2778e-10
vt -1.16667 0.8446
f 291/634/85 292/635/85 293/636/85 294/637/85 

v 1.35426e-08 20.75 -56
vt 0 0.0196419
vn -4.10473e-10 -0.6 -0.8
v -1 19.75 -54.6667
vt -0.0277778 -0.0196419
vt -1.13889 -0.0196419
vt -1.16667 0.0196419
f 295/638/86 296/639/86 292/640/86 291/641/86 

v 1.39796e-08 20.75 7.10543e-15
vt 1.16667 0.0196419
vn 0.707107 -0.707107 -5.5183e-12
v -1 19.75 -1.33333
vt 1.13889 -0.0196419
vt 0.0277778 -0.0196419
f 297/642/87 298/643/87 296/644/87 295/638/87 

vt 1.16667 0.8446
vn -3.97986e-10 -0.6 0.8
vt 1.13889 0.805316
vt 0.0277778 0.805316
f 294/645/88 293/646/88 298/647/88 297/634/88 

vt -1.13889 1.13889
v -15 19.75 -19
vt -0.770833 0.416667
vt -1.13889 0.0277778
f 293/648/4 299/649/4 298/650/4

v -27 19.75 -19
vt -0.770833 0.75
f 299/649/4 293/648/4 300/651/4

v -27 19.75 -37
vt -0.395833 0.75
f 300/651/4 293/648/4 301/652/4

vt -0.0277778 1.13889
f 293/648/4 292/653/4 301/652/4

vt -0.0277778 0.0277778
f 296/654/4 301/652/4 292/653/4

v -15 19.75 -37
vt -0.395833 0.416667
f 301/652/4 296/654/4 302/655/4

f 298/650/4 302/655/4 296/654/4

f 299/649/4 302/655/4 298/650/4

v -15 20.75 -19
vt -0.770833 0.0277778
v -15 20.75 -37
vt -0.395833 0.0277778
vt -0.395833 0
vt -0.770833 0
f 303/656/5 304/657/5 302/658/5 299/659/5 

vt 0.770833 0.416667
vt 1.16667 0
vt 0.395833 0.416667
f 303/660/1 297/661/1 304/662/1

v -27 20.75 -19
vt 0.770833 0.75
f 305/663/1 297/661/1 303/660/1

vt 1.16667 1.16667
f 297/661/1 305/663/1 294/664/1

v -27 20.75 -37
vt 0.395833 0.75
f 305/663/1 306/665/1 294/664/1

vt 0.395833 0.0277778
vt 0.770833 0.0277778
vt 0.770833 0
vt 0.395833 0
f 306/666/3 305/667/3 300/668/3 301/669/3 

vt -0.75 0.0277778
vt -0.416667 0.0277778
vt -0.416667 0
f 305/670/6 303/671/6 299/672/6 300/147/6 

vt 0.416667 0.0277778
vt 0.75 0.0277778
vt 0.416667 0
f 304/673/2 306/674/2 301/91/2 302/675/2 

vt 0 1.16667
f 304/662/1 291/676/1 306/665/1

f 291/676/1 304/662/1 295/5/1

f 297/661/1 295/5/1 304/662/1

f 294/664/1 306/665/1 291/676/1

