# Alias OBJ Model File
# Exported from SketchUp, (c) 2000-2012 Trimble Navigation Limited
# File units = inches

mtllib 43 Dining bench w no arms 72 x 22.mtl

g Mesh1 Group2 Group1 Model

usemtl FrontColor
v -2.16226 14 -70.7553
vt -22 0
vn -7.80405e-12 5.25771e-21 -1
v -24.1623 14 -70.7553
vt 0 0
v -24.1623 18 -70.7553
vt 0 4
v -2.16226 18 -70.7553
vt -22 4
f 1/1/1 2/2/1 3/3/1 4/4/1 

vt 0 22
vn -6.73715e-10 -1 -0
v -2.16226 14 -2.75531
vt -68 22
v -24.1623 14 -2.75531
vt -68 0
f 1/5/2 5/6/2 6/7/2 2/2/2 

vn 1 -6.73715e-10 -7.80405e-12
v -2.16226 18 -2.75531
vt -68 4
f 5/7/3 1/2/3 4/3/3 7/8/3 

vt 68 22
vn 6.73715e-10 1 -0
v -24.1623 18 -2.75531
vt 68 0
f 7/9/4 4/5/4 3/2/4 8/10/4 

vn -1 6.73715e-10 7.80405e-12
vt 68 4
f 2/2/5 6/10/5 8/11/5 3/3/5 

vn 7.80405e-12 -5.25771e-21 1
vt 22 0
vt 22 4
f 6/2/6 5/12/6 7/13/6 8/3/6 

g Mesh2 Group4 Group3 Group1 Model

usemtl _Color_M06_4
v -2.16226 14 -70.7553
vt -2 2
v -2.16226 12 -70.7553
vt -2 0
v -4.16226 12 -70.7553
v -4.16226 14 -70.7553
vt 0 2
f 9/14/1 10/15/1 11/2/1 12/16/1 

vt -68 2
v -2.16226 12 -2.75531
f 5/17/3 13/7/3 10/2/3 9/16/3 

vt 2 0
vt 2 2
v -4.16226 14 -2.75531
v -4.16226 12 -2.75531
f 13/18/6 5/19/6 14/16/6 15/2/6 

vt 68 2
f 14/10/4 5/20/4 9/16/4 12/2/4 

f 15/10/5 14/20/5 12/16/5 11/2/5 

f 13/17/2 15/7/2 11/2/2 10/16/2 

g Mesh3 Group6 Group5 Group3 Group1 Model

v -2.16226 18 -0.755309
vt -2 18
v -2.16226 4.08226e-09 -0.755309
v -2.16226 4.08226e-09 -2.75531
v -2.16226 18 -2.75531
vt 0 18
f 16/21/3 17/15/3 18/2/3 19/22/3 

vt 2 8.9081e-26
vn 1.1442e-11 -7.70872e-21 1
vt 2 18
v -4.16226 16 -0.755309
vt -6.82121e-12 16
v -4.16226 2 -0.755309
vt -7.27596e-12 2
f 17/23/7 16/24/7 20/25/7 21/26/7 

vt -6.46235e-26 14.1421
vn -0.707107 0.707107 5.5183e-12
v -4.16226 16 -2.75531
vt 7.27596e-12 11.3137
vt 2 11.3137
vt 2 14.1421
f 19/27/8 22/28/8 20/29/8 16/30/8 

vn -1.1442e-11 7.70872e-21 -1
vt -2 3.24075e-37
v -4.16226 2 -2.75531
vt 2.64698e-23 2
vt -4.54747e-13 16
f 19/21/9 18/31/9 23/32/9 22/33/9 

vt 7.27596e-12 1.41421
vn -0.707107 -0.707107 5.5183e-12
vt 1.60266e-24 -1.41421
vt 2 -1.41421
vt 2 1.41421
f 23/34/10 18/35/10 17/36/10 21/37/10 

vt 7.27596e-12 2
vn -1 6.73748e-10 7.80405e-12
vt 2 16
vt 7.27596e-12 16
f 23/38/11 21/19/11 20/39/11 22/40/11 

g Mesh4 Group7 Group5 Group3 Group1 Model

v -22.1623 16 -0.755309
vt -2 16
v -22.1623 2 -0.755309
v -22.1623 2 -2.75531
v -22.1623 16 -2.75531
vt -7.27596e-12 16
f 24/41/3 25/14/3 26/16/3 27/42/3 

vn 5.98506e-12 -1.95891e-13 1
v -24.1623 18 -0.755309
vt 3.63798e-12 18
v -24.1623 1.8904e-08 -0.755309
vt 3.63798e-12 3.91782e-13
f 25/19/12 24/39/12 28/43/12 29/44/12 

vt -7.27596e-12 9.89949
vn 0.707107 0.707107 -5.5183e-12
v -24.1623 18 -2.75531
vt 0 12.7279
vt -2 12.7279
vt -2 9.89949
f 27/45/13 30/46/13 28/47/13 24/48/13 

v -24.1623 1.8904e-08 -2.75531
vn -5.98506e-12 1.95891e-13 -1
f 31/2/14 30/22/14 27/41/14 26/14/14 

f 29/18/5 28/24/5 30/22/5 31/2/5 

vn 0.707107 -0.707107 -5.5183e-12
vt 0 2.82843
vt -2 2.82843
f 31/2/15 26/49/15 25/50/15 29/15/15 

g Mesh5 Group8 Group5 Group3 Group1 Model

v -4.16226 16 -0.755309
vt 20 -2.64245e-23
vn 7.80405e-12 3.63798e-12 1
vt 22 2
v -24.1623 18 -0.755309
vt 2.11146e-27 2
vt 2 -2.64245e-23
f 32/51/16 16/52/16 33/53/16 24/54/16 

vt -2 16.9706
vn 0.707107 -0.707107 -2.94586e-12
vt -2 14.1421
v -4.16226 16 -2.75531
vt 6.54836e-11 14.1421
v -2.16226 18 -2.75531
vt 8.00355e-11 16.9706
f 16/55/17 32/56/17 34/57/17 35/58/17 

vn -6.73715e-10 -1 3.63798e-12
v -22.1623 16 -2.75531
vt -7.27596e-12 20
f 32/1/18 24/14/18 36/26/18 34/59/18 

vn -0.707107 -0.707107 8.09074e-12
v -24.1623 18 -2.75531
vt 0 1.41421
vt 1.45519e-11 -1.41421
f 24/36/19 33/37/19 37/60/19 36/61/19 

vt 2 9.68922e-16
vn 6.73715e-10 1 -3.63798e-12
vt 7.27596e-12 22
vt 7.27596e-12 9.68922e-16
f 33/62/20 16/52/20 35/63/20 37/64/20 

vt -22 2
vn -7.80405e-12 -3.63798e-12 -1
vt -20 -2.64698e-23
vt -2 -2.64698e-23
f 35/65/21 34/66/21 36/67/21 37/16/21 

g Mesh6 Group9 Group5 Group3 Group1 Model

vn 6.73715e-10 1 1.81899e-12
v -4.16226 2 -0.755309
v -4.16226 2 -2.75531
vt 3.63798e-12 20
v -22.1623 2 -2.75531
vt -3.63798e-12 2
f 25/19/22 38/12/22 39/68/22 40/69/22 

vn 7.64196e-12 -1.81899e-12 1
vt 3.24176e-13 3.63798e-12
v -2.16226 4.08228e-09 -0.755309
vt 22 3.65219e-12
vt 20 2
f 25/19/23 29/70/23 41/71/23 38/72/23 

vt 2 -2.34321e-12
vn -0.707107 0.707107 6.6899e-12
vt 2 2.82843
vt 3.3138e-12 2.82843
v -24.1623 1.89076e-08 -2.75531
vt 7.53471e-25 2.89399e-12
f 29/73/24 25/74/24 40/75/24 42/76/24 

vt -4.54747e-13 3.63798e-12
vn -7.64196e-12 1.81899e-12 -1
vt -20 2
v -2.16226 4.08591e-09 -2.75531
vt -22 3.65219e-12
f 42/77/25 40/14/25 39/78/25 43/79/25 

vt -2 -12.7279
vn 0.707107 0.707107 -4.11746e-12
vt -2 -15.5563
vt 4.35837e-11 -15.5563
vt 3.23456e-11 -12.7279
f 38/80/26 41/81/26 43/82/26 39/83/26 

vn -6.73715e-10 -1 -1.81899e-12
vt -2 2.34994e-27
vt 6.61744e-24 4.54747e-13
vt 6.64329e-24 22
f 41/65/27 29/84/27 42/85/27 43/86/27 

g Mesh7 Group10 Group5 Group3 Group1 Model

v -22.1623 14 -0.755309
vt 4.0422e-13 2
vn 7.60194e-12 1.81899e-12 1
v -22.1623 12 -0.755309
vt 4.0422e-13 6.13923e-25
v -4.16226 12 -0.755309
vt 18 -6.00352e-24
v -4.16226 14 -0.755309
vt 18 2
f 44/87/28 45/88/28 46/89/28 47/90/28 

vt 2 3.63798e-12
vn -1 6.73715e-10 7.60194e-12
v -22.1623 14 -2.75531
vt -9.1909e-26 2
v -22.1623 12 -2.75531
vt -9.1909e-26 0
f 45/91/29 44/19/29 48/92/29 49/93/29 

vn 6.73715e-10 1 -1.81899e-12
v -4.16226 14 -2.75531
vt 3.63798e-12 4.54747e-13
f 44/18/30 47/24/30 50/43/30 48/94/30 

vn 1 -6.73715e-10 -7.60194e-12
vt -2 3.63798e-12
v -4.16226 12 -2.75531
vt -3.63798e-12 -1.32349e-23
vt 3.63798e-12 2
f 47/14/31 46/95/31 51/96/31 50/97/31 

vn -6.73715e-10 -1 1.81899e-12
vt -2 -4.51029e-49
vt 0 4.54747e-13
vt -7.27596e-12 18
f 46/21/32 45/98/32 49/99/32 51/100/32 

vt -4.54747e-13 1.67181e-37
vn -7.60194e-12 -1.81899e-12 -1
vt -4.54747e-13 2
vt -18 2
vt -18 -6.61744e-24
f 49/101/33 48/102/33 50/103/33 51/104/33 

g Mesh8 Group11 Group3 Group1 Model

v -22.1623 14 -70.7553
v -22.1623 12 -70.7553
v -24.1623 12 -70.7553
f 52/14/1 53/15/1 54/2/1 2/16/1 

v -22.1623 14 -2.75531
v -22.1623 12 -2.75531
f 55/17/3 56/7/3 53/2/3 52/16/3 

v -24.1623 14 -2.75531
v -24.1623 12 -2.75531
f 56/18/6 55/19/6 57/16/6 58/2/6 

f 57/10/4 55/20/4 52/16/4 2/2/4 

f 58/10/5 57/20/5 2/16/5 54/2/5 

f 56/17/2 58/7/2 54/2/2 53/16/2 

g Mesh9 Group13 Group12 Group3 Group1 Model

v -2.16226 18 -70.7553
v -2.16226 4.07534e-09 -70.7553
v -2.16226 4.07534e-09 -72.7553
v -2.16226 18 -72.7553
f 59/21/3 60/15/3 61/2/3 62/22/3 

v -4.16226 16 -70.7553
v -4.16226 2 -70.7553
f 60/23/7 59/24/7 63/25/7 64/26/7 

v -4.16226 16 -72.7553
f 62/27/8 65/28/8 63/29/8 59/30/8 

v -4.16226 2 -72.7553
f 62/21/9 61/31/9 66/32/9 65/33/9 

f 66/34/10 61/35/10 60/36/10 64/37/10 

f 66/38/11 64/19/11 63/39/11 65/40/11 

g Mesh10 Group14 Group12 Group3 Group1 Model

v -22.1623 16 -70.7553
v -22.1623 2 -70.7553
v -22.1623 2 -72.7553
v -22.1623 16 -72.7553
f 67/41/3 68/14/3 69/16/3 70/42/3 

v -24.1623 18 -70.7553
v -24.1623 1.88971e-08 -70.7553
f 68/19/12 67/39/12 71/43/12 72/44/12 

v -24.1623 18 -72.7553
f 70/45/13 73/46/13 71/47/13 67/48/13 

v -24.1623 1.88971e-08 -72.7553
f 74/2/14 73/22/14 70/41/14 69/14/14 

f 72/18/5 71/24/5 73/22/5 74/2/5 

f 74/2/15 69/49/15 68/50/15 72/15/15 

g Mesh11 Group15 Group12 Group3 Group1 Model

v -2.16226 18 -70.7553
v -24.1623 18 -70.7553
f 63/51/16 75/52/16 76/53/16 67/54/16 

v -4.16226 16 -72.7553
v -2.16226 18 -72.7553
f 75/55/17 63/56/17 77/57/17 78/58/17 

v -22.1623 16 -72.7553
f 63/1/18 67/14/18 79/26/18 77/59/18 

v -24.1623 18 -72.7553
f 67/36/19 76/37/19 80/60/19 79/61/19 

f 76/62/20 75/52/20 78/63/20 80/64/20 

f 78/65/21 77/66/21 79/67/21 80/16/21 

g Mesh12 Group16 Group12 Group3 Group1 Model

v -4.16226 2 -70.7553
v -4.16226 2 -72.7553
v -22.1623 2 -72.7553
f 68/19/22 81/12/22 82/68/22 83/69/22 

v -2.16226 4.07535e-09 -70.7553
f 68/19/23 72/70/23 84/71/23 81/72/23 

v -24.1623 1.89007e-08 -72.7553
f 72/73/24 68/74/24 83/75/24 85/76/24 

v -2.16226 4.07899e-09 -72.7553
f 85/77/25 83/14/25 82/78/25 86/79/25 

f 81/80/26 84/81/26 86/82/26 82/83/26 

f 84/65/27 72/84/27 85/85/27 86/86/27 

g Mesh13 Group17 Group12 Group3 Group1 Model

v -22.1623 14 -70.7553
v -22.1623 12 -70.7553
v -4.16226 12 -70.7553
v -4.16226 14 -70.7553
f 87/87/28 88/88/28 89/89/28 90/90/28 

v -22.1623 14 -72.7553
v -22.1623 12 -72.7553
f 88/91/29 87/19/29 91/92/29 92/93/29 

v -4.16226 14 -72.7553
f 87/18/30 90/24/30 93/43/30 91/94/30 

v -4.16226 12 -72.7553
f 90/14/31 89/95/31 94/96/31 93/97/31 

f 89/21/32 88/98/32 92/99/32 94/100/32 

f 92/101/33 91/102/33 93/103/33 94/104/33 

g Mesh14 Group19 Group18 Group3 Group1 Model

v -4.16226 14 -56.0053
vt 0.75 18
vn 6.73109e-10 1 4.73695e-15
v -4.16226 14 -56.7553
vt -7.10543e-15 18
v -22.1623 14 -56.7553
vt 3.228e-11 9.09495e-13
v -22.1623 14 -56.0053
vt 0.75 1.36424e-12
f 95/105/34 96/106/34 97/107/34 98/108/34 

v -4.16226 12.5 -56.7553
vt -3.27418e-11 -7.10543e-15
vn 1 -6.73109e-10 -9.62304e-12
vt -3.27418e-11 1.5
vt -0.75 1.5
v -4.16226 12.5 -56.0053
vt -0.75 -1.06581e-14
f 99/109/35 96/110/35 95/111/35 100/112/35 

vt -18 1.5
vn -9.62304e-12 6.48319e-21 -1
vt -18 1.09068e-11
v -22.1623 12.5 -56.7553
vt 5.87298e-23 3.55271e-15
vt 5.87298e-23 1.5
f 96/113/36 99/114/36 101/115/36 97/116/36 

vt 5.16651e-26 18
vn -6.73109e-10 -1 -4.73695e-15
vt -0.75 18
v -22.1623 12.5 -56.0053
vt -0.75 2.27374e-12
vt -3.22871e-11 2.15412e-27
f 99/117/37 100/118/37 102/119/37 101/120/37 

vt 18 1.09033e-11
vn 9.62304e-12 -6.48099e-21 1
vt 18 1.5
vt -9.09495e-13 1.5
vt 9.09495e-13 -1.65436e-24
f 100/121/38 95/122/38 98/123/38 102/124/38 

vt 3.22871e-11 1.5
vn -1 6.73109e-10 9.62304e-12
vt 3.22871e-11 3.55271e-15
vt 0.75 -5.51454e-25
vt 0.75 1.5
f 97/125/39 101/126/39 102/127/39 98/128/39 

g Mesh15 Group20 Group18 Group3 Group1 Model

v -15.6623 14.125 -2.75531
vt 68 1
vn 6.73488e-10 1 1.77636e-15
v -15.6623 14.125 -70.7553
vt -2.22045e-16 1
v -16.6623 14.125 -70.7553
vt -2.22045e-16 2.84217e-14
v -16.6623 14.125 -2.75531
vt 68 1.09424e-11
f 103/129/40 104/130/40 105/131/40 106/132/40 

v -15.6623 14 -2.75531
vt -68 -1.20792e-13
vn 1 -6.73488e-10 -7.89302e-12
v -15.6623 14 -70.7553
vt -8.89723e-14 1.63425e-13
vt -8.89723e-14 0.125
vt -68 0.125
f 107/133/41 108/134/41 104/135/41 103/136/41 

vt 6.94198e-28 1
vn -6.73488e-10 -1 -1.77636e-15
vt -68 1
v -16.6623 14 -2.75531
vt -68 1.09139e-11
v -16.6623 14 -70.7553
f 108/137/42 107/138/42 109/139/42 110/2/42 

vt 4.18368e-11 1.63425e-13
vn 7.3493e-12 -1.77636e-15 1
vt 1 2.27374e-13
vt 1 0.125
vt 4.18368e-11 0.125
f 109/140/43 107/141/43 103/142/43 106/143/43 

vn -1 6.73488e-10 7.80405e-12
vt 68 4.26326e-14
vt 68 0.125
vt 0 0.125
f 110/2/44 109/144/44 106/145/44 105/146/44 

vt -1 3.90799e-13
vn -7.80405e-12 1.77636e-15 -1
vt -1 0.125
f 108/147/45 110/2/45 105/146/45 104/148/45 

g Mesh16 Group21 Group18 Group3 Group1 Model

v -4.16226 14 -48.0053
v -4.16226 14 -48.7553
v -22.1623 14 -48.7553
v -22.1623 14 -48.0053
f 111/105/34 112/106/34 113/107/34 114/108/34 

v -4.16226 12.5 -48.7553
v -4.16226 12.5 -48.0053
f 115/109/35 112/110/35 111/111/35 116/112/35 

v -22.1623 12.5 -48.7553
f 112/113/36 115/114/36 117/115/36 113/116/36 

v -22.1623 12.5 -48.0053
f 115/117/37 116/118/37 118/119/37 117/120/37 

f 116/121/38 111/122/38 114/123/38 118/124/38 

f 113/125/39 117/126/39 118/127/39 114/128/39 

g Mesh17 Group22 Group18 Group3 Group1 Model

v -4.16226 14 -40.0053
v -4.16226 14 -40.7553
v -22.1623 14 -40.7553
v -22.1623 14 -40.0053
f 119/105/34 120/106/34 121/107/34 122/108/34 

v -4.16226 12.5 -40.7553
v -4.16226 12.5 -40.0053
f 123/109/35 120/110/35 119/111/35 124/112/35 

v -22.1623 12.5 -40.7553
f 120/113/36 123/114/36 125/115/36 121/116/36 

v -22.1623 12.5 -40.0053
f 123/117/37 124/118/37 126/119/37 125/120/37 

f 124/121/38 119/122/38 122/123/38 126/124/38 

f 121/125/39 125/126/39 126/127/39 122/128/39 

g Mesh18 Group23 Group18 Group3 Group1 Model

v -4.16226 14 -8.00531
v -4.16226 14 -8.75531
v -22.1623 14 -8.75531
v -22.1623 14 -8.00531
f 127/105/34 128/106/34 129/107/34 130/108/34 

v -4.16226 12.5 -8.75531
v -4.16226 12.5 -8.00531
f 131/109/35 128/110/35 127/111/35 132/112/35 

v -22.1623 12.5 -8.75531
f 128/113/36 131/114/36 133/115/36 129/116/36 

v -22.1623 12.5 -8.00531
f 131/117/37 132/118/37 134/119/37 133/120/37 

f 132/121/38 127/122/38 130/123/38 134/124/38 

f 129/125/39 133/126/39 134/127/39 130/128/39 

g Mesh19 Group24 Group18 Group3 Group1 Model

v -9.66226 14.125 -2.75531
v -9.66226 14.125 -70.7553
v -10.6623 14.125 -70.7553
v -10.6623 14.125 -2.75531
vt 68 9.12337e-12
f 135/129/40 136/130/40 137/131/40 138/149/40 

v -9.66226 14 -2.75531
vt -68 -1.22569e-13
v -9.66226 14 -70.7553
f 139/150/41 140/134/41 136/135/41 135/136/41 

v -10.6623 14 -2.75531
vt -68 9.09495e-12
v -10.6623 14 -70.7553
f 140/137/42 139/138/42 141/151/42 142/2/42 

vt 4.00178e-11 1.61648e-13
vt 1 2.25597e-13
vt 4.00178e-11 0.125
f 141/152/43 139/153/43 135/142/43 138/154/43 

vt 68 4.08562e-14
f 142/2/44 141/155/44 138/145/44 137/146/44 

f 140/147/45 142/2/45 137/146/45 136/148/45 

g Mesh20 Group25 Group18 Group3 Group1 Model

v -4.16226 14 -32.0053
v -4.16226 14 -32.7553
v -22.1623 14 -32.7553
v -22.1623 14 -32.0053
f 143/105/34 144/106/34 145/107/34 146/108/34 

v -4.16226 12.5 -32.7553
v -4.16226 12.5 -32.0053
f 147/109/35 144/110/35 143/111/35 148/112/35 

v -22.1623 12.5 -32.7553
f 144/113/36 147/114/36 149/115/36 145/116/36 

v -22.1623 12.5 -32.0053
f 147/117/37 148/118/37 150/119/37 149/120/37 

f 148/121/38 143/122/38 146/123/38 150/124/38 

f 145/125/39 149/126/39 150/127/39 146/128/39 

g Mesh21 Group26 Group18 Group3 Group1 Model

v -4.16226 14 -24.0053
v -4.16226 14 -24.7553
v -22.1623 14 -24.7553
v -22.1623 14 -24.0053
f 151/105/34 152/106/34 153/107/34 154/108/34 

v -4.16226 12.5 -24.7553
v -4.16226 12.5 -24.0053
f 155/109/35 152/110/35 151/111/35 156/112/35 

v -22.1623 12.5 -24.7553
f 152/113/36 155/114/36 157/115/36 153/116/36 

v -22.1623 12.5 -24.0053
f 155/117/37 156/118/37 158/119/37 157/120/37 

f 156/121/38 151/122/38 154/123/38 158/124/38 

f 153/125/39 157/126/39 158/127/39 154/128/39 

g Mesh22 Group27 Group18 Group3 Group1 Model

v -4.16226 14 -16.0053
v -4.16226 14 -16.7553
v -22.1623 14 -16.7553
v -22.1623 14 -16.0053
f 159/105/34 160/106/34 161/107/34 162/108/34 

v -4.16226 12.5 -16.7553
v -4.16226 12.5 -16.0053
f 163/109/35 160/110/35 159/111/35 164/112/35 

v -22.1623 12.5 -16.7553
f 160/113/36 163/114/36 165/115/36 161/116/36 

v -22.1623 12.5 -16.0053
f 163/117/37 164/118/37 166/119/37 165/120/37 

f 164/121/38 159/122/38 162/123/38 166/124/38 

f 161/125/39 165/126/39 166/127/39 162/128/39 

g Mesh23 Group28 Group18 Group3 Group1 Model

v -4.16226 14 -64.0053
v -4.16226 14 -64.7553
v -22.1623 14 -64.7553
v -22.1623 14 -64.0053
f 167/105/34 168/106/34 169/107/34 170/108/34 

v -4.16226 12.5 -64.7553
v -4.16226 12.5 -64.0053
f 171/109/35 168/110/35 167/111/35 172/112/35 

v -22.1623 12.5 -64.7553
f 168/113/36 171/114/36 173/115/36 169/116/36 

v -22.1623 12.5 -64.0053
f 171/117/37 172/118/37 174/119/37 173/120/37 

f 172/121/38 167/122/38 170/123/38 174/124/38 

f 169/125/39 173/126/39 174/127/39 170/128/39 

g Mesh24 Component_52_1 Group1 Model

usemtl FrontColor
v -24.1623 14 -66.7553
v -24.1623 14 -65.7553
vt -1 2
v -24.1623 12 -65.7553
vt -1 0
v -24.1623 12 -66.7553
f 175/16/3 176/156/3 177/157/3 178/2/3 

vt 1 0.1
vt 0 0.1
v -24.2623 14 -66.7553
v -24.2623 14 -65.7553
vt 1 0
f 176/158/4 175/159/4 179/2/4 180/160/4 

vt -0.1 2
vt -0.1 0
v -24.2623 12 -66.7553
f 175/161/1 178/162/1 181/2/1 179/16/1 

vt -1 0.1
v -24.2623 12 -65.7553
f 178/159/2 177/163/2 182/157/2 181/2/2 

vt 0.1 0
vt 0.1 2
f 177/164/6 176/165/6 180/16/6 182/2/6 

vt 1 2
f 180/166/5 179/16/5 181/2/5 182/160/5 

g Mesh25 Component_52_2 Group1 Model

v -24.1623 14 -7.75531
v -24.1623 14 -6.75531
v -24.1623 12 -6.75531
v -24.1623 12 -7.75531
f 183/16/3 184/156/3 185/157/3 186/2/3 

v -24.2623 14 -7.75531
v -24.2623 14 -6.75531
f 184/158/4 183/159/4 187/2/4 188/160/4 

v -24.2623 12 -7.75531
f 183/161/1 186/162/1 189/2/1 187/16/1 

v -24.2623 12 -6.75531
f 186/159/2 185/163/2 190/157/2 189/2/2 

f 185/164/6 184/165/6 188/16/6 190/2/6 

f 188/166/5 187/16/5 189/2/5 190/160/5 

g Mesh26 Component_52_3 Group1 Model

v -2.06226 14 -66.7553
v -2.06226 14 -65.7553
v -2.06226 12 -65.7553
v -2.06226 12 -66.7553
f 191/16/3 192/156/3 193/157/3 194/2/3 

v -2.16226 14 -66.7553
v -2.16226 14 -65.7553
f 192/158/4 191/159/4 195/2/4 196/160/4 

v -2.16226 12 -66.7553
f 191/161/1 194/162/1 197/2/1 195/16/1 

v -2.16226 12 -65.7553
f 194/159/2 193/163/2 198/157/2 197/2/2 

f 193/164/6 192/165/6 196/16/6 198/2/6 

f 196/166/5 195/16/5 197/2/5 198/160/5 

g Mesh27 Component_52_4 Group1 Model

v -2.06226 14 -7.75531
v -2.06226 14 -6.75531
v -2.06226 12 -6.75531
v -2.06226 12 -7.75531
f 199/16/3 200/156/3 201/157/3 202/2/3 

v -2.16226 14 -7.75531
v -2.16226 14 -6.75531
f 200/158/4 199/159/4 203/2/4 204/160/4 

v -2.16226 12 -7.75531
f 199/161/1 202/162/1 205/2/1 203/16/1 

v -2.16226 12 -6.75531
f 202/159/2 201/163/2 206/157/2 205/2/2 

f 201/164/6 200/165/6 204/16/6 206/2/6 

f 204/166/5 203/16/5 205/2/5 206/160/5 

