# Alias OBJ Model File
# Exported from SketchUp, (c) 2000-2012 Trimble Navigation Limited
# File units = inches

mtllib 44 Fly leg barstool 18 x 18 bar height.mtl

g Mesh1 Group4 Group3 Group2 Group1 Model

usemtl _Color_M06_4
v 1.70113e-08 25.25 -18
vt -18 -3.44857e-31
vn -6.73715e-10 -1 -1.65017e-16
v 1.70113e-08 25.25 -0
vt 0 0
v -1.5 25.25 -1.5
vt -1.5 1.5
v -1.5 25.25 -16.5
vt -16.5 1.5
f 1/1/1 2/2/1 3/3/1 4/4/1 

vn 1 -6.73715e-10 -0
vt 18 3.55271e-15
v 1.75166e-08 26 -18
vt 18 0.75
v 1.75166e-08 26 -0
vt 0 0.75
f 2/2/2 1/5/2 5/6/2 6/7/2 

v -1.5 26 -16.5
vt -10.6066 0.75
vn -0.707107 4.76389e-10 -0.707107
vt -12.7279 0.75
vt -12.7279 3.55271e-15
vt -10.6066 1.77636e-15
f 7/8/3 5/9/3 1/10/3 4/11/3 

vt 16.5 1.5
vn 6.73715e-10 1 1.65017e-16
v -1.5 26 -1.5
vt 1.5 1.5
vt 1.23763e-16 -4.44089e-16
vt 18 -4.44089e-16
f 7/12/4 8/13/4 6/14/4 5/15/4 

vt -16.5 1.77636e-15
vn -1 6.73715e-10 -0
vt -1.5 0
vt -1.5 0.75
vt -16.5 0.75
f 4/16/5 3/17/5 8/18/5 7/19/5 

vn -0.707107 4.76389e-10 0.707107
vt -2.12132 0.75
vt -2.12132 0
f 6/7/6 8/20/6 3/21/6 2/2/6 

g Mesh2 Group5 Group3 Group2 Group1 Model

vt -1.5 -4.39693e-31
vn -6.73715e-10 -1 -5.92119e-16
vt -1.05181e-30 1.5
v -16.5 25.25 -16.5
vt 0 16.5
v -18 25.25 -18
vt -1.5 18
f 1/22/7 4/23/7 9/24/7 10/25/7 

vt -1.06066 1.45603e-15
vn 0.707107 -4.76389e-10 0.707107
vt 1.06066 3.23239e-15
vt 1.06066 0.75
vt -1.06066 0.75
f 4/26/8 1/27/8 5/28/8 7/29/8 

vt -1.75302e-31 2.66454e-15
vn 3.9892e-25 5.92119e-16 -1
vt 18 -8.88178e-16
v -18 26 -18
vt -1.75302e-31 0.75
f 1/30/9 10/31/9 11/6/9 5/32/9 

vt -13.7886 6.24637e-15
vn -0.707107 4.76388e-10 0.707107
vt -11.6673 6.24637e-15
v -16.5 26 -16.5
vt -11.6673 0.75
vt -13.7886 0.75
f 10/33/10 9/34/10 12/35/10 11/36/10 

vt -16.5 -6.85079e-46
vn -3.9892e-25 -5.92119e-16 1
vt -1.5 1.77636e-15
f 9/37/11 4/38/11 7/18/11 12/19/11 

vt 4.44089e-16 1.5
vn 6.73715e-10 1 5.92119e-16
vt 1.5 -1.23763e-16
vt 1.5 18
vt 4.44089e-16 16.5
f 7/39/12 5/40/12 11/41/12 12/42/12 

g Mesh3 Group6 Group3 Group2 Group1 Model

vt -16.5 5.77636e-31
vn -6.73716e-10 -1 -4.85343e-17
v -16.5 25.25 -1.5
vt -1.5 -4.31072e-32
v -18 25.25 -0
vt -8.62143e-32 1.5
vt -18 1.5
f 9/43/13 13/44/13 14/45/13 10/46/13 

vt 1.5 0
vt 16.5 1.77636e-15
vt 16.5 0.75
v -16.5 26 -1.5
vt 1.5 0.75
f 13/47/2 9/48/2 12/49/2 15/50/2 

vt 13.7886 0.75
vn 0.707107 -4.76389e-10 -0.707107
vt 11.6673 0.75
vt 11.6673 1.77636e-15
vt 13.7886 1.77636e-15
f 11/51/14 12/52/14 9/53/14 10/54/14 

vt 1.5 4.44089e-16
vn 6.73716e-10 1 4.85343e-17
vt 16.5 4.44089e-16
vt 18 1.5
v -18 26 -0
vt 3.64008e-17 1.5
f 15/55/15 12/56/15 11/57/15 16/58/15 

vt -18 1.77636e-15
vt 0 1.77636e-15
vt -18 0.75
f 10/59/5 14/60/5 16/7/5 11/61/5 

vt -1.06066 1.77636e-15
vt 1.06066 0
f 15/28/8 16/29/8 14/62/8 13/63/8 

g Mesh4 Group7 Group3 Group2 Group1 Model

v -18 25.25 -0
vt 1.05181e-30 18
vn -6.73715e-10 -1 5.92119e-16
vt -1.5 16.5
v 1.70113e-08 25.25 -0
vt 1.05181e-30 -8.62143e-32
f 17/64/16 13/65/16 3/3/16 18/66/16 

vt 10.6066 5.76588e-15
vn -0.707107 4.76388e-10 -0.707107
vt 12.7279 7.54224e-15
v -18 26 -0
vt 12.7279 0.75
vt 10.6066 0.75
f 13/67/17 17/68/17 19/69/17 15/70/17 

vn 3.9892e-25 5.92119e-16 1
v 1.75166e-08 26 -0
f 17/59/18 18/60/18 20/7/18 19/61/18 

vt 2.12132 1.77636e-15
vt 2.12132 0.75
f 18/60/14 3/71/14 8/72/14 20/7/14 

vt 1.5 2.66454e-15
vn -3.9892e-25 -5.92119e-16 -1
vt 16.5 8.88178e-16
f 3/73/19 13/74/19 15/49/19 8/50/19 

vt 1.5 16.5
vn 6.73715e-10 1 -5.92119e-16
vt -4.44089e-16 18
vt -4.44089e-16 -3.64008e-17
f 15/75/20 19/76/20 20/77/20 8/13/20 

g Mesh5 Group9 Group8 Group2 Group1 Model

v -18 1.21269e-08 -0.75
vt -0.75 18
vn -6.73715e-10 -1 -9.91799e-15
v 5.01143e-24 7.43849e-15 -0.75
vt -0.75 0
v 0 0 -2.84217e-14
vt -2.84217e-14 0
v -18 1.21269e-08 -2.84217e-14
vt -2.84217e-14 18
f 21/78/21 22/79/21 23/80/21 24/81/21 

v -16.5 1.5 -0.75
vn -7.76549e-16 9.4739e-15 -1
v -1.5 1.5 -0.75
vt -5.82412e-16 3.33067e-16
vt 18 3.33067e-16
f 25/12/22 26/13/22 22/82/22 21/83/22 

v -16.5 1.5 -0
vt 7.54952e-15 16.5
vn 6.73715e-10 1 5.03301e-15
v -1.5 1.5 -2.84217e-14
vt 3.59712e-14 1.5
vt 0.75 1.5
vt 0.75 16.5
f 27/84/23 28/85/23 26/86/23 25/87/23 

vn 9.08456e-16 -8.13285e-15 1
vt -18 -3.6414e-28
vt 2.58199e-29 -2.31149e-28
f 27/4/24 24/88/24 23/89/24 28/3/24 

vt -0.75 -10.6066
vn -0.707107 0.707107 7.53328e-15
vt -0.75 -12.7279
vt -2.20188e-13 -12.7279
vt -1.75786e-13 -10.6066
f 25/90/25 21/91/25 24/92/25 27/93/25 

vt 0.75 7.87663e-15
vn 0.707107 0.707107 3.48909e-15
vt 0.75 2.12132
vt 2.10202e-14 2.12132
vt 2.84217e-14 9.9166e-29
f 22/94/26 26/95/26 28/96/26 23/97/26 

g Mesh6 Group10 Group8 Group2 Group1 Model

v -16.5 25.25 -0
vn 6.73715e-10 1 -0
v -16.5 25.25 -0.75
vt 0.75 0
v -18 25.25 -0.75
v -18 25.25 -0
vt 0 1.5
f 29/2/27 30/98/27 31/86/27 32/99/27 

v -16.5 1.5 -0.75
vt 0.75 25.25
vt 0 25.25
f 27/99/2 33/86/2 30/100/2 29/101/2 

vt 0 1.06066
vn 0.707107 -0.707107 -0
v -18 1.21269e-08 -0
vt 0 -1.06066
v -18 1.21269e-08 -0.75
vt 0.75 -1.06066
vt 0.75 1.06066
f 27/102/28 34/103/28 35/104/28 33/105/28 

vt -1.5 25.25
vn 0 0 1
f 32/106/29 34/17/29 27/99/29 29/101/29 

vt -0.75 25.25
f 32/101/5 31/107/5 35/79/5 34/2/5 

vt 1.5 25.25
vn 1.12428e-14 -1.25015e-15 -1
vt 8.43211e-15 25.25
vt 8.43211e-15 1.5
vt 1.5 9.3761e-16
f 31/108/30 30/109/30 33/110/30 35/111/30 

g Mesh7 Group12 Group11 Group2 Group1 Model

v -8.5 26 -16.5
vt -15 -7.88861e-31
vn -6.73715e-10 -1 -5.92119e-17
v -8.5 26 -1.5
v -9.5 26 -1.5
vt 0 1
v -9.5 26 -16.5
vt -15 1
f 36/112/31 37/2/31 38/113/31 39/114/31 

vn 1 -6.73715e-10 1.05181e-31
vt 15 1.77636e-15
v -8.5 26.125 -16.5
vt 15 0.125
v -8.5 26.125 -1.5
vt 0 0.125
f 37/2/32 36/115/32 40/116/32 41/117/32 

vt -1.57772e-30 8.88178e-16
vn 3.98919e-26 5.92119e-17 -1
vt 1 -8.88178e-16
v -9.5 26.125 -16.5
vt 1 0.125
vt -1.57772e-30 0.125
f 36/118/33 39/119/33 42/120/33 40/121/33 

vt -15 8.88178e-16
vt 0 8.88178e-16
v -9.5 26.125 -1.5
vt -15 0.125
f 39/122/5 38/123/5 43/117/5 42/124/5 

vt -1 0
vn -3.9892e-26 -5.92119e-17 1
vt -1 0.125
f 38/125/34 37/2/34 41/117/34 43/126/34 

vt 7.40149e-18 -1.11022e-16
vn 6.73715e-10 1 5.92119e-17
vt 15 -1.11022e-16
vt 15 1
vt 7.40149e-18 1
f 41/127/35 40/128/35 42/129/35 43/130/35 

g Mesh8 Group13 Group11 Group2 Group1 Model

v -12.5 26 -16.5
v -12.5 26 -1.5
v -13.5 26 -1.5
v -13.5 26 -16.5
f 44/112/31 45/2/31 46/113/31 47/114/31 

v -12.5 26.125 -16.5
v -12.5 26.125 -1.5
f 45/2/32 44/115/32 48/116/32 49/117/32 

v -13.5 26.125 -16.5
f 44/118/33 47/119/33 50/120/33 48/121/33 

v -13.5 26.125 -1.5
f 47/122/5 46/123/5 51/117/5 50/124/5 

f 46/125/34 45/2/34 49/117/34 51/126/34 

f 49/127/35 48/128/35 50/129/35 51/130/35 

g Mesh9 Group14 Group11 Group2 Group1 Model

v -4.5 26 -16.5
v -4.5 26 -1.5
v -5.5 26 -1.5
v -5.5 26 -16.5
f 52/112/31 53/2/31 54/113/31 55/114/31 

v -4.5 26.125 -16.5
v -4.5 26.125 -1.5
f 53/2/32 52/115/32 56/116/32 57/117/32 

v -5.5 26.125 -16.5
f 52/118/33 55/119/33 58/120/33 56/121/33 

v -5.5 26.125 -1.5
f 55/122/5 54/123/5 59/117/5 58/124/5 

f 54/125/34 53/2/34 57/117/34 59/126/34 

f 57/127/35 56/128/35 58/129/35 59/130/35 

g Mesh10 Group16 Group15 Group2 Group1 Model

v -18 1.21269e-08 -18
v -2.76259e-11 7.43851e-15 -18
v -2.76259e-11 1.8612e-20 -17.25
v -18 1.21269e-08 -17.25
f 60/78/21 61/79/21 62/80/21 63/81/21 

v -16.5 1.5 -18
v -1.5 1.5 -18
f 64/12/22 65/13/22 61/82/22 60/83/22 

v -16.5 1.5 -17.25
v -1.5 1.5 -17.25
f 66/84/23 67/85/23 65/86/23 64/87/23 

f 66/4/24 63/88/24 62/89/24 67/3/24 

f 64/90/25 60/91/25 63/92/25 66/93/25 

f 61/94/26 65/95/26 67/96/26 62/97/26 

g Mesh11 Group17 Group15 Group2 Group1 Model

v -16.5 25.25 -17.25
v -16.5 25.25 -18
v -18 25.25 -17.25
f 68/2/27 69/98/27 10/86/27 70/99/27 

v -16.5 1.5 -17.25
f 71/99/2 64/86/2 69/100/2 68/101/2 

v -18 1.21269e-08 -17.25
v -18 1.21269e-08 -18
f 71/102/28 72/103/28 73/104/28 64/105/28 

f 70/106/29 72/17/29 71/99/29 68/101/29 

f 70/101/5 10/107/5 73/79/5 72/2/5 

f 10/108/30 69/109/30 64/110/30 73/111/30 

g Mesh12 Group18 Group2 Group1 Model

v -16.5 26 -8.25
vt -15 0.75
v -16.5 25.25 -8.25
vt -15 0
v -1.5 25.25 -8.25
v -1.5 26 -8.25
f 74/131/29 75/132/29 76/2/29 77/7/29 

v -16.5 26 -9.75
v -16.5 25.25 -9.75
f 75/2/5 74/7/5 78/18/5 79/38/5 

vt 0 15
v -1.5 26 -9.75
vt 1.5 15
f 74/133/27 77/2/27 80/47/27 78/134/27 

v -1.5 25.25 -9.75
vt 1.5 1.77636e-15
f 80/50/2 77/7/2 76/2/2 81/135/2 

vn -6.73715e-10 -1 -1.18424e-15
vt -1.5 15
f 75/133/36 79/136/36 81/17/36 76/2/36 

vn 0 0 -1
vt 15 0.75
f 79/115/37 78/137/37 80/7/37 81/60/37 

g Mesh13 Group21 Group20 Group19 Group2 Group1 Model

v -1.5 1.5 -2.27374e-13
vt -1.09993e-13 1.5
vn -1 6.73719e-10 -7.82538e-14
v -1.5 12 -1.98952e-13
vt -8.15713e-14 12
v -1.5 11.25 -0.75
vt -0.75 11.25
v -1.5 1.5 -0.75
vt -0.75 1.5
f 82/138/38 83/139/38 84/140/38 85/141/38 

v 8.08436e-09 12 -1.7053e-13
vt -2.27374e-13 12
vn -5.81438e-14 -3.90102e-15 1
vt -1.5 12
v 0 0 -2.27374e-13
vt -1.32204e-26 -8.86989e-28
f 86/142/39 83/143/39 82/3/39 87/144/39 

vt 1.5 7.42462
vn 4.76469e-10 0.707107 -0.707107
vt 1.5 8.48528
vt 2.27374e-13 8.48528
v 7.57916e-09 11.25 -0.75
vt 2.27374e-13 7.42462
f 84/145/40 83/146/40 86/147/40 88/148/40 

vt 0.75 11.25
vn 1 -6.73699e-10 6.50839e-14
vt 1.7053e-13 12
vt 2.27374e-13 2.37677e-40
v 0 0 -0.75
vt 0.75 7.83985e-28
f 88/149/41 86/150/41 87/151/41 89/152/41 

vt -2.27374e-13 0
vn -0.707107 -0.707107 -0
vt -2.27374e-13 2.12132
vt -0.75 2.12132
f 87/153/42 82/154/42 85/155/42 89/79/42 

vt 1.5 11.25
vn 5.80939e-14 3.75141e-15 -1
vt 1.85679e-13 11.25
vt 4.35704e-14 -2.81356e-15
f 84/156/43 88/157/43 89/158/43 85/13/43 

g Mesh14 Group22 Group19 Group2 Group1 Model

v -1.5 11.25 -17.25
vt 1.5 12.1976
vn -4.76308e-10 -0.707107 -0.707107
v -1.5 12 -18
vt 1.5 13.2583
v 8.0845e-09 12 -18
vt 2.13163e-12 13.2583
v 7.5793e-09 11.25 -17.25
vt 1.9611e-12 12.1976
f 90/159/44 91/160/44 92/161/44 93/162/44 

v -1.5 11.25 -0.75
vt -0.75 1.7053e-13
vn -1 6.73602e-10 -0
v -1.5 12 -0
vt -17.25 1.7053e-13
f 94/163/45 95/7/45 91/61/45 90/164/45 

vt -1.5 0.53033
vn -4.76308e-10 -0.707107 0.707107
vt -1.5 -0.53033
v 7.5793e-09 11.25 -0.75
vt 8.52651e-14 -0.53033
v 8.0845e-09 12 -0
vt -8.52651e-14 0.53033
f 95/165/46 94/166/46 96/167/46 97/168/46 

vn -6.73602e-10 -1 -0
vt -17.25 1.5
vt -17.25 -1.9387e-26
vt -0.75 -1.9387e-26
f 94/141/47 90/169/47 93/170/47 96/171/47 

vn 1 -6.73602e-10 -0
vt 0.75 1.7053e-13
vt 17.25 1.7053e-13
f 97/7/48 96/172/48 93/173/48 92/6/48 

vn 6.73602e-10 1 -0
vt 0 -1.9387e-26
vt 18 -1.9387e-26
f 91/57/49 95/99/49 97/174/49 92/175/49 

g Mesh15 Group24 Group23 Group19 Group2 Group1 Model

v -1.5 1.5 -17.25
vn -1 6.73719e-10 7.82538e-14
v -1.5 11.25 -17.25
v -1.5 12 -18
v -1.5 1.5 -18
f 98/141/50 99/140/50 100/139/50 101/138/50 

vn 5.80939e-14 3.75141e-15 1
v -8.52651e-14 5.74444e-23 -17.25
v 7.57907e-09 11.25 -17.25
f 98/13/51 102/158/51 103/157/51 99/156/51 

v -8.52651e-14 5.74444e-23 -18
f 102/79/42 98/155/42 101/154/42 104/153/42 

vn -5.81438e-14 -3.90102e-15 -1
v 8.08427e-09 12 -18
f 104/144/52 101/3/52 100/143/52 105/142/52 

vn 4.76469e-10 0.707107 0.707107
f 103/148/53 105/147/53 100/146/53 99/145/53 

vn 1 -6.73699e-10 -6.50839e-14
f 102/152/54 104/151/54 105/150/54 103/149/54 

g Mesh16 Group25 Group1 Model

usemtl FrontColor
v -18 26 -0
vt 0 18
vn -6.73715e-10 -1 -9.86865e-17
v -18 26 -18
vt -18 18
vt -18 -5.25907e-31
f 106/176/55 107/177/55 5/178/55 20/2/55 

v -18 30 -0
vt 0 4
v -18 30 -18
vt -18 4
f 107/59/5 106/60/5 108/179/5 109/180/5 

vt -18 0
vn -6.64866e-26 -9.86865e-17 1
v 2.02115e-08 30 -0
f 106/181/56 20/2/56 110/179/56 108/180/56 

vn 1 -6.73715e-10 1.9478e-32
vt 18 7.10543e-15
v 2.02115e-08 30 -18
vt 18 4
f 20/2/57 5/182/57 111/183/57 110/179/57 

vt -3.50605e-31 5.32907e-15
vn 6.64866e-26 9.86865e-17 -1
vt 18 -1.77636e-15
vt -3.50605e-31 4
f 5/184/58 107/185/58 109/183/58 111/186/58 

vt 18 18
vn 6.73715e-10 1 9.86865e-17
vt 3.94746e-16 18
vt 3.94746e-16 -3.94746e-16
vt 18 -3.94746e-16
f 109/187/59 108/188/59 110/189/59 111/190/59 

g Mesh17 Component_51_1 Group1 Model

v 1.70113e-08 25.25 -5
v 1.70113e-08 25.25 -4
v 1.75166e-08 26 -4
v 1.75166e-08 26 -5
vt -1 0.75
f 112/125/5 113/2/5 114/7/5 115/191/5 

vt 1 0
v -1.5 25.25 -5
vt 1 1.5
v -1.5 25.25 -4
f 113/2/27 112/192/27 116/193/27 117/99/27 

v 0.1 26 -5
vt -0.1 0.75
v 0.1 25.15 -5
vt -0.1 -0.1
v -1.5 25.15 -5
vt 1.5 -0.1
f 116/47/37 112/2/37 115/7/37 118/194/37 119/195/37 120/196/37 

v 0.1 26 -4
vt 0 -0.1
vt 1 -0.1
f 115/192/27 114/2/27 121/197/27 118/198/27 

v -1.5 25.15 -4
vt -1.5 -0.1
v 0.1 25.15 -4
vt 0.1 -0.1
vt 0.1 0.75
f 122/199/29 123/200/29 121/201/29 114/7/29 113/2/29 117/17/29 

vn -6.73715e-10 -1 -0
vt -1 1.5
vt -1 -0.1
f 123/197/60 122/99/60 120/202/60 119/203/60 

f 117/2/5 116/125/5 120/203/5 122/197/5 

vt 1 0.75
f 121/7/2 123/197/2 119/198/2 118/204/2 

g Mesh18 Component_51_2 Group1 Model

v 1.70113e-08 25.25 -14
v 1.70113e-08 25.25 -13
v 1.75166e-08 26 -13
v 1.75166e-08 26 -14
f 124/125/5 125/2/5 126/7/5 127/191/5 

v -1.5 25.25 -14
v -1.5 25.25 -13
f 125/2/27 124/192/27 128/193/27 129/99/27 

v 0.1 26 -14
v 0.1 25.15 -14
v -1.5 25.15 -14
f 128/47/37 124/2/37 127/7/37 130/194/37 131/195/37 132/196/37 

v 0.1 26 -13
f 127/192/27 126/2/27 133/197/27 130/198/27 

v -1.5 25.15 -13
v 0.1 25.15 -13
f 134/199/29 135/200/29 133/201/29 126/7/29 125/2/29 129/17/29 

f 135/197/60 134/99/60 132/202/60 131/203/60 

f 129/2/5 128/125/5 132/203/5 134/197/5 

f 133/7/2 135/197/2 131/198/2 130/204/2 

g Mesh19 Component_51_3 Group1 Model

v -18 26 -14
v -18 26 -13
v -18 25.25 -13
v -18 25.25 -14
f 136/191/2 137/7/2 138/2/2 139/125/2 

v -18.1 26 -14
v -18.1 26 -13
f 140/198/27 141/197/27 137/2/27 136/192/27 

v -18.1 25.15 -14
v -18.1 25.15 -13
f 140/204/5 142/198/5 143/197/5 141/7/5 

v -16.5 25.15 -14
v -16.5 25.25 -14
f 144/196/37 142/195/37 140/194/37 136/7/37 139/2/37 145/47/37 

v -16.5 25.15 -13
f 142/203/60 144/202/60 146/99/60 143/197/60 

v -16.5 25.25 -13
f 146/197/2 144/203/2 145/125/2 147/2/2 

f 147/99/27 145/193/27 139/192/27 138/2/27 

f 147/17/29 138/2/29 137/7/29 141/201/29 143/200/29 146/199/29 

g Mesh20 Component_51_4 Group1 Model

v -18 26 -5
v -18 26 -4
v -18 25.25 -4
v -18 25.25 -5
f 148/191/2 149/7/2 150/2/2 151/125/2 

v -18.1 26 -5
v -18.1 26 -4
f 152/198/27 153/197/27 149/2/27 148/192/27 

v -18.1 25.15 -5
v -18.1 25.15 -4
f 152/204/5 154/198/5 155/197/5 153/7/5 

v -16.5 25.15 -5
v -16.5 25.25 -5
f 156/196/37 154/195/37 152/194/37 148/7/37 151/2/37 157/47/37 

v -16.5 25.15 -4
f 154/203/60 156/202/60 158/99/60 155/197/60 

v -16.5 25.25 -4
f 158/197/2 156/203/2 157/125/2 159/2/2 

f 159/99/27 157/193/27 151/192/27 150/2/27 

f 159/17/29 150/2/29 149/7/29 153/201/29 155/200/29 158/199/29 

