# Alias OBJ Model File
# Exported from SketchUp, (c) 2000-2012 Trimble Navigation Limited
# File units = inches

mtllib 45 Fly leg bench 42 x 18 dining height.mtl

g Mesh1 Group5 Group4 Group3 Group2 Group1 Model

usemtl _Color_M06_4
v -9.5 14 -2
vt -39 1
vn -6.73715e-10 -1 5.76936e-17
v -9.5 14 -40
vt 0 1
v -8.5 14 -40
vt 0 0
v -8.5 14 -2
vt -39 -1.10441e-30
f 1/1/1 2/2/1 3/3/1 4/4/1 

v -9.5 14.125 -2
vt -39 0.125
vn -1 6.73715e-10 7.80405e-12
v -9.5 14.125 -40
vt 0 0.125
vt 0 8.88178e-16
vt -39 2.66454e-15
f 5/5/2 6/6/2 2/7/2 1/8/2 

vt 7.40149e-18 1
vn 6.73715e-10 1 -5.76936e-17
vt 39 1
v -8.5 14.125 -2
vt 39 -1.11022e-16
v -8.5 14.125 -40
vt 7.40149e-18 -1.11022e-16
f 6/9/3 5/10/3 7/11/3 8/12/3 

vt -4.10208e-30 0.125
vn 7.80405e-12 6.07648e-17 1
vt 1 0.125
vt 1 -5.32907e-16
vt -4.10208e-30 1.24345e-15
f 7/13/4 5/14/4 1/15/4 4/16/4 

vn 1 -6.73715e-10 -7.80405e-12
vt 39 0.125
vt 39 3.55271e-15
f 8/6/5 7/17/5 4/18/5 3/3/5 

vt -1 0.125
vn -7.80405e-12 -6.07648e-17 -1
vt -1 0
f 6/19/6 8/6/6 3/3/6 2/20/6 

g Mesh2 Group6 Group4 Group3 Group2 Group1 Model

v -13.5 14 -2
v -13.5 14 -40
v -12.5 14 -40
v -12.5 14 -2
vt -39 4.73317e-31
f 9/1/1 10/2/1 11/3/1 12/21/1 

v -13.5 14.125 -2
v -13.5 14.125 -40
vt -39 8.88178e-16
f 13/5/2 14/6/2 10/7/2 9/22/2 

v -12.5 14.125 -2
v -12.5 14.125 -40
f 14/9/3 13/10/3 15/11/3 16/12/3 

vt 1 -2.30926e-15
vt -4.10208e-30 -5.32907e-16
f 15/13/4 13/14/4 9/23/4 12/24/4 

vt 39 1.77636e-15
f 16/6/5 15/17/5 12/25/5 11/3/5 

f 14/19/6 16/6/6 11/3/6 10/20/6 

g Mesh3 Group7 Group4 Group3 Group2 Group1 Model

v -5.5 14 -2
v -5.5 14 -40
v -4.5 14 -40
v -4.5 14 -2
f 17/1/1 18/2/1 19/3/1 20/4/1 

v -5.5 14.125 -2
v -5.5 14.125 -40
f 21/5/2 22/6/2 18/7/2 17/8/2 

v -4.5 14.125 -2
v -4.5 14.125 -40
f 22/9/3 21/10/3 23/11/3 24/12/3 

f 23/13/4 21/14/4 17/15/4 20/16/4 

f 24/6/5 23/17/5 20/18/5 19/3/5 

f 22/19/6 24/6/6 19/3/6 18/20/6 

g Mesh4 Group8 Group3 Group2 Group1 Model

v -2 14 -32.25
vt -0.5 0.75
vn -7.80405e-12 5.25771e-21 -1
v -2 13.25 -32.25
vt -0.5 0
v -16 13.25 -32.25
vt -14.5 0
v -16 14 -32.25
vt -14.5 0.75
f 25/26/7 26/27/7 27/28/7 28/29/7 

v -2 13.25 -30.75
vt 1.5 1.77636e-15
vt 0 0.75
v -2 14 -30.75
vt 1.5 0.75
f 29/30/5 26/3/5 25/31/5 30/32/5 

vt 0 0.5
vn -6.73715e-10 -1 1.18424e-15
vt -1.5 0.5
v -16 13.25 -30.75
vt -1.5 14.5
vt 0 14.5
f 26/33/8 29/34/8 31/35/8 27/36/8 

vt 0.5 1.77636e-15
vn 7.80405e-12 -5.25771e-21 1
vt 0.5 0.75
v -16 14 -30.75
vt 14.5 0.75
vt 14.5 1.77636e-15
f 29/37/9 30/38/9 32/39/9 31/40/9 

vt 1.5 14.5
vn 6.73715e-10 1 -0
vt 1.5 0.5
f 32/41/10 30/42/10 25/33/10 28/36/10 

vt -1.5 1.77636e-15
vt -1.5 0.75
f 31/43/2 32/44/2 28/31/2 27/3/2 

g Mesh5 Group9 Group3 Group2 Group1 Model

v -2 14 -21.75
v -2 13.25 -21.75
v -16 13.25 -21.75
v -16 14 -21.75
f 33/26/7 34/27/7 35/28/7 36/29/7 

v -2 13.25 -20.25
v -2 14 -20.25
f 37/30/5 34/3/5 33/31/5 38/32/5 

v -16 13.25 -20.25
f 34/33/8 37/34/8 39/35/8 35/36/8 

v -16 14 -20.25
f 37/37/9 38/38/9 40/39/9 39/40/9 

f 40/41/10 38/42/10 33/33/10 36/36/10 

f 39/43/2 40/44/2 36/31/2 35/3/2 

g Mesh6 Group10 Group3 Group2 Group1 Model

v -2 14 -11.25
v -2 13.25 -11.25
v -16 13.25 -11.25
v -16 14 -11.25
f 41/26/7 42/27/7 43/28/7 44/29/7 

v -2 13.25 -9.75
v -2 14 -9.75
f 45/30/5 42/3/5 41/31/5 46/32/5 

v -16 13.25 -9.75
f 42/33/8 45/34/8 47/35/8 43/36/8 

v -16 14 -9.75
f 45/37/9 46/38/9 48/39/9 47/40/9 

f 48/41/10 46/42/10 41/33/10 44/36/10 

f 47/43/2 48/44/2 44/31/2 43/3/2 

g Mesh7 Group12 Group11 Group2 Group1 Model

v -18 1.21269e-08 1.40217e-10
vt 18 0
v -4.54404e-13 1.22757e-16 -2.55795e-13
vt 4.54747e-13 1.11022e-16
v 1.34698e-09 2 -2.55795e-13
vt 4.54747e-13 2
v -16 2 1.24609e-10
vt 16 2
f 49/45/9 50/46/9 51/47/9 52/48/9 

v -18 1.21269e-08 -2
vt 2 18
vn -6.73715e-10 -1 -3.54856e-17
v -2 1.34743e-09 -2
vt 2 2
vt 3.9397e-33 4.54747e-13
vt 0 18
f 53/49/11 54/50/11 50/51/11 49/52/11 

v -16 2 -2
vt -16 2
v -2 2 -2
vt -2 2
vt -2 3.33067e-16
vt -18 0
f 55/53/7 56/54/7 54/55/7 53/56/7 

vt 0 16
vt 0 4.54747e-13
vt -2 16
f 52/57/10 51/58/10 56/54/10 55/59/10 

vt -3.21555e-13 1.11022e-16
vn 0.707107 -4.76389e-10 -0.707107
vt -2.82843 3.33067e-16
vt -2.82843 2
vt -3.21555e-13 2
f 50/60/12 54/61/12 56/62/12 51/63/12 

vt 2 -9.89949
vn -0.707107 0.707107 5.5183e-12
vt 2 -12.7279
vt 0 -12.7279
vt 0 -9.89949
f 55/64/13 53/65/13 49/66/13 52/67/13 

g Mesh8 Group13 Group11 Group2 Group1 Model

v -18 12 -40
vt 18 12
v -18 1.21269e-08 -40
v -16 2 -40
v -16 12 -40
vt 16 12
f 57/68/9 58/45/9 59/48/9 60/69/9 

v -18 12 -42
vt 2 12
v -18 1.21269e-08 -42
vt 2 0
vt 0 12
f 61/70/2 62/71/2 58/3/2 57/72/2 

vt -18 12
v -16 12 -42
vt -16 12
v -16 2 -42
f 62/56/7 61/73/7 63/74/7 64/53/7 

vt -2 18
f 63/59/10 61/75/10 57/52/10 60/57/10 

vt -2 12
vt 0 2
f 64/54/5 63/76/5 60/72/5 59/77/5 

vt -2 -12.7279
vn 0.707107 -0.707107 -5.5183e-12
vt -2 -9.89949
f 62/78/14 64/79/14 59/67/14 58/66/14 

g Mesh9 Group14 Group11 Group2 Group1 Model

v -2 1.34743e-09 -40
vt 2 3.33067e-16
v -2 2 -40
f 59/48/9 58/45/9 65/80/9 66/50/9 

f 64/64/13 62/65/13 58/66/13 59/67/13 

v 1.01875e-09 2 -42
vt -9.09495e-13 2
v -3.28679e-10 1.22978e-16 -42
vt -9.09495e-13 1.11022e-16
f 64/53/7 67/81/7 68/82/7 62/56/7 

vt -2 9.09495e-13
f 59/57/10 66/77/10 67/83/10 64/59/10 

vt 1.41421 3.33067e-16
vn 0.707107 -4.76389e-10 0.707107
vt -1.41421 1.11022e-16
vt -1.41421 2
vt 1.41421 2
f 65/84/15 68/85/15 67/86/15 66/87/15 

vn -6.73715e-10 -1 3.54856e-17
vt 2 9.09495e-13
vt -1.18191e-32 2
f 62/49/16 68/88/16 65/89/16 58/52/16 

g Mesh10 Group15 Group11 Group2 Group1 Model

v -18 12 1.40217e-10
v -16 12 1.24609e-10
f 69/68/9 49/45/9 52/48/9 70/69/9 

v -18 12 -2
f 71/70/2 53/71/2 49/3/2 69/72/2 

v -16 12 -2
f 53/56/7 71/73/7 72/74/7 55/53/7 

f 72/59/10 71/75/10 69/52/10 70/57/10 

f 55/54/5 72/76/5 70/72/5 52/77/5 

f 53/78/14 55/79/14 52/67/14 49/66/14 

g Mesh11 Group11 Group2 Group1 Model

v -2 1.34743e-09 -2
vt -40 2
vn -6.73716e-10 -1 -1.63784e-18
v -2 1.34743e-09 -40
v -3.2777e-10 1.19554e-17 -42
v 3.43811e-16 1.17346e-17 -2.55795e-13
vt -42 5.48577e-33
f 73/90/17 74/54/17 75/3/17 76/91/17 

vt -2 2.22045e-16
vt -40 2.22045e-16
v -2 2 -2
f 66/54/2 74/92/2 73/93/2 77/90/2 

vn -0.707107 4.76389e-10 -0.707107
vt -2.82843 2.22045e-16
v 1.01966e-09 2 -42
f 75/3/18 74/94/18 66/62/18 78/77/18 

vt 40 2
v 1.34743e-09 2 -2.55795e-13
vt 42 0
f 66/50/10 77/95/10 79/96/10 78/3/10 

vt -26.8701 2.22045e-16
vn -0.707107 4.76389e-10 0.707107
vt -29.6985 0
vt -29.6985 2
vt -26.8701 2
f 73/97/19 76/98/19 79/99/19 77/100/19 

vt 42 2
f 78/77/5 79/101/5 76/96/5 75/3/5 

g Mesh12 Group17 Group16 Group2 Group1 Model

v -2 12 -2
vn -6.73715e-10 -1 0
v 8.08459e-09 12 -2.55795e-13
vt -2 0
v -18 12 1.40217e-10
f 80/77/20 81/102/20 82/75/20 72/57/20 

v -2 14 -2
v 9.43202e-09 14 -2.55795e-13
vt 1.41421 0
vt -1.41421 0
f 83/86/12 84/87/12 81/103/12 80/104/12 

v -16 14 -2
v -18 14 1.40217e-10
f 84/71/10 83/77/10 85/57/10 86/49/10 

vt -16 0
f 85/53/7 83/54/7 80/102/7 72/105/7 

vt -14.1421 2
vt -11.3137 2
vt -11.3137 0
vt -14.1421 0
f 86/106/18 85/107/18 72/108/18 82/109/18 

vt 18 2
f 84/77/9 86/110/9 82/45/9 81/3/9 

g Mesh13 Group18 Group16 Group2 Group1 Model

v 7.75682e-09 12 -42
v -2 12 -40
f 87/3/20 88/54/20 60/59/20 61/52/20 

v 9.10425e-09 14 -42
v -2 14 -40
vt 2.82843 2
vt 2.82843 0
f 89/77/15 90/111/15 88/112/15 87/3/15 

v -18 14 -42
v -16 14 -40
vt 2 16
f 90/50/10 89/3/10 91/52/10 92/113/10 

vt -18 2
f 91/114/7 89/77/7 87/3/7 61/56/7 

vt 9.89949 2
vt 12.7279 2
vt 12.7279 0
vt 9.89949 0
f 92/115/19 91/116/19 61/117/19 60/118/19 

vt 16 0
f 90/50/9 92/48/9 60/119/9 88/71/9 

g Mesh14 Group19 Group16 Group2 Group1 Model

v 8.08459e-09 12 -2.55795e-13
vt -42 0
v -2 12 -2
f 87/3/20 93/120/20 94/90/20 88/54/20 

f 89/77/5 84/101/5 93/96/5 87/3/5 

v -2 14 -2
f 84/96/10 89/3/10 90/50/10 95/95/10 

vt -2.82843 0
f 90/62/18 89/77/18 87/3/18 88/121/18 

vt -40 0
f 95/90/2 90/54/2 88/102/2 94/122/2 

vt -26.8701 0
f 84/99/19 95/100/19 94/123/19 93/98/19 

g Mesh15 Group20 Group16 Group2 Group1 Model

v -18 12 1.40219e-10
vt -42 2
v -16 12 -2
f 96/124/20 61/77/20 60/102/20 97/122/20 

v -18 14 1.40219e-10
f 98/124/2 91/77/2 61/3/2 96/120/2 

v -16 14 -2
vt 40 0
f 91/77/10 98/101/10 99/125/10 92/71/10 

vt 28.2843 2
vt 31.1127 2
vt 31.1127 0
vt 28.2843 0
f 99/126/15 98/127/15 96/128/15 97/129/15 

f 92/50/5 99/95/5 97/125/5 60/71/5 

f 91/86/12 92/87/12 60/103/12 61/104/12 

g Mesh16 Group21 Group1 Model

usemtl FrontColor
vt -42 18
f 98/130/20 91/52/20 89/3/20 84/120/20 

v -18 18 1.40219e-10
vt -42 4
v -18 18 -42
vt 0 4
f 100/131/2 101/132/2 91/3/2 98/120/2 

vt 42 18
v 1.21269e-08 18 -2.55795e-13
v 1.17991e-08 18 -42
f 101/52/10 100/133/10 102/96/10 103/3/10 

vt 18 4
f 102/132/9 100/134/9 98/45/9 84/3/9 

vt 42 4
f 103/132/5 102/135/5 84/96/5 89/3/5 

vt -18 4
f 101/136/7 103/132/7 89/3/7 91/56/7 

