# Alias OBJ Model File
# Exported from SketchUp, (c) 2000-2012 Trimble Navigation Limited
# File units = inches

mtllib 46 Half back barstool 17 x 21 bar height.mtl

g Mesh1 Group3 Group2 Group1 Model

usemtl _Color_M06_4
v -1.5 27 -9.25
vt 1.5 0.75
vn 1 -6.73715e-10 -0
v -1.5 27 -7.75
vt 0 0.75
v -1.5 26.25 -7.75
vt 0 0
v -1.5 26.25 -9.25
vt 1.5 0
f 1/1/1 2/2/1 3/3/1 4/4/1 

v -19.5 27 -9.25
vt 1.5 18
vn 6.73715e-10 1 -3.55271e-15
v -19.5 27 -7.75
vt -2.66454e-15 18
vt -2.66454e-15 0
f 5/5/2 6/6/2 2/7/2 1/4/2 

vn -1 6.73715e-10 -0
vt -1.5 0.75
v -19.5 26.25 -9.25
vt -1.5 0
v -19.5 26.25 -7.75
f 6/2/3 5/8/3 7/9/3 8/3/3 

vt 18 0
vn 0 0 -1
vt 18 0.75
f 7/10/4 5/11/4 1/2/4 4/3/4 

vt 0 18
vn -6.73715e-10 -1 -0
vt -1.5 18
f 8/12/5 7/13/5 4/9/5 3/3/5 

vt -18 0.75
vn 0 0 1
vt -18 0
f 6/14/6 8/15/6 3/3/6 2/2/6 

g Mesh2 Group5 Group4 Group2 Group1 Model

v -20.25 33 -1.5
vt -0.75 0
v -20.25 34.5 -1.5
vt -0.75 1.5
v -21 34.5 -1.5
vt 0 1.5
v -21 33 -1.5
f 9/16/6 10/17/6 11/18/6 12/3/6 

v -20.25 33 -15.5
vt -14 0
v -20.25 34.5 -15.5
vt -14 1.5
f 13/19/1 14/20/1 10/18/1 9/3/1 

vt 0.75 1.5
vt 0.75 0
v -21 33 -15.5
v -21 34.5 -15.5
f 14/21/4 13/22/4 15/3/4 16/18/4 

vt -14 0.75
f 15/19/5 13/23/5 9/2/5 12/3/5 

vt 14 1.5
vt 14 0
f 16/24/3 15/25/3 12/3/3 11/18/3 

vt 14 0.75
vn 6.73715e-10 1 -0
f 14/26/7 16/25/7 11/3/7 10/2/7 

g Mesh3 Group6 Group4 Group2 Group1 Model

v -20.25 28.5 -1.5
v -20.25 30 -1.5
v -21 30 -1.5
v -21 28.5 -1.5
f 17/16/6 18/17/6 19/18/6 20/3/6 

v -20.25 28.5 -15.5
v -20.25 30 -15.5
f 21/19/1 22/20/1 18/18/1 17/3/1 

v -21 28.5 -15.5
v -21 30 -15.5
f 22/21/4 21/22/4 23/3/4 24/18/4 

f 23/19/5 21/23/5 17/2/5 20/3/5 

f 24/24/3 23/25/3 20/3/3 19/18/3 

f 22/26/7 24/25/7 19/3/7 18/2/7 

g Mesh4 Group7 Group4 Group2 Group1 Model

v -20.25 27 -17
v -20.25 27 -15.5
v -21 27 -15.5
v -21 27 -17
f 25/8/5 26/2/5 27/3/5 28/9/5 

v -20.25 38 -17
vt -1.5 11
v -20.25 36.5 -15.5
vt 0 9.5
f 25/9/1 29/27/1 30/28/1 26/3/1 

v -21 38 -17
vt 0 11
vt 0.75 11
f 28/3/4 31/29/4 29/30/4 25/22/4 

v -21 36.5 -15.5
vt 1.5 11
f 27/3/3 32/28/3 31/31/3 28/4/3 

vt -0.75 9.5
f 32/28/6 27/3/6 26/16/6 30/32/6 

vt -0.75 6.71751
vn 4.76389e-10 0.707107 0.707107
vt -0.75 8.83883
vt 0 8.83883
vt 0 6.71751
f 30/33/8 29/34/8 31/35/8 32/36/8 

g Mesh5 Group8 Group4 Group2 Group1 Model

v -21 38 -17
vt 17 1.5
v -21 36.5 -15.5
vt 15.5 0
v -21 36.5 -1.5
v -21 38 -2.55795e-13
f 33/37/3 34/38/3 35/4/3 36/18/3 

vt 0 10.9602
vn -4.76389e-10 -0.707107 -0.707107
vt 0 13.0815
vt 0.75 13.0815
vt 0.75 10.9602
f 34/39/9 33/40/9 29/41/9 30/42/9 

vt 17 0
v -20.25 38 -2.55795e-13
vt 17 0.75
f 33/43/7 36/3/7 37/2/7 29/44/7 

vt 0 1.06066
vn -4.76389e-10 -0.707107 0.707107
vt 0 -1.06066
v -20.25 36.5 -1.5
vt -0.75 -1.06066
vt -0.75 1.06066
f 36/45/10 35/46/10 38/47/10 37/48/10 

vt -15.5 0
vt -15.5 0.75
f 35/9/5 34/49/5 30/50/5 38/8/5 

vt -17 1.5
f 30/49/1 29/51/1 37/18/1 38/9/1 

g Mesh6 Group9 Group4 Group2 Group1 Model

v -21 27 -2.55795e-13
v -21 27 -1.5
v -20.25 27 -1.5
v -20.25 27 -2.55795e-13
f 39/3/5 40/9/5 41/8/5 42/2/5 

vt 1.5 9.5
f 39/3/3 36/29/3 35/52/3 40/4/3 

v -20.25 38 -2.55795e-13
vt -0.75 11
f 36/29/6 39/3/6 42/16/6 43/53/6 

v -20.25 36.5 -1.5
vt -1.5 9.5
f 41/9/1 44/54/1 43/29/1 42/3/1 

vt 0.75 9.5
f 40/3/4 35/28/4 44/55/4 41/22/4 

vt 0.75 7.77817
vn 4.76389e-10 0.707107 -0.707107
vt 0.75 5.65685
vt 0 5.65685
vt 0 7.77817
f 43/56/11 44/57/11 35/58/11 36/59/11 

g Mesh7 Group11 Group10 Group2 Group1 Model

v -0.75 26.25 -1.5
vt 1.5 25.5
v -0.75 0.75 -1.5
v -0.75 0.75 -2.55795e-13
v -0.75 26.25 -2.55795e-13
vt 0 25.5
f 45/60/3 46/4/3 47/3/3 48/61/3 

v 1.7685e-08 26.25 -1.5
vt 0.75 25.5
v 3.33067e-16 2.22045e-16 -1.5
vt 0.75 -0.75
f 49/62/4 50/63/4 46/3/4 45/61/4 

vt -1.5 -0.75
vt -1.5 25.5
v 1.7685e-08 26.25 -2.55795e-13
v 3.33067e-16 2.22045e-16 -2.55795e-13
vt 0 -0.75
f 50/64/1 49/65/1 51/61/1 52/66/1 

f 45/4/7 48/3/7 51/2/7 49/1/7 

vt -0.75 -0.75
vt -0.75 25.5
f 52/67/6 51/68/6 48/61/6 47/3/6 

vn -0.707107 -0.707107 -0
vt 1.5 -1.06066
f 52/46/12 47/3/12 46/4/12 50/69/12 

g Mesh8 Group12 Group10 Group2 Group1 Model

v -0.75 26.25 -17
vn -1 6.73721e-10 2.24639e-14
v -0.75 0.75 -17
vt 1.5 1.7801e-28
v -0.75 0.75 -15.5
vt 9.09495e-13 1.07933e-40
v -0.75 26.25 -15.5
f 53/60/13 54/70/13 55/71/13 56/61/13 

v 3.33067e-16 0 -17
v 1.7685e-08 26.25 -17
f 57/63/4 54/3/4 53/61/4 58/62/4 

v 3.33067e-16 0 -15.5
vt 9.09495e-13 0
f 59/46/12 55/72/12 54/4/12 57/69/12 

vn -6.21989e-13 -3.13177e-14 1
vt 5.65695e-25 -2.84833e-26
v 1.7685e-08 26.25 -15.5
f 56/61/14 55/73/14 59/67/14 60/68/14 

f 57/64/1 58/65/1 60/61/1 59/66/1 

f 53/4/7 56/3/7 60/2/7 58/1/7 

g Mesh9 Group13 Group2 Group1 Model

v -0.75 12 -15.5
v -0.75 10.5 -15.5
v -0.75 10.5 -1.5
v -0.75 12 -1.5
f 61/24/3 62/25/3 63/3/3 64/18/3 

v 8.08413e-09 12 -15.5
v 7.07356e-09 10.5 -15.5
f 62/3/4 61/18/4 65/21/4 66/22/4 

v 8.08413e-09 12 -1.5
f 65/26/7 61/25/7 64/3/7 67/2/7 

v 7.07356e-09 10.5 -1.5
f 64/18/6 63/3/6 68/16/6 67/17/6 

f 62/19/5 66/23/5 68/2/5 63/3/5 

f 66/19/1 65/20/1 67/18/1 68/3/1 

g Mesh10 Group15 Group14 Group2 Group1 Model

v -19.5 27 -15.5
vt 1.77636e-14 1.5
vn 6.73712e-10 1 2.36848e-14
v -1.5 27 -15.5
vt 1.77636e-14 19.5
v 1.81901e-08 27 -17
vt 1.5 21
v -21 27 -17
vt 1.5 2.95711e-15
f 69/74/15 70/75/15 71/76/15 72/77/15 

v -19.5 26.25 -15.5
v -1.5 26.25 -15.5
vt -19.5 1.06581e-13
vt -19.5 0.75
f 69/8/6 73/9/6 74/78/6 70/79/6 

v -21 26.25 -17
vt 1.06066 0
vn -0.707107 4.76389e-10 0.707107
vt -1.06066 0
vt -1.06066 0.75
vt 1.06066 0.75
f 75/80/16 73/81/16 69/82/16 72/83/16 

vt -1.5 -2.4642e-29
vn -6.7371e-10 -1 -2.83983e-15
v 1.7685e-08 26.25 -17
vt -1.5 21
vt -3.02673e-28 19.5
f 75/84/17 76/85/17 74/86/17 73/18/17 

vt 21 0.75
vt 21 1.1724e-13
f 72/2/4 71/87/4 76/88/4 75/3/4 

vt -13.7886 -6.32383e-13
vn 0.707107 -4.76335e-10 0.707107
vt -15.9099 -6.21725e-13
vt -15.9099 0.75
vt -13.7886 0.75
f 74/89/18 76/90/18 71/91/18 70/92/18 

g Mesh11 Group16 Group14 Group2 Group1 Model

v -19.5 26.25 -1.5
vt -1.5 1.5
vn -6.73715e-10 -1 -1.03309e-14
v -1.5 26.25 -1.5
vt -1.5 19.5
v 1.76846e-08 26.25 -7.10543e-13
vt -4.54747e-13 21
v -21 26.25 -2.55795e-13
f 77/93/19 78/94/19 79/95/19 80/3/19 

v -19.5 27 -1.5
v -1.5 27 -1.5
vt 19.5 0.75
vt 19.5 5.50671e-14
f 81/1/4 82/96/4 78/97/4 77/4/4 

v -21 27 -2.55795e-13
vt -2.66454e-15 -1.88085e-16
vn 6.73716e-10 1 -3.55271e-15
v 1.81899e-08 27 -2.55795e-13
vt -2.66454e-15 21
vt 1.5 19.5
vt 1.5 1.5
f 83/98/20 84/99/20 82/100/20 81/101/20 

vn 1.08273e-14 -3.03165e-13 1
vt -21 1.77636e-15
vt -21 0.75
f 80/3/21 79/102/21 84/103/21 83/2/21 

vt 14.8492 -3.18146e-12
vn 0.707107 -4.76174e-10 -0.707107
vt 12.7279 -3.12816e-12
vt 12.7279 0.75
vt 14.8492 0.75
f 79/104/22 78/105/22 82/106/22 84/107/22 

vt 2.12132 0
vn -0.707107 4.76389e-10 -0.707107
vt 2.12132 0.75
f 77/108/23 80/3/23 83/2/23 81/109/23 

g Mesh12 Group17 Group14 Group2 Group1 Model

vt -17 0
vt -15.5 1.5
f 75/110/5 73/111/5 77/93/5 80/3/5 

vt -12.0208 0.75
vn 0.707107 -4.76389e-10 -0.707107
vt -9.89949 0.75
vt -9.89949 -5.18104e-16
vt -12.0208 -6.29126e-16
f 72/112/24 69/113/24 73/114/24 75/115/24 

vt 15.5 1.5
vt 17 5.55112e-17
vt 0 5.55112e-17
f 69/116/7 72/117/7 83/118/7 81/101/7 

f 83/2/3 72/44/3 75/43/3 80/3/3 

vt -2.12132 0.75
vn 0.707107 -4.76389e-10 0.707107
vt -2.12132 1.11022e-16
f 81/119/25 83/2/25 80/3/25 77/120/25 

vt -1.5 2.46519e-32
vt -15.5 2.46519e-32
f 69/50/1 81/8/1 77/121/1 73/122/1 

g Mesh13 Group18 Group14 Group2 Group1 Model

v -1.5 27 -1.5
vn -1 6.73769e-10 1.96088e-28
v -1.5 27 -15.5
vt 15.5 0.75
vt 15.5 1.06581e-13
vt 1.5 5.50671e-14
f 85/1/26 86/123/26 74/124/26 78/125/26 

v 1.819e-08 27 -17
vn 6.73769e-10 1 1.42475e-15
vt 15.5 1.68754e-14
vt 1.5 1.68754e-14
v 1.819e-08 27 -7.10543e-13
vt 1.06856e-15 1.5
f 87/37/27 86/126/27 85/127/27 88/128/27 

vt 10.9602 0.75
vn -0.707107 4.76427e-10 -0.707107
vt 13.0815 0.75
v 1.76846e-08 26.25 -17
vt 13.0815 -4.24045e-13
vt 10.9602 -3.17463e-13
f 86/129/28 87/130/28 89/131/28 74/132/28 

vt -17 0.75
vn 1 -6.73769e-10 5.56843e-30
vt -8.35264e-30 0.75
vt -8.35264e-30 8.17124e-14
vt -17 7.99361e-14
f 87/133/29 88/134/29 79/135/29 89/136/29 

vn -0.707107 4.76425e-10 0.707107
vt 1.06066 9.39665e-14
vt -1.06066 4.06758e-14
f 88/82/30 85/83/30 78/137/30 79/138/30 

vt -15.5 -4.50295e-27
vn -6.73769e-10 -1 -1.42475e-15
vt -2.53086e-30 1.5
vt -1.5 -2.82067e-27
f 74/139/31 89/51/31 79/140/31 78/141/31 

g Mesh14 Group19 Group2 Group1 Model

v -19.5 26.25 -8.925
v -19.5 26.25 -8.175
v -19.5 0.75 -8.175
v -19.5 0.75 -8.925
vt -0.75 5.55112e-17
f 90/68/1 91/61/1 92/118/1 93/142/1 

vn 6.73715e-10 1 7.40149e-17
v -21 26.25 -8.925
vt 0.75 9.4369e-16
v -21 26.25 -8.175
vt 1.88738e-15 9.4369e-16
vt 1.88738e-15 1.5
f 90/21/32 94/143/32 95/144/32 91/145/32 

vn 4.9865e-26 7.40149e-17 -1
vt 1.5 5.55112e-17
v -21 0.75 -8.925
f 94/61/33 90/60/33 93/146/33 96/118/33 

vt -0.75 2.05433e-33
vn -6.73715e-10 -1 -7.40149e-17
vt -8.2173e-33 1.5
v -21 0.75 -8.175
f 96/147/34 93/17/34 92/148/34 97/3/34 

vn -4.9865e-26 -7.40149e-17 1
vt -1.5 1.11022e-16
f 91/65/35 95/61/35 97/3/35 92/149/35 

vn -1 6.73715e-10 -5.4782e-33
vt 0.75 1.11022e-16
f 95/61/36 94/62/36 96/150/36 97/3/36 

g Mesh15 Group21 Group20 Group2 Group1 Model

v -21 1.4148e-08 -17
v -19.5 1.31375e-08 -15.5
v -19.5 1.31375e-08 -1.5
v -21 1.4148e-08 -2.55795e-13
f 98/110/5 99/111/5 100/93/5 101/3/5 

v -21 0.75 -17
v -19.5 0.75 -15.5
f 102/112/24 103/113/24 99/114/24 98/115/24 

v -21 0.75 -2.55795e-13
v -19.5 0.75 -1.5
f 103/116/7 102/117/7 104/118/7 105/101/7 

f 104/2/3 102/44/3 98/43/3 101/3/3 

f 105/119/25 104/2/25 101/3/25 100/120/25 

f 103/50/1 105/8/1 100/121/1 99/122/1 

g Mesh16 Group22 Group20 Group2 Group1 Model

v -3.97904e-13 -5.07889e-21 -2.55795e-13
vt 0 21
v -3.97904e-13 1.11017e-16 -1.5
f 106/151/34 101/3/34 100/93/34 107/85/34 

v -0.75 0.75 -2.55795e-13
vt -20.25 0.75
v -21 0.75 -2.55795e-13
vt -21 0
f 108/152/6 109/2/6 101/3/6 106/153/6 

v -19.5 0.75 -1.5
vt 0 20.25
v -0.75 0.75 -1.5
vt 1.5 20.25
f 110/101/7 109/3/7 108/154/7 111/155/7 

vt 2.12132 1.11022e-16
f 100/156/23 101/3/23 109/2/23 110/109/23 

vt 20.25 0.75
vt 21 1.11022e-16
vt 1.5 1.11022e-16
f 110/1/4 111/157/4 107/158/4 100/159/4 

vt -9.99201e-16 -13.7886
vn 0.707107 0.707107 3.48909e-17
vt -1.03621e-15 -14.8492
vt -1.5 -14.8492
vt -1.5 -13.7886
f 108/160/37 106/161/37 107/162/37 111/163/37 

g Mesh17 Group23 Group20 Group2 Group1 Model

v -21 0.75 -17
v -19.5 0.75 -15.5
v -0.75 0.75 -15.5
v -0.75 0.75 -17
f 112/4/7 113/18/7 114/154/7 115/155/7 

v -21 1.4148e-08 -17
v -19.5 1.31375e-08 -15.5
vt -1.06066 1.11022e-16
f 116/80/16 117/164/16 113/82/16 112/83/16 

v -3.41061e-13 1.11017e-16 -15.5
vt 8.2173e-33 21
vn -6.73715e-10 -1 7.40149e-17
vt 8.2173e-33 1.5
v -3.41061e-13 -5.11694e-21 -17
f 118/165/38 117/166/38 116/9/38 119/85/38 

vt -21 1.11022e-16
f 117/149/6 118/167/6 114/152/6 113/8/6 

vt 9.99201e-16 -13.7886
vn 0.707107 0.707107 -3.48909e-17
vt 1.03621e-15 -14.8492
f 114/168/39 118/169/39 119/162/39 115/163/39 

vt 21 0
f 112/2/4 115/157/4 119/170/4 116/3/4 

g Mesh18 Group25 Group24 Group2 Group1 Model

v -14.5 27.125 -15.5
vt 14 1
vn 6.73715e-10 1 -6.97854e-16
v -14.5 27.125 -1.5
vt -8.72318e-17 1
v -13.5 27.125 -1.5
vt -8.72318e-17 -1.11022e-16
v -13.5 27.125 -15.5
vt 14 -1.11022e-16
f 120/171/40 121/172/40 122/173/40 123/174/40 

v -14.5 27 -15.5
vt -14 8.88178e-16
vn -1 6.73715e-10 1.35233e-30
v -14.5 27 -1.5
vt -1.35233e-30 2.22045e-14
vt -1.35233e-30 0.125
vt -14 0.125
f 124/175/41 125/176/41 121/177/41 120/178/41 

vt 1.48757e-29 1
vn -6.73715e-10 -1 6.97854e-16
vt -14 1
v -13.5 27 -15.5
vt -14 -1.97215e-29
v -13.5 27 -1.5
vt 7.43783e-30 -9.46633e-30
f 125/179/42 124/180/42 126/181/42 127/182/42 

vt 1.21485e-28 2.22045e-14
vn -4.70147e-25 -6.97854e-16 -1
vt 1 9.76996e-15
vt 1 0.125
vt 1.21485e-28 0.125
f 126/183/43 124/184/43 120/185/43 123/186/43 

vt 0 1.06581e-14
vn 1 -6.73715e-10 1.12694e-31
vt 14 1.24345e-14
vt 14 0.125
vt 0 0.125
f 127/187/44 126/188/44 123/189/44 122/190/44 

vt -1 2.13163e-14
vn 4.70163e-25 6.97854e-16 1
vt -1 0.125
f 125/191/45 127/187/45 122/190/45 121/192/45 

g Mesh19 Group26 Group24 Group2 Group1 Model

v -18.5 27.125 -15.5
v -18.5 27.125 -1.5
v -17.5 27.125 -1.5
v -17.5 27.125 -15.5
f 128/171/40 129/172/40 130/173/40 131/174/40 

v -18.5 27 -15.5
v -18.5 27 -1.5
f 132/175/41 133/176/41 129/177/41 128/178/41 

v -17.5 27 -15.5
v -17.5 27 -1.5
f 133/179/42 132/180/42 134/181/42 135/182/42 

f 134/183/43 132/184/43 128/185/43 131/186/43 

f 135/187/44 134/188/44 131/189/44 130/190/44 

f 133/191/45 135/187/45 130/190/45 129/192/45 

g Mesh20 Group27 Group24 Group2 Group1 Model

v -5.5 27.125 -15.5
v -5.5 27.125 -1.5
v -4.5 27.125 -1.5
v -4.5 27.125 -15.5
f 136/171/40 137/172/40 138/173/40 139/174/40 

v -5.5 27 -15.5
v -5.5 27 -1.5
f 140/175/41 141/176/41 137/177/41 136/178/41 

v -4.5 27 -15.5
v -4.5 27 -1.5
f 141/179/42 140/180/42 142/181/42 143/182/42 

f 142/183/43 140/184/43 136/185/43 139/186/43 

f 143/187/44 142/188/44 139/189/44 138/190/44 

f 141/191/45 143/187/45 138/190/45 137/192/45 

g Mesh21 Group28 Group24 Group2 Group1 Model

v -10 27.125 -15.5
v -10 27.125 -1.5
v -9 27.125 -1.5
v -9 27.125 -15.5
f 144/171/40 145/172/40 146/173/40 147/174/40 

v -10 27 -15.5
v -10 27 -1.5
f 148/175/41 149/176/41 145/177/41 144/178/41 

v -9 27 -15.5
v -9 27 -1.5
f 149/179/42 148/180/42 150/181/42 151/182/42 

f 150/183/43 148/184/43 144/185/43 147/186/43 

f 151/187/44 150/188/44 147/189/44 146/190/44 

f 149/191/45 151/187/45 146/190/45 145/192/45 

g Mesh22 Group29 Group1 Model

usemtl FrontColor
v -20 27 -17
vt -17 5.50671e-14
vn -1 6.73713e-10 -0
v -20 27 -2.55795e-13
vt 0 5.50671e-14
v -20 30 -2.55795e-13
vt 0 3
v -20 30 -17
vt -17 3
f 152/193/46 153/194/46 154/195/46 155/196/46 

vn -6.73713e-10 -1 -3.23924e-15
vt -17 20.25
v 1.819e-08 27 -17
vt -17 0.25
v 1.819e-08 27 -2.55795e-13
vt 0 0.25
f 153/154/47 152/197/47 156/198/47 157/199/47 

vt 0.25 5.86198e-14
vn 2.18231e-24 3.23924e-15 -1
vt 20.25 -5.50671e-14
vt 20.25 3
v 2.02111e-08 30 -17
vt 0.25 3
f 156/200/48 152/201/48 155/202/48 158/203/48 

vt 17 20.25
vn 6.73713e-10 1 3.23924e-15
vt 9.71772e-15 20.25
v 2.02111e-08 30 -2.55795e-13
vt 9.71772e-15 0.25
vt 17 0.25
f 155/204/49 154/205/49 159/206/49 158/207/49 

vt -20.25 0
vn -2.18233e-24 -3.23924e-15 1
vt -0.25 0
vt -0.25 3
vt -20.25 3
f 153/208/50 157/209/50 159/210/50 154/211/50 

vt -4.40433e-30 6.7984e-16
vn 1 -6.73713e-10 1.76173e-29
vt 17 1.14367e-13
vt 17 3
vt -4.40433e-30 3
f 157/212/51 156/213/51 158/214/51 159/215/51 

g Mesh23 Group30 Group1 Model

v -20 30 -17
vt -17 1.77636e-15
v -20 30 -2.55795e-13
vt 0 1.77636e-15
v -20 39 -2.55795e-13
vt 0 9
v -20 39 -17
vt -17 9
f 160/216/3 161/217/3 162/218/3 163/219/3 

vt 0 2
vn -6.73715e-10 -1 -1.04492e-16
vt -17 2
v -17 30 -17
vt -17 -1
v -17 30 -2.55795e-13
vt 0 -1
f 161/220/52 160/221/52 164/222/52 165/223/52 

vt -1 1.77636e-15
vn 7.03974e-26 1.04492e-16 -1
vt 2 -1.77636e-15
vt 2 9
v -17 39 -17
vt -1 9
f 164/224/53 160/225/53 163/226/53 166/227/53 

vt 17 2
vn 6.73715e-10 1 1.04492e-16
vt 9.40424e-16 2
v -17 39 -2.55795e-13
vt 9.40424e-16 -1
vt 17 -1
f 163/228/54 162/229/54 167/230/54 166/231/54 

vt -2 0
vn -7.03976e-26 -1.04492e-16 1
vt 1 0
vt 1 9
vt -2 9
f 161/232/55 165/233/55 167/234/55 162/235/55 

vt 1.85614e-31 -8.88178e-16
vn 1 -6.73715e-10 1.85614e-31
vt 17 2.66454e-15
vt 17 9
vt 1.85614e-31 9
f 165/236/56 164/237/56 166/238/56 167/239/56 

g Mesh24 Component_47_1 Group1 Model

v -20 28 0.1
vt 0.25 1
v -21.1 28 0.1
vt -0.85 1
v -21.1 27 0.1
vt -0.85 2.84217e-14
v -20 27 0.1
vt 0.25 4.26326e-14
f 168/240/6 169/241/6 170/242/6 171/243/6 

v -21 28 -2.55795e-13
vt -6.58921e-15 0.75
vn 6.73733e-10 1 -6.58921e-15
v -21 28 -1.5
v -20 28 -1.5
vt 1.5 -0.25
v -20 28 -1.6
vt 1.6 -0.25
v -21.1 28 -1.6
vt 1.6 0.85
vt -0.1 0.85
vt -0.1 -0.25
v -20 28 -2.55795e-13
vt -6.58921e-15 -0.25
f 172/244/57 173/1/57 174/245/57 175/246/57 176/247/57 169/248/57 168/249/57 177/250/57 

vt -3.12639e-13 1
vn 1 -6.73886e-10 4.16852e-13
v -21 27 -2.55795e-13
vt -3.12639e-13 -1.06581e-13
v -21 27 -1.5
vt 1.5 -1.27898e-13
vt 1.5 1
f 172/251/58 178/252/58 179/253/58 173/254/58 

vt 0.75 2.13163e-14
vt 0.75 1
vt -0.25 1
v -20 27 -2.55795e-13
vt -0.25 4.26326e-14
f 178/255/4 172/256/4 177/257/4 180/258/4 

vt 0 4.26326e-14
vt 0 1
vt -0.1 1
vt -0.1 4.26326e-14
f 180/259/1 177/260/1 168/261/1 171/262/1 

vn -6.73686e-10 -1 1.84056e-15
vt 3.9234e-29 0.75
vt 7.84679e-29 -0.25
vt 0.1 -0.25
vt 0.1 0.85
v -21.1 27 -1.5
vt -1.5 0.85
f 179/8/59 178/263/59 180/264/59 171/265/59 170/266/59 181/267/59 

vt 0.1 1
vn -1 6.74e-10 -3.41061e-13
vt -1.6 1
v -21.1 27 -1.6
vt -1.6 -2.13163e-13
vt -1.5 -2.13163e-13
vt 0.1 -2.13163e-13
f 169/268/60 176/269/60 182/270/60 181/271/60 170/272/60 

v -20 27 -1.6
vt -0.25 -1.56319e-13
vt 0.85 2.84217e-14
vt 0.85 1
f 183/273/4 182/274/4 176/275/4 175/257/4 

v -20 27 -1.5
vt -1.5 -0.25
vt -1.6 0.85
vt -1.6 -0.25
f 184/276/5 179/8/5 181/267/5 182/277/5 183/278/5 

vt -0.75 1
vt 0.25 -1.56319e-13
f 173/279/6 179/16/6 184/280/6 174/240/6 

vn 1 -6.74284e-10 -0
vt 1.5 -1.42109e-14
vt 1.6 -1.42109e-14
vt 1.6 1
f 174/254/61 184/281/61 183/282/61 175/283/61 

g Mesh25 Component_47_2 Group1 Model

v -20 28 -15.4
v -21.1 28 -15.4
v -21.1 27 -15.4
v -20 27 -15.4
f 185/240/6 186/241/6 187/242/6 188/243/6 

v -21 28 -15.5
v -21 28 -17
v -20 28 -17
v -20 28 -17.1
v -21.1 28 -17.1
v -20 28 -15.5
f 189/244/57 190/1/57 191/245/57 192/246/57 193/247/57 186/248/57 185/249/57 194/250/57 

v -21 27 -15.5
v -21 27 -17
f 189/251/58 195/252/58 196/253/58 190/254/58 

v -20 27 -15.5
f 195/255/4 189/256/4 194/257/4 197/258/4 

f 197/259/1 194/260/1 185/261/1 188/262/1 

v -21.1 27 -17
f 196/8/59 195/263/59 197/264/59 188/265/59 187/266/59 198/267/59 

v -21.1 27 -17.1
f 186/268/60 193/269/60 199/270/60 198/271/60 187/272/60 

v -20 27 -17.1
f 200/273/4 199/274/4 193/275/4 192/257/4 

v -20 27 -17
f 201/276/5 196/8/5 198/267/5 199/277/5 200/278/5 

f 190/279/6 196/16/6 201/280/6 191/240/6 

f 191/254/61 201/281/61 200/282/61 192/283/61 

