# Alias OBJ Model File
# Exported from SketchUp, (c) 2000-2012 Trimble Navigation Limited
# File units = inches

mtllib 47 Taylor bench 72 x 23 bar height.mtl

g Mesh1 Group3 Group2 Group1 Model

usemtl FrontColor
v -22.4534 44.9999 -72.0054
vt -4 15
vn -7.80405e-12 5.25771e-21 -1
v -20.4534 44.9999 -72.0054
vt -2 15
v -18.4534 29.9999 -72.0054
vt 0 0
v -22.4534 29.9999 -72.0054
vt -4 0
f 1/1/1 2/2/1 3/3/1 4/4/1 

vt 0 4
vn 6.73715e-10 1 -0
v -22.4534 44.9999 -0.00543571
vt 72 4
v -20.4534 44.9999 -0.00543571
vt 72 2
vt 0 2
f 1/5/2 5/6/2 6/7/2 2/8/2 

vt -72 15
vn -1 6.73715e-10 7.80405e-12
vt 0 15
v -22.4534 29.9999 -0.00543571
vt -72 9.64206e-12
f 5/9/3 1/10/3 4/3/3 7/11/3 

vn -6.73715e-10 -1 0
v -18.4534 29.9999 -0.00543571
vt -72 0
vt -72 4
f 3/3/4 8/12/4 7/13/4 4/5/4 

vt 72 15.1327
vn 0.991228 0.132164 -7.73559e-12
vt 72 9.55748e-12
vt 0 15.1327
f 6/14/5 8/15/5 3/3/5 2/16/5 

vt 0 -3.45466e-12
vn 7.80405e-12 1.81899e-13 1
vt 2 15
vt 4 15
vt 4 -3.45466e-12
f 8/17/6 6/18/6 5/19/6 7/20/6 

g Mesh2 Component_47_1 Group2 Group1 Model

v -22.4534 39.9999 -1.60544
vt 0.25 4.26326e-14
v -23.5534 39.9999 -1.60544
vt -0.85 2.84217e-14
v -23.5534 40.9999 -1.60544
vt -0.85 1
v -22.4534 40.9999 -1.60544
vt 0.25 1
f 9/21/1 10/22/1 11/23/1 12/24/1 

v -23.5534 39.9999 -0.00543571
vt -1.5 0.85
vn -6.73686e-10 -1 -1.84056e-15
vt 0.1 0.85
vt 0.1 -0.25
v -22.4534 39.9999 -1.50544
vt 7.84679e-29 -0.25
v -23.4534 39.9999 -1.50544
vt 3.9234e-29 0.75
v -23.4534 39.9999 -0.00543571
vt -1.5 0.75
f 13/25/7 10/26/7 9/27/7 14/28/7 15/29/7 16/30/7 

vt 0.1 -2.13163e-13
vn -1 6.74e-10 8.14511e-12
vt -1.5 -2.13163e-13
v -23.5534 39.9999 0.0945643
vt -1.6 -2.13163e-13
v -23.5534 40.9999 0.0945643
vt -1.6 1
vt 0.1 1
f 10/31/8 13/32/8 17/33/8 18/34/8 11/35/8 

v -22.4534 39.9999 0.0945643
vt -1.6 -0.25
vt -1.6 0.85
v -22.4534 39.9999 -0.00543571
vt -1.5 -0.25
f 19/36/4 17/37/4 13/25/4 16/30/4 20/38/4 

v -22.4534 40.9999 0.0945643
vt -0.25 1
vn 7.80405e-12 -5.25771e-21 1
vt 0.85 1
vt 0.85 2.84217e-14
vt -0.25 -1.56319e-13
f 21/39/9 18/40/9 17/41/9 19/42/9 

v -22.4534 40.9999 -1.50544
vt -6.58921e-15 -0.25
vn 6.73733e-10 1 6.58921e-15
vt -0.1 -0.25
vt -0.1 0.85
vt 1.6 0.85
vt 1.6 -0.25
v -22.4534 40.9999 -0.00543571
vt 1.5 -0.25
v -23.4534 40.9999 -0.00543571
vt 1.5 0.75
v -23.4534 40.9999 -1.50544
vt -6.58921e-15 0.75
f 22/43/10 12/44/10 11/45/10 18/46/10 21/47/10 23/48/10 24/49/10 25/50/10 

vt -0.1 4.26326e-14
vn 1 -6.73715e-10 -7.80405e-12
vt -0.1 1
vt 0 1
vt 0 4.26326e-14
f 9/51/11 12/52/11 22/53/11 14/54/11 

vt -0.25 4.26326e-14
vt 0.75 1
vt 0.75 2.13163e-14
f 14/55/9 22/39/9 25/56/9 15/57/9 

vt 1.5 1
vn 1 -6.73886e-10 -8.2209e-12
vt 1.5 -1.27898e-13
vt -3.12639e-13 -1.06581e-13
vt -3.12639e-13 1
f 24/58/12 16/59/12 15/60/12 25/61/12 

vt 0.25 -1.56319e-13
vt -0.75 0
vt -0.75 1
f 23/24/1 20/62/1 16/63/1 24/64/1 

vt 1.6 1
vn 1 -6.74284e-10 -7.80405e-12
vt 1.6 -1.42109e-14
vt 1.5 -1.42109e-14
f 21/65/13 19/66/13 20/67/13 23/58/13 

g Mesh3 Component_47_2 Group2 Group1 Model

v -22.4534 39.9999 -72.1054
v -23.5534 39.9999 -72.1054
v -23.5534 40.9999 -72.1054
v -22.4534 40.9999 -72.1054
f 26/21/1 27/22/1 28/23/1 29/24/1 

v -23.5534 39.9999 -70.5054
v -22.4534 39.9999 -72.0054
v -23.4534 39.9999 -72.0054
v -23.4534 39.9999 -70.5054
f 30/25/7 27/26/7 26/27/7 31/28/7 32/29/7 33/30/7 

v -23.5534 39.9999 -70.4054
v -23.5534 40.9999 -70.4054
f 27/31/8 30/32/8 34/33/8 35/34/8 28/35/8 

v -22.4534 39.9999 -70.4054
v -22.4534 39.9999 -70.5054
f 36/36/4 34/37/4 30/25/4 33/30/4 37/38/4 

v -22.4534 40.9999 -70.4054
f 38/39/9 35/40/9 34/41/9 36/42/9 

v -22.4534 40.9999 -72.0054
v -22.4534 40.9999 -70.5054
v -23.4534 40.9999 -70.5054
v -23.4534 40.9999 -72.0054
f 39/43/10 29/44/10 28/45/10 35/46/10 38/47/10 40/48/10 41/49/10 42/50/10 

f 26/51/11 29/52/11 39/53/11 31/54/11 

f 31/55/9 39/39/9 42/56/9 32/57/9 

f 41/58/12 33/59/12 32/60/12 42/61/12 

f 40/24/1 37/62/1 33/63/1 41/64/1 

f 38/65/13 36/66/13 37/67/13 40/58/13 

g Mesh4 Group5 Group4 Group1 Model

v -22.4534 25.9999 -0.00543571
vt -72 22
vn -6.73716e-10 -1 -5.60955e-16
v -22.4534 25.9999 -72.0054
vt 1.19575e-29 22
v -0.453441 25.9999 -72.0054
vt 1.19575e-29 1.03269e-29
v -0.453441 25.9999 -0.00543571
vt -72 6.65814e-30
f 43/68/14 44/69/14 45/70/14 46/71/14 

v -22.4534 29.9999 -0.00543571
vn -1 6.73716e-10 7.80405e-12
v -22.4534 29.9999 -72.0054
vt 0 1.06581e-14
vt -72 -1.59872e-14
f 47/13/15 48/5/15 44/72/15 43/73/15 

vt -2.24382e-15 22
vn 6.73716e-10 1 5.60955e-16
vt 72 22
v -0.453441 29.9999 -0.00543571
vt 72 1.93784e-15
v -0.453441 29.9999 -72.0054
vt -2.24382e-15 1.93784e-15
f 48/74/16 47/75/16 49/76/16 50/77/16 

vt -3.91335e-29 4
vn 7.80405e-12 -5.6096e-16 1
vt 22 4
vt 22 3.50597e-14
vt -3.91335e-29 1.37434e-14
f 49/78/17 47/79/17 43/80/17 46/81/17 

vn 1 -6.73716e-10 -7.80405e-12
vt 72 -2.66454e-14
vt 0 2.13163e-14
f 50/5/18 49/6/18 46/82/18 45/83/18 

vt -22 4
vn -7.80405e-12 5.6096e-16 -1
vt -22 2.13163e-14
f 48/84/19 50/5/19 45/83/19 44/85/19 

g Mesh5 Component_47_3 Group4 Group1 Model

v -22.4534 27.4999 -72.1054
v -23.5534 27.4999 -72.1054
v -23.5534 28.4999 -72.1054
v -22.4534 28.4999 -72.1054
f 51/21/1 52/22/1 53/23/1 54/24/1 

v -23.5534 27.4999 -70.5054
v -22.4534 27.4999 -72.0054
v -23.4534 27.4999 -72.0054
v -23.4534 27.4999 -70.5054
f 55/25/7 52/26/7 51/27/7 56/28/7 57/29/7 58/30/7 

v -23.5534 27.4999 -70.4054
v -23.5534 28.4999 -70.4054
f 52/31/8 55/32/8 59/33/8 60/34/8 53/35/8 

v -22.4534 27.4999 -70.4054
v -22.4534 27.4999 -70.5054
f 61/36/4 59/37/4 55/25/4 58/30/4 62/38/4 

v -22.4534 28.4999 -70.4054
f 63/39/9 60/40/9 59/41/9 61/42/9 

v -22.4534 28.4999 -72.0054
v -22.4534 28.4999 -70.5054
v -23.4534 28.4999 -70.5054
v -23.4534 28.4999 -72.0054
f 64/43/10 54/44/10 53/45/10 60/46/10 63/47/10 65/48/10 66/49/10 67/50/10 

f 51/51/11 54/52/11 64/53/11 56/54/11 

f 56/55/9 64/39/9 67/56/9 57/57/9 

f 66/58/12 58/59/12 57/60/12 67/61/12 

f 65/24/1 62/62/1 58/63/1 66/64/1 

f 63/65/13 61/66/13 62/67/13 65/58/13 

g Mesh6 Component_47_4 Group4 Group1 Model

v -22.4534 27.4999 -1.60544
v -23.5534 27.4999 -1.60544
v -23.5534 28.4999 -1.60544
v -22.4534 28.4999 -1.60544
f 68/21/1 69/22/1 70/23/1 71/24/1 

v -23.5534 27.4999 -0.00543571
v -22.4534 27.4999 -1.50544
v -23.4534 27.4999 -1.50544
v -23.4534 27.4999 -0.00543571
f 72/25/7 69/26/7 68/27/7 73/28/7 74/29/7 75/30/7 

v -23.5534 27.4999 0.0945643
v -23.5534 28.4999 0.0945643
f 69/31/8 72/32/8 76/33/8 77/34/8 70/35/8 

v -22.4534 27.4999 0.0945643
v -22.4534 27.4999 -0.00543571
f 78/36/4 76/37/4 72/25/4 75/30/4 79/38/4 

v -22.4534 28.4999 0.0945643
f 80/39/9 77/40/9 76/41/9 78/42/9 

v -22.4534 28.4999 -1.50544
v -22.4534 28.4999 -0.00543571
v -23.4534 28.4999 -0.00543571
v -23.4534 28.4999 -1.50544
f 81/43/10 71/44/10 70/45/10 77/46/10 80/47/10 82/48/10 83/49/10 84/50/10 

f 68/51/11 71/52/11 81/53/11 73/54/11 

f 73/55/9 81/39/9 84/56/9 74/57/9 

f 83/58/12 75/59/12 74/60/12 84/61/12 

f 82/24/1 79/62/1 75/63/1 83/64/1 

f 80/65/13 78/66/13 79/67/13 82/58/13 

g Mesh7 Group8 Group7 Group6 Group1 Model

usemtl _Color_M06_4
v -21.9534 1.44175e-08 -70.5054
vt 1.5 0
v -0.453441 -6.73735e-11 -70.5054
vt 23 0
v -1.20344 0.75 -70.5054
vt 22.25 0.75
v -21.9534 0.75 -70.5054
f 85/86/9 86/87/9 87/88/9 88/49/9 

vt -1.5 23
vn -6.73715e-10 -1 -0
vt -1.5 1.5
v -23.4534 1.54281e-08 -72.0054
v -0.453441 -6.73735e-11 -72.0054
vt 0 23
f 86/89/20 85/90/20 89/3/20 90/91/20 

vt 2.12132 0.75
vn -0.707107 4.76389e-10 0.707107
v -23.4534 0.75 -72.0054
vt 0 0.75
vt 2.12132 0
f 88/92/21 91/93/21 89/3/21 85/94/21 

vt 1.5 1.5
vt 1.5 22.25
v -1.20344 0.75 -72.0054
vt 0 22.25
f 88/95/2 87/96/2 92/97/2 91/3/2 

vt 0 -16.2635
vn 0.707107 0.707107 -5.5183e-12
vt 0 -15.2028
vt -1.5 -15.2028
vt -1.5 -16.2635
f 90/98/22 92/99/22 87/100/22 86/101/22 

vt -22.25 0.75
vt -23 0
f 91/93/1 92/102/1 90/103/1 89/3/1 

g Mesh8 Group9 Group7 Group6 Group1 Model

vn -6.73715e-10 -1 -3.82149e-19
v -21.9534 1.44175e-08 -1.50544
vt -70.5 1.5
v -23.4534 1.54281e-08 -0.00543571
vt -72 -5.40666e-34
f 89/3/23 85/90/23 93/104/23 94/105/23 

vt -2.12132 0
vn 0.707107 -4.76389e-10 -0.707107
vt -2.12132 0.75
f 85/106/24 89/3/24 91/93/24 88/107/24 

vt 72 9.563e-19
v -23.4534 0.75 -0.00543571
vt 72 0.75
f 94/108/3 95/109/3 91/93/3 89/3/3 

v -21.9534 0.75 -1.50544
vt -48.7904 0.75
vn 0.707107 -4.76389e-10 0.707107
vt -50.9117 0.75
vt -50.9117 9.563e-19
vt -48.7904 -5.45549e-17
f 96/110/25 95/111/25 94/112/25 93/113/25 

vt 70.5 1.5
vt 72 0
f 96/114/2 88/95/2 91/3/2 95/115/2 

vt -70.5 -5.45549e-17
vt -1.5 0
vt -70.5 0.75
f 93/116/11 85/117/11 88/30/11 96/118/11 

g Mesh9 Group10 Group7 Group6 Group1 Model

v -21.9534 0.75 -1.50544
v -1.20344 0.75 -1.50544
v -0.453441 -6.73735e-11 -1.50544
v -21.9534 1.44175e-08 -1.50544
f 97/30/1 98/102/1 99/103/1 100/117/1 

v -23.4534 0.75 -0.00543571
v -1.20344 0.75 -0.00543571
vt 0 1.5
f 101/86/2 102/96/2 98/97/2 97/119/2 

v -23.4534 1.54281e-08 -0.00543571
v -0.453441 -6.73735e-11 -0.00543571
f 103/3/9 104/87/9 102/88/9 101/93/9 

f 104/89/20 103/117/20 100/119/20 99/91/20 

vt 1.06066 0.75
vn -0.707107 4.76389e-10 -0.707107
vt -1.06066 0.75
vt -1.06066 0
vt 1.06066 0
f 101/120/26 97/121/26 100/122/26 103/123/26 

f 99/98/22 98/99/22 102/100/22 104/101/22 

g Mesh10 Group12 Group11 Group6 Group1 Model

v -6.45344 25.9999 -1.50544
vt -39 0
v -6.45344 25.9999 -70.5054
v -5.95344 25.9999 -70.5054
vt 0 0.5
v -5.45344 25.9999 -70.5054
v -5.45344 25.9999 -1.50544
vt -39 1
f 105/124/20 106/3/20 107/125/20 108/53/20 109/126/20 

vt 39 0
v -6.45344 26.1249 -1.50544
vt 39 0.125
v -6.45344 26.1249 -70.5054
vt 0 0.125
f 106/3/3 105/127/3 110/128/3 111/129/3 

vt 1 0
v -5.45344 26.1249 -1.50544
vt 1 0.125
f 105/3/9 109/130/9 112/131/9 110/129/9 

v -5.45344 26.1249 -70.5054
vt -39 0.125
f 109/124/11 108/3/11 113/129/11 112/132/11 

vt -1 0
vt -0.5 0
v -5.95344 26.1249 -70.5054
vt -0.5 0.125
vt -1 0.125
f 108/133/1 107/134/1 114/135/1 113/136/1 

f 107/134/1 106/3/1 111/129/1 114/135/1 

vt 39 1
f 111/3/2 110/127/2 112/137/2 113/53/2 114/125/2 

g Mesh11 Group13 Group11 Group6 Group1 Model

v -11.4534 25.9999 -1.50544
v -11.4534 25.9999 -70.5054
v -10.9534 25.9999 -70.5054
v -10.4534 25.9999 -70.5054
v -10.4534 25.9999 -1.50544
f 115/124/20 116/3/20 117/125/20 118/53/20 119/126/20 

v -11.4534 26.1249 -1.50544
v -11.4534 26.1249 -70.5054
f 116/3/3 115/127/3 120/128/3 121/129/3 

v -10.4534 26.1249 -1.50544
f 115/3/9 119/130/9 122/131/9 120/129/9 

v -10.4534 26.1249 -70.5054
f 119/124/11 118/3/11 123/129/11 122/132/11 

v -10.9534 26.1249 -70.5054
f 118/133/1 117/134/1 124/135/1 123/136/1 

f 117/134/1 116/3/1 121/129/1 124/135/1 

f 121/3/2 120/127/2 122/137/2 123/53/2 124/125/2 

g Mesh12 Group14 Group11 Group6 Group1 Model

v -16.4534 25.9999 -1.50544
v -16.4534 25.9999 -70.5054
v -15.9534 25.9999 -70.5054
v -15.4534 25.9999 -70.5054
v -15.4534 25.9999 -1.50544
f 125/124/20 126/3/20 127/125/20 128/53/20 129/126/20 

v -16.4534 26.1249 -1.50544
v -16.4534 26.1249 -70.5054
f 126/3/3 125/127/3 130/128/3 131/129/3 

v -15.4534 26.1249 -1.50544
f 125/3/9 129/130/9 132/131/9 130/129/9 

v -15.4534 26.1249 -70.5054
f 129/124/11 128/3/11 133/129/11 132/132/11 

v -15.9534 26.1249 -70.5054
f 128/133/1 127/134/1 134/135/1 133/136/1 

f 127/134/1 126/3/1 131/129/1 134/135/1 

f 131/3/2 130/127/2 132/137/2 133/53/2 134/125/2 

g Mesh13 Group15 Group11 Group6 Group1 Model

v -20.9534 25.9999 -1.50544
v -20.9534 25.9999 -70.5054
v -20.4534 25.9999 -70.5054
v -19.9534 25.9999 -70.5054
v -19.9534 25.9999 -1.50544
f 135/124/20 136/3/20 137/125/20 138/53/20 139/126/20 

v -20.9534 26.1249 -1.50544
v -20.9534 26.1249 -70.5054
f 136/3/3 135/127/3 140/128/3 141/129/3 

v -19.9534 26.1249 -1.50544
f 135/3/9 139/130/9 142/131/9 140/129/9 

v -19.9534 26.1249 -70.5054
f 139/124/11 138/3/11 143/129/11 142/132/11 

v -20.4534 26.1249 -70.5054
f 138/133/1 137/134/1 144/135/1 143/136/1 

f 137/134/1 136/3/1 141/129/1 144/135/1 

f 141/3/2 140/127/2 142/137/2 143/53/2 144/125/2 

g Mesh14 Group17 Group16 Group6 Group1 Model

v -1.20344 0.75 -1.50544
v -1.20344 0.75 -0.00543571
v -1.20344 25.2499 -0.00543571
vt 1.5 24.4999
v -1.20344 25.2499 -1.50544
vt 0 24.4999
f 145/3/3 146/86/3 147/138/3 148/139/3 

vn -0.707107 -0.707107 5.5183e-12
v -0.453441 -6.73736e-11 -1.50544
vt 0 -1.06066
v -0.453441 -6.73736e-11 -0.00543571
vt 1.5 -1.06066
f 145/3/27 149/140/27 150/141/27 146/86/27 

v -0.453441 25.2499 -1.50544
vt -0.75 24.4999
vt -0.75 -0.75
f 151/142/1 149/143/1 145/3/1 148/139/1 

v -0.453441 25.2499 -0.00543571
vt -1.5 24.4999
vt -1.5 -0.75
vt 0 -0.75
f 152/144/11 150/145/11 149/146/11 151/139/11 

vt 0.75 -0.75
vt 0.75 24.4999
f 147/139/9 146/3/9 150/147/9 152/148/9 

f 151/93/2 148/3/2 147/86/2 152/49/2 

g Mesh15 Group18 Group16 Group6 Group1 Model

v -1.20344 0.75 -72.0054
v -1.20344 0.75 -70.5054
v -1.20344 25.2499 -70.5054
v -1.20344 25.2499 -72.0054
f 153/3/3 154/86/3 155/138/3 156/139/3 

v -0.453441 -6.73736e-11 -72.0054
v -0.453441 -6.73736e-11 -70.5054
f 153/3/27 157/140/27 158/141/27 154/86/27 

v -0.453441 25.2499 -72.0054
f 159/142/1 157/143/1 153/3/1 156/139/1 

v -0.453441 25.2499 -70.5054
f 160/144/11 158/145/11 157/146/11 159/139/11 

f 155/139/9 154/3/9 158/147/9 160/148/9 

f 159/93/2 156/3/2 155/86/2 160/49/2 

g Mesh16 Group20 Group19 Group6 Group1 Model

v -22.7034 33.4999 -70.5054
v -22.7034 34.9999 -70.5054
v -22.7034 34.9999 -1.50544
vt -69 1.5
v -22.7034 33.4999 -1.50544
vt -69 0
f 161/3/11 162/119/11 163/149/11 164/150/11 

v -23.4534 33.4999 -70.5054
v -23.4534 34.9999 -70.5054
vt -0.75 1.5
f 165/3/1 166/119/1 162/151/1 161/63/1 

v -23.4534 33.4999 -1.50544
vt 69 0
v -23.4534 34.9999 -1.50544
vt 69 1.5
f 166/119/3 165/3/3 167/152/3 168/153/3 

vt -69 0.75
f 165/3/20 161/93/20 164/154/20 167/150/20 

vt 0.75 0
vt 0.75 1.5
f 168/119/9 167/3/9 164/155/9 163/156/9 

vn 6.73668e-10 1 3.69674e-25
vt 0 7.10543e-14
vt 69 7.10543e-14
vt 69 0.75
f 162/93/28 166/157/28 168/158/28 163/159/28 

g Mesh17 Group21 Group19 Group6 Group1 Model

v -23.4534 25.9999 -0.00543571
vt -1.5 1.93268e-12
vn -6.73662e-10 -1 -5.92119e-16
v -23.4534 25.9999 -1.50544
vt 1.05181e-30 1.25056e-12
v -22.7034 25.9999 -1.50544
vt 2.41917e-29 0.75
v -22.7034 25.9999 -0.00543571
f 169/160/29 170/161/29 171/162/29 172/30/29 

vt 1.5 -1.41343e-25
vn -1 6.73635e-10 7.92003e-12
v -23.4534 43.9999 -0.00543571
vt 1.5 18
v -23.4534 42.4999 -1.50544
vt 5.27393e-26 16.5
vt 1.45033e-25 1.77636e-15
f 169/163/30 173/164/30 174/165/30 170/166/30 

vt 0.75 4.08562e-14
v -22.7034 43.9999 -0.00543571
vt 0.75 18
vt 0 18
vt 1.93268e-12 0
f 172/167/9 175/168/9 173/169/9 169/170/9 

vt -8.69812e-14 -1.94193e-14
vn 1 -6.73635e-10 -7.92003e-12
v -22.7034 42.4999 -1.50544
vt -8.69812e-14 16.5
vt -1.5 18
vt -1.5 -1.94193e-14
f 171/171/31 176/172/31 175/173/31 172/174/31 

vt -0.75 16.5
vt -0.75 4.08562e-14
vt -1.25056e-12 1.77636e-15
vt -4.54747e-13 16.5
f 176/175/1 171/176/1 170/177/1 174/178/1 

vt -4.54747e-13 11.6673
vn 4.70832e-10 0.707107 -0.707107
vt 8.17124e-14 13.7886
vt -0.75 13.7886
vt -0.75 11.6673
f 174/179/32 173/180/32 175/181/32 176/182/32 

g Mesh18 Group22 Group19 Group6 Group1 Model

v -22.7034 43.9999 -72.0054
vt -0.75 1.06066
vn -4.81895e-10 -0.707107 -0.707107
v -22.7034 42.4999 -70.5054
vt -0.75 -1.06066
v -23.4534 42.4999 -70.5054
vt -2.58882e-14 -1.06066
v -23.4534 43.9999 -72.0054
vt -4.54747e-13 1.06066
f 177/183/33 178/184/33 179/185/33 180/186/33 

v -22.7034 42.4999 -1.50544
vt -70.5 7.42664e-14
vn 1 -6.73672e-10 -7.8113e-12
vt -1.5 -3.89328e-15
vt -5.43453e-15 1.5
v -22.7034 43.9999 -0.00543571
vt -72 1.5
f 181/187/34 178/188/34 177/189/34 182/190/34 

vn -6.73621e-10 -1 5.14886e-16
v -23.4534 42.4999 -1.50544
vt -70.5 9.09495e-13
vt -1.5 -7.31697e-29
f 181/118/35 183/191/35 179/192/35 178/30/35 

v -23.4534 43.9999 -0.00543571
vt -1.02887e-11 51.9723
vn -4.70765e-10 -0.707107 0.707107
vt -9.61009e-12 49.851
vt 0.75 49.851
vt 0.75 51.9723
f 184/193/36 183/194/36 181/195/36 182/196/36 

vt 72 1.5
vn -1 6.73715e-10 7.81036e-12
vt 2.86956e-27 1.5
vt 1.5 -6.64763e-41
vt 70.5 -7.10543e-15
f 184/197/37 180/198/37 179/199/37 183/200/37 

vn 6.73623e-10 1 5.67447e-16
vt -8.51171e-16 0.75
vt -8.51171e-16 5.93303e-13
vt 72 5.93303e-13
f 182/109/38 177/201/38 180/202/38 184/203/38 

g Mesh19 Group23 Group19 Group6 Group1 Model

v -22.7034 28.9999 -70.5054
v -22.7034 30.4999 -70.5054
v -22.7034 30.4999 -1.50544
v -22.7034 28.9999 -1.50544
f 185/3/11 186/119/11 187/149/11 188/150/11 

v -23.4534 28.9999 -70.5054
v -23.4534 30.4999 -70.5054
f 189/3/1 190/119/1 186/151/1 185/63/1 

v -23.4534 28.9999 -1.50544
v -23.4534 30.4999 -1.50544
f 190/119/3 189/3/3 191/152/3 192/153/3 

f 189/3/20 185/93/20 188/154/20 191/150/20 

f 192/119/9 191/3/9 188/155/9 187/156/9 

f 186/93/28 190/157/28 192/158/28 187/159/28 

g Mesh20 Group24 Group19 Group6 Group1 Model

v -22.7034 43.9999 -72.0054
vt -0.75 18
v -22.7034 25.9999 -72.0054
v -23.4534 25.9999 -72.0054
vt -3.41061e-13 0
v -23.4534 43.9999 -72.0054
vt -3.41061e-13 18
f 193/204/1 194/176/1 195/205/1 196/206/1 

vt -2.01633e-14 2.43394e-14
vn 1 -6.73693e-10 -7.83094e-12
vt -2.01633e-14 18
vt -1.5 16.5
v -22.7034 25.9999 -70.5054
vt -1.5 2.43394e-14
f 194/207/39 193/208/39 178/209/39 197/210/39 

vt 3.41061e-13 12.7279
vn 4.81869e-10 0.707107 0.707107
vt 8.17124e-14 10.6066
vt 0.75 10.6066
vt 0.75 12.7279
f 196/211/40 179/212/40 178/213/40 193/214/40 

v -23.4534 25.9999 -70.5054
vt 1.5 1.77636e-15
vn -1 6.73693e-10 7.83094e-12
vt 1.5 16.5
vt 9.16922e-27 18
vt 9.16922e-27 -7.51096e-27
f 198/215/41 179/216/41 196/217/41 195/218/41 

vt 0.75 16.5
vt 0 16.5
vt 7.95808e-13 1.77636e-15
f 197/167/9 178/219/9 179/220/9 198/221/9 

vt -2.41917e-29 0.75
vn -6.73662e-10 -1 5.92119e-16
vt -1.5 7.95808e-13
vt 0 3.41061e-13
f 194/222/42 197/30/42 198/223/42 195/224/42 

g Mesh21 Group25 Group19 Group6 Group1 Model

v -22.7034 37.9999 -70.5054
v -22.7034 39.4999 -70.5054
v -22.7034 39.4999 -1.50544
v -22.7034 37.9999 -1.50544
f 199/3/11 200/119/11 201/149/11 202/150/11 

v -23.4534 37.9999 -70.5054
v -23.4534 39.4999 -70.5054
f 203/3/1 204/119/1 200/151/1 199/63/1 

v -23.4534 37.9999 -1.50544
v -23.4534 39.4999 -1.50544
f 204/119/3 203/3/3 205/152/3 206/153/3 

f 203/3/20 199/93/20 202/154/20 205/150/20 

f 206/119/9 205/3/9 202/155/9 201/156/9 

f 200/93/28 204/157/28 206/158/28 201/159/28 

g Mesh22 Group26 Group6 Group1 Model

v -1.95344 25.9999 -60.4804
v -1.95344 25.9999 -58.9804
v -1.95344 25.2499 -58.9804
v -1.95344 25.2499 -60.4804
f 207/93/11 208/30/11 209/117/11 210/3/11 

v -21.9534 25.9999 -60.4804
v -21.9534 25.9999 -58.9804
vt 1.5 20
vt 0 20
f 211/3/2 212/86/2 208/225/2 207/226/2 

v -21.9534 25.2499 -60.4804
v -21.9534 25.2499 -58.9804
f 212/49/3 211/93/3 213/3/3 214/86/3 

vt -20 0.75
vt -20 0
f 213/3/1 211/93/1 207/227/1 210/228/1 

vt -1.5 20
f 214/117/20 213/3/20 210/226/20 209/229/20 

vt 20 0
vt 20 0.75
f 212/93/9 214/3/9 209/230/9 208/231/9 

g Mesh23 Group28 Group27 Group6 Group1 Model

v -0.453441 25.2499 -72.0054
v -1.95344 25.2499 -70.5054
v -1.95344 25.9999 -70.5054
v -0.453441 25.9999 -72.0054
f 215/122/26 216/123/26 217/120/26 218/121/26 

v -1.95344 25.2499 -1.50544
vt -70.5 -4.37314e-31
vn -6.73716e-10 -1 3.19571e-17
vt -1.5 1.61285e-32
v -0.453441 25.2499 -0.00543571
f 219/232/43 216/233/43 215/119/43 220/190/43 

vt 70.5 3.55271e-15
v -1.95344 25.9999 -1.50544
vt 70.5 0.75
f 219/234/3 221/235/3 217/49/3 216/86/3 

v -0.453441 25.9999 -0.00543571
vt 51.9723 0.75
vt 49.851 0.75
vt 49.851 3.55271e-15
vt 51.9723 1.77636e-15
f 222/236/21 221/237/21 219/238/21 220/239/21 

vn 6.73716e-10 1 1.28605e-17
vt -9.64538e-18 1.5
vt 1.5 -4.44089e-16
vt 70.5 -4.44089e-16
f 222/197/44 218/240/44 217/241/44 221/242/44 

vt -72 1.77636e-15
vt -72 0.75
f 220/243/11 215/3/11 218/93/11 222/244/11 

g Mesh24 Group29 Group27 Group6 Group1 Model

v -1.95344 25.9999 -1.50544
vt -21.5 0.75
v -1.95344 25.2499 -1.50544
vt -21.5 0
v -21.9534 25.2499 -1.50544
v -21.9534 25.9999 -1.50544
f 223/245/1 224/246/1 225/117/1 226/30/1 

vt -15.2028 0.75
v -0.453441 25.9999 -0.00543571
vt -17.3241 0.75
v -0.453441 25.2499 -0.00543571
vt -17.3241 0
vt -15.2028 0
f 223/247/24 227/248/24 228/249/24 224/250/24 

v -23.4534 25.9999 -0.00543571
vt 1.5 23
vt 0 21.5
f 229/86/2 227/251/2 223/252/2 226/119/2 

v -23.4534 25.2499 -0.00543571
vt 23 0.75
f 230/3/9 228/87/9 227/253/9 229/93/9 

f 228/89/20 230/117/20 225/119/20 224/252/20 

f 229/120/26 226/121/26 225/122/26 230/123/26 

g Mesh25 Group30 Group27 Group6 Group1 Model

v -21.9534 25.9999 -1.50544
v -21.9534 25.9999 -70.5054
v -23.4534 25.9999 -72.0054
v -23.4534 25.9999 -0.00543571
f 231/114/2 232/95/2 233/3/2 234/115/2 

v -21.9534 25.2499 -1.50544
vt -70.5 0
v -21.9534 25.2499 -70.5054
f 231/118/11 235/254/11 236/117/11 232/30/11 

v -23.4534 25.2499 -0.00543571
vt -50.9117 0
vt -48.7904 0
f 237/255/25 235/256/25 231/110/25 234/111/25 

v -23.4534 25.2499 -72.0054
f 237/12/20 238/3/20 236/90/20 235/104/20 

f 234/109/3 233/93/3 238/3/3 237/115/3 

f 236/106/24 238/3/24 233/93/24 232/107/24 

g Mesh26 Group31 Group27 Group6 Group1 Model

v -1.95344 25.2499 -70.5054
vt 21.5 0
v -1.95344 25.9999 -70.5054
vt 21.5 0.75
f 236/86/9 239/257/9 240/258/9 232/49/9 

v -0.453441 25.2499 -72.0054
vt -1.5 21.5
f 238/3/20 241/91/20 239/259/20 236/90/20 

v -0.453441 25.9999 -72.0054
vt -23 0.75
f 241/103/1 238/3/1 233/93/1 242/260/1 

f 232/92/21 233/93/21 238/3/21 236/94/21 

vt 1.5 21.5
f 232/95/2 240/261/2 242/91/2 233/3/2 

vt 16.2635 0.75
vt 14.1421 0.75
vt 14.1421 0
vt 16.2635 0
f 242/262/25 240/263/25 239/264/25 241/265/25 

g Mesh27 Group32 Group6 Group1 Model

v -21.9534 0.75 -63.0054
v -21.9534 0.75 -62.2554
v -23.4534 0.75 -62.2554
v -23.4534 0.75 -63.0054
f 243/119/20 244/151/20 245/63/20 246/3/20 

v -21.9534 25.2499 -63.0054
v -21.9534 25.2499 -62.2554
f 244/63/11 243/3/11 247/139/11 248/142/11 

v -23.4534 25.2499 -63.0054
f 243/117/1 246/3/1 249/139/1 247/144/1 

v -23.4534 25.2499 -62.2554
f 246/3/3 245/155/3 250/148/3 249/139/3 

f 245/3/9 244/86/9 248/138/9 250/139/9 

f 248/156/2 247/119/2 249/3/2 250/155/2 

g Mesh28 Group33 Group6 Group1 Model

v -21.9534 0.75 -9.75544
v -21.9534 0.75 -9.00544
v -23.4534 0.75 -9.00544
v -23.4534 0.75 -9.75544
f 251/119/20 252/151/20 253/63/20 254/3/20 

v -21.9534 25.2499 -9.75544
v -21.9534 25.2499 -9.00544
f 252/63/11 251/3/11 255/139/11 256/142/11 

v -23.4534 25.2499 -9.75544
f 251/117/1 254/3/1 257/139/1 255/144/1 

v -23.4534 25.2499 -9.00544
f 254/3/3 253/155/3 258/148/3 257/139/3 

f 253/3/9 252/86/9 256/138/9 258/139/9 

f 256/156/2 255/119/2 257/3/2 258/155/2 

g Mesh29 Group34 Group6 Group1 Model

v -1.95344 25.9999 -37.0054
v -1.95344 25.9999 -35.5054
v -1.95344 25.2499 -35.5054
v -1.95344 25.2499 -37.0054
f 259/93/11 260/30/11 261/117/11 262/3/11 

v -21.9534 25.9999 -37.0054
v -21.9534 25.9999 -35.5054
f 263/3/2 264/86/2 260/225/2 259/226/2 

v -21.9534 25.2499 -37.0054
v -21.9534 25.2499 -35.5054
f 264/49/3 263/93/3 265/3/3 266/86/3 

f 265/3/1 263/93/1 259/227/1 262/228/1 

f 266/117/20 265/3/20 262/226/20 261/229/20 

f 264/93/9 266/3/9 261/230/9 260/231/9 

g Mesh30 Group35 Group6 Group1 Model

v -1.95344 25.9999 -48.7554
v -1.95344 25.9999 -47.2554
v -1.95344 25.2499 -47.2554
v -1.95344 25.2499 -48.7554
f 267/93/11 268/30/11 269/117/11 270/3/11 

v -21.9534 25.9999 -48.7554
v -21.9534 25.9999 -47.2554
f 271/3/2 272/86/2 268/225/2 267/226/2 

v -21.9534 25.2499 -48.7554
v -21.9534 25.2499 -47.2554
f 272/49/3 271/93/3 273/3/3 274/86/3 

f 273/3/1 271/93/1 267/227/1 270/228/1 

f 274/117/20 273/3/20 270/226/20 269/229/20 

f 272/93/9 274/3/9 269/230/9 268/231/9 

g Mesh31 Group36 Group6 Group1 Model

v -1.95344 25.9999 -13.5304
v -1.95344 25.9999 -12.0304
v -1.95344 25.2499 -12.0304
v -1.95344 25.2499 -13.5304
f 275/93/11 276/30/11 277/117/11 278/3/11 

v -21.9534 25.9999 -13.5304
v -21.9534 25.9999 -12.0304
f 279/3/2 280/86/2 276/225/2 275/226/2 

v -21.9534 25.2499 -13.5304
v -21.9534 25.2499 -12.0304
f 280/49/3 279/93/3 281/3/3 282/86/3 

f 281/3/1 279/93/1 275/227/1 278/228/1 

f 282/117/20 281/3/20 278/226/20 277/229/20 

f 280/93/9 282/3/9 277/230/9 276/231/9 

g Mesh32 Group37 Group6 Group1 Model

v -1.95344 25.9999 -25.2804
v -1.95344 25.9999 -23.7804
v -1.95344 25.2499 -23.7804
v -1.95344 25.2499 -25.2804
f 283/93/11 284/30/11 285/117/11 286/3/11 

v -21.9534 25.9999 -25.2804
v -21.9534 25.9999 -23.7804
f 287/3/2 288/86/2 284/225/2 283/226/2 

v -21.9534 25.2499 -25.2804
v -21.9534 25.2499 -23.7804
f 288/49/3 287/93/3 289/3/3 290/86/3 

f 289/3/1 287/93/1 283/227/1 286/228/1 

f 290/117/20 289/3/20 286/226/20 285/229/20 

f 288/93/9 290/3/9 285/230/9 284/231/9 

g Mesh33 Group38 Group6 Group1 Model

v -1.20344 12 -1.50544
v -1.20344 10.5 -1.50544
vt 0.75 8.88178e-16
v -0.453441 10.5 -1.50544
v -0.453441 12 -1.50544
f 291/156/9 292/266/9 293/3/9 294/119/9 

vt -69 8.88178e-16
v -1.20344 12 -70.5054
v -1.20344 10.5 -70.5054
vt 0 8.88178e-16
f 292/267/3 291/149/3 295/119/3 296/268/3 

v -0.453441 12 -70.5054
f 291/159/2 294/152/2 297/3/2 295/93/2 

v -0.453441 10.5 -70.5054
f 294/153/11 293/152/11 298/3/11 297/119/11 

vn -6.73717e-10 -1 9.24185e-27
f 293/150/45 292/154/45 296/93/45 298/3/45 

vt -0.75 8.88178e-16
f 296/269/1 295/151/1 297/119/1 298/3/1 

