# Alias OBJ Model File
# Exported from SketchUp, (c) 2000-2012 Trimble Navigation Limited
# File units = inches

mtllib 48 Taylor chair 19 x 23 dining height.mtl

g Mesh1 Group4 Group3 Group2 Group1 Model

usemtl _Color_M06_4
v 17.5 1.44849e-08 -21.5
vt 1.5 0
vn -1 -5.25768e-21 7.8042e-12
v 17.5 9.2009e-20 -1.36584e-10
vt 23 0
v 17.5 0.75 -0.75
vt 22.25 0.75
v 17.5 0.75 -21.5
vt 1.5 0.75
f 1/1/1 2/2/1 3/3/1 4/4/1 

vt -1.5 23
vn -1.29247e-25 -1 -6.73715e-10
vt -1.5 1.5
v 19 1.54955e-08 -23
vt 0 0
v 19 9.98969e-20 -1.4829e-10
vt 0 23
f 2/5/2 1/6/2 5/7/2 6/8/2 

vt 2.12132 0.75
vn -0.707107 4.76389e-10 -0.707107
v 19 0.75 -23
vt 0 0.75
vt 2.12132 0
f 4/9/3 7/10/3 5/7/3 1/11/3 

vt 1.5 1.5
vn 1.29247e-25 1 6.73715e-10
vt 1.5 22.25
v 19 0.75 -0.75
vt 0 22.25
f 4/12/4 3/13/4 8/14/4 7/7/4 

vt 0 -16.2635
vn 5.5184e-12 0.707107 0.707107
vt 0 -15.2028
vt -1.5 -15.2028
vt -1.5 -16.2635
f 6/15/5 8/16/5 3/17/5 2/18/5 

vn 1 5.25768e-21 -7.8042e-12
vt -22.25 0.75
vt -23 0
f 7/10/6 8/19/6 6/20/6 5/7/6 

g Mesh2 Group5 Group3 Group2 Group1 Model

v 1.5 1.44849e-08 -21.5
vt -17.5 1.5
v -1.79504e-10 1.54955e-08 -23
vt -19 0
f 5/7/2 1/6/2 9/21/2 10/22/2 

vt -2.12132 0
vn 0.707107 -4.76389e-10 0.707107
vt -2.12132 0.75
f 1/23/7 5/7/7 7/10/7 4/24/7 

vn -7.8042e-12 6.73715e-10 -1
vt 19 0
v -1.79504e-10 0.75 -23
vt 19 0.75
f 5/7/8 10/25/8 11/26/8 7/10/8 

vt -13.435 0
vn -0.707107 -4.76389e-10 0.707107
vt -11.3137 0
v 1.5 0.75 -21.5
vt -11.3137 0.75
vt -13.435 0.75
f 10/27/9 9/28/9 12/29/9 11/30/9 

vt -17.5 0
vn 7.8042e-12 -6.73715e-10 1
vt -1.5 0
vt -1.5 0.75
vt -17.5 0.75
f 9/31/10 1/32/10 4/33/10 12/34/10 

vt 17.5 1.5
f 4/12/4 7/7/4 11/25/4 12/35/4 

g Mesh3 Group6 Group3 Group2 Group1 Model

v 1.5 0.75 -0.75
v 1.5 7.88799e-21 -1.17168e-11
f 12/33/6 13/19/6 14/20/6 9/32/6 

v -5.86087e-12 0.75 -0.75
vt 0 1.5
f 11/1/4 15/13/4 13/14/4 12/36/4 

v -7.77156e-15 0 -1.06581e-14
f 10/7/1 16/2/1 15/3/1 11/10/1 

f 16/5/2 10/32/2 9/36/2 14/8/2 

vt 1.06066 0.75
vn 0.707107 4.76389e-10 -0.707107
vt -1.06066 0.75
vt -1.06066 0
vt 1.06066 0
f 11/37/11 12/38/11 9/39/11 10/40/11 

f 14/15/5 13/16/5 15/17/5 16/18/5 

g Mesh4 Group8 Group7 Group2 Group1 Model

v 1.5 13.9999 -6
vt -16 0
v 17.5 13.9999 -6
v 17.5 13.9999 -5.5
vt 0 0.5
v 17.5 13.9999 -5
vt 0 1
v 1.5 13.9999 -5
vt -16 1
f 17/41/2 18/7/2 19/42/2 20/43/2 21/44/2 

vt 16 0
v 1.5 14.1249 -6
vt 16 0.125
v 17.5 14.1249 -6
vt 0 0.125
f 18/7/8 17/45/8 22/46/8 23/47/8 

vt 1 0
v 1.5 14.1249 -5
vt 1 0.125
f 17/7/1 21/48/1 24/49/1 22/47/1 

v 17.5 14.1249 -5
vt -16 0.125
f 21/41/10 20/7/10 25/47/10 24/50/10 

vt -1 0
vt -0.5 0
v 17.5 14.1249 -5.5
vt -0.5 0.125
vt -1 0.125
f 20/51/6 19/52/6 26/53/6 25/54/6 

f 19/52/6 18/7/6 23/47/6 26/53/6 

vt 16 1
f 23/7/4 22/45/4 24/55/4 25/43/4 26/42/4 

g Mesh5 Group9 Group7 Group2 Group1 Model

v 1.5 13.9999 -11
v 17.5 13.9999 -11
v 17.5 13.9999 -10.5
v 17.5 13.9999 -10
v 1.5 13.9999 -10
f 27/41/2 28/7/2 29/42/2 30/43/2 31/44/2 

v 1.5 14.1249 -11
v 17.5 14.1249 -11
f 28/7/8 27/45/8 32/46/8 33/47/8 

v 1.5 14.1249 -10
f 27/7/1 31/48/1 34/49/1 32/47/1 

v 17.5 14.1249 -10
f 31/41/10 30/7/10 35/47/10 34/50/10 

v 17.5 14.1249 -10.5
f 30/51/6 29/52/6 36/53/6 35/54/6 

f 29/52/6 28/7/6 33/47/6 36/53/6 

f 33/7/4 32/45/4 34/55/4 35/43/4 36/42/4 

g Mesh6 Group10 Group7 Group2 Group1 Model

v 1.5 13.9999 -16
v 17.5 13.9999 -16
v 17.5 13.9999 -15.5
v 17.5 13.9999 -15
v 1.5 13.9999 -15
f 37/41/2 38/7/2 39/42/2 40/43/2 41/44/2 

v 1.5 14.1249 -16
v 17.5 14.1249 -16
f 38/7/8 37/45/8 42/46/8 43/47/8 

v 1.5 14.1249 -15
f 37/7/1 41/48/1 44/49/1 42/47/1 

v 17.5 14.1249 -15
f 41/41/10 40/7/10 45/47/10 44/50/10 

v 17.5 14.1249 -15.5
f 40/51/6 39/52/6 46/53/6 45/54/6 

f 39/52/6 38/7/6 43/47/6 46/53/6 

f 43/7/4 42/45/4 44/55/4 45/43/4 46/42/4 

g Mesh7 Group11 Group7 Group2 Group1 Model

v 1.5 13.9999 -20.5
v 17.5 13.9999 -20.5
v 17.5 13.9999 -20
v 17.5 13.9999 -19.5
v 1.5 13.9999 -19.5
f 47/41/2 48/7/2 49/42/2 50/43/2 51/44/2 

v 1.5 14.1249 -20.5
v 17.5 14.1249 -20.5
f 48/7/8 47/45/8 52/46/8 53/47/8 

v 1.5 14.1249 -19.5
f 47/7/1 51/48/1 54/49/1 52/47/1 

v 17.5 14.1249 -19.5
f 51/41/10 50/7/10 55/47/10 54/50/10 

v 17.5 14.1249 -20
f 50/51/6 49/52/6 56/53/6 55/54/6 

f 49/52/6 48/7/6 53/47/6 56/53/6 

f 53/7/4 52/45/4 54/55/4 55/43/4 56/42/4 

g Mesh8 Group13 Group12 Group2 Group1 Model

v 1.5 0.75 -0.75
v -5.86198e-12 0.75 -0.75
v -5.86198e-12 13.2499 -0.75
vt 1.5 12.4999
v 1.5 13.2499 -0.75
vt 0 12.4999
f 57/7/8 58/1/8 59/56/8 60/57/8 

vn -5.5184e-12 -0.707107 -0.707107
v 1.5 0 -1.17167e-11
vt 0 -1.06066
v -8.88178e-15 0 -1.04361e-14
vt 1.5 -1.06066
f 57/7/12 61/58/12 62/59/12 58/1/12 

v 1.5 13.2499 8.91498e-09
vt -0.75 12.4999
vt -0.75 -0.75
f 63/60/6 61/61/6 57/7/6 60/57/6 

v -8.88178e-15 13.2499 8.92668e-09
vt -1.5 12.4999
vt -1.5 -0.75
vt 0 -0.75
f 64/62/10 62/63/10 61/64/10 63/57/10 

vt 0.75 -0.75
vt 0.75 12.4999
f 59/57/1 58/7/1 62/65/1 64/66/1 

f 63/10/4 60/7/4 59/1/4 64/4/4 

g Mesh9 Group14 Group12 Group2 Group1 Model

v 19 0.75 -0.75
v 17.5 0.75 -0.75
v 17.5 13.2499 -0.75
v 19 13.2499 -0.75
f 65/7/8 66/1/8 67/56/8 68/57/8 

v 19 0 -1.4829e-10
v 17.5 0 -1.36584e-10
f 65/7/12 69/58/12 70/59/12 66/1/12 

v 19 13.2499 8.7784e-09
f 71/60/6 69/61/6 65/7/6 68/57/6 

v 17.5 13.2499 8.79011e-09
f 72/62/10 70/63/10 69/64/10 71/57/10 

f 67/57/1 66/7/1 70/65/1 72/66/1 

f 71/10/4 68/7/4 67/1/4 72/4/4 

g Mesh10 Group16 Group15 Group2 Group1 Model

v 17.5 21.4999 -22.25
v 17.5 22.9999 -22.25
v 1.5 22.9999 -22.25
vt -16 1.5
v 1.5 21.4999 -22.25
f 73/7/10 74/36/10 75/67/10 76/41/10 

v 17.5 21.4999 -23
v 17.5 22.9999 -23
vt -0.75 1.5
vt -0.75 0
f 77/7/6 78/36/6 74/68/6 73/69/6 

v 1.5 21.4999 -23
v 1.5 22.9999 -23
vt 16 1.5
f 78/36/8 77/7/8 79/45/8 80/70/8 

vt -16 0.75
f 77/7/2 73/10/2 76/71/2 79/41/2 

vt 0.75 0
vt 0.75 1.5
f 80/36/1 79/7/1 76/72/1 75/73/1 

vn -2.40434e-25 1 6.73668e-10
vt 0 7.10543e-14
vt 16 7.10543e-14
vt 16 0.75
f 74/10/13 78/74/13 80/75/13 75/76/13 

g Mesh11 Group17 Group15 Group2 Group1 Model

v -1.73138e-10 13.9999 -23
vt -1.5 1.93268e-12
vn 5.92119e-16 -1 -6.73662e-10
v 1.5 13.9999 -23
vt 1.05181e-30 1.25056e-12
v 1.5 13.9999 -22.25
vt 2.41917e-29 0.75
v -1.67285e-10 13.9999 -22.25
f 81/77/14 82/78/14 83/79/14 84/33/14 

vt 1.5 -1.41343e-25
vn -7.92018e-12 6.73635e-10 -1
v -1.73138e-10 31.9999 -23
vt 1.5 18
v 1.5 30.4999 -23
vt 5.27393e-26 16.5
vt 1.45033e-25 1.77636e-15
f 81/80/15 85/81/15 86/82/15 82/83/15 

vt 0.75 4.08562e-14
v -1.67285e-10 31.9999 -22.25
vt 0.75 18
vt 0 18
vt 1.93268e-12 0
f 84/84/1 87/85/1 85/86/1 81/87/1 

vt -8.69812e-14 -1.94193e-14
vn 7.92018e-12 -6.73635e-10 1
v 1.5 30.4999 -22.25
vt -8.69812e-14 16.5
vt -1.5 18
vt -1.5 -1.94193e-14
f 83/88/16 88/89/16 87/90/16 84/91/16 

vt -0.75 16.5
vt -0.75 4.08562e-14
vt -1.25056e-12 1.77636e-15
vt -4.54747e-13 16.5
f 88/92/6 83/93/6 82/94/6 86/95/6 

vt -4.54747e-13 11.6673
vn 0.707107 0.707107 4.70832e-10
vt 8.17124e-14 13.7886
vt -0.75 13.7886
vt -0.75 11.6673
f 86/96/17 85/97/17 87/98/17 88/99/17 

g Mesh12 Group18 Group15 Group2 Group1 Model

v 19 31.9999 -23
vt 7.03841e-27 1.5
vn -7.82484e-12 6.73678e-10 -1
v 17.5 30.4999 -23
vt 1.5 1.17307e-27
v 1.5 30.4999 -23
vt 17.5 -1.64718e-26
v -1.73138e-10 31.9999 -23
vt 19 1.5
f 89/100/18 90/101/18 91/102/18 92/103/18 

v 19 31.9999 -22.25
vt -0.75 1.06066
vn 0.707107 -0.707107 -4.81895e-10
v 17.5 30.4999 -22.25
vt -0.75 -1.06066
vt -2.58882e-14 -1.06066
vt -3.41061e-13 1.06066
f 93/104/19 94/105/19 90/106/19 89/107/19 

vt -1.5 1.17383e-27
vn 7.82484e-12 -6.73678e-10 1
vt -1.54776e-14 1.5
v -1.67283e-10 31.9999 -22.25
vt -19 1.5
v 1.5 30.4999 -22.25
vt -17.5 -1.64651e-26
f 94/108/20 93/109/20 95/110/20 96/111/20 

vn -1.66498e-25 1 6.73678e-10
vt 0 3.97904e-13
vt 19 3.97904e-13
f 95/26/21 93/10/21 89/112/21 92/113/21 

vt 0.75 12.3744
vn -0.707107 -0.707107 -4.70829e-10
vt 0.75 14.4957
vt -7.71056e-13 14.4957
vt -2.2851e-13 12.3744
f 96/114/22 95/115/22 92/116/22 91/117/22 

vn 1.68383e-25 -1 -6.73678e-10
vt -17.5 7.95808e-13
vt -1.5 1.07141e-40
f 94/33/23 96/34/23 91/118/23 90/119/23 

g Mesh13 Group19 Group15 Group2 Group1 Model

v 17.5 16.9999 -22.25
v 17.5 18.4999 -22.25
v 1.5 18.4999 -22.25
v 1.5 16.9999 -22.25
f 97/7/10 98/36/10 99/67/10 100/41/10 

v 17.5 16.9999 -23
v 17.5 18.4999 -23
f 101/7/6 102/36/6 98/68/6 97/69/6 

v 1.5 16.9999 -23
v 1.5 18.4999 -23
f 102/36/8 101/7/8 103/45/8 104/70/8 

f 101/7/2 97/10/2 100/71/2 103/41/2 

f 104/36/1 103/7/1 100/72/1 99/73/1 

f 98/10/13 102/74/13 104/75/13 99/76/13 

g Mesh14 Group20 Group15 Group2 Group1 Model

v 19 31.9999 -22.25
vt -0.75 18
v 19 13.9999 -22.25
v 19 13.9999 -23
vt -3.41061e-13 0
v 19 31.9999 -23
vt -3.41061e-13 18
f 105/120/6 106/93/6 107/121/6 108/122/6 

vt -2.01633e-14 2.43394e-14
vn 7.83109e-12 -6.73693e-10 1
vt -2.01633e-14 18
v 17.5 30.4999 -22.25
vt -1.5 16.5
v 17.5 13.9999 -22.25
vt -1.5 2.43394e-14
f 106/123/24 105/124/24 109/125/24 110/126/24 

vt 3.41061e-13 12.7279
vn -0.707107 0.707107 4.81869e-10
v 17.5 30.4999 -23
vt 8.17124e-14 10.6066
vt 0.75 10.6066
vt 0.75 12.7279
f 108/127/25 111/128/25 109/129/25 105/130/25 

v 17.5 13.9999 -23
vt 1.5 1.77636e-15
vn -7.83109e-12 6.73693e-10 -1
vt 1.5 16.5
vt 9.16922e-27 18
vt 9.16922e-27 -7.51096e-27
f 112/131/26 111/132/26 108/133/26 107/134/26 

vt 0.75 16.5
vt 0 16.5
vt 7.95808e-13 1.77636e-15
f 110/84/1 109/135/1 111/136/1 112/137/1 

vt -2.41917e-29 0.75
vn -5.92119e-16 -1 -6.73662e-10
vt -1.5 7.95808e-13
vt 0 3.41061e-13
f 106/138/27 110/33/27 112/139/27 107/140/27 

g Mesh15 Group21 Group15 Group2 Group1 Model

v 17.5 25.9999 -22.25
v 17.5 27.4999 -22.25
v 1.5 27.4999 -22.25
v 1.5 25.9999 -22.25
f 113/7/10 114/36/10 115/67/10 116/41/10 

v 17.5 25.9999 -23
v 17.5 27.4999 -23
f 117/7/6 118/36/6 114/68/6 113/69/6 

v 1.5 25.9999 -23
v 1.5 27.4999 -23
f 118/36/8 117/7/8 119/45/8 120/70/8 

f 117/7/2 113/10/2 116/71/2 119/41/2 

f 120/36/1 119/7/1 116/72/1 115/73/1 

f 114/10/13 118/74/13 120/75/13 115/76/13 

g Mesh16 Group22 Group2 Group1 Model

v 10.25 13.9999 -1.5
v 8.75 13.9999 -1.5
v 8.75 13.2499 -1.5
v 10.25 13.2499 -1.5
f 121/10/10 122/33/10 123/32/10 124/7/10 

v 10.25 13.9999 -21.5
v 8.75 13.9999 -21.5
vt 1.5 20
vt 0 20
f 125/7/4 126/1/4 122/141/4 121/142/4 

v 10.25 13.2499 -21.5
v 8.75 13.2499 -21.5
f 126/4/8 125/10/8 127/7/8 128/1/8 

vt -20 0.75
vt -20 0
f 127/7/6 125/10/6 121/143/6 124/144/6 

vt -1.5 20
f 128/32/2 127/7/2 124/142/2 123/145/2 

vt 20 0
vt 20 0.75
f 126/10/1 128/7/1 123/146/1 122/147/1 

g Mesh17 Group24 Group23 Group2 Group1 Model

v 1.5 13.2499 -1.5
vt 12.3744 0
v -7.10543e-15 13.2499 8.92668e-09
vt 14.4957 0
v -7.10543e-15 13.9999 9.43197e-09
vt 14.4957 0.75
v 1.5 13.9999 -1.5
vt 12.3744 0.75
f 129/148/3 130/149/3 131/150/3 132/151/3 

v 17.5 13.2499 -1.5
v 19 13.2499 8.7784e-09
f 130/110/2 129/31/2 133/32/2 134/36/2 

vt 17.5 0
vt 17.5 0.75
v 17.5 13.9999 -1.5
f 133/1/8 129/152/8 132/153/8 135/4/8 

v 19 13.9999 9.28369e-09
f 132/152/4 131/103/4 136/36/4 135/1/4 

vt -19 0.75
f 130/22/10 134/7/10 136/10/10 131/154/10 

f 134/39/11 133/40/11 135/37/11 136/38/11 

g Mesh18 Group25 Group23 Group2 Group1 Model

v 1.5 13.9999 -1.5
vt -21.5 0.75
v 1.5 13.2499 -1.5
vt -21.5 0
v 1.5 13.2499 -21.5
v 1.5 13.9999 -21.5
f 137/155/6 138/156/6 139/32/6 140/33/6 

vt -15.2028 0.75
v -7.77156e-15 13.9999 9.43197e-09
vt -17.3241 0.75
v -7.77156e-15 13.2499 8.92668e-09
vt -17.3241 0
vt -15.2028 0
f 137/157/7 141/158/7 142/159/7 138/160/7 

v -1.79504e-10 13.9999 -23
vt 1.5 23
vt 0 21.5
f 143/1/4 141/161/4 137/162/4 140/36/4 

v -1.79504e-10 13.2499 -23
vt 23 0.75
f 144/7/1 142/2/1 141/163/1 143/10/1 

f 142/5/2 144/32/2 139/36/2 138/162/2 

f 143/37/11 140/38/11 139/39/11 144/40/11 

g Mesh19 Group26 Group23 Group2 Group1 Model

v 19 13.2499 -23
v 17.5 13.2499 -21.5
f 145/7/2 146/6/2 139/21/2 144/22/2 

v 19 13.9999 -23
v 17.5 13.9999 -21.5
f 146/23/7 145/7/7 147/10/7 148/24/7 

f 145/7/8 144/25/8 143/26/8 147/10/8 

f 144/27/9 139/28/9 140/29/9 143/30/9 

f 139/31/10 146/32/10 148/33/10 140/34/10 

f 148/12/4 147/7/4 143/25/4 140/35/4 

g Mesh20 Group27 Group23 Group2 Group1 Model

vt 21.5 0
v 17.5 13.9999 -1.5
vt 21.5 0.75
f 146/1/1 133/164/1 149/165/1 148/4/1 

vt -1.5 21.5
f 145/7/2 134/8/2 133/166/2 146/6/2 

v 19 13.9999 9.28369e-09
vt -23 0.75
f 134/20/6 145/7/6 147/10/6 150/167/6 

f 148/9/3 147/10/3 145/7/3 146/11/3 

vt 1.5 21.5
f 148/12/4 149/168/4 150/8/4 147/7/4 

vt 16.2635 0.75
vt 14.1421 0.75
vt 14.1421 0
vt 16.2635 0
f 150/169/9 149/170/9 133/171/9 134/172/9 

g Mesh21 Group28 Group2 Group1 Model

v 9.875 0.75 -21.5
v 9.125 0.75 -21.5
v 9.125 0.75 -23
v 9.875 0.75 -23
f 151/36/2 152/68/2 153/69/2 154/7/2 

v 9.875 13.2499 -21.5
v 9.125 13.2499 -21.5
f 152/69/10 151/7/10 155/57/10 156/60/10 

v 9.875 13.2499 -23
f 151/32/6 154/7/6 157/57/6 155/62/6 

v 9.125 13.2499 -23
f 154/7/8 153/72/8 158/66/8 157/57/8 

f 153/7/1 152/1/1 156/56/1 158/57/1 

f 156/73/4 155/36/4 157/7/4 158/72/4 

g Mesh22 Group29 Group1 Model

usemtl FrontColor
v 19 32.9999 -22
vt -4 15
v 19 32.9999 -20
vt -2 15
v 19 17.9999 -18
v 19 17.9999 -22
vt -4 0
f 159/173/6 160/174/6 161/7/6 162/175/6 

vt 0 4
v -1.68971e-10 32.9999 -22
vt 19 4
v -1.5336e-10 32.9999 -20
vt 19 2
vt 0 2
f 159/176/4 163/177/4 164/178/4 160/179/4 

vt -19 15
vt 0 15
v -1.71699e-10 17.9999 -22
f 163/180/8 159/181/8 162/7/8 165/22/8 

v -1.40481e-10 17.9999 -18
vt -19 4
f 161/7/2 166/22/2 165/182/2 162/176/2 

vt 19 15.1327
vn 7.73574e-12 0.132164 0.991228
vt 0 15.1327
f 164/183/28 166/25/28 161/7/28 160/184/28 

vt 0 -3.45608e-12
vn -1 1.81899e-13 7.8042e-12
vt 2 15
vt 4 15
vt 4 -3.45608e-12
f 166/185/29 164/186/29 163/187/29 165/188/29 

g Mesh23 Group30 Group1 Model

v -1.71699e-10 13.9999 -22
vt -19 22
vn 5.60955e-16 -1 -6.73716e-10
v 19 13.9999 -22
vt 1.19575e-29 22
v 19 13.9999 9.28369e-09
vt 1.19575e-29 1.03269e-29
v -7.10543e-15 13.9999 9.43197e-09
vt -19 5.16345e-30
f 167/189/30 168/190/30 169/191/30 170/192/30 

vn -7.8042e-12 6.73716e-10 -1
vt 0 1.06581e-14
vt -19 1.06581e-14
f 165/182/31 162/176/31 168/193/31 167/194/31 

vt -2.24382e-15 22
vn -5.60955e-16 1 6.73716e-10
vt 19 22
v -7.10543e-15 17.9999 1.21268e-08
vt 19 1.93784e-15
v 19 17.9999 1.19786e-08
vt -2.24382e-15 1.93784e-15
f 162/195/32 165/196/32 171/197/32 172/198/32 

vt -1.03269e-29 4
vn -1 -5.6096e-16 7.8042e-12
vt 22 4
vt 22 3.19744e-14
vt -1.03269e-29 1.06581e-14
f 171/199/33 165/200/33 167/201/33 170/202/33 

vn 7.8042e-12 -6.73716e-10 1
vt 19 -5.00298e-45
vt 0 2.13163e-14
f 172/176/34 171/177/34 170/203/34 169/204/34 

vt -22 4
vn 1 5.6096e-16 -7.8042e-12
vt -22 2.13163e-14
f 162/205/35 172/176/35 169/204/35 168/206/35 

g Mesh24 Component_47_1 Group1 Model

v 19.1 27.9999 -22
vt 0.25 4.26326e-14
v 19.1 27.9999 -23.1
vt -0.85 2.84217e-14
v 19.1 28.9999 -23.1
vt -0.85 1
v 19.1 28.9999 -22
vt 0.25 1
f 173/207/6 174/208/6 175/209/6 176/210/6 

v 17.5 27.9999 -23.1
vt -1.5 0.85
vn 1.84056e-15 -1 -6.73686e-10
vt 0.1 0.85
vt 0.1 -0.25
v 19 27.9999 -22
vt 7.84679e-29 -0.25
v 19 27.9999 -23
vt 3.9234e-29 0.75
v 17.5 27.9999 -23
f 177/211/36 174/212/36 173/213/36 178/214/36 179/215/36 180/33/36 

vt 0.1 -2.13163e-13
vn -8.14526e-12 6.74e-10 -1
vt -1.5 -2.13163e-13
v 17.4 27.9999 -23.1
vt -1.6 -2.13163e-13
v 17.4 28.9999 -23.1
vt -1.6 1
vt 0.1 1
f 174/216/37 177/217/37 181/218/37 182/219/37 175/220/37 

v 17.4 27.9999 -22
vt -1.6 -0.25
vt -1.6 0.85
v 17.5 27.9999 -22
vt -1.5 -0.25
f 183/221/2 181/222/2 177/211/2 180/33/2 184/223/2 

v 17.4 28.9999 -22
vt -0.25 1
vt 0.85 1
vt 0.85 2.84217e-14
vt -0.25 -1.56319e-13
f 185/224/1 182/225/1 181/226/1 183/227/1 

v 19 28.9999 -22
vt -6.58921e-15 -0.25
vn -6.58921e-15 1 6.73733e-10
vt -0.1 -0.25
vt -0.1 0.85
vt 1.6 0.85
vt 1.6 -0.25
v 17.5 28.9999 -22
vt 1.5 -0.25
v 17.5 28.9999 -23
v 19 28.9999 -23
vt -6.58921e-15 0.75
f 186/228/38 176/229/38 175/230/38 182/231/38 185/232/38 187/233/38 188/4/38 189/234/38 

vt -0.1 4.26326e-14
vt -0.1 1
vt 0 4.26326e-14
f 173/235/10 176/236/10 186/43/10 178/237/10 

vt -0.25 4.26326e-14
vt 0.75 1
vt 0.75 2.13163e-14
f 178/238/1 186/224/1 189/239/1 179/240/1 

vt 1.5 1
vn 8.22105e-12 -6.73886e-10 1
vt 1.5 -1.27898e-13
vt -3.12639e-13 -1.06581e-13
vt -3.12639e-13 1
f 188/241/39 180/242/39 179/243/39 189/244/39 

vt 0.25 -1.56319e-13
vt -0.75 1
f 187/210/6 184/245/6 180/69/6 188/246/6 

vt 1.6 1
vn 7.8042e-12 -6.74284e-10 1
vt 1.6 -1.42109e-14
vt 1.5 -1.42109e-14
f 185/247/40 183/248/40 184/249/40 187/241/40 

g Mesh25 Component_47_2 Group1 Model

v 1.6 27.9999 -22
v 1.6 27.9999 -23.1
v 1.6 28.9999 -23.1
v 1.6 28.9999 -22
f 190/207/6 191/208/6 192/209/6 193/210/6 

v -1.77555e-10 27.9999 -23.1
v 1.5 27.9999 -22
v 1.5 27.9999 -23
v -1.76774e-10 27.9999 -23
f 194/211/36 191/212/36 190/213/36 195/214/36 196/215/36 197/33/36 

v -0.1 27.9999 -23.1
v -0.1 28.9999 -23.1
f 191/216/37 194/217/37 198/218/37 199/219/37 192/220/37 

v -0.1 27.9999 -22
v -1.6897e-10 27.9999 -22
f 200/221/2 198/222/2 194/211/2 197/33/2 201/223/2 

v -0.1 28.9999 -22
f 202/224/1 199/225/1 198/226/1 200/227/1 

v 1.5 28.9999 -22
v -1.6897e-10 28.9999 -22
v -1.76774e-10 28.9999 -23
v 1.5 28.9999 -23
f 203/228/38 193/229/38 192/230/38 199/231/38 202/232/38 204/233/38 205/4/38 206/234/38 

f 190/235/10 193/236/10 203/43/10 195/237/10 

f 195/238/1 203/224/1 206/239/1 196/240/1 

f 205/241/39 197/242/39 196/243/39 206/244/39 

f 204/210/6 201/245/6 197/69/6 205/246/6 

f 202/247/40 200/248/40 201/249/40 204/241/40 

g Mesh26 Component_47_3 Group1 Model

v 1.6 15.4999 -22
v 1.6 15.4999 -23.1
v 1.6 16.4999 -23.1
v 1.6 16.4999 -22
f 207/207/6 208/208/6 209/209/6 210/210/6 

v -1.77555e-10 15.4999 -23.1
v 1.5 15.4999 -22
v 1.5 15.4999 -23
v -1.76774e-10 15.4999 -23
f 211/211/36 208/212/36 207/213/36 212/214/36 213/215/36 214/33/36 

v -0.1 15.4999 -23.1
v -0.1 16.4999 -23.1
f 208/216/37 211/217/37 215/218/37 216/219/37 209/220/37 

v -0.1 15.4999 -22
v -1.6897e-10 15.4999 -22
f 217/221/2 215/222/2 211/211/2 214/33/2 218/223/2 

v -0.1 16.4999 -22
f 219/224/1 216/225/1 215/226/1 217/227/1 

v 1.5 16.4999 -22
v -1.6897e-10 16.4999 -22
v -1.76774e-10 16.4999 -23
v 1.5 16.4999 -23
f 220/228/38 210/229/38 209/230/38 216/231/38 219/232/38 221/233/38 222/4/38 223/234/38 

f 207/235/10 210/236/10 220/43/10 212/237/10 

f 212/238/1 220/224/1 223/239/1 213/240/1 

f 222/241/39 214/242/39 213/243/39 223/244/39 

f 221/210/6 218/245/6 214/69/6 222/246/6 

f 219/247/40 217/248/40 218/249/40 221/241/40 

g Mesh27 Component_47_4 Group1 Model

v 19.1 15.4999 -22
v 19.1 15.4999 -23.1
v 19.1 16.4999 -23.1
v 19.1 16.4999 -22
f 224/207/6 225/208/6 226/209/6 227/210/6 

v 17.5 15.4999 -23.1
v 19 15.4999 -22
v 19 15.4999 -23
v 17.5 15.4999 -23
f 228/211/36 225/212/36 224/213/36 229/214/36 230/215/36 231/33/36 

v 17.4 15.4999 -23.1
v 17.4 16.4999 -23.1
f 225/216/37 228/217/37 232/218/37 233/219/37 226/220/37 

v 17.4 15.4999 -22
v 17.5 15.4999 -22
f 234/221/2 232/222/2 228/211/2 231/33/2 235/223/2 

v 17.4 16.4999 -22
f 236/224/1 233/225/1 232/226/1 234/227/1 

v 19 16.4999 -22
v 17.5 16.4999 -22
v 17.5 16.4999 -23
v 19 16.4999 -23
f 237/228/38 227/229/38 226/230/38 233/231/38 236/232/38 238/233/38 239/4/38 240/234/38 

f 224/235/10 227/236/10 237/43/10 229/237/10 

f 229/238/1 237/224/1 240/239/1 230/240/1 

f 239/241/39 231/242/39 230/243/39 240/244/39 

f 238/210/6 235/245/6 231/69/6 239/246/6 

f 236/247/40 234/248/40 235/249/40 238/241/40 

