# Alias OBJ Model File
# Exported from SketchUp, (c) 2000-2012 Trimble Navigation Limited
# File units = inches

mtllib 49 BRAVADA Rounded bench 96 x 34.mtl

g Mesh1 Group2 Group1 Model

usemtl FrontColor
v 125.612 10 -30.8793
vt -30.607 7.00174e-09
vn 1.97748e-25 -1 -1.68353e-15
v 110.806 10 -0.272271
vt -4.67696e-09 14.8058
v 109.31 10 -0.981939
vt -0.709668 16.3014
v 107.804 10 -1.66907
vt -1.3968 17.8075
v 106.288 10 -2.3335
vt -2.06123 19.3237
v 104.762 10 -2.97508
vt -2.70281 20.8497
v 103.226 10 -3.59368
vt -3.32141 22.3852
v 101.682 10 -4.18915
vt -3.91688 23.9299
v 100.128 10 -4.76135
vt -4.48908 25.4833
v 98.5665 10 -5.31016
vt -5.03789 27.0451
v 96.9966 10 -5.83545
vt -5.56318 28.6149
v 95.419 10 -6.33711
vt -6.06483 30.1925
v 93.8341 10 -6.81501
vt -6.54274 31.7775
v 92.2421 10 -7.26906
vt -6.99679 33.3694
v 90.6436 10 -7.69916
vt -7.42689 34.968
v 89.0387 10 -8.10519
vt -7.83292 36.5729
v 87.4279 10 -8.48708
vt -8.21481 38.1836
v 85.8116 10 -8.84474
vt -8.57247 39.8
v 84.1901 10 -9.17808
vt -8.90581 41.4215
v 82.5637 10 -9.48703
vt -9.21476 43.0478
v 80.9329 10 -9.77153
vt -9.49926 44.6786
v 79.298 10 -10.0315
vt -9.75923 46.3135
v 77.6594 10 -10.2669
vt -9.99461 47.9521
v 76.0175 10 -10.4776
vt -10.2054 49.5941
v 74.3725 10 -10.6637
vt -10.3914 51.239
v 72.725 10 -10.8251
vt -10.5528 52.8866
v 71.0752 10 -10.9616
vt -10.6894 54.5363
v 69.4236 10 -11.0734
vt -10.8012 56.188
v 67.7704 10 -11.1604
vt -10.8881 57.8411
v 66.1162 10 -11.2225
vt -10.9503 59.4954
v 64.4612 10 -11.2598
vt -10.9876 61.1504
v 62.8058 10 -11.2723
vt -11 62.8058
v 61.1504 10 -11.2598
vt -10.9876 64.4612
v 59.4954 10 -11.2225
vt -10.9503 66.1162
v 57.8411 10 -11.1604
vt -10.8881 67.7704
v 56.188 10 -11.0734
vt -10.8012 69.4236
v 54.5363 10 -10.9616
vt -10.6894 71.0752
v 52.8866 10 -10.8251
vt -10.5528 72.725
v 51.239 10 -10.6637
vt -10.3914 74.3725
v 49.5941 10 -10.4776
vt -10.2054 76.0175
v 47.9521 10 -10.2669
vt -9.99461 77.6594
v 46.3135 10 -10.0315
vt -9.75923 79.298
v 44.6786 10 -9.77153
vt -9.49926 80.9329
v 43.0478 10 -9.48703
vt -9.21476 82.5637
v 41.4215 10 -9.17808
vt -8.90581 84.1901
v 39.8 10 -8.84474
vt -8.57247 85.8116
v 38.1836 10 -8.48708
vt -8.21481 87.4279
v 36.5729 10 -8.10519
vt -7.83292 89.0387
v 34.968 10 -7.69916
vt -7.42689 90.6436
v 33.3694 10 -7.26906
vt -6.99679 92.2421
v 31.7775 10 -6.81501
vt -6.54274 93.8341
v 30.1925 10 -6.33711
vt -6.06483 95.419
v 28.6149 10 -5.83545
vt -5.56318 96.9966
v 27.0451 10 -5.31016
vt -5.03789 98.5665
v 25.4833 10 -4.76135
vt -4.48908 100.128
v 23.9299 10 -4.18915
vt -3.91688 101.682
v 22.3852 10 -3.59368
vt -3.32141 103.226
v 20.8497 10 -2.97508
vt -2.70281 104.762
v 19.3237 10 -2.3335
vt -2.06123 106.288
v 17.8075 10 -1.66907
vt -1.3968 107.804
v 16.3014 10 -0.981939
vt -0.709668 109.31
v 14.8058 10 -0.272271
vt -3.92777e-09 110.806
v -4.26326e-14 10 -30.8793
vt -30.607 125.612
v 1.95692 10 -31.8078
vt -31.5356 123.655
v 3.92756 10 -32.7069
vt -32.4347 121.684
v 5.91149 10 -33.5763
vt -33.304 119.7
v 7.90824 10 -34.4158
vt -34.1435 117.703
v 9.91738 10 -35.2252
vt -34.9529 115.694
v 11.9384 10 -36.0043
vt -35.7321 113.673
v 13.971 10 -36.753
vt -36.4808 111.641
v 16.0145 10 -37.4711
vt -37.1989 109.597
v 18.0687 10 -38.1584
vt -37.8862 107.543
v 20.1329 10 -38.8148
vt -38.5426 105.479
v 22.2067 10 -39.4402
vt -39.1679 103.405
v 24.2897 10 -40.0343
vt -39.762 101.322
v 26.3813 10 -40.597
vt -40.3247 99.2302
v 28.4812 10 -41.1283
vt -40.856 97.1303
v 30.5888 10 -41.628
vt -41.3557 95.0227
v 32.7037 10 -42.096
vt -41.8237 92.9078
v 34.8254 10 -42.5321
vt -42.2598 90.7861
v 36.9534 10 -42.9364
vt -42.6641 88.6581
v 39.0872 10 -43.3086
vt -43.0363 86.5243
v 41.2264 10 -43.6488
vt -43.3765 84.3851
v 43.3704 10 -43.9568
vt -43.6845 82.2411
v 45.5189 10 -44.2325
vt -43.9603 80.0927
v 47.6712 10 -44.476
vt -44.2037 77.9404
v 49.8269 10 -44.6871
vt -44.4148 75.7846
v 51.9856 10 -44.8658
vt -44.5936 73.6259
v 54.1467 10 -45.0121
vt -44.7398 71.4648
v 56.3098 10 -45.1259
vt -44.8536 69.3018
v 58.4743 10 -45.2072
vt -44.9349 67.1373
v 60.6398 10 -45.256
vt -44.9837 64.9718
v 62.8058 10 -45.2723
vt -45 62.8058
v 64.9718 10 -45.256
vt -44.9837 60.6398
v 67.1373 10 -45.2072
vt -44.9349 58.4743
v 69.3018 10 -45.1259
vt -44.8536 56.3098
v 71.4648 10 -45.0121
vt -44.7398 54.1467
v 73.6259 10 -44.8658
vt -44.5936 51.9856
v 75.7846 10 -44.6871
vt -44.4148 49.8269
v 77.9404 10 -44.476
vt -44.2037 47.6712
v 80.0927 10 -44.2325
vt -43.9603 45.5189
v 82.2411 10 -43.9568
vt -43.6845 43.3704
v 84.3851 10 -43.6488
vt -43.3765 41.2264
v 86.5243 10 -43.3086
vt -43.0363 39.0872
v 88.6581 10 -42.9364
vt -42.6641 36.9534
v 90.7861 10 -42.5321
vt -42.2598 34.8254
v 92.9078 10 -42.096
vt -41.8237 32.7037
v 95.0227 10 -41.628
vt -41.3557 30.5888
v 97.1303 10 -41.1283
vt -40.856 28.4812
v 99.2302 10 -40.597
vt -40.3247 26.3813
v 101.322 10 -40.0343
vt -39.762 24.2897
v 103.405 10 -39.4402
vt -39.1679 22.2067
v 105.479 10 -38.8148
vt -38.5426 20.1329
v 107.543 10 -38.1584
vt -37.8862 18.0687
v 109.597 10 -37.4711
vt -37.1989 16.0145
v 111.641 10 -36.753
vt -36.4808 13.971
v 113.673 10 -36.0043
vt -35.7321 11.9384
v 115.694 10 -35.2252
vt -34.9529 9.91738
v 117.703 10 -34.4158
vt -34.1435 7.90824
v 119.7 10 -33.5763
vt -33.304 5.91149
v 121.684 10 -32.7069
vt -32.4347 3.92756
v 123.655 10 -31.8078
vt -31.5356 1.95692
f 1/1/1 2/2/1 3/3/1 4/4/1 5/5/1 6/6/1 7/7/1 8/8/1 9/9/1 10/10/1 11/11/1 12/12/1 13/13/1 14/14/1 15/15/1 16/16/1 17/17/1 18/18/1 19/19/1 20/20/1 21/21/1 22/22/1 23/23/1 24/24/1 25/25/1 26/26/1 27/27/1 28/28/1 29/29/1 30/30/1 31/31/1 32/32/1 33/33/1 34/34/1 35/35/1 36/36/1 37/37/1 38/38/1 39/39/1 40/40/1 41/41/1 42/42/1 43/43/1 44/44/1 45/45/1 46/46/1 47/47/1 48/48/1 49/49/1 50/50/1 51/51/1 52/52/1 53/53/1 54/54/1 55/55/1 56/56/1 57/57/1 58/58/1 59/59/1 60/60/1 61/61/1 62/62/1 63/63/1 64/64/1 65/65/1 66/66/1 67/67/1 68/68/1 69/69/1 70/70/1 71/71/1 72/72/1 73/73/1 74/74/1 75/75/1 76/76/1 77/77/1 78/78/1 79/79/1 80/80/1 81/81/1 82/82/1 83/83/1 84/84/1 85/85/1 86/86/1 87/87/1 88/88/1 89/89/1 90/90/1 91/91/1 92/92/1 93/93/1 94/94/1 95/95/1 96/96/1 97/97/1 98/98/1 99/99/1 100/100/1 101/101/1 102/102/1 103/103/1 104/104/1 105/105/1 106/106/1 107/107/1 108/108/1 109/109/1 110/110/1 111/111/1 112/112/1 113/113/1 114/114/1 115/115/1 116/116/1 117/117/1 118/118/1 119/119/1 120/120/1 121/121/1 122/122/1 

vt -6.44738 -9.77118e-15
vn 0.900206 -7.33118e-16 0.435464
vt 27.5526 4.17567e-14
v 125.612 18 -30.8793
vt 27.5526 8
v 110.806 18 -0.272271
vt -6.44738 8
f 2/123/2 1/124/2 123/125/2 124/126/2 

vt 13.121 9.46963e-15
vn 0.428692 1.52099e-15 -0.903451
vt 15.287 1.10329e-14
vn 0.421896 1.52637e-15 -0.906644
v 123.655 18 -31.8078
vt 15.287 8
vt 13.121 8
f 1/127/3 122/128/4 125/129/4 123/130/3 

vt 14.87 1.03911e-14
vt 17.0361 1.19047e-14
vn 0.408232 1.53686e-15 -0.912878
v 121.684 18 -32.7069
vt 17.0361 8
vt 14.87 8
f 122/131/4 121/132/5 126/133/5 125/134/4 

vt 16.6155 1.12273e-14
vt 18.7815 1.26909e-14
vn 0.394477 1.54701e-15 -0.918906
v 119.7 18 -33.5763
vt 18.7815 8
vt 16.6155 8
f 121/135/5 120/136/6 127/137/6 126/138/5 

vt 18.3569 1.19775e-14
vt 20.523 1.33908e-14
vn 0.380632 1.55681e-15 -0.924727
v 117.703 18 -34.4158
vt 20.523 8
vt 18.3569 8
f 120/139/6 119/140/7 128/141/7 127/142/6 

vt 20.094 1.26411e-14
vt 22.2601 1.40038e-14
vn 0.366702 1.56626e-15 -0.930339
v 115.694 18 -35.2252
vt 22.2601 8
vt 20.094 8
f 119/143/7 118/144/8 129/145/8 128/146/7 

vt 21.8263 1.32175e-14
vt 23.9924 1.45292e-14
vn 0.352689 1.57535e-15 -0.935741
v 113.673 18 -36.0043
vt 23.9924 8
vt 21.8263 8
f 118/147/8 117/148/9 130/149/9 129/150/8 

vt 23.5535 1.37062e-14
vt 25.7195 1.49666e-14
vn 0.338596 1.58409e-15 -0.940932
v 111.641 18 -36.753
vt 25.7195 8
vt 23.5535 8
f 117/151/9 116/152/10 131/153/10 130/154/9 

vt 25.275 1.41067e-14
vt 27.4411 1.53156e-14
vn 0.324427 1.59247e-15 -0.945911
v 109.597 18 -37.4711
vt 27.4411 8
vt 25.275 8
f 116/155/10 115/156/11 132/157/11 131/158/10 

vt 26.9907 1.44187e-14
vt 29.1567 1.55758e-14
vn 0.310185 1.6005e-15 -0.950676
v 107.543 18 -38.1584
vt 29.1567 8
vt 26.9907 8
f 115/159/11 114/160/12 133/161/12 132/162/11 

vt 28.7 1.4642e-14
vt 30.866 1.5747e-14
vn 0.295873 1.60816e-15 -0.955227
v 105.479 18 -38.8148
vt 30.866 8
vt 28.7 8
f 114/163/12 113/164/13 134/165/13 133/166/12 

vt 30.4026 1.47763e-14
vt 32.5686 1.5829e-14
vn 0.281494 1.61546e-15 -0.959563
v 103.405 18 -39.4402
vt 32.5686 8
vt 30.4026 8
f 113/167/13 112/168/14 135/169/14 134/170/13 

vt 32.098 1.48216e-14
vt 34.2641 1.58218e-14
vn 0.267052 1.62239e-15 -0.963682
v 101.322 18 -40.0343
vt 34.2641 8
vt 32.098 8
f 112/171/14 111/172/15 136/173/15 135/174/14 

vt 33.786 1.47778e-14
vt 35.9521 1.57252e-14
vn 0.252549 1.62896e-15 -0.967584
v 99.2302 18 -40.597
vt 35.9521 8
vt 33.786 8
f 111/175/15 110/176/16 137/177/16 136/178/15 

vt 35.4662 1.46451e-14
vt 37.6322 1.55395e-14
vn 0.237989 1.63516e-15 -0.971268
v 97.1303 18 -41.1283
vt 37.6322 8
vt 35.4662 8
f 110/179/16 109/180/17 138/181/17 137/182/16 

vt 37.1381 1.44234e-14
vt 39.3041 1.52647e-14
vn 0.223376 1.64099e-15 -0.974732
v 95.0227 18 -41.628
vt 39.3041 8
vt 37.1381 8
f 109/183/17 108/184/18 139/185/18 138/186/17 

vt 38.8013 1.41131e-14
vt 40.9674 1.4901e-14
vn 0.208713 1.64646e-15 -0.977977
v 92.9078 18 -42.096
vt 40.9674 8
vt 38.8013 8
f 108/187/18 107/188/19 140/189/19 139/190/18 

vt 40.4556 1.37145e-14
vt 42.6216 1.44488e-14
vn 0.194002 1.65155e-15 -0.981001
v 90.7861 18 -42.5321
vt 42.6216 8
vt 40.4556 8
f 107/191/19 106/192/20 141/193/20 140/194/19 

vt 42.1005 1.32279e-14
vt 44.2665 1.39084e-14
vn 0.179247 1.65627e-15 -0.983804
v 88.6581 18 -42.9364
vt 44.2665 8
vt 42.1005 8
f 106/195/20 105/196/21 142/197/21 141/198/20 

vt 43.7357 1.26537e-14
vt 45.9017 1.32804e-14
vn 0.164453 1.66061e-15 -0.986385
v 86.5243 18 -43.3086
vt 45.9017 8
vt 43.7357 8
f 105/199/21 104/200/22 143/201/22 142/202/21 

vt 45.3607 1.19926e-14
vt 47.5268 1.25653e-14
vn 0.149621 1.66458e-15 -0.988743
v 84.3851 18 -43.6488
vt 47.5268 8
vt 45.3607 8
f 104/203/22 103/204/23 144/205/23 143/206/22 

vt 46.9753 1.12452e-14
vt 49.1413 1.17637e-14
vn 0.134755 1.66818e-15 -0.990879
v 82.2411 18 -43.9568
vt 49.1413 8
vt 46.9753 8
f 103/207/23 102/208/24 145/209/24 144/210/23 

vt 48.579 1.0412e-14
vt 50.7451 1.08763e-14
vn 0.119859 1.6714e-15 -0.992791
v 80.0927 18 -44.2325
vt 50.7451 8
vt 48.579 8
f 102/211/24 101/212/25 146/213/25 145/214/24 

vt 50.1716 9.49395e-15
vt 52.3376 9.90383e-15
vn 0.104936 1.67424e-15 -0.994479
v 77.9404 18 -44.476
vt 52.3376 8
vt 50.1716 8
f 101/215/25 100/216/26 147/217/26 146/218/25 

vt 51.7525 8.49184e-15
vt 53.9186 8.84726e-15
vn 0.0899888 1.6767e-15 -0.995943
v 75.7846 18 -44.6871
vt 53.9186 8
vt 51.7525 8
f 100/219/26 99/220/27 148/221/27 147/222/26 

vt 53.3216 7.4066e-15
vt 55.4877 7.70747e-15
vn 0.0750217 1.67879e-15 -0.997182
v 73.6259 18 -44.8658
vt 55.4877 8
vt 53.3216 8
f 99/223/27 98/224/28 149/225/28 148/226/27 

vt 54.8784 6.23922e-15
vt 57.0444 6.48548e-15
vn 0.0600377 1.6805e-15 -0.998196
v 71.4648 18 -45.0121
vt 57.0444 8
vt 54.8784 8
f 98/227/28 97/228/29 150/229/29 149/230/28 

vt 56.4226 4.99077e-15
vt 58.5886 5.18237e-15
vn 0.0450401 1.68182e-15 -0.998985
v 69.3018 18 -45.1259
vt 58.5886 8
vt 56.4226 8
f 97/231/29 96/232/30 151/233/30 150/234/29 

vt 57.9538 3.66241e-15
vt 60.1198 3.79929e-15
vn 0.0300324 1.68277e-15 -0.999549
v 67.1373 18 -45.2072
vt 60.1198 8
vt 57.9538 8
f 96/235/30 95/236/31 152/237/31 151/238/30 

vt 59.4716 2.25534e-15
vt 61.6377 2.33748e-15
vn 0.0150179 1.68334e-15 -0.999887
v 64.9718 18 -45.256
vt 61.6377 8
vt 59.4716 8
f 95/239/31 94/240/32 153/241/32 152/242/31 

vt 60.9759 7.70851e-16
vt 63.1419 7.98234e-16
vn -7.81706e-12 1.68353e-15 -1
v 62.8058 18 -45.2723
vt 63.1419 8
vt 60.9759 8
f 94/243/32 93/244/33 154/245/33 153/246/32 

vt 62.4661 -7.89691e-16
vt 64.6321 -8.17074e-16
vn -0.0150179 1.68334e-15 -0.999887
v 60.6398 18 -45.256
vt 64.6321 8
vt 62.4661 8
f 93/247/33 92/248/34 155/249/34 154/250/33 

vt 63.942 -2.42486e-15
vt 66.108 -2.50701e-15
vn -0.0300324 1.68277e-15 -0.999549
v 58.4743 18 -45.2072
vt 66.108 8
vt 63.942 8
f 92/251/34 91/252/35 156/253/35 155/254/34 

vt 65.4032 -4.13318e-15
vt 67.5693 -4.27006e-15
vn -0.0450401 1.68182e-15 -0.998985
v 56.3098 18 -45.1259
vt 67.5693 8
vt 65.4032 8
f 91/255/35 90/256/36 157/257/36 156/258/35 

vt 66.8494 -5.91307e-15
vt 69.0155 -6.10466e-15
vn -0.0600377 1.6805e-15 -0.998196
v 54.1467 18 -45.0121
vt 69.0155 8
vt 66.8494 8
f 90/259/36 89/260/37 158/261/37 157/262/36 

vt 68.2803 -7.76291e-15
vt 70.4464 -8.00917e-15
vn -0.0750217 1.67879e-15 -0.997182
v 51.9856 18 -44.8658
vt 70.4464 8
vt 68.2803 8
f 89/263/37 88/264/38 159/265/38 158/266/37 

vt 69.6956 -9.68102e-15
vt 71.8617 -9.98189e-15
vn -0.0899888 1.6767e-15 -0.995943
v 49.8269 18 -44.6871
vt 71.8617 8
vt 69.6956 8
f 88/267/38 87/268/39 160/269/39 159/270/38 

vt 71.0949 -1.16656e-14
vt 73.261 -1.20211e-14
vn -0.104936 1.67424e-15 -0.994479
v 47.6712 18 -44.476
vt 73.261 8
vt 71.0949 8
f 87/271/39 86/272/40 161/273/40 160/274/39 

vt 72.4779 -1.3715e-14
vt 74.644 -1.41249e-14
vn -0.119859 1.6714e-15 -0.992791
v 45.5189 18 -44.2325
vt 74.644 8
vt 72.4779 8
f 86/275/40 85/276/41 162/277/41 161/278/40 

vt 73.8444 -1.58272e-14
vt 76.0104 -1.62914e-14
vn -0.134755 1.66818e-15 -0.990879
v 43.3704 18 -43.9568
vt 76.0104 8
vt 73.8444 8
f 85/279/41 84/280/42 163/281/42 162/282/41 

vt 75.1939 -1.80003e-14
vt 77.3599 -1.85188e-14
vn -0.149621 1.66458e-15 -0.988743
v 41.2264 18 -43.6488
vt 77.3599 8
vt 75.1939 8
f 84/283/42 83/284/43 164/285/43 163/286/42 

vt 76.5262 -2.02323e-14
vt 78.6923 -2.0805e-14
vn -0.164453 1.66061e-15 -0.986385
v 39.0872 18 -43.3086
vt 78.6923 8
vt 76.5262 8
f 83/287/43 82/288/44 165/289/44 164/290/43 

vt 77.841 -2.25212e-14
vt 80.0071 -2.31479e-14
vn -0.179247 1.65627e-15 -0.983804
v 36.9534 18 -42.9364
vt 80.0071 8
vt 77.841 8
f 82/291/44 81/292/45 166/293/45 165/294/44 

vt 79.138 -2.4865e-14
vt 81.3041 -2.55456e-14
vn -0.194002 1.65155e-15 -0.981001
v 34.8254 18 -42.5321
vt 81.3041 8
vt 79.138 8
f 81/295/45 80/296/46 167/297/46 166/298/45 

vt 80.417 -2.72614e-14
vt 82.583 -2.79957e-14
vn -0.208713 1.64646e-15 -0.977977
v 32.7037 18 -42.096
vt 82.583 8
vt 80.417 8
f 80/299/46 79/300/47 168/301/47 167/302/46 

vt 81.6775 -2.97084e-14
vt 83.8436 -3.04963e-14
vn -0.223376 1.64099e-15 -0.974732
v 30.5888 18 -41.628
vt 83.8436 8
vt 81.6775 8
f 79/303/47 78/304/48 169/305/48 168/306/47 

vt 82.9194 -3.22037e-14
vt 85.0854 -3.30449e-14
vn -0.237989 1.63516e-15 -0.971268
v 28.4812 18 -41.1283
vt 85.0854 8
vt 82.9194 8
f 78/307/48 77/308/49 170/309/49 169/310/48 

vt 84.1423 -3.47449e-14
vt 86.3084 -3.56394e-14
vn -0.252549 1.62896e-15 -0.967584
v 26.3813 18 -40.597
vt 86.3084 8
vt 84.1423 8
f 77/311/49 76/312/50 171/313/50 170/314/49 

vt 85.346 -3.73299e-14
vt 87.5121 -3.82773e-14
vn -0.267052 1.62239e-15 -0.963682
v 24.2897 18 -40.0343
vt 87.5121 8
vt 85.346 8
f 76/315/50 75/316/51 172/317/51 171/318/50 

vt 86.5302 -3.99562e-14
vt 88.6963 -4.09564e-14
vn -0.281494 1.61546e-15 -0.959563
v 22.2067 18 -39.4402
vt 88.6963 8
vt 86.5302 8
f 75/319/51 74/320/52 173/321/52 172/322/51 

vt 87.6947 -4.26215e-14
vt 89.8607 -4.36743e-14
vn -0.295873 1.60816e-15 -0.955227
v 20.1329 18 -38.8148
vt 89.8607 8
vt 87.6947 8
f 74/323/52 73/324/53 174/325/53 173/326/52 

vt 88.8391 -4.53234e-14
vt 91.0052 -4.64284e-14
vn -0.310185 1.6005e-15 -0.950676
v 18.0687 18 -38.1584
vt 91.0052 8
vt 88.8391 8
f 73/327/53 72/328/54 175/329/54 174/330/53 

vt 89.9633 -4.80593e-14
vt 92.1293 -4.92164e-14
vn -0.324427 1.59247e-15 -0.945911
v 16.0145 18 -37.4711
vt 92.1293 8
vt 89.9633 8
f 72/331/54 71/332/55 176/333/55 175/334/54 

vt 91.0669 -5.08268e-14
vt 93.2329 -5.20358e-14
vn -0.338596 1.58409e-15 -0.940932
v 13.971 18 -36.753
vt 93.2329 8
vt 91.0669 8
f 71/335/55 70/336/56 177/337/56 176/338/55 

vt 92.1497 -5.36235e-14
vt 94.3157 -5.48839e-14
vn -0.352689 1.57535e-15 -0.935741
v 11.9384 18 -36.0043
vt 94.3157 8
vt 92.1497 8
f 70/339/56 69/340/57 178/341/57 177/342/56 

vt 93.2115 -5.64466e-14
vt 95.3775 -5.77583e-14
vn -0.366702 1.56626e-15 -0.930339
v 9.91738 18 -35.2252
vt 95.3775 8
vt 93.2115 8
f 69/343/57 68/344/58 179/345/58 178/346/57 

vt 94.252 -5.92938e-14
vt 96.4181 -6.06565e-14
vn -0.380632 1.55681e-15 -0.924727
v 7.90824 18 -34.4158
vt 96.4181 8
vt 94.252 8
f 68/347/58 67/348/59 180/349/59 179/350/58 

vt 95.271 -6.21624e-14
vt 97.4371 -6.35757e-14
vn -0.394477 1.54701e-15 -0.918906
v 5.91149 18 -33.5763
vt 97.4371 8
vt 95.271 8
f 67/351/59 66/352/60 181/353/60 180/354/59 

vt 96.2683 -6.50497e-14
vt 98.4344 -6.65133e-14
vn -0.408232 1.53686e-15 -0.912878
v 3.92756 18 -32.7069
vt 98.4344 8
vt 96.2683 8
f 66/355/60 65/356/61 182/357/61 181/358/60 

vt 97.2437 -6.79532e-14
vt 99.4097 -6.94669e-14
vn -0.421896 1.52637e-15 -0.906644
v 1.95692 18 -31.8078
vt 99.4097 8
vt 97.2437 8
f 65/359/61 64/360/62 183/361/62 182/362/61 

vt 98.1968 -7.08703e-14
vt 100.363 -7.24336e-14
vn -0.428692 1.52099e-15 -0.903451
v -4.26326e-14 18 -30.8793
vt 100.363 8
vt 98.1968 8
f 64/363/62 63/364/63 184/365/63 183/366/62 

vt -82.2519 1.24655e-13
vn -0.900206 -7.33118e-16 0.435464
vt -48.2519 7.31271e-14
v 14.8058 18 -0.272271
vt -48.2519 8
vt -82.2519 8
f 63/367/64 62/368/64 185/369/64 184/370/64 

vt -100.108 -7.22493e-14
vn 0.428692 -1.52099e-15 0.903451
vt -98.4521 -7.10546e-14
vn 0.421896 -1.52637e-15 0.906644
v 16.3014 18 -0.981939
vt -98.4521 8
vt -100.108 8
f 62/371/65 61/372/66 186/373/66 185/374/65 

vt -99.1544 -6.92885e-14
vt -97.499 -6.81317e-14
vn 0.408232 -1.53686e-15 0.912878
v 17.8075 18 -1.66907
vt -97.499 8
vt -99.1544 8
f 61/375/66 60/376/67 187/377/67 186/378/66 

vt -98.1791 -6.63408e-14
vt -96.5236 -6.52222e-14
vn 0.394477 -1.54701e-15 0.918906
v 19.3237 18 -2.3335
vt -96.5236 8
vt -98.1791 8
f 60/379/67 59/380/68 188/381/68 187/382/67 

vt -97.1818 -6.34091e-14
vt -95.5263 -6.23289e-14
vn 0.380632 -1.55681e-15 0.924727
v 20.8497 18 -2.97508
vt -95.5263 8
vt -97.1818 8
f 59/383/68 58/384/69 189/385/69 188/386/68 

vt -96.1628 -6.04958e-14
vt -94.5073 -5.94544e-14
vn 0.366702 -1.56626e-15 0.930339
v 22.3852 18 -3.59368
vt -94.5073 8
vt -96.1628 8
f 58/387/69 57/388/70 190/389/70 189/390/69 

vt -95.1222 -5.76037e-14
vt -93.4668 -5.66012e-14
vn 0.352689 -1.57535e-15 0.935741
v 23.9299 18 -4.18915
vt -93.4668 8
vt -95.1222 8
f 57/391/70 56/392/71 191/393/71 190/394/70 

vt -94.0604 -5.47353e-14
vt -92.405 -5.3772e-14
vn 0.338596 -1.58409e-15 0.940932
v 25.4833 18 -4.76135
vt -92.405 8
vt -94.0604 8
f 56/395/71 55/396/72 192/397/72 191/398/71 

vt -92.9776 -5.18933e-14
vt -91.3222 -5.09693e-14
vn 0.324427 -1.59247e-15 0.945911
v 27.0451 18 -5.31016
vt -91.3222 8
vt -92.9776 8
f 55/399/72 54/400/73 193/401/73 192/402/72 

vt -91.874 -4.908e-14
vt -90.2186 -4.81957e-14
vn 0.310185 -1.6005e-15 0.950676
v 28.6149 18 -5.83545
vt -90.2186 8
vt -91.874 8
f 54/403/73 53/404/74 194/405/74 193/406/73 

vt -90.7498 -4.62982e-14
vt -89.0944 -4.54536e-14
vn 0.295873 -1.60816e-15 0.955227
v 30.1925 18 -6.33711
vt -89.0944 8
vt -90.7498 8
f 53/407/74 52/408/75 195/409/75 194/410/74 

vt -89.6054 -4.35502e-14
vt -87.95 -4.27456e-14
vn 0.281494 -1.61546e-15 0.959563
v 31.7775 18 -6.81501
vt -87.95 8
vt -89.6054 8
f 52/411/75 51/412/76 196/413/76 195/414/75 

vt -88.441 -4.08385e-14
vt -86.7855 -4.00741e-14
vn 0.267052 -1.62239e-15 0.963682
v 33.3694 18 -7.26906
vt -86.7855 8
vt -88.441 8
f 51/415/76 50/416/77 197/417/77 196/418/76 

vt -87.2568 -3.81656e-14
vt -85.6013 -3.74416e-14
vn 0.252549 -1.62896e-15 0.967584
v 34.968 18 -7.69916
vt -85.6013 8
vt -87.2568 8
f 50/419/77 49/420/78 198/421/78 197/422/77 

vt -86.0531 -3.55339e-14
vt -84.3976 -3.48503e-14
vn 0.237989 -1.63516e-15 0.971268
v 36.5729 18 -8.10519
vt -84.3976 8
vt -86.0531 8
f 49/423/78 48/424/79 199/425/79 198/426/78 

vt -84.8301 -3.29457e-14
vt -83.1747 -3.23028e-14
vn 0.223376 -1.64099e-15 0.974732
v 38.1836 18 -8.48708
vt -83.1747 8
vt -84.8301 8
f 48/427/79 47/428/80 200/429/80 199/430/79 

vt -83.5882 -3.04034e-14
vt -81.9328 -2.98013e-14
vn 0.208713 -1.64646e-15 0.977977
v 39.8 18 -8.84474
vt -81.9328 8
vt -83.5882 8
f 47/431/80 46/432/81 201/433/81 200/434/80 

vt -82.3277 -2.79092e-14
vt -80.6723 -2.7348e-14
vn 0.194002 -1.65155e-15 0.981001
v 41.4215 18 -9.17808
vt -80.6723 8
vt -82.3277 8
f 46/435/81 45/436/82 202/437/82 201/438/81 

vt -81.0488 -2.54653e-14
vt -79.3934 -2.49452e-14
vn 0.179247 -1.65627e-15 0.983804
v 43.0478 18 -9.48703
vt -79.3934 8
vt -81.0488 8
f 45/439/82 44/440/83 203/441/83 202/442/82 

vt -79.7518 -2.3074e-14
vt -78.0963 -2.25951e-14
vn 0.164453 -1.66061e-15 0.986385
v 44.6786 18 -9.77153
vt -78.0963 8
vt -79.7518 8
f 44/443/83 43/444/84 204/445/84 203/446/83 

vt -78.4369 -2.07375e-14
vt -76.7815 -2.02998e-14
vn 0.149621 -1.66458e-15 0.988743
v 46.3135 18 -10.0315
vt -76.7815 8
vt -78.4369 8
f 43/447/84 42/448/85 205/449/85 204/450/84 

vt -77.1046 -1.84577e-14
vt -75.4492 -1.80614e-14
vn 0.134755 -1.66818e-15 0.990879
v 47.9521 18 -10.2669
vt -75.4492 8
vt -77.1046 8
f 42/451/85 41/452/86 206/453/86 205/454/85 

vt -75.7551 -1.62367e-14
vt -74.0997 -1.58819e-14
vn 0.119859 -1.6714e-15 0.992791
v 49.5941 18 -10.4776
vt -74.0997 8
vt -75.7551 8
f 41/455/86 40/456/87 207/457/87 206/458/86 

vt -74.3887 -1.40765e-14
vt -72.7332 -1.37633e-14
vn 0.104936 -1.67424e-15 0.994479
v 51.239 18 -10.6637
vt -72.7332 8
vt -74.3887 8
f 40/459/87 39/460/88 208/461/88 207/462/87 

vt -73.0056 -1.19792e-14
vt -71.3502 -1.17075e-14
vn 0.0899888 -1.6767e-15 0.995943
v 52.8866 18 -10.8251
vt -71.3502 8
vt -73.0056 8
f 39/463/88 38/464/89 209/465/89 208/466/88 

vt -71.6063 -9.94643e-15
vt -69.9509 -9.71648e-15
vn 0.0750217 -1.67879e-15 0.997182
v 54.5363 18 -10.9616
vt -69.9509 8
vt -71.6063 8
f 38/467/89 37/468/90 210/469/90 209/470/89 

vt -70.1911 -7.98014e-15
vt -68.5357 -7.79194e-15
vn 0.0600377 -1.6805e-15 0.998196
v 56.188 18 -11.0734
vt -68.5357 8
vt -70.1911 8
f 37/471/90 36/472/91 211/473/91 210/474/90 

vt -68.7602 -6.08208e-15
vt -67.1048 -5.93565e-15
vn 0.0450401 -1.68182e-15 0.998985
v 57.8411 18 -11.1604
vt -67.1048 8
vt -68.7602 8
f 36/475/91 35/476/92 212/477/92 211/478/91 

vt -67.3139 -4.25393e-15
vt -65.6585 -4.14931e-15
vn 0.0300324 -1.68277e-15 0.999549
v 59.4954 18 -11.2225
vt -65.6585 8
vt -67.3139 8
f 35/479/92 34/480/93 213/481/93 212/482/92 

vt -65.8527 -2.49733e-15
vt -64.1973 -2.43455e-15
vn 0.0150179 -1.68334e-15 0.999887
v 61.1504 18 -11.2598
vt -64.1973 8
vt -65.8527 8
f 34/483/93 33/484/94 214/485/94 213/486/93 

vt -64.3768 -8.13846e-16
vt -62.7214 -7.92919e-16
vn 7.82111e-12 -1.68353e-15 1
v 62.8058 18 -11.2723
vt -62.7214 8
vt -64.3768 8
f 33/487/94 32/488/95 215/489/95 214/490/94 

vt -62.8866 7.95007e-16
vt -61.2312 7.74079e-16
vn -0.0150179 -1.68334e-15 0.999887
v 64.4612 18 -11.2598
vt -61.2312 8
vt -62.8866 8
f 32/491/95 31/492/96 216/493/96 215/494/95 

vt -61.3824 2.3278e-15
vt -59.727 2.26502e-15
vn -0.0300324 -1.68277e-15 0.999549
v 66.1162 18 -11.2225
vt -59.727 8
vt -61.3824 8
f 31/495/96 30/496/97 217/497/97 216/498/96 

vt -59.8645 3.78316e-15
vt -58.2091 3.67854e-15
vn -0.0450401 -1.68182e-15 0.998985
v 67.7704 18 -11.1604
vt -58.2091 8
vt -59.8645 8
f 30/499/97 29/500/98 218/501/98 217/502/97 

vt -58.3333 5.15978e-15
vt -56.6779 5.01335e-15
vn -0.0600377 -1.6805e-15 0.998196
v 69.4236 18 -11.0734
vt -56.6779 8
vt -58.3333 8
f 29/503/98 28/504/99 219/505/99 218/506/98 

vt -56.7891 6.45645e-15
vt -55.1337 6.26824e-15
vn -0.0750217 -1.67879e-15 0.997182
v 71.0752 18 -10.9616
vt -55.1337 8
vt -56.7891 8
f 28/507/99 27/508/100 220/509/100 219/510/99 

vt -55.2323 7.67201e-15
vt -53.5769 7.44206e-15
vn -0.0899888 -1.6767e-15 0.995943
v 72.725 18 -10.8251
vt -53.5769 8
vt -55.2323 8
f 27/511/100 26/512/101 221/513/101 220/514/100 

vt -53.6633 8.80537e-15
vt -52.0079 8.53374e-15
vn -0.104936 -1.67424e-15 0.994479
v 74.3725 18 -10.6637
vt -52.0079 8
vt -53.6633 8
f 26/515/101 25/516/102 222/517/102 221/518/101 

vt -52.0823 9.85552e-15
vt -50.4269 9.54227e-15
vn -0.119859 -1.6714e-15 0.992791
v 76.0175 18 -10.4776
vt -50.4269 8
vt -52.0823 8
f 25/519/102 24/520/103 223/521/103 222/522/102 

vt -50.4898 1.08215e-14
vt -48.8343 1.04667e-14
vn -0.134755 -1.66818e-15 0.990879
v 77.6594 18 -10.2669
vt -48.8343 8
vt -50.4898 8
f 24/523/103 23/524/104 224/525/104 223/526/103 

vt -48.886 1.17026e-14
vt -47.2306 1.13063e-14
vn -0.149621 -1.66458e-15 0.988743
v 79.298 18 -10.0315
vt -47.2306 8
vt -48.886 8
f 23/527/104 22/528/105 225/529/105 224/530/104 

vt -47.2714 1.24978e-14
vt -45.616 1.20601e-14
vn -0.164453 -1.66061e-15 0.986385
v 80.9329 18 -9.77153
vt -45.616 8
vt -47.2714 8
f 22/531/105 21/532/106 226/533/106 225/534/105 

vt -45.6464 1.32066e-14
vt -43.991 1.27276e-14
vn -0.179247 -1.65627e-15 0.983804
v 82.5637 18 -9.48703
vt -43.991 8
vt -45.6464 8
f 21/535/106 20/536/107 227/537/107 226/538/106 

vt -44.0112 1.38282e-14
vt -42.3558 1.33081e-14
vn -0.194002 -1.65155e-15 0.981001
v 84.1901 18 -9.17808
vt -42.3558 8
vt -44.0112 8
f 20/539/107 19/540/108 228/541/108 227/542/107 

vt -42.3663 1.43622e-14
vt -40.7109 1.3801e-14
vn -0.208713 -1.64646e-15 0.977977
v 85.8116 18 -8.84474
vt -40.7109 8
vt -42.3663 8
f 19/543/108 18/544/109 229/545/109 228/546/108 

vt -40.7121 1.48081e-14
vt -39.0566 1.4206e-14
vn -0.223376 -1.64099e-15 0.974732
v 87.4279 18 -8.48708
vt -39.0566 8
vt -40.7121 8
f 18/547/109 17/548/110 230/549/110 229/550/109 

vt -39.0488 1.51655e-14
vt -37.3934 1.45226e-14
vn -0.237989 -1.63516e-15 0.971268
v 89.0387 18 -8.10519
vt -37.3934 8
vt -39.0488 8
f 17/551/110 16/552/111 231/553/111 230/554/110 

vt -37.3769 1.54341e-14
vt -35.7215 1.47505e-14
vn -0.252549 -1.62896e-15 0.967584
v 90.6436 18 -7.69916
vt -35.7215 8
vt -37.3769 8
f 16/555/111 15/556/112 232/557/112 231/558/111 

vt -35.6968 1.56136e-14
vt -34.0413 1.48895e-14
vn -0.267052 -1.62239e-15 0.963682
v 92.2421 18 -7.26906
vt -34.0413 8
vt -35.6968 8
f 15/559/112 14/560/113 233/561/113 232/562/112 

vt -34.0088 1.57039e-14
vt -32.3533 1.49395e-14
vn -0.281494 -1.61546e-15 0.959563
v 93.8341 18 -6.81501
vt -32.3533 8
vt -34.0088 8
f 14/563/113 13/564/114 234/565/114 233/566/113 

vt -32.3133 1.5705e-14
vt -30.6579 1.49004e-14
vn -0.295873 -1.60816e-15 0.955227
v 95.419 18 -6.33711
vt -30.6579 8
vt -32.3133 8
f 13/567/114 12/568/115 235/569/115 234/570/114 

vt -30.6107 1.56168e-14
vt -28.9553 1.47722e-14
vn -0.310185 -1.6005e-15 0.950676
v 96.9966 18 -5.83545
vt -28.9553 8
vt -30.6107 8
f 12/571/115 11/572/116 236/573/116 235/574/115 

vt -28.9014 1.54394e-14
vt -27.246 1.45551e-14
vn -0.324427 -1.59247e-15 0.945911
v 98.5665 18 -5.31016
vt -27.246 8
vt -28.9014 8
f 11/575/116 10/576/117 237/577/117 236/578/116 

vt -27.1858 1.51731e-14
vt -25.5303 1.42492e-14
vn -0.338596 -1.58409e-15 0.940932
v 100.128 18 -4.76135
vt -25.5303 8
vt -27.1858 8
f 10/579/117 9/580/118 238/581/118 237/582/117 

vt -25.4642 1.4818e-14
vt -23.8088 1.38547e-14
vn -0.352689 -1.57535e-15 0.935741
v 101.682 18 -4.18915
vt -23.8088 8
vt -25.4642 8
f 9/583/118 8/584/119 239/585/119 238/586/118 

vt -23.7371 1.43746e-14
vt -22.0816 1.33721e-14
vn -0.366702 -1.56626e-15 0.930339
v 103.226 18 -3.59368
vt -22.0816 8
vt -23.7371 8
f 8/587/119 7/588/120 240/589/120 239/590/119 

vt -22.0048 1.38432e-14
vt -20.3493 1.28017e-14
vn -0.380632 -1.55681e-15 0.924727
v 104.762 18 -2.97508
vt -20.3493 8
vt -22.0048 8
f 7/591/120 6/592/121 241/593/121 240/594/120 

vt -20.2677 1.32242e-14
vt -18.6123 1.21441e-14
vn -0.394477 -1.54701e-15 0.918906
v 106.288 18 -2.3335
vt -18.6123 8
vt -20.2677 8
f 6/595/121 5/596/122 242/597/122 241/598/121 

vt -18.5262 1.25184e-14
vt -16.8708 1.13998e-14
vn -0.408232 -1.53686e-15 0.912878
v 107.804 18 -1.66907
vt -16.8708 8
vt -18.5262 8
f 5/599/122 4/600/123 243/601/123 242/602/122 

vt -16.7808 1.17263e-14
vt -15.1253 1.05695e-14
vn -0.421896 -1.52637e-15 0.906644
v 109.31 18 -0.981939
vt -15.1253 8
vt -16.7808 8
f 4/603/123 3/604/124 244/605/124 243/606/123 

vt -15.0317 1.08486e-14
vt -13.3763 9.65389e-15
vn -0.428692 -1.52099e-15 0.903451
vt -13.3763 8
vt -15.0317 8
f 3/607/124 2/608/125 124/609/125 244/610/124 

vt 4.67698e-09 14.8058
vn -1.97748e-25 1 1.68353e-15
vt 30.607 7.00174e-09
vt 31.5356 1.95692
vt 32.4347 3.92756
vt 33.304 5.91149
vt 34.1435 7.90824
vt 34.9529 9.91738
vt 35.7321 11.9384
vt 36.4808 13.971
vt 37.1989 16.0145
vt 37.8862 18.0687
vt 38.5426 20.1329
vt 39.1679 22.2067
vt 39.762 24.2897
vt 40.3247 26.3813
vt 40.856 28.4812
vt 41.3557 30.5888
vt 41.8237 32.7037
vt 42.2598 34.8254
vt 42.6641 36.9534
vt 43.0363 39.0872
vt 43.3765 41.2264
vt 43.6845 43.3704
vt 43.9603 45.5189
vt 44.2037 47.6712
vt 44.4148 49.8269
vt 44.5936 51.9856
vt 44.7398 54.1467
vt 44.8536 56.3098
vt 44.9349 58.4743
vt 44.9837 60.6398
vt 45 62.8058
vt 44.9837 64.9718
vt 44.9349 67.1373
vt 44.8536 69.3018
vt 44.7398 71.4648
vt 44.5936 73.6259
vt 44.4148 75.7846
vt 44.2037 77.9404
vt 43.9603 80.0927
vt 43.6845 82.2411
vt 43.3765 84.3851
vt 43.0363 86.5243
vt 42.6641 88.6581
vt 42.2598 90.7861
vt 41.8237 92.9078
vt 41.3557 95.0227
vt 40.856 97.1303
vt 40.3247 99.2302
vt 39.762 101.322
vt 39.1679 103.405
vt 38.5426 105.479
vt 37.8862 107.543
vt 37.1989 109.597
vt 36.4808 111.641
vt 35.7321 113.673
vt 34.9529 115.694
vt 34.1435 117.703
vt 33.304 119.7
vt 32.4347 121.684
vt 31.5356 123.655
vt 30.607 125.612
vt 3.92778e-09 110.806
vt 0.709668 109.31
vt 1.3968 107.804
vt 2.06123 106.288
vt 2.70281 104.762
vt 3.32141 103.226
vt 3.91688 101.682
vt 4.48908 100.128
vt 5.03789 98.5665
vt 5.56318 96.9966
vt 6.06483 95.419
vt 6.54274 93.8341
vt 6.99679 92.2421
vt 7.42689 90.6436
vt 7.83292 89.0387
vt 8.21481 87.4279
vt 8.57247 85.8116
vt 8.90581 84.1901
vt 9.21476 82.5637
vt 9.49926 80.9329
vt 9.75923 79.298
vt 9.99461 77.6594
vt 10.2054 76.0175
vt 10.3914 74.3725
vt 10.5528 72.725
vt 10.6894 71.0752
vt 10.8012 69.4236
vt 10.8881 67.7704
vt 10.9503 66.1162
vt 10.9876 64.4612
vt 11 62.8058
vt 10.9876 61.1504
vt 10.9503 59.4954
vt 10.8881 57.8411
vt 10.8012 56.188
vt 10.6894 54.5363
vt 10.5528 52.8866
vt 10.3914 51.239
vt 10.2054 49.5941
vt 9.99461 47.9521
vt 9.75923 46.3135
vt 9.49926 44.6786
vt 9.21476 43.0478
vt 8.90581 41.4215
vt 8.57247 39.8
vt 8.21481 38.1836
vt 7.83292 36.5729
vt 7.42689 34.968
vt 6.99679 33.3694
vt 6.54274 31.7775
vt 6.06483 30.1925
vt 5.56318 28.6149
vt 5.03789 27.0451
vt 4.48908 25.4833
vt 3.91688 23.9299
vt 3.32141 22.3852
vt 2.70281 20.8497
vt 2.06123 19.3237
vt 1.3968 17.8075
vt 0.709668 16.3014
f 124/611/126 123/612/126 125/613/126 126/614/126 127/615/126 128/616/126 129/617/126 130/618/126 131/619/126 132/620/126 133/621/126 134/622/126 135/623/126 136/624/126 137/625/126 138/626/126 139/627/126 140/628/126 141/629/126 142/630/126 143/631/126 144/632/126 145/633/126 146/634/126 147/635/126 148/636/126 149/637/126 150/638/126 151/639/126 152/640/126 153/641/126 154/642/126 155/643/126 156/644/126 157/645/126 158/646/126 159/647/126 160/648/126 161/649/126 162/650/126 163/651/126 164/652/126 165/653/126 166/654/126 167/655/126 168/656/126 169/657/126 170/658/126 171/659/126 172/660/126 173/661/126 174/662/126 175/663/126 176/664/126 177/665/126 178/666/126 179/667/126 180/668/126 181/669/126 182/670/126 183/671/126 184/672/126 185/673/126 186/674/126 187/675/126 188/676/126 189/677/126 190/678/126 191/679/126 192/680/126 193/681/126 194/682/126 195/683/126 196/684/126 197/685/126 198/686/126 199/687/126 200/688/126 201/689/126 202/690/126 203/691/126 204/692/126 205/693/126 206/694/126 207/695/126 208/696/126 209/697/126 210/698/126 211/699/126 212/700/126 213/701/126 214/702/126 215/703/126 216/704/126 217/705/126 218/706/126 219/707/126 220/708/126 221/709/126 222/710/126 223/711/126 224/712/126 225/713/126 226/714/126 227/715/126 228/716/126 229/717/126 230/718/126 231/719/126 232/720/126 233/721/126 234/722/126 235/723/126 236/724/126 237/725/126 238/726/126 239/727/126 240/728/126 241/729/126 242/730/126 243/731/126 244/732/126 

g Mesh2 Group4 Group3 Group1 Model

usemtl _Color_M05_4
v 15.2738 8 -1.60121
vt -1.32894 110.338
vn 2.41043e-26 -1 -1.68353e-15
v 17.8075 8 -1.66907
v 16.3014 8 -0.981939
f 245/733/127 246/60/127 247/61/127

v 15.8795 8 -1.88861
vt -1.61634 109.732
f 246/60/127 245/733/127 248/734/127

vt 98.4446 -7.10492e-14
vt 99.115 -7.1533e-14
v 15.2738 10 -1.60121
vt 99.115 2
v 15.8795 10 -1.88861
vt 98.4446 2
f 248/735/62 245/736/63 249/737/63 250/738/62 

vt 49.2444 7.46313e-14
vn 0.900206 7.33118e-16 -0.435464
v 1.33895 8 -30.4078
vt 81.2444 1.23128e-13
v 1.33895 10 -30.4078
vt 81.2444 2
vt 49.2444 2
f 245/739/128 251/740/128 252/741/128 249/742/128 

v 4.12115e-13 8 -30.8793
vt -30.1355 124.273
f 245/733/127 253/63/127 251/743/127

v 14.8058 8 -0.272271
f 245/733/127 254/62/127 253/63/127

f 254/62/127 245/733/127 247/61/127

v 16.3014 10 -0.981939
vt -98.4521 2
vt -100.108 2
f 254/371/65 247/372/66 255/744/66 62/745/65 

v 17.8075 10 -1.66907
vt -97.499 2
vt -99.1544 2
f 247/375/66 246/376/67 256/746/67 255/747/66 

v 19.3237 8 -2.3335
v 19.3237 10 -2.3335
vt -96.5236 2
vt -98.1791 2
f 246/379/67 257/380/68 258/748/68 256/749/67 

f 246/60/127 248/734/127 257/59/127

v 17.3992 8 -2.58197
vt -2.3097 108.212
f 257/59/127 248/734/127 259/750/127

vt 97.4915 -6.81264e-14
vt 99.1619 -6.92937e-14
vt 99.1619 2
v 17.3992 10 -2.58197
vt 97.4915 2
f 259/751/61 248/752/62 250/753/62 260/754/61 

vt 1.61634 109.732
vn -2.41043e-26 1 1.68353e-15
vt 2.3097 108.212
f 250/755/129 258/676/129 260/756/129

f 250/755/129 256/675/129 258/676/129

vt 1.32894 110.338
f 249/757/129 256/675/129 250/755/129

f 256/675/129 249/757/129 255/674/129

vt 3.92777e-09 110.806
f 249/757/129 62/758/129 255/674/129

v 4.12115e-13 10 -30.8793
f 62/758/129 249/757/129 261/672/129

vt 30.1355 124.273
f 261/672/129 249/757/129 252/759/129

v 2.37883 10 -30.9012
vt 30.6289 123.233
f 261/672/129 252/759/129 262/760/129

vt -99.3553 -7.17064e-14
v 2.37883 8 -30.9012
vt -98.2043 -7.08757e-14
vt -98.2043 2
vt -99.3553 2
f 251/761/65 263/762/66 262/763/66 252/764/65 

vt -30.6289 123.233
f 251/743/127 253/63/127 263/765/127

v 1.95692 8 -31.8078
f 263/765/127 253/63/127 264/64/127

vt 100.363 2
v 1.95692 10 -31.8078
vt 98.1968 2
f 264/363/62 253/364/63 261/766/63 265/767/62 

vt -48.2519 2
vt -82.2519 2
f 253/367/64 254/368/64 62/768/64 261/769/64 

f 261/672/129 262/760/129 265/671/129

v 4.33581 10 -31.794
vt 31.5217 121.276
f 265/671/129 262/760/129 266/770/129

vt -99.4022 -6.94616e-14
v 4.33581 8 -31.794
vt -97.2512 -6.79585e-14
vt -97.2512 2
vt -99.4022 2
f 263/771/66 267/772/67 266/773/67 262/774/66 

vt -31.5217 121.276
f 263/765/127 264/64/127 267/775/127

v 6.30598 8 -32.6574
vt -32.3851 119.306
f 267/775/127 264/64/127 268/776/127

v 3.92756 8 -32.7069
f 268/776/127 264/64/127 269/65/127

vt 99.4097 2
vt 97.2437 2
f 269/359/61 264/360/62 265/777/62 65/778/61 

v 6.30598 10 -32.6574
vt 32.3851 119.306
f 265/671/129 270/779/129 65/670/129

f 265/671/129 266/770/129 270/779/129

vt -98.4269 -6.65083e-14
vt -96.2758 -6.50548e-14
vt -96.2758 2
vt -98.4269 2
f 267/780/67 268/781/68 270/782/68 266/783/67 

vt -97.4296 -6.35708e-14
v 8.28889 8 -33.491
vt -95.2785 -6.21673e-14
v 8.28889 10 -33.491
vt -95.2785 2
vt -97.4296 2
f 268/784/68 271/785/69 272/786/69 270/787/68 

vt -33.2188 117.323
f 268/776/127 269/65/127 271/788/127

v 5.91149 8 -33.5763
f 271/788/127 269/65/127 273/66/127

vt 98.4344 2
v 5.91149 10 -33.5763
vt 96.2683 2
f 273/355/60 269/356/61 65/789/61 274/790/60 

vt 33.2188 117.323
f 65/670/129 272/791/129 274/669/129

f 65/670/129 270/779/129 272/791/129

v 10.2841 10 -34.2948
vt 34.0226 115.327
f 274/669/129 272/791/129 275/792/129

vt -96.4106 -6.06517e-14
v 10.2841 8 -34.2948
vt -94.2595 -5.92985e-14
vt -94.2595 2
vt -96.4106 2
f 271/793/69 276/794/70 275/795/70 272/796/69 

vt -34.0226 115.327
f 271/788/127 273/66/127 276/797/127

v 7.90824 8 -34.4158
f 276/797/127 273/66/127 277/67/127

vt 97.4371 2
v 7.90824 10 -34.4158
vt 95.271 2
f 277/351/59 273/352/60 274/798/60 278/799/59 

f 274/669/129 275/792/129 278/668/129

v 12.2911 10 -35.0686
vt 34.7963 113.32
f 278/668/129 275/792/129 279/800/129

vt -95.37 -5.77538e-14
v 12.2911 8 -35.0686
vt -93.219 -5.64512e-14
vt -93.219 2
vt -95.37 2
f 276/801/70 280/802/71 279/803/71 275/804/70 

vt -34.7963 113.32
f 276/797/127 277/67/127 280/805/127

v 9.91738 8 -35.2252
f 280/805/127 277/67/127 281/68/127

vt 96.4181 2
v 9.91738 10 -35.2252
vt 94.252 2
f 281/347/58 277/348/59 278/806/59 282/807/58 

f 278/668/129 279/800/129 282/667/129

v 14.3096 10 -35.8121
vt 35.5398 111.302
f 282/667/129 279/800/129 283/808/129

vt -94.3082 -5.48795e-14
v 14.3096 8 -35.8121
vt -92.1572 -5.36278e-14
vt -92.1572 2
vt -94.3082 2
f 280/809/71 284/810/72 283/811/72 279/812/71 

vt -35.5398 111.302
f 280/805/127 281/68/127 284/813/127

v 11.9384 8 -36.0043
f 284/813/127 281/68/127 285/69/127

vt 95.3775 2
v 11.9384 10 -36.0043
vt 93.2115 2
f 285/343/57 281/344/58 282/814/58 286/815/57 

f 282/667/129 283/808/129 286/666/129

v 16.339 10 -36.5252
vt 36.2529 109.273
f 286/666/129 283/808/129 287/816/129

vt -93.2254 -5.20316e-14
v 16.339 8 -36.5252
vt -91.0744 -5.0831e-14
vt -91.0744 2
vt -93.2254 2
f 284/817/72 288/818/73 287/819/73 283/820/72 

vt -36.2529 109.273
f 284/813/127 285/69/127 288/821/127

v 13.971 8 -36.753
f 288/821/127 285/69/127 289/70/127

vt 94.3157 2
v 13.971 10 -36.753
vt 92.1497 2
f 289/339/56 285/340/57 286/822/57 290/823/56 

f 286/666/129 287/816/129 290/665/129

v 18.3788 10 -37.2077
vt 36.9355 107.233
f 290/665/129 287/816/129 291/824/129

vt -92.1218 -4.92124e-14
v 18.3788 8 -37.2077
vt -89.9708 -4.80633e-14
vt -89.9708 2
vt -92.1218 2
f 288/825/73 292/826/74 291/827/74 287/828/73 

vt -36.9355 107.233
f 288/821/127 289/70/127 292/829/127

v 16.0145 8 -37.4711
f 292/829/127 289/70/127 293/71/127

vt 93.2329 2
vt 91.0669 2
f 293/335/55 289/336/56 290/830/56 71/831/55 

f 290/665/129 291/824/129 71/664/129

v 20.4287 10 -37.8596
vt 37.5873 105.183
f 71/664/129 291/824/129 294/832/129

vt -90.9976 -4.64246e-14
v 20.4287 8 -37.8596
vt -88.8466 -4.53272e-14
vt -88.8466 2
vt -90.9976 2
f 292/833/74 295/834/75 294/835/75 291/836/74 

vt -37.5873 105.183
f 292/829/127 293/71/127 295/837/127

v 18.0687 8 -38.1584
f 295/837/127 293/71/127 296/72/127

vt 92.1293 2
v 18.0687 10 -38.1584
vt 89.9633 2
f 296/331/54 293/332/55 71/838/55 297/839/54 

f 71/664/129 294/832/129 297/663/129

v 22.4882 10 -38.4806
vt 38.2083 103.123
f 297/663/129 294/832/129 298/840/129

vt -89.8532 -4.36706e-14
v 22.4882 8 -38.4806
vt -87.7022 -4.26252e-14
vt -87.7022 2
vt -89.8532 2
f 295/841/75 299/842/76 298/843/76 294/844/75 

vt -38.2083 103.123
f 295/837/127 296/72/127 299/845/127

v 20.1329 8 -38.8148
f 299/845/127 296/72/127 300/73/127

vt 91.0052 2
v 20.1329 10 -38.8148
vt 88.8391 2
f 300/327/53 296/328/54 297/846/54 301/847/53 

f 297/663/129 298/840/129 301/662/129

v 24.5567 10 -39.0706
vt 38.7983 101.055
f 301/662/129 298/840/129 302/848/129

vt -88.6888 -4.09529e-14
v 24.5567 8 -39.0706
vt -86.5377 -3.99597e-14
vt -86.5377 2
vt -88.6888 2
f 299/849/76 303/850/77 302/851/77 298/852/76 

vt -38.7983 101.055
f 299/845/127 300/73/127 303/853/127

v 22.2067 8 -39.4402
f 303/853/127 300/73/127 304/74/127

vt 89.8607 2
v 22.2067 10 -39.4402
vt 87.6947 2
f 304/323/52 300/324/53 301/854/53 305/855/52 

f 301/662/129 302/848/129 305/661/129

v 26.6339 10 -39.6294
vt 39.3571 98.9777
f 305/661/129 302/848/129 306/856/129

vt -87.5046 -3.8274e-14
v 26.6339 8 -39.6294
vt -85.3535 -3.73332e-14
vt -85.3535 2
vt -87.5046 2
f 303/857/77 307/858/78 306/859/78 302/860/77 

vt -39.3571 98.9777
f 303/853/127 304/74/127 307/861/127

v 24.2897 8 -40.0343
f 307/861/127 304/74/127 308/75/127

vt 88.6963 2
v 24.2897 10 -40.0343
vt 86.5302 2
f 308/319/51 304/320/52 305/862/52 309/863/51 

f 305/661/129 306/856/129 309/660/129

v 28.7192 10 -40.157
vt 39.8847 96.8923
f 309/660/129 306/856/129 310/864/129

vt -86.3009 -3.56362e-14
v 28.7192 8 -40.157
vt -84.1498 -3.4748e-14
vt -84.1498 2
vt -86.3009 2
f 307/865/78 311/866/79 310/867/79 306/868/78 

vt -39.8847 96.8923
f 307/861/127 308/75/127 311/869/127

v 26.3813 8 -40.597
f 311/869/127 308/75/127 312/76/127

vt 87.5121 2
v 26.3813 10 -40.597
vt 85.346 2
f 312/315/50 308/316/51 309/870/51 313/871/50 

f 309/660/129 310/864/129 313/659/129

v 30.8122 10 -40.6532
vt 40.381 94.7993
f 313/659/129 310/864/129 314/872/129

vt -85.0779 -3.3042e-14
v 30.8122 8 -40.6532
vt -82.9269 -3.22066e-14
vt -82.9269 2
vt -85.0779 2
f 311/873/79 315/874/80 314/875/80 310/876/79 

vt -40.381 94.7993
f 311/869/127 312/76/127 315/877/127

v 28.4812 8 -41.1283
f 315/877/127 312/76/127 316/77/127

vt 86.3084 2
v 28.4812 10 -41.1283
vt 84.1423 2
f 316/311/49 312/312/50 313/878/50 317/879/49 

f 313/659/129 314/872/129 317/658/129

v 32.9125 10 -41.118
vt 40.8457 92.6991
f 317/658/129 314/872/129 318/880/129

vt -83.8361 -3.04935e-14
v 32.9125 8 -41.118
vt -81.685 -2.97111e-14
vt -81.685 2
vt -83.8361 2
f 315/881/80 319/882/81 318/883/81 314/884/80 

vt -40.8457 92.6991
f 315/877/127 316/77/127 319/885/127

v 35.0194 8 -41.5511
vt -41.2788 90.5921
f 319/885/127 316/77/127 320/886/127

v 30.5888 8 -41.628
f 320/886/127 316/77/127 321/78/127

vt 85.0854 2
v 30.5888 10 -41.628
vt 82.9194 2
f 321/307/48 316/308/49 317/887/49 322/888/48 

v 35.0194 10 -41.5511
vt 41.2788 90.5921
f 317/658/129 323/889/129 322/657/129

f 317/658/129 318/880/129 323/889/129

vt -82.5755 -2.79932e-14
vt -80.4245 -2.7264e-14
vt -80.4245 2
vt -82.5755 2
f 319/890/81 320/891/82 323/892/82 318/893/81 

vt -81.2966 -2.55432e-14
v 37.1327 8 -41.9525
vt -79.1456 -2.48673e-14
v 37.1327 10 -41.9525
vt -79.1456 2
vt -81.2966 2
f 320/894/82 324/895/83 325/896/83 323/897/82 

vt -41.6803 88.4789
f 320/886/127 321/78/127 324/898/127

v 32.7037 8 -42.096
f 324/898/127 321/78/127 326/79/127

vt 83.8436 2
v 32.7037 10 -42.096
vt 81.6775 2
f 326/303/47 321/304/48 322/899/48 327/900/47 

vt 41.6803 88.4789
f 322/657/129 325/901/129 327/656/129

f 322/657/129 323/889/129 325/901/129

v 39.2517 10 -42.3222
vt 42.0499 86.3599
f 327/656/129 325/901/129 328/902/129

vt -79.9996 -2.31457e-14
v 39.2517 8 -42.3222
vt -77.8485 -2.25234e-14
vt -77.8485 2
vt -79.9996 2
f 324/903/83 329/904/84 328/905/84 325/906/83 

vt -42.0499 86.3599
f 324/898/127 326/79/127 329/907/127

v 34.8254 8 -42.5321
f 329/907/127 326/79/127 330/80/127

vt 82.583 2
v 34.8254 10 -42.5321
vt 80.417 2
f 330/299/46 326/300/47 327/908/47 331/909/46 

f 327/656/129 328/902/129 331/655/129

v 41.376 10 -42.66
vt 42.3877 84.2355
f 331/655/129 328/902/129 332/910/129

vt -78.6847 -2.0803e-14
v 41.376 8 -42.66
vt -76.5337 -2.02343e-14
vt -76.5337 2
vt -78.6847 2
f 329/911/84 333/912/85 332/913/85 328/914/84 

vt -42.3877 84.2355
f 329/907/127 330/80/127 333/915/127

v 36.9534 8 -42.9364
f 333/915/127 330/80/127 334/81/127

vt 81.3041 2
vt 79.138 2
f 334/295/45 330/296/46 331/916/46 81/917/45 

f 331/655/129 332/910/129 81/654/129

v 43.5052 10 -42.9659
vt 42.6936 82.1063
f 81/654/129 332/910/129 335/918/129

vt -77.3524 -1.8517e-14
v 43.5052 8 -42.9659
vt -75.2014 -1.8002e-14
vt -75.2014 2
vt -77.3524 2
f 333/919/85 336/920/86 335/921/86 332/922/85 

vt -42.6936 82.1063
f 333/915/127 334/81/127 336/923/127

v 39.0872 8 -43.3086
f 336/923/127 334/81/127 337/82/127

vt 80.0071 2
vt 77.841 2
f 337/291/44 334/292/45 81/924/45 82/925/44 

f 81/654/129 335/918/129 82/653/129

v 45.6387 10 -43.2397
vt 42.9674 79.9728
f 82/653/129 335/918/129 338/926/129

vt -76.0029 -1.62898e-14
v 45.6387 8 -43.2397
vt -73.8519 -1.58288e-14
vt -73.8519 2
vt -76.0029 2
f 336/927/86 339/928/87 338/929/87 335/930/86 

vt -42.9674 79.9728
f 336/923/127 337/82/127 339/931/127

v 47.7761 8 -43.4815
vt -43.2092 77.8354
f 339/931/127 337/82/127 340/932/127

v 41.2264 8 -43.6488
f 340/932/127 337/82/127 341/83/127

vt 78.6923 2
v 41.2264 10 -43.6488
vt 76.5262 2
f 341/287/43 337/288/44 82/933/44 342/934/43 

v 47.7761 10 -43.4815
vt 43.2092 77.8354
f 82/653/129 343/935/129 342/652/129

f 82/653/129 338/926/129 343/935/129

vt -74.6365 -1.41234e-14
vt -72.4854 -1.37164e-14
vt -72.4854 2
vt -74.6365 2
f 339/936/87 340/937/88 343/938/88 338/939/87 

vt -73.2535 -1.20198e-14
v 49.9169 8 -43.6911
vt -71.1024 -1.16669e-14
v 49.9169 10 -43.6911
vt -71.1024 2
vt -73.2535 2
f 340/940/88 344/941/89 345/942/89 343/943/88 

vt -43.4189 75.6946
f 340/932/127 341/83/127 344/944/127

v 43.3704 8 -43.9568
f 344/944/127 341/83/127 346/84/127

vt 77.3599 2
vt 75.1939 2
f 346/283/42 341/284/43 342/945/43 84/946/42 

vt 43.4189 75.6946
f 342/652/129 345/947/129 84/651/129

f 342/652/129 343/935/129 345/947/129

v 52.0606 10 -43.8686
vt 43.5963 73.5509
f 84/651/129 345/947/129 347/948/129

vt -71.8542 -9.98085e-15
v 52.0606 8 -43.8686
vt -69.7031 -9.68206e-15
vt -69.7031 2
vt -71.8542 2
f 344/949/89 348/950/90 347/951/90 345/952/89 

vt -43.5963 73.5509
f 344/944/127 346/84/127 348/953/127

v 54.2067 8 -44.0139
vt -43.7416 71.4048
f 348/953/127 346/84/127 349/954/127

v 45.5189 8 -44.2325
f 349/954/127 346/84/127 350/85/127

vt 76.0104 2
v 45.5189 10 -44.2325
vt 73.8444 2
f 350/279/41 346/280/42 84/955/42 351/956/41 

v 54.2067 10 -44.0139
vt 43.7416 71.4048
f 84/651/129 352/957/129 351/650/129

f 84/651/129 347/948/129 352/957/129

vt -70.4389 -8.00832e-15
vt -68.2879 -7.76376e-15
vt -68.2879 2
vt -70.4389 2
f 348/958/90 349/959/91 352/960/91 347/961/90 

vt -69.008 -6.104e-15
v 56.3548 8 -44.1269
vt -66.8569 -5.91373e-15
v 56.3548 10 -44.1269
vt -66.8569 2
vt -69.008 2
f 349/962/91 353/963/92 354/964/92 352/965/91 

vt -43.8546 69.2567
f 349/954/127 350/85/127 353/966/127

v 58.5043 8 -44.2076
vt -43.9354 67.1072
f 353/966/127 350/85/127 355/967/127

v 60.6548 8 -44.2561
vt -43.9838 64.9567
f 355/967/127 350/85/127 356/968/127

v 47.6712 8 -44.476
f 356/968/127 350/85/127 357/86/127

vt 74.644 2
v 47.6712 10 -44.476
vt 72.4779 2
f 357/275/40 350/276/41 351/969/41 358/970/40 

v 60.6548 10 -44.2561
vt 43.9838 64.9567
f 351/650/129 359/971/129 358/649/129

v 58.5043 10 -44.2076
vt 43.9354 67.1072
f 351/650/129 360/972/129 359/971/129

vt 43.8546 69.2567
f 351/650/129 354/973/129 360/972/129

f 351/650/129 352/957/129 354/973/129

vt -67.5617 -4.26959e-15
vt -65.4107 -4.13365e-15
vt -65.4107 2
vt -67.5617 2
f 353/974/92 355/975/93 360/976/93 354/977/92 

vt -66.1005 -2.50672e-15
vt -63.9495 -2.42515e-15
vt -63.9495 2
vt -66.1005 2
f 355/978/93 356/979/94 359/980/94 360/981/93 

vt -64.6246 -8.16979e-16
v 62.8058 8 -44.2722
vt -62.4736 -7.89786e-16
vn 7.83037e-12 -1.68353e-15 1
v 62.8058 10 -44.2722
vt -62.4736 2
vt -64.6246 2
f 356/982/94 361/983/130 362/984/130 359/985/94 

vt -44 62.8058
f 356/968/127 357/86/127 361/986/127

v 77.9404 8 -44.476
f 363/100/127 361/986/127 357/86/127

v 64.9567 8 -44.2561
vt -43.9838 60.6548
f 363/100/127 364/987/127 361/986/127

v 80.0927 8 -44.2325
f 365/101/127 364/987/127 363/100/127

v 67.1072 8 -44.2076
vt -43.9354 58.5043
f 365/101/127 366/988/127 364/987/127

v 69.2567 8 -44.1269
vt -43.8546 56.3548
f 365/101/127 367/989/127 366/988/127

v 71.4048 8 -44.0139
vt -43.7416 54.2067
f 365/101/127 368/990/127 367/989/127

v 82.2411 8 -43.9568
f 369/102/127 368/990/127 365/101/127

v 73.5509 8 -43.8686
vt -43.5963 52.0606
f 369/102/127 370/991/127 368/990/127

v 75.6946 8 -43.6911
vt -43.4189 49.9169
f 369/102/127 371/992/127 370/991/127

v 84.3851 8 -43.6488
f 372/103/127 371/992/127 369/102/127

v 77.8354 8 -43.4815
vt -43.2092 47.7761
f 372/103/127 373/993/127 371/992/127

v 86.5243 8 -43.3086
f 374/104/127 373/993/127 372/103/127

v 79.9728 8 -43.2397
vt -42.9674 45.6387
f 374/104/127 375/994/127 373/993/127

v 82.1063 8 -42.9659
vt -42.6936 43.5052
f 374/104/127 376/995/127 375/994/127

v 88.6581 8 -42.9364
f 377/105/127 376/995/127 374/104/127

v 84.2355 8 -42.66
vt -42.3877 41.376
f 377/105/127 378/996/127 376/995/127

v 90.7861 8 -42.5321
f 379/106/127 378/996/127 377/105/127

v 86.3599 8 -42.3222
vt -42.0499 39.2517
f 379/106/127 380/997/127 378/996/127

v 92.9078 8 -42.096
f 381/107/127 380/997/127 379/106/127

v 88.4789 8 -41.9525
vt -41.6803 37.1327
f 381/107/127 382/998/127 380/997/127

v 95.0227 8 -41.628
f 383/108/127 382/998/127 381/107/127

v 90.5921 8 -41.5511
vt -41.2788 35.0194
f 383/108/127 384/999/127 382/998/127

v 97.1303 8 -41.1283
f 385/109/127 384/999/127 383/108/127

v 92.6991 8 -41.118
vt -40.8457 32.9125
f 385/109/127 386/1000/127 384/999/127

v 94.7993 8 -40.6532
vt -40.381 30.8122
f 385/109/127 387/1001/127 386/1000/127

v 99.2302 8 -40.597
f 388/110/127 387/1001/127 385/109/127

v 96.8923 8 -40.157
vt -39.8847 28.7192
f 388/110/127 389/1002/127 387/1001/127

v 101.322 8 -40.0343
f 390/111/127 389/1002/127 388/110/127

v 98.9777 8 -39.6294
vt -39.3571 26.6339
f 390/111/127 391/1003/127 389/1002/127

v 103.405 8 -39.4402
f 392/112/127 391/1003/127 390/111/127

v 101.055 8 -39.0706
vt -38.7983 24.5567
f 392/112/127 393/1004/127 391/1003/127

v 105.479 8 -38.8148
f 394/113/127 393/1004/127 392/112/127

v 103.123 8 -38.4806
vt -38.2083 22.4882
f 394/113/127 395/1005/127 393/1004/127

v 107.543 8 -38.1584
f 396/114/127 395/1005/127 394/113/127

v 105.183 8 -37.8596
vt -37.5873 20.4287
f 396/114/127 397/1006/127 395/1005/127

v 109.597 8 -37.4711
f 398/115/127 397/1006/127 396/114/127

v 107.233 8 -37.2077
vt -36.9355 18.3788
f 398/115/127 399/1007/127 397/1006/127

v 111.641 8 -36.753
f 400/116/127 399/1007/127 398/115/127

v 109.273 8 -36.5252
vt -36.2529 16.339
f 400/116/127 401/1008/127 399/1007/127

v 113.673 8 -36.0043
f 402/117/127 401/1008/127 400/116/127

v 111.302 8 -35.8121
vt -35.5398 14.3096
f 402/117/127 403/1009/127 401/1008/127

v 115.694 8 -35.2252
f 404/118/127 403/1009/127 402/117/127

v 113.32 8 -35.0686
vt -34.7963 12.2911
f 404/118/127 405/1010/127 403/1009/127

v 117.703 8 -34.4158
f 406/119/127 405/1010/127 404/118/127

v 115.327 8 -34.2948
vt -34.0226 10.2841
f 406/119/127 407/1011/127 405/1010/127

v 119.7 8 -33.5763
f 408/120/127 407/1011/127 406/119/127

v 117.323 8 -33.491
vt -33.2188 8.28889
f 408/120/127 409/1012/127 407/1011/127

v 121.684 8 -32.7069
f 410/121/127 409/1012/127 408/120/127

v 119.306 8 -32.6574
vt -32.3851 6.30598
f 410/121/127 411/1013/127 409/1012/127

v 123.655 8 -31.8078
f 412/122/127 411/1013/127 410/121/127

v 121.276 8 -31.794
vt -31.5217 4.33581
f 412/122/127 413/1014/127 411/1013/127

v 123.233 8 -30.9012
vt -30.6289 2.37883
f 412/122/127 414/1015/127 413/1014/127

v 125.612 8 -30.8793
vt -30.607 7.00129e-09
f 415/1016/127 414/1015/127 412/122/127

v 124.273 8 -30.4078
vt -30.1355 1.33895
f 415/1016/127 416/1017/127 414/1015/127

v 110.338 8 -1.60121
vt -1.32894 15.2738
f 415/1016/127 417/1018/127 416/1017/127

v 110.806 8 -0.272271
f 418/2/127 417/1018/127 415/1016/127

v 109.31 8 -0.981939
f 417/1018/127 418/2/127 419/3/127

vt -13.3763 2
v 109.31 10 -0.981939
vt -15.0317 2
f 419/607/124 418/608/125 2/1019/125 420/1020/124 

v 125.612 10 -30.8793
vt 27.5526 2
vt -6.44738 2
f 418/123/2 415/124/2 421/1021/2 2/1022/2 

v 123.655 10 -31.8078
vt 15.287 2
vt 13.121 2
f 415/127/3 412/128/4 422/1023/4 421/1024/3 

v 121.684 10 -32.7069
vt 17.0361 2
vt 14.87 2
f 412/131/4 410/132/5 423/1025/5 422/1026/4 

v 119.7 10 -33.5763
vt 18.7815 2
vt 16.6155 2
f 410/135/5 408/136/6 424/1027/6 423/1028/5 

v 117.703 10 -34.4158
vt 20.523 2
vt 18.3569 2
f 408/139/6 406/140/7 425/1029/7 424/1030/6 

v 115.694 10 -35.2252
vt 22.2601 2
vt 20.094 2
f 406/143/7 404/144/8 426/1031/8 425/1032/7 

v 113.673 10 -36.0043
vt 23.9924 2
vt 21.8263 2
f 404/147/8 402/148/9 427/1033/9 426/1034/8 

vt 25.7195 2
vt 23.5535 2
f 402/151/9 400/152/10 116/1035/10 427/1036/9 

vt 27.4411 2
vt 25.275 2
f 400/155/10 398/156/11 115/1037/11 116/1038/10 

v 107.543 10 -38.1584
vt 29.1567 2
vt 26.9907 2
f 398/159/11 396/160/12 428/1039/12 115/1040/11 

vt 30.866 2
vt 28.7 2
f 396/163/12 394/164/13 113/1041/13 428/1042/12 

vt 32.5686 2
vt 30.4026 2
f 394/167/13 392/168/14 112/1043/14 113/1044/13 

vt 34.2641 2
vt 32.098 2
f 392/171/14 390/172/15 111/1045/15 112/1046/14 

vt 35.9521 2
vt 33.786 2
f 390/175/15 388/176/16 110/1047/16 111/1048/15 

vt 37.6322 2
vt 35.4662 2
f 388/179/16 385/180/17 109/1049/17 110/1050/16 

v 95.0227 10 -41.628
vt 39.3041 2
vt 37.1381 2
f 385/183/17 383/184/18 429/1051/18 109/1052/17 

vt 40.9674 2
vt 38.8013 2
f 383/187/18 381/188/19 107/1053/19 429/1054/18 

v 90.7861 10 -42.5321
vt 42.6216 2
vt 40.4556 2
f 381/191/19 379/192/20 430/1055/20 107/1056/19 

v 88.6581 10 -42.9364
vt 44.2665 2
vt 42.1005 2
f 379/195/20 377/196/21 431/1057/21 430/1058/20 

v 86.5243 10 -43.3086
vt 45.9017 2
vt 43.7357 2
f 377/199/21 374/200/22 432/1059/22 431/1060/21 

vt 47.5268 2
vt 45.3607 2
f 374/203/22 372/204/23 103/1061/23 432/1062/22 

v 82.2411 10 -43.9568
vt 49.1413 2
vt 46.9753 2
f 372/207/23 369/208/24 433/1063/24 103/1064/23 

v 80.0927 10 -44.2325
vt 50.7451 2
vt 48.579 2
f 369/211/24 365/212/25 434/1065/25 433/1066/24 

v 77.9404 10 -44.476
vt 52.3376 2
vt 50.1716 2
f 365/215/25 363/216/26 435/1067/26 434/1068/25 

v 75.7846 8 -44.6871
v 75.7846 10 -44.6871
vt 53.9186 2
vt 51.7525 2
f 363/219/26 436/220/27 437/1069/27 435/1070/26 

v 49.8269 8 -44.6871
f 363/100/127 438/87/127 436/99/127

f 363/100/127 357/86/127 438/87/127

vt 73.261 2
v 49.8269 10 -44.6871
vt 71.0949 2
f 438/271/39 357/272/40 358/1071/40 439/1072/39 

f 358/649/129 435/635/129 439/648/129

vt 44 62.8058
f 362/1073/129 435/635/129 358/649/129

v 64.9567 10 -44.2561
vt 43.9838 60.6548
f 440/1074/129 435/635/129 362/1073/129

f 440/1074/129 434/634/129 435/635/129

v 67.1072 10 -44.2076
vt 43.9354 58.5043
f 441/1075/129 434/634/129 440/1074/129

v 69.2567 10 -44.1269
vt 43.8546 56.3548
f 442/1076/129 434/634/129 441/1075/129

v 71.4048 10 -44.0139
vt 43.7416 54.2067
f 443/1077/129 434/634/129 442/1076/129

f 443/1077/129 433/633/129 434/634/129

v 73.5509 10 -43.8686
vt 43.5963 52.0606
f 444/1078/129 433/633/129 443/1077/129

v 75.6946 10 -43.6911
vt 43.4189 49.9169
f 445/1079/129 433/633/129 444/1078/129

f 445/1079/129 103/632/129 433/633/129

v 77.8354 10 -43.4815
vt 43.2092 47.7761
f 446/1080/129 103/632/129 445/1079/129

f 446/1080/129 432/631/129 103/632/129

v 79.9728 10 -43.2397
vt 42.9674 45.6387
f 447/1081/129 432/631/129 446/1080/129

v 82.1063 10 -42.9659
vt 42.6936 43.5052
f 448/1082/129 432/631/129 447/1081/129

f 448/1082/129 431/630/129 432/631/129

v 84.2355 10 -42.66
vt 42.3877 41.376
f 449/1083/129 431/630/129 448/1082/129

f 449/1083/129 430/629/129 431/630/129

v 86.3599 10 -42.3222
vt 42.0499 39.2517
f 450/1084/129 430/629/129 449/1083/129

f 450/1084/129 107/628/129 430/629/129

v 88.4789 10 -41.9525
vt 41.6803 37.1327
f 451/1085/129 107/628/129 450/1084/129

f 451/1085/129 429/627/129 107/628/129

v 90.5921 10 -41.5511
vt 41.2788 35.0194
f 452/1086/129 429/627/129 451/1085/129

f 452/1086/129 109/626/129 429/627/129

v 92.6991 10 -41.118
vt 40.8457 32.9125
f 453/1087/129 109/626/129 452/1086/129

v 94.7993 10 -40.6532
vt 40.381 30.8122
f 454/1088/129 109/626/129 453/1087/129

f 454/1088/129 110/625/129 109/626/129

v 96.8923 10 -40.157
vt 39.8847 28.7192
f 455/1089/129 110/625/129 454/1088/129

f 455/1089/129 111/624/129 110/625/129

v 98.9777 10 -39.6294
vt 39.3571 26.6339
f 456/1090/129 111/624/129 455/1089/129

f 456/1090/129 112/623/129 111/624/129

v 101.055 10 -39.0706
vt 38.7983 24.5567
f 457/1091/129 112/623/129 456/1090/129

f 457/1091/129 113/622/129 112/623/129

v 103.123 10 -38.4806
vt 38.2083 22.4882
f 458/1092/129 113/622/129 457/1091/129

f 458/1092/129 428/621/129 113/622/129

v 105.183 10 -37.8596
vt 37.5873 20.4287
f 459/1093/129 428/621/129 458/1092/129

f 459/1093/129 115/620/129 428/621/129

v 107.233 10 -37.2077
vt 36.9355 18.3788
f 460/1094/129 115/620/129 459/1093/129

f 460/1094/129 116/619/129 115/620/129

v 109.273 10 -36.5252
vt 36.2529 16.339
f 461/1095/129 116/619/129 460/1094/129

f 461/1095/129 427/618/129 116/619/129

v 111.302 10 -35.8121
vt 35.5398 14.3096
f 462/1096/129 427/618/129 461/1095/129

f 462/1096/129 426/617/129 427/618/129

v 113.32 10 -35.0686
vt 34.7963 12.2911
f 463/1097/129 426/617/129 462/1096/129

f 463/1097/129 425/616/129 426/617/129

v 115.327 10 -34.2948
vt 34.0226 10.2841
f 464/1098/129 425/616/129 463/1097/129

f 464/1098/129 424/615/129 425/616/129

v 117.323 10 -33.491
vt 33.2188 8.28889
f 465/1099/129 424/615/129 464/1098/129

f 465/1099/129 423/614/129 424/615/129

v 119.306 10 -32.6574
vt 32.3851 6.30598
f 466/1100/129 423/614/129 465/1099/129

f 466/1100/129 422/613/129 423/614/129

v 121.276 10 -31.794
vt 31.5217 4.33581
f 467/1101/129 422/613/129 466/1100/129

v 123.233 10 -30.9012
vt 30.6289 2.37883
f 468/1102/129 422/613/129 467/1101/129

vt 30.607 7.00129e-09
f 468/1102/129 421/1103/129 422/613/129

v 124.273 10 -30.4078
vt 30.1355 1.33895
f 469/1104/129 421/1103/129 468/1102/129

v 110.338 10 -1.60121
vt 1.32894 15.2738
f 470/1105/129 421/1103/129 469/1104/129

vt 4.67697e-09 14.8058
f 470/1105/129 2/1106/129 421/1103/129

f 2/1106/129 470/1105/129 420/732/129

f 470/1105/129 4/731/129 420/732/129

v 109.732 10 -1.88861
vt 1.61634 15.8795
f 4/731/129 470/1105/129 471/1107/129

vt 14.3688 1.03702e-14
v 109.732 8 -1.88861
vt 15.0392 1.08541e-14
vt 15.0392 2
vt 14.3688 2
f 417/1108/3 472/1109/4 471/1110/4 470/1111/3 

v 107.804 8 -1.66907
vt -1.61634 15.8795
f 417/1018/127 473/4/127 472/1112/127

f 473/4/127 417/1018/127 419/3/127

vt -15.1253 2
vt -16.7808 2
f 473/603/123 419/604/124 420/1113/124 4/1114/123 

v 106.288 8 -2.3335
vt -16.8708 2
v 106.288 10 -2.3335
vt -18.5262 2
f 474/599/122 473/600/123 4/1115/123 475/1116/122 

f 472/1112/127 473/4/127 474/5/127

v 108.212 8 -2.58197
vt -2.3097 17.3992
f 472/1112/127 474/5/127 476/1117/127

v 104.762 8 -2.97508
f 476/1117/127 474/5/127 477/6/127

vt -18.6123 2
v 104.762 10 -2.97508
vt -20.2677 2
f 477/595/121 474/596/122 475/1118/122 478/1119/121 

v 108.212 10 -2.58197
vt 2.3097 17.3992
f 475/730/129 479/1120/129 478/729/129

f 475/730/129 471/1107/129 479/1120/129

f 4/731/129 471/1107/129 475/730/129

vt 15.1178 1.05642e-14
vt 16.7883 1.17315e-14
vt 16.7883 2
vt 15.1178 2
f 472/1121/4 476/1122/5 479/1123/5 471/1124/4 

vt 16.8633 1.13947e-14
v 106.682 8 -3.25243
vt 18.5337 1.25235e-14
v 106.682 10 -3.25243
vt 18.5337 2
vt 16.8633 2
f 476/1125/5 480/1126/6 481/1127/6 479/1128/5 

vt -2.98016 18.9292
f 476/1117/127 477/6/127 480/1129/127

v 103.226 8 -3.59368
f 480/1129/127 477/6/127 482/7/127

vt -20.3493 2
v 103.226 10 -3.59368
vt -22.0048 2
f 482/591/120 477/592/121 478/1130/121 483/1131/120 

vt 2.98016 18.9292
f 478/729/129 481/1132/129 483/728/129

f 478/729/129 479/1120/129 481/1132/129

v 105.142 10 -3.89984
vt 3.62757 20.4691
f 483/728/129 481/1132/129 484/1133/129

vt 18.6047 1.21392e-14
v 105.142 8 -3.89984
vt 20.2752 1.32291e-14
vt 20.2752 2
vt 18.6047 2
f 480/1134/6 485/1135/7 484/1136/7 481/1137/6 

vt -3.62757 20.4691
f 480/1129/127 482/7/127 485/1138/127

v 101.682 8 -4.18915
f 485/1138/127 482/7/127 486/8/127

vt -22.0816 2
v 101.682 10 -4.18915
vt -23.7371 2
f 486/587/119 482/588/120 483/1139/120 487/1140/119 

f 483/728/129 484/1133/129 487/727/129

v 103.593 10 -4.52405
vt 4.25177 22.0185
f 487/727/129 484/1133/129 488/1141/129

vt 20.3418 1.2797e-14
v 103.593 8 -4.52405
vt 22.0123 1.38479e-14
vt 22.0123 2
vt 20.3418 2
f 485/1142/7 489/1143/8 488/1144/8 484/1145/7 

vt -4.25177 22.0185
f 485/1138/127 486/8/127 489/1146/127

v 100.128 8 -4.76135
f 489/1146/127 486/8/127 490/9/127

vt -23.8088 2
vt -25.4642 2
f 490/583/118 486/584/119 487/1147/119 9/1148/118 

f 487/727/129 488/1141/129 9/726/129

v 102.034 10 -5.12491
vt 4.85264 23.5772
f 9/726/129 488/1141/129 491/1149/129

vt 22.0741 1.33676e-14
v 102.034 8 -5.12491
vt 23.7446 1.43791e-14
vt 23.7446 2
vt 22.0741 2
f 489/1150/8 492/1151/9 491/1152/9 488/1153/8 

vt -4.85264 23.5772
f 489/1146/127 490/9/127 492/1154/127

v 98.5665 8 -5.31016
f 492/1154/127 490/9/127 493/10/127

vt -25.5303 2
v 98.5665 10 -5.31016
vt -27.1858 2
f 493/579/117 490/580/118 9/1155/118 494/1156/117 

f 9/726/129 491/1149/129 494/725/129

v 100.467 10 -5.70231
vt 5.43004 25.1447
f 494/725/129 491/1149/129 495/1157/129

vt 23.8013 1.38504e-14
v 100.467 8 -5.70231
vt 25.4717 1.48224e-14
vt 25.4717 2
vt 23.8013 2
f 492/1158/9 496/1159/10 495/1160/10 491/1161/9 

vt -5.43004 25.1447
f 492/1154/127 493/10/127 496/1162/127

v 96.9966 8 -5.83545
f 496/1162/127 493/10/127 497/11/127

vt -27.246 2
vt -28.9014 2
f 497/575/116 493/576/117 494/1163/117 11/1164/116 

f 494/725/129 495/1157/129 11/724/129

v 98.8909 10 -6.25609
vt 5.98382 26.7206
f 11/724/129 495/1157/129 498/1165/129

vt 25.5228 1.4245e-14
v 98.8909 8 -6.25609
vt 27.1933 1.51773e-14
vt 27.1933 2
vt 25.5228 2
f 496/1166/10 499/1167/11 498/1168/11 495/1169/10 

vt -5.98382 26.7206
f 496/1162/127 497/11/127 499/1170/127

v 95.419 8 -6.33711
f 499/1170/127 497/11/127 500/12/127

vt -28.9553 2
v 95.419 10 -6.33711
vt -30.6107 2
f 500/571/115 497/572/116 11/1171/116 501/1172/115 

f 11/724/129 498/1165/129 501/723/129

v 97.3068 10 -6.78615
vt 6.51388 28.3047
f 501/723/129 498/1165/129 502/1173/129

vt 27.2385 1.45511e-14
v 97.3068 8 -6.78615
vt 28.9089 1.54434e-14
vt 28.9089 2
vt 27.2385 2
f 499/1174/11 503/1175/12 502/1176/12 498/1177/11 

vt -6.51388 28.3047
f 499/1170/127 500/12/127 503/1178/127

v 93.8341 8 -6.81501
f 503/1178/127 500/12/127 504/13/127

vt -30.6579 2
v 93.8341 10 -6.81501
vt -32.3133 2
f 504/567/114 500/568/115 501/1179/115 505/1180/114 

f 501/723/129 502/1173/129 505/722/129

v 95.7149 10 -7.29236
vt 7.02009 29.8966
f 505/722/129 502/1173/129 506/1181/129

vt 28.9478 1.47684e-14
v 95.7149 8 -7.29236
vt 30.6182 1.56206e-14
vt 30.6182 2
vt 28.9478 2
f 503/1182/12 507/1183/13 506/1184/13 502/1185/12 

vt -7.02009 29.8966
f 503/1178/127 504/13/127 507/1186/127

v 92.2421 8 -7.26906
f 507/1186/127 504/13/127 508/14/127

vt -32.3533 2
v 92.2421 10 -7.26906
vt -34.0088 2
f 508/563/113 504/564/114 505/1187/114 509/1188/113 

f 505/722/129 506/1181/129 509/721/129

f 509/721/129 506/1181/129 15/720/129

v 94.1156 10 -7.7746
vt 7.50233 31.496
f 15/720/129 506/1181/129 510/1189/129

vt 30.6504 1.48967e-14
v 94.1156 8 -7.7746
vt 32.3208 1.57086e-14
vt 32.3208 2
vt 30.6504 2
f 507/1190/13 511/1191/14 510/1192/14 506/1193/13 

v 90.6436 8 -7.69916
vt -7.50233 31.496
f 507/1186/127 512/15/127 511/1194/127

f 507/1186/127 508/14/127 512/15/127

vt -34.0413 2
vt -35.6968 2
f 512/559/112 508/560/113 509/1195/113 15/1196/112 

v 89.0387 8 -8.10519
vt -35.7215 2
v 89.0387 10 -8.10519
vt -37.3769 2
f 513/555/111 512/556/112 15/1197/112 514/1198/111 

f 511/1194/127 512/15/127 513/16/127

v 92.5092 8 -8.23277
vt -7.9605 33.1024
f 511/1194/127 513/16/127 515/1199/127

v 87.4279 8 -8.48708
f 515/1199/127 513/16/127 516/17/127

vt -37.3934 2
v 87.4279 10 -8.48708
vt -39.0488 2
f 516/551/110 513/552/111 514/1200/111 517/1201/110 

v 92.5092 10 -8.23277
vt 7.9605 33.1024
f 514/719/129 518/1202/129 517/718/129

f 514/719/129 510/1189/129 518/1202/129

f 15/720/129 510/1189/129 514/719/129

vt 32.3458 1.4936e-14
vt 34.0163 1.57074e-14
vt 34.0163 2
vt 32.3458 2
f 511/1203/14 515/1204/15 518/1205/15 510/1206/14 

vt 34.0338 1.48862e-14
v 90.8961 8 -8.66677
vt 35.7043 1.56169e-14
v 90.8961 10 -8.66677
vt 35.7043 2
vt 34.0338 2
f 515/1207/15 519/1208/16 520/1209/16 518/1210/15 

vt -8.3945 34.7154
f 515/1199/127 516/17/127 519/1211/127

v 85.8116 8 -8.84474
f 519/1211/127 516/17/127 521/18/127

vt -39.0566 2
v 85.8116 10 -8.84474
vt -40.7121 2
f 521/547/109 516/548/110 517/1212/110 522/1213/109 

vt 8.3945 34.7154
f 517/718/129 520/1214/129 522/717/129

f 517/718/129 518/1202/129 520/1214/129

v 89.2767 10 -9.07649
vt 8.80422 36.3349
f 522/717/129 520/1214/129 523/1215/129

vt 35.714 1.47474e-14
v 89.2767 8 -9.07649
vt 37.3844 1.54372e-14
vt 37.3844 2
vt 35.714 2
f 519/1216/16 524/1217/17 523/1218/17 520/1219/16 

vt -8.80422 36.3349
f 519/1211/127 521/18/127 524/1220/127

v 84.1901 8 -9.17808
f 524/1220/127 521/18/127 525/19/127

vt -40.7109 2
v 84.1901 10 -9.17808
vt -42.3663 2
f 525/543/108 521/544/109 522/1221/109 526/1222/108 

f 522/717/129 523/1215/129 526/716/129

v 87.6513 10 -9.46184
vt 9.18957 37.9602
f 526/716/129 523/1215/129 527/1223/129

vt 37.3859 1.45197e-14
v 87.6513 8 -9.46184
vt 39.0563 1.51684e-14
vt 39.0563 2
vt 37.3859 2
f 524/1224/17 528/1225/18 527/1226/18 523/1227/17 

vt -9.18957 37.9602
f 524/1220/127 525/19/127 528/1228/127

v 82.5637 8 -9.48703
f 528/1228/127 525/19/127 529/20/127

vt -42.3558 2
vt -44.0112 2
f 529/539/107 525/540/108 526/1229/108 20/1230/107 

f 526/716/129 527/1223/129 20/715/129

v 86.0203 10 -9.82274
vt 9.55047 39.5912
f 20/715/129 527/1223/129 530/1231/129

vt 39.0491 1.42033e-14
v 86.0203 8 -9.82274
vt 40.7196 1.48109e-14
vt 40.7196 2
vt 39.0491 2
f 528/1232/18 531/1233/19 530/1234/19 527/1235/18 

vt -9.55047 39.5912
f 528/1228/127 529/20/127 531/1236/127

v 80.9329 8 -9.77153
f 531/1236/127 529/20/127 532/21/127

vt -43.991 2
vt -45.6464 2
f 532/535/106 529/536/107 20/1237/107 21/1238/106 

f 20/715/129 530/1231/129 21/714/129

v 79.298 10 -10.0315
f 21/714/129 530/1231/129 533/713/129

v 84.3841 10 -10.1591
vt 9.88684 41.2275
f 533/713/129 530/1231/129 534/1239/129

vt 40.7034 1.37985e-14
v 84.3841 8 -10.1591
vt 42.3738 1.43648e-14
vt 42.3738 2
vt 40.7034 2
f 531/1240/19 535/1241/20 534/1242/20 530/1243/19 

v 79.298 8 -10.0315
vt -9.88684 41.2275
f 531/1236/127 536/22/127 535/1244/127

f 531/1236/127 532/21/127 536/22/127

vt -45.616 2
vt -47.2714 2
f 536/531/105 532/532/106 21/1245/106 533/1246/105 

v 77.6594 8 -10.2669
vt -47.2306 2
v 77.6594 10 -10.2669
vt -48.886 2
f 537/527/104 536/528/105 533/1247/105 538/1248/104 

f 535/1244/127 536/22/127 537/23/127

v 82.743 8 -10.4709
vt -10.1986 42.8686
f 535/1244/127 537/23/127 539/1249/127

v 76.0175 8 -10.4776
f 539/1249/127 537/23/127 540/24/127

vt -48.8343 2
vt -50.4898 2
f 540/523/103 537/524/104 538/1250/104 24/1251/103 

v 82.743 10 -10.4709
vt 10.1986 42.8686
f 538/712/129 541/1252/129 24/711/129

f 538/712/129 534/1239/129 541/1252/129

f 533/713/129 534/1239/129 538/712/129

vt 42.3483 1.33057e-14
vt 44.0187 1.38306e-14
vt 44.0187 2
vt 42.3483 2
f 535/1253/20 539/1254/21 541/1255/21 534/1256/20 

vt 43.9835 1.27254e-14
v 81.0974 8 -10.7579
vt 45.6539 1.32087e-14
v 81.0974 10 -10.7579
vt 45.6539 2
vt 43.9835 2
f 539/1257/21 542/1258/22 543/1259/22 541/1260/21 

vt -10.4857 44.5142
f 539/1249/127 540/24/127 542/1261/127

v 74.3725 8 -10.6637
f 542/1261/127 540/24/127 544/25/127

vt -50.4269 2
vt -52.0823 2
f 544/519/102 540/520/103 24/1262/103 25/1263/102 

vt 10.4857 44.5142
f 24/711/129 543/1264/129 25/710/129

f 24/711/129 541/1252/129 543/1264/129

f 25/710/129 543/1264/129 26/709/129

v 79.4477 10 -11.0203
vt 10.748 46.1639
f 26/709/129 543/1264/129 545/1265/129

vt 45.6085 1.20581e-14
v 79.4477 8 -11.0203
vt 47.279 1.24998e-14
vt 47.279 2
vt 45.6085 2
f 542/1266/22 546/1267/23 545/1268/23 543/1269/22 

v 72.725 8 -10.8251
vt -10.748 46.1639
f 542/1261/127 547/26/127 546/1270/127

f 542/1261/127 544/25/127 547/26/127

vt -52.0079 2
vt -53.6633 2
f 547/515/101 544/516/102 25/1271/102 26/1272/101 

v 71.0752 8 -10.9616
vt -53.5769 2
v 71.0752 10 -10.9616
vt -55.2323 2
f 548/511/100 547/512/101 26/1273/101 549/1274/100 

f 546/1270/127 547/26/127 548/27/127

v 69.4236 8 -11.0734
f 546/1270/127 548/27/127 550/28/127

vt -55.1337 2
vt -56.7891 2
f 550/507/99 548/508/100 549/1275/100 28/1276/99 

f 549/708/129 545/1265/129 28/707/129

f 26/709/129 545/1265/129 549/708/129

v 77.7942 10 -11.2578
vt 10.9855 47.8174
f 28/707/129 545/1265/129 551/1277/129

vt 47.2231 1.13045e-14
v 77.7942 8 -11.2578
vt 48.8935 1.17044e-14
vt 48.8935 2
vt 47.2231 2
f 546/1278/23 552/1279/24 551/1280/24 545/1281/23 

vt -10.9855 47.8174
f 546/1270/127 550/28/127 552/1282/127

v 67.7704 8 -11.1604
f 552/1282/127 550/28/127 553/29/127

vt -56.6779 2
v 67.7704 10 -11.1604
vt -58.3333 2
f 553/503/98 550/504/99 28/1283/99 554/1284/98 

f 28/707/129 551/1277/129 554/706/129

f 554/706/129 551/1277/129 30/705/129

v 64.4612 10 -11.2598
f 30/705/129 551/1277/129 555/704/129

v 76.1373 10 -11.4705
vt 11.1982 49.4742
f 555/704/129 551/1277/129 556/1285/129

vt 48.8268 1.04651e-14
v 76.1373 8 -11.4705
vt 50.4973 1.08231e-14
vt 50.4973 2
vt 48.8268 2
f 552/1286/24 557/1287/25 556/1288/25 551/1289/24 

v 64.4612 8 -11.2598
vt -11.1982 49.4742
f 552/1282/127 558/31/127 557/1290/127

v 66.1162 8 -11.2225
f 552/1282/127 559/30/127 558/31/127

f 552/1282/127 553/29/127 559/30/127

vt -58.2091 2
vt -59.8645 2
f 559/499/97 553/500/98 554/1291/98 30/1292/97 

vt -59.727 2
vt -61.3824 2
f 558/495/96 559/496/97 30/1293/97 555/1294/96 

v 62.8058 8 -11.2723
vn 7.83828e-12 -1.68353e-15 1
vt -61.2312 2
vt -62.8866 2
f 560/491/131 558/492/96 555/1295/96 32/1296/131 

f 557/1290/127 558/31/127 560/32/127

v 49.4742 8 -11.4705
vt -11.1982 76.1373
f 557/1290/127 560/32/127 561/1297/127

v 61.1504 8 -11.2598
f 562/33/127 561/1297/127 560/32/127

v 47.8174 8 -11.2578
vt -10.9855 77.7942
f 562/33/127 563/1298/127 561/1297/127

v 59.4954 8 -11.2225
f 564/34/127 563/1298/127 562/33/127

v 57.8411 8 -11.1604
f 565/35/127 563/1298/127 564/34/127

v 56.188 8 -11.0734
f 566/36/127 563/1298/127 565/35/127

v 46.1639 8 -11.0203
vt -10.748 79.4477
f 566/36/127 567/1299/127 563/1298/127

v 54.5363 8 -10.9616
f 568/37/127 567/1299/127 566/36/127

v 52.8866 8 -10.8251
f 569/38/127 567/1299/127 568/37/127

v 44.5142 8 -10.7579
vt -10.4857 81.0974
f 569/38/127 570/1300/127 567/1299/127

v 51.239 8 -10.6637
f 571/39/127 570/1300/127 569/38/127

v 49.5941 8 -10.4776
f 572/40/127 570/1300/127 571/39/127

v 42.8686 8 -10.4709
vt -10.1986 82.743
f 572/40/127 573/1301/127 570/1300/127

v 47.9521 8 -10.2669
f 574/41/127 573/1301/127 572/40/127

v 41.2275 8 -10.1591
vt -9.88684 84.3841
f 574/41/127 575/1302/127 573/1301/127

v 46.3135 8 -10.0315
f 576/42/127 575/1302/127 574/41/127

v 39.5912 8 -9.82274
vt -9.55047 86.0203
f 576/42/127 577/1303/127 575/1302/127

v 44.6786 8 -9.77153
f 578/43/127 577/1303/127 576/42/127

v 43.0478 8 -9.48703
f 579/44/127 577/1303/127 578/43/127

v 37.9602 8 -9.46184
vt -9.18957 87.6513
f 579/44/127 580/1304/127 577/1303/127

v 41.4215 8 -9.17808
f 581/45/127 580/1304/127 579/44/127

v 36.3349 8 -9.07649
vt -8.80422 89.2767
f 581/45/127 582/1305/127 580/1304/127

v 39.8 8 -8.84474
f 583/46/127 582/1305/127 581/45/127

v 34.7154 8 -8.66677
vt -8.3945 90.8961
f 583/46/127 584/1306/127 582/1305/127

v 38.1836 8 -8.48708
f 585/47/127 584/1306/127 583/46/127

v 33.1024 8 -8.23277
vt -7.9605 92.5092
f 585/47/127 586/1307/127 584/1306/127

v 36.5729 8 -8.10519
f 587/48/127 586/1307/127 585/47/127

v 31.496 8 -7.7746
vt -7.50233 94.1156
f 587/48/127 588/1308/127 586/1307/127

v 34.968 8 -7.69916
f 589/49/127 588/1308/127 587/48/127

v 29.8966 8 -7.29236
vt -7.02009 95.7149
f 589/49/127 590/1309/127 588/1308/127

v 33.3694 8 -7.26906
f 591/50/127 590/1309/127 589/49/127

v 31.7775 8 -6.81501
f 592/51/127 590/1309/127 591/50/127

v 28.3047 8 -6.78615
vt -6.51388 97.3068
f 592/51/127 593/1310/127 590/1309/127

v 30.1925 8 -6.33711
f 594/52/127 593/1310/127 592/51/127

v 26.7206 8 -6.25609
vt -5.98382 98.8909
f 594/52/127 595/1311/127 593/1310/127

v 28.6149 8 -5.83545
f 596/53/127 595/1311/127 594/52/127

v 25.1447 8 -5.70231
vt -5.43004 100.467
f 596/53/127 597/1312/127 595/1311/127

v 27.0451 8 -5.31016
f 598/54/127 597/1312/127 596/53/127

v 23.5772 8 -5.12491
vt -4.85264 102.034
f 598/54/127 599/1313/127 597/1312/127

v 25.4833 8 -4.76135
f 600/55/127 599/1313/127 598/54/127

v 22.0185 8 -4.52405
vt -4.25177 103.593
f 600/55/127 601/1314/127 599/1313/127

v 23.9299 8 -4.18915
f 602/56/127 601/1314/127 600/55/127

v 20.4691 8 -3.89984
vt -3.62757 105.142
f 602/56/127 603/1315/127 601/1314/127

v 22.3852 8 -3.59368
f 604/57/127 603/1315/127 602/56/127

v 18.9292 8 -3.25243
vt -2.98016 106.682
f 604/57/127 605/1316/127 603/1315/127

v 20.8497 8 -2.97508
f 606/58/127 605/1316/127 604/57/127

f 606/58/127 259/750/127 605/1316/127

f 257/59/127 259/750/127 606/58/127

vt -95.5263 2
vt -97.1818 2
f 257/383/68 606/384/69 58/1317/69 258/1318/68 

vt -94.5073 2
vt -96.1628 2
f 606/387/69 604/388/70 57/1319/70 58/1320/69 

v 23.9299 10 -4.18915
vt -93.4668 2
vt -95.1222 2
f 604/391/70 602/392/71 607/1321/71 57/1322/70 

vt -92.405 2
vt -94.0604 2
f 602/395/71 600/396/72 55/1323/72 607/1324/71 

vt -91.3222 2
vt -92.9776 2
f 600/399/72 598/400/73 54/1325/73 55/1326/72 

vt -90.2186 2
vt -91.874 2
f 598/403/73 596/404/74 53/1327/74 54/1328/73 

vt -89.0944 2
vt -90.7498 2
f 596/407/74 594/408/75 52/1329/75 53/1330/74 

v 31.7775 10 -6.81501
vt -87.95 2
vt -89.6054 2
f 594/411/75 592/412/76 608/1331/76 52/1332/75 

vt -86.7855 2
vt -88.441 2
f 592/415/76 591/416/77 50/1333/77 608/1334/76 

v 34.968 10 -7.69916
vt -85.6013 2
vt -87.2568 2
f 591/419/77 589/420/78 609/1335/78 50/1336/77 

vt -84.3976 2
vt -86.0531 2
f 589/423/78 587/424/79 48/1337/79 609/1338/78 

v 38.1836 10 -8.48708
vt -83.1747 2
vt -84.8301 2
f 587/427/79 585/428/80 610/1339/80 48/1340/79 

v 39.8 10 -8.84474
vt -81.9328 2
vt -83.5882 2
f 585/431/80 583/432/81 611/1341/81 610/1342/80 

v 41.4215 10 -9.17808
vt -80.6723 2
vt -82.3277 2
f 583/435/81 581/436/82 612/1343/82 611/1344/81 

v 43.0478 10 -9.48703
vt -79.3934 2
vt -81.0488 2
f 581/439/82 579/440/83 613/1345/83 612/1346/82 

v 44.6786 10 -9.77153
vt -78.0963 2
vt -79.7518 2
f 579/443/83 578/444/84 614/1347/84 613/1348/83 

vt -76.7815 2
vt -78.4369 2
f 578/447/84 576/448/85 42/1349/85 614/1350/84 

vt -75.4492 2
vt -77.1046 2
f 576/451/85 574/452/86 41/1351/86 42/1352/85 

v 49.5941 10 -10.4776
vt -74.0997 2
vt -75.7551 2
f 574/455/86 572/456/87 615/1353/87 41/1354/86 

vt -72.7332 2
vt -74.3887 2
f 572/459/87 571/460/88 39/1355/88 615/1356/87 

v 52.8866 10 -10.8251
vt -71.3502 2
vt -73.0056 2
f 571/463/88 569/464/89 616/1357/89 39/1358/88 

vt -69.9509 2
vt -71.6063 2
f 569/467/89 568/468/90 37/1359/90 616/1360/89 

v 56.188 10 -11.0734
vt -68.5357 2
vt -70.1911 2
f 568/471/90 566/472/91 617/1361/91 37/1362/90 

vt -67.1048 2
vt -68.7602 2
f 566/475/91 565/476/92 35/1363/92 617/1364/91 

v 59.4954 10 -11.2225
vt -65.6585 2
vt -67.3139 2
f 565/479/92 564/480/93 618/1365/93 35/1366/92 

vt -64.1973 2
vt -65.8527 2
f 564/483/93 562/484/94 33/1367/94 618/1368/93 

vt -62.7214 2
vt -64.3768 2
f 562/487/94 560/488/131 32/1369/131 33/1370/94 

v 49.4742 10 -11.4705
vt 11.1982 76.1373
f 619/1371/129 33/702/129 32/703/129

v 47.8174 10 -11.2578
vt 10.9855 77.7942
f 620/1372/129 33/702/129 619/1371/129

f 620/1372/129 618/701/129 33/702/129

f 620/1372/129 35/700/129 618/701/129

f 620/1372/129 617/699/129 35/700/129

v 46.1639 10 -11.0203
vt 10.748 79.4477
f 621/1373/129 617/699/129 620/1372/129

f 621/1373/129 37/698/129 617/699/129

f 621/1373/129 616/697/129 37/698/129

v 44.5142 10 -10.7579
vt 10.4857 81.0974
f 622/1374/129 616/697/129 621/1373/129

f 622/1374/129 39/696/129 616/697/129

f 622/1374/129 615/695/129 39/696/129

v 42.8686 10 -10.4709
vt 10.1986 82.743
f 623/1375/129 615/695/129 622/1374/129

f 623/1375/129 41/694/129 615/695/129

v 41.2275 10 -10.1591
vt 9.88684 84.3841
f 624/1376/129 41/694/129 623/1375/129

f 624/1376/129 42/693/129 41/694/129

v 39.5912 10 -9.82274
vt 9.55047 86.0203
f 625/1377/129 42/693/129 624/1376/129

f 625/1377/129 614/692/129 42/693/129

f 625/1377/129 613/691/129 614/692/129

v 37.9602 10 -9.46184
vt 9.18957 87.6513
f 626/1378/129 613/691/129 625/1377/129

f 626/1378/129 612/690/129 613/691/129

v 36.3349 10 -9.07649
vt 8.80422 89.2767
f 627/1379/129 612/690/129 626/1378/129

f 627/1379/129 611/689/129 612/690/129

v 34.7154 10 -8.66677
vt 8.3945 90.8961
f 628/1380/129 611/689/129 627/1379/129

f 628/1380/129 610/688/129 611/689/129

v 33.1024 10 -8.23277
vt 7.9605 92.5092
f 629/1381/129 610/688/129 628/1380/129

f 629/1381/129 48/687/129 610/688/129

v 31.496 10 -7.7746
vt 7.50233 94.1156
f 630/1382/129 48/687/129 629/1381/129

f 630/1382/129 609/686/129 48/687/129

v 29.8966 10 -7.29236
vt 7.02009 95.7149
f 631/1383/129 609/686/129 630/1382/129

f 631/1383/129 50/685/129 609/686/129

f 631/1383/129 608/684/129 50/685/129

v 28.3047 10 -6.78615
vt 6.51388 97.3068
f 632/1384/129 608/684/129 631/1383/129

f 632/1384/129 52/683/129 608/684/129

v 26.7206 10 -6.25609
vt 5.98382 98.8909
f 633/1385/129 52/683/129 632/1384/129

f 633/1385/129 53/682/129 52/683/129

v 25.1447 10 -5.70231
vt 5.43004 100.467
f 634/1386/129 53/682/129 633/1385/129

f 634/1386/129 54/681/129 53/682/129

v 23.5772 10 -5.12491
vt 4.85264 102.034
f 635/1387/129 54/681/129 634/1386/129

f 635/1387/129 55/680/129 54/681/129

v 22.0185 10 -4.52405
vt 4.25177 103.593
f 636/1388/129 55/680/129 635/1387/129

f 636/1388/129 607/679/129 55/680/129

v 20.4691 10 -3.89984
vt 3.62757 105.142
f 637/1389/129 607/679/129 636/1388/129

f 637/1389/129 57/678/129 607/679/129

v 18.9292 10 -3.25243
vt 2.98016 106.682
f 638/1390/129 57/678/129 637/1389/129

f 638/1390/129 58/677/129 57/678/129

f 260/756/129 58/677/129 638/1390/129

f 260/756/129 258/676/129 58/677/129

vt 96.5161 -6.52172e-14
vt 98.1866 -6.63459e-14
vt 98.1866 2
vt 96.5161 2
f 605/1391/60 259/1392/61 260/1393/61 638/1394/60 

vt 95.5188 -6.2324e-14
vt 97.1893 -6.3414e-14
vt 97.1893 2
vt 95.5188 2
f 603/1395/59 605/1396/60 638/1397/60 637/1398/59 

vt 94.4998 -5.94497e-14
vt 96.1703 -6.05006e-14
vt 96.1703 2
vt 94.4998 2
f 601/1399/58 603/1400/59 637/1401/59 636/1402/58 

vt 93.4593 -5.65967e-14
vt 95.1297 -5.76083e-14
vt 95.1297 2
vt 93.4593 2
f 599/1403/57 601/1404/58 636/1405/58 635/1406/57 

vt 92.3975 -5.37677e-14
vt 94.0679 -5.47397e-14
vt 94.0679 2
vt 92.3975 2
f 597/1407/56 599/1408/57 635/1409/57 634/1410/56 

vt 91.3147 -5.09651e-14
vt 92.9851 -5.18974e-14
vt 92.9851 2
vt 91.3147 2
f 595/1411/55 597/1412/56 634/1413/56 633/1414/55 

vt 90.2111 -4.81917e-14
vt 91.8815 -4.9084e-14
vt 91.8815 2
vt 90.2111 2
f 593/1415/54 595/1416/55 633/1417/55 632/1418/54 

vt 89.0869 -4.54498e-14
vt 90.7574 -4.6302e-14
vt 90.7574 2
vt 89.0869 2
f 590/1419/53 593/1420/54 632/1421/54 631/1422/53 

vt 87.9425 -4.2742e-14
vt 89.6129 -4.35538e-14
vt 89.6129 2
vt 87.9425 2
f 588/1423/52 590/1424/53 631/1425/53 630/1426/52 

vt 86.778 -4.00706e-14
vt 88.4485 -4.0842e-14
vt 88.4485 2
vt 86.778 2
f 586/1427/51 588/1428/52 630/1429/52 629/1430/51 

vt 85.5938 -3.74383e-14
vt 87.2643 -3.81689e-14
vt 87.2643 2
vt 85.5938 2
f 584/1431/50 586/1432/51 629/1433/51 628/1434/50 

vt 84.3901 -3.48472e-14
vt 86.0606 -3.5537e-14
vt 86.0606 2
vt 84.3901 2
f 582/1435/49 584/1436/50 628/1437/50 627/1438/49 

vt 83.1672 -3.22999e-14
vt 84.8376 -3.29487e-14
vt 84.8376 2
vt 83.1672 2
f 580/1439/48 582/1440/49 627/1441/49 626/1442/48 

vt 81.9253 -2.97985e-14
vt 83.5958 -3.04061e-14
vt 83.5958 2
vt 81.9253 2
f 577/1443/47 580/1444/48 626/1445/48 625/1446/47 

vt 80.6648 -2.73454e-14
vt 82.3352 -2.79117e-14
vt 82.3352 2
vt 80.6648 2
f 575/1447/46 577/1448/47 625/1449/47 624/1450/46 

vt 79.3858 -2.49428e-14
vt 81.0563 -2.54677e-14
vt 81.0563 2
vt 79.3858 2
f 573/1451/45 575/1452/46 624/1453/46 623/1454/45 

vt 78.0888 -2.25929e-14
vt 79.7593 -2.30762e-14
vt 79.7593 2
vt 78.0888 2
f 570/1455/44 573/1456/45 623/1457/45 622/1458/44 

vt 76.774 -2.02978e-14
vt 78.4445 -2.07394e-14
vt 78.4445 2
vt 76.774 2
f 567/1459/43 570/1460/44 622/1461/44 621/1462/43 

vt 75.4417 -1.80596e-14
vt 77.1121 -1.84595e-14
vt 77.1121 2
vt 75.4417 2
f 563/1463/42 567/1464/43 621/1465/43 620/1466/42 

vt 74.0922 -1.58803e-14
vt 75.7626 -1.62383e-14
vt 75.7626 2
vt 74.0922 2
f 561/1467/41 563/1468/42 620/1469/42 619/1470/41 

v 51.1341 8 -11.6582
vt 72.7257 -1.37619e-14
vt 74.3962 -1.4078e-14
vt 74.3962 2
v 51.1341 10 -11.6582
vt 72.7257 2
f 639/1471/40 561/1472/41 619/1473/41 640/1474/40 

vt -11.3859 74.4775
f 557/1290/127 561/1297/127 639/1475/127

v 74.4775 8 -11.6582
vt -11.3859 51.1341
f 557/1290/127 639/1475/127 641/1476/127

v 52.7966 8 -11.821
vt -11.5488 72.815
f 641/1476/127 639/1475/127 642/1477/127

vt 71.3427 -1.17063e-14
vt 73.0132 -1.19804e-14
vt 73.0132 2
v 52.7966 10 -11.821
vt 71.3427 2
f 642/1478/39 639/1479/40 640/1480/40 643/1481/39 

vt 11.3859 74.4775
v 74.4775 10 -11.6582
vt 11.3859 51.1341
vt 11.5488 72.815
f 640/1482/129 644/1483/129 643/1484/129

f 640/1482/129 556/1285/129 644/1483/129

f 619/1371/129 556/1285/129 640/1482/129

f 32/703/129 556/1285/129 619/1371/129

f 555/704/129 556/1285/129 32/703/129

vt 50.4194 9.54084e-15
vt 52.0898 9.85694e-15
vt 52.0898 2
vt 50.4194 2
f 557/1485/25 641/1486/26 644/1487/26 556/1488/25 

vt 52.0003 8.5325e-15
v 72.815 8 -11.821
vt 53.6708 8.8066e-15
v 72.815 10 -11.821
vt 53.6708 2
vt 52.0003 2
f 641/1489/26 645/1490/27 646/1491/27 644/1492/26 

vt -11.5488 52.7966
f 641/1476/127 642/1477/127 645/1493/127

v 54.4613 8 -11.9588
vt -11.6866 71.1502
f 645/1493/127 642/1477/127 647/1494/127

vt 69.9434 -9.71544e-15
vt 71.6139 -9.94747e-15
vt 71.6139 2
v 54.4613 10 -11.9588
vt 69.9434 2
f 647/1495/38 642/1496/39 643/1497/39 648/1498/38 

vt 11.5488 52.7966
vt 11.6866 71.1502
f 643/1484/129 646/1499/129 648/1500/129

f 643/1484/129 644/1483/129 646/1499/129

v 71.1502 10 -11.9588
vt 11.6866 54.4613
f 648/1500/129 646/1499/129 649/1501/129

vt 53.5694 7.44102e-15
v 71.1502 8 -11.9588
vt 55.2399 7.67305e-15
vt 55.2399 2
vt 53.5694 2
f 645/1502/27 650/1503/28 649/1504/28 646/1505/27 

vt -11.6866 54.4613
f 645/1493/127 647/1494/127 650/1506/127

v 56.1279 8 -12.0717
vt -11.7994 69.4836
f 650/1506/127 647/1494/127 651/1507/127

vt 68.5281 -7.79108e-15
vt 70.1986 -7.981e-15
vt 70.1986 2
v 56.1279 10 -12.0717
vt 68.5281 2
f 651/1508/37 647/1509/38 648/1510/38 652/1511/37 

vt 11.7994 69.4836
f 648/1500/129 649/1501/129 652/1512/129

v 69.4836 10 -12.0717
vt 11.7994 56.1279
f 652/1512/129 649/1501/129 653/1513/129

vt 55.1262 6.26739e-15
v 69.4836 8 -12.0717
vt 56.7966 6.45731e-15
vt 56.7966 2
vt 55.1262 2
f 650/1514/28 654/1515/29 653/1516/29 649/1517/28 

vt -11.7994 56.1279
f 650/1506/127 651/1507/127 654/1518/127

v 57.7961 8 -12.1594
vt -11.8872 67.8155
f 654/1518/127 651/1507/127 655/1519/127

vt 67.0972 -5.93498e-15
vt 68.7677 -6.08274e-15
vt 68.7677 2
v 57.7961 10 -12.1594
vt 67.0972 2
f 655/1520/36 651/1521/37 652/1522/37 656/1523/36 

vt 11.8872 67.8155
f 652/1512/129 653/1513/129 656/1524/129

v 67.8155 10 -12.1594
vt 11.8872 57.7961
f 656/1524/129 653/1513/129 657/1525/129

vt 56.6704 5.01269e-15
v 67.8155 8 -12.1594
vt 58.3408 5.16045e-15
vt 58.3408 2
vt 56.6704 2
f 654/1526/29 658/1527/30 657/1528/30 653/1529/29 

vt -11.8872 57.7961
f 654/1518/127 655/1519/127 658/1530/127

v 59.4654 8 -12.2221
vt -11.9499 66.1462
f 658/1530/127 655/1519/127 659/1531/127

vt 65.651 -4.14884e-15
vt 67.3215 -4.2544e-15
vt 67.3215 2
v 59.4654 10 -12.2221
vt 65.651 2
f 659/1532/35 655/1533/36 656/1534/36 660/1535/35 

vt 11.9499 66.1462
f 656/1524/129 657/1525/129 660/1536/129

v 66.1462 10 -12.2221
vt 11.9499 59.4654
f 660/1536/129 657/1525/129 661/1537/129

vt 58.2016 3.67807e-15
v 66.1462 8 -12.2221
vt 59.872 3.78363e-15
vt 59.872 2
vt 58.2016 2
f 658/1538/30 662/1539/31 661/1540/31 657/1541/30 

vt -11.9499 59.4654
f 658/1530/127 659/1531/127 662/1542/127

v 61.1354 8 -12.2598
vt -11.9875 64.4762
f 662/1542/127 659/1531/127 663/1543/127

vt 64.1898 -2.43426e-15
vt 65.8602 -2.49761e-15
vt 65.8602 2
v 61.1354 10 -12.2598
vt 64.1898 2
f 663/1544/34 659/1545/35 660/1546/35 664/1547/34 

vt 11.9875 64.4762
f 660/1536/129 661/1537/129 664/1548/129

v 64.4762 10 -12.2598
vt 11.9875 61.1354
f 664/1548/129 661/1537/129 665/1549/129

vt 59.7194 2.26473e-15
v 64.4762 8 -12.2598
vt 61.3899 2.32808e-15
vt 61.3899 2
vt 59.7194 2
f 662/1550/31 666/1551/32 665/1552/32 661/1553/31 

vt -11.9875 61.1354
f 662/1542/127 663/1543/127 666/1554/127

v 62.8058 8 -12.2723
vt -12 62.8058
f 666/1554/127 663/1543/127 667/1555/127

vt 62.7139 -7.92824e-16
vn -7.83797e-12 1.68353e-15 -1
vt 64.3843 -8.13941e-16
vt 64.3843 2
v 62.8058 10 -12.2723
vt 62.7139 2
f 667/1556/132 663/1557/34 664/1558/34 668/1559/132 

vt 12 62.8058
f 664/1548/129 665/1549/129 668/1560/129

vt 61.2237 7.73984e-16
vt 62.8941 7.95101e-16
vt 62.8941 2
vt 61.2237 2
f 666/1561/32 667/1562/132 668/1563/132 665/1564/32 

vt -26.5451 4.02298e-14
vn -0.900206 7.33118e-16 -0.435464
vt 5.45486 -8.26699e-15
vt 5.45486 2
vt -26.5451 2
f 416/1565/133 417/1566/133 470/1567/133 469/1568/133 

vt -15.2795 1.10275e-14
vt -14.1285 1.01968e-14
vt -14.1285 2
vt -15.2795 2
f 414/1569/124 416/1570/125 469/1571/125 468/1572/124 

vt -17.0286 1.18995e-14
vt -14.8775 1.03963e-14
vt -14.8775 2
vt -17.0286 2
f 413/1573/123 414/1574/124 468/1575/124 467/1576/123 

vt -18.774 1.26858e-14
vt -16.623 1.12324e-14
vt -16.623 2
vt -18.774 2
f 411/1577/122 413/1578/123 467/1579/123 466/1580/122 

vt -20.5155 1.33859e-14
vt -18.3645 1.19824e-14
vt -18.3645 2
vt -20.5155 2
f 409/1581/121 411/1582/122 466/1583/122 465/1584/121 

vt -22.2526 1.39991e-14
vt -20.1015 1.26458e-14
vt -20.1015 2
vt -22.2526 2
f 407/1585/120 409/1586/121 465/1587/121 464/1588/120 

vt -23.9849 1.45247e-14
vt -21.8338 1.3222e-14
vt -21.8338 2
vt -23.9849 2
f 405/1589/119 407/1590/120 464/1591/120 463/1592/119 

vt -25.712 1.49622e-14
vt -23.561 1.37105e-14
vt -23.561 2
vt -25.712 2
f 403/1593/118 405/1594/119 463/1595/119 462/1596/118 

vt -27.4336 1.53114e-14
vt -25.2825 1.41109e-14
vt -25.2825 2
vt -27.4336 2
f 401/1597/117 403/1598/118 462/1599/118 461/1600/117 

vt -29.1492 1.55718e-14
vt -26.9982 1.44227e-14
vt -26.9982 2
vt -29.1492 2
f 399/1601/116 401/1602/117 461/1603/117 460/1604/116 

vt -30.8585 1.57432e-14
vt -28.7075 1.46458e-14
vt -28.7075 2
vt -30.8585 2
f 397/1605/115 399/1606/116 460/1607/116 459/1608/115 

vt -32.5611 1.58254e-14
vt -30.4101 1.47799e-14
vt -30.4101 2
vt -32.5611 2
f 395/1609/114 397/1610/115 459/1611/115 458/1612/114 

vt -34.2566 1.58183e-14
vt -32.1055 1.48251e-14
vt -32.1055 2
vt -34.2566 2
f 393/1613/113 395/1614/114 458/1615/114 457/1616/113 

vt -35.9446 1.5722e-14
vt -33.7935 1.47811e-14
vt -33.7935 2
vt -35.9446 2
f 391/1617/112 393/1618/113 457/1619/113 456/1620/112 

vt -37.6247 1.55364e-14
vt -35.4737 1.46482e-14
vt -35.4737 2
vt -37.6247 2
f 389/1621/111 391/1622/112 456/1623/112 455/1624/111 

vt -39.2966 1.52617e-14
vt -37.1456 1.44263e-14
vt -37.1456 2
vt -39.2966 2
f 387/1625/110 389/1626/111 455/1627/111 454/1628/110 

vt -40.9599 1.48983e-14
vt -38.8088 1.41159e-14
vt -38.8088 2
vt -40.9599 2
f 386/1629/109 387/1630/110 454/1631/110 453/1632/109 

vt -42.6141 1.44462e-14
vt -40.4631 1.3717e-14
vt -40.4631 2
vt -42.6141 2
f 384/1633/108 386/1634/109 453/1635/109 452/1636/108 

vt -44.259 1.39061e-14
vt -42.108 1.32302e-14
vt -42.108 2
vt -44.259 2
f 382/1637/107 384/1638/108 452/1639/108 451/1640/107 

vt -45.8942 1.32783e-14
vt -43.7432 1.26559e-14
vt -43.7432 2
vt -45.8942 2
f 380/1641/106 382/1642/107 451/1643/107 450/1644/106 

vt -47.5193 1.25633e-14
vt -45.3682 1.19946e-14
vt -45.3682 2
vt -47.5193 2
f 378/1645/105 380/1646/106 450/1647/106 449/1648/105 

vt -49.1338 1.17619e-14
vt -46.9828 1.1247e-14
vt -46.9828 2
vt -49.1338 2
f 376/1649/104 378/1650/105 449/1651/105 448/1652/104 

vt -50.7376 1.08746e-14
vt -48.5865 1.04136e-14
vt -48.5865 2
vt -50.7376 2
f 375/1653/103 376/1654/104 448/1655/104 447/1656/103 

vt -52.3301 9.90241e-15
vt -50.1791 9.49537e-15
vt -50.1791 2
vt -52.3301 2
f 373/1657/102 375/1658/103 447/1659/103 446/1660/102 

vt -53.9111 8.84603e-15
vt -51.7601 8.49307e-15
vt -51.7601 2
vt -53.9111 2
f 371/1661/101 373/1662/102 446/1663/102 445/1664/101 

vt -55.4801 7.70643e-15
vt -53.3291 7.40764e-15
vt -53.3291 2
vt -55.4801 2
f 370/1665/100 371/1666/101 445/1667/101 444/1668/100 

vt -57.0369 6.48463e-15
vt -54.8859 6.24007e-15
vt -54.8859 2
vt -57.0369 2
f 368/1669/99 370/1670/100 444/1671/100 443/1672/99 

vt -58.5811 5.1817e-15
vt -56.4301 4.99144e-15
vt -56.4301 2
vt -58.5811 2
f 367/1673/98 368/1674/99 443/1675/99 442/1676/98 

vt -60.1123 3.79882e-15
vt -57.9613 3.66288e-15
vt -57.9613 2
vt -60.1123 2
f 366/1677/97 367/1678/98 442/1679/98 441/1680/97 

vt -61.6302 2.33719e-15
vt -59.4792 2.25562e-15
vt -59.4792 2
vt -61.6302 2
f 364/1681/96 366/1682/97 441/1683/97 440/1684/96 

vt -63.1344 7.9814e-16
vt -60.9834 7.70946e-16
vt -60.9834 2
vt -63.1344 2
f 361/1685/130 364/1686/96 440/1687/96 362/1688/130 

f 358/649/129 359/971/129 362/1073/129

f 439/648/129 435/635/129 437/636/129

v 51.9856 10 -44.8658
f 439/648/129 437/636/129 669/647/129

v 73.6259 10 -44.8658
f 669/647/129 437/636/129 670/637/129

v 73.6259 8 -44.8658
vt 55.4877 2
vt 53.3216 2
f 436/223/27 671/224/28 670/1689/28 437/1690/27 

v 51.9856 8 -44.8658
f 436/99/127 672/88/127 671/98/127

f 436/99/127 438/87/127 672/88/127

vt 71.8617 2
vt 69.6956 2
f 672/267/38 438/268/39 439/1691/39 669/1692/38 

v 54.1467 8 -45.0121
vt 70.4464 2
v 54.1467 10 -45.0121
vt 68.2803 2
f 673/263/37 672/264/38 669/1693/38 674/1694/37 

f 671/98/127 672/88/127 673/89/127

v 71.4648 8 -45.0121
f 671/98/127 673/89/127 675/97/127

v 56.3098 8 -45.1259
f 675/97/127 673/89/127 676/90/127

vt 69.0155 2
v 56.3098 10 -45.1259
vt 66.8494 2
f 676/259/36 673/260/37 674/1695/37 677/1696/36 

v 71.4648 10 -45.0121
f 674/646/129 678/638/129 677/645/129

f 674/646/129 670/637/129 678/638/129

f 669/647/129 670/637/129 674/646/129

vt 57.0444 2
vt 54.8784 2
f 671/227/28 675/228/29 678/1697/29 670/1698/28 

v 69.3018 8 -45.1259
vt 58.5886 2
vt 56.4226 2
f 675/231/29 679/232/30 96/1699/30 678/1700/29 

f 675/97/127 676/90/127 679/96/127

v 58.4743 8 -45.2072
f 679/96/127 676/90/127 680/91/127

vt 67.5693 2
v 58.4743 10 -45.2072
vt 65.4032 2
f 680/255/35 676/256/36 677/1701/36 681/1702/35 

f 677/645/129 96/639/129 681/644/129

f 677/645/129 678/638/129 96/639/129

f 681/644/129 96/639/129 95/640/129

v 67.1373 8 -45.2072
vt 60.1198 2
vt 57.9538 2
f 679/235/30 682/236/31 95/1703/31 96/1704/30 

f 679/96/127 680/91/127 682/95/127

v 60.6398 8 -45.256
f 682/95/127 680/91/127 683/92/127

vt 66.108 2
vt 63.942 2
f 683/251/34 680/252/35 681/1705/35 92/1706/34 

f 681/644/129 95/640/129 92/643/129

v 64.9718 10 -45.256
f 92/643/129 95/640/129 684/641/129

v 64.9718 8 -45.256
vt 61.6377 2
vt 59.4716 2
f 682/239/31 685/240/32 684/1707/32 95/1708/31 

f 682/95/127 683/92/127 685/94/127

v 62.8058 8 -45.2723
f 685/94/127 683/92/127 686/93/127

vn -7.83018e-12 1.68353e-15 -1
vt 64.6321 2
v 62.8058 10 -45.2723
vt 62.4661 2
f 686/247/134 683/248/34 92/1709/34 687/1710/134 

f 92/643/129 684/641/129 687/642/129

vt 63.1419 2
vt 60.9759 2
f 685/243/32 686/244/134 687/1711/134 684/1712/32 

g Mesh3 Group5 Group3 Group1 Model

v 2.39155e-10 5.24025e-14 -30.8793
vt -1.80041 1.77113
vn 1.27242e-22 -1 -1.68353e-15
v 0.903476 5.32907e-14 -31.308
vt -2.22912 0.867658
v 1.77113 4.9738e-14 -29.5143
vt -0.435464 7.22594e-09
v 0.870928 4.88498e-14 -29.0789
vt -4.89422e-09 0.900206
f 688/1713/135 689/1714/135 690/1715/135 691/1716/135 

v 2.39155e-10 8 -30.8793
vt 0.82831 8
v 0.903476 8 -31.308
vt -0.171718 8
vt -0.171718 1.70021e-15
vt 0.82831 8.12032e-16
f 692/1717/63 693/1718/63 689/1719/63 688/1720/63 

vt 2.22912 0.867658
vn -1.27242e-22 1 1.68353e-15
vt 1.80041 1.77113
v 0.870928 8 -29.0789
vt 4.89423e-09 0.900206
v 1.77113 8 -29.5143
vt 0.435464 7.22594e-09
f 693/1721/136 692/1722/136 694/1723/136 695/1724/136 

vt -0.392007 8
vt -2.39201 8
vt -2.39201 5.03499e-15
vt -0.392007 1.48228e-15
f 694/1725/64 692/1726/64 688/1727/64 691/1728/64 

vt 0.189629 8
vn 0.435464 -1.51553e-15 0.900206
vt -0.810371 8
vt -0.810371 2.94081e-16
vt 0.189629 1.18226e-15
f 695/1729/137 694/1730/137 691/1731/137 690/1732/137 

vt 2.3845 8
vt 0.392007 8
vt 0.392007 1.63734e-15
vt 2.3845 5.19005e-15
f 693/1733/128 695/1734/128 690/1735/128 689/1736/128 

g Mesh4 Group6 Group3 Group1 Model

v 124.533 4.88498e-14 -31.3942
vn 1.31388e-15 -1 -1.05262e-15
v 125.432 4.9738e-14 -30.9572
v 124.575 4.61853e-14 -29.1586
v 123.672 4.52971e-14 -29.5888
f 696/1713/138 697/1714/138 698/1715/138 699/1716/138 

v 124.533 8 -31.3942
vn 0.437044 1.52099e-15 -0.89944
v 125.432 8 -30.9572
f 700/1717/139 701/1718/139 697/1719/139 696/1720/139 

vn -1.31388e-15 1 1.05262e-15
v 123.672 8 -29.5888
v 124.575 8 -29.1586
f 701/1721/140 700/1722/140 702/1723/140 703/1724/140 

vn -0.902697 -7.33118e-16 -0.430278
f 702/1725/141 700/1726/141 696/1727/141 699/1728/141 

vn -0.430278 -1.51553e-15 0.902697
f 703/1729/142 702/1730/142 699/1731/142 698/1732/142 

vn 0.902697 7.33118e-16 0.430278
f 701/1733/143 703/1734/143 698/1735/143 697/1736/143 

g Mesh5 Group7 Group3 Group1 Model

v 13.9348 3.55271e-15 -2.07268
v 14.8383 4.44089e-15 -2.50139
v 15.706 8.88178e-16 -0.707735
v 14.8058 0 -0.272271
f 704/1713/135 705/1714/135 706/1715/135 707/1716/135 

v 13.9348 8 -2.07268
v 14.8383 8 -2.50139
f 708/1717/63 709/1718/63 705/1719/63 704/1720/63 

v 14.8058 8 -0.272271
v 15.706 8 -0.707735
f 709/1721/136 708/1722/136 710/1723/136 711/1724/136 

f 710/1725/64 708/1726/64 704/1727/64 707/1728/64 

f 711/1729/137 710/1730/137 707/1731/137 706/1732/137 

f 709/1733/128 711/1734/128 706/1735/128 705/1736/128 

g Mesh6 Group8 Group3 Group1 Model

v 110.764 3.55271e-15 -2.50794
v 111.663 4.44089e-15 -2.07089
v 110.806 8.88178e-16 -0.272271
v 109.903 0 -0.702548
f 712/1713/138 713/1714/138 714/1715/138 715/1716/138 

v 110.764 8 -2.50794
v 111.663 8 -2.07089
f 716/1717/139 717/1718/139 713/1719/139 712/1720/139 

v 109.903 8 -0.702548
v 110.806 8 -0.272271
f 717/1721/140 716/1722/140 718/1723/140 719/1724/140 

f 718/1725/141 716/1726/141 712/1727/141 715/1728/141 

f 719/1729/142 718/1730/142 715/1731/142 714/1732/142 

f 717/1733/143 719/1734/143 714/1735/143 713/1736/143 

