# Alias OBJ Model File
# Exported from SketchUp, (c) 2000-2012 Trimble Navigation Limited
# File units = inches

mtllib 50 BRAVADA ottoman 30 x 22.mtl

g Mesh1 Group4 Group3 Group2 Group1 Model

usemtl _Color_M05_4
v 1.90164 10 -10.4607
vt 0 0
vn 5.16988e-26 -1 6.73715e-10
v 1.90164 10 -11.4607
vt 0 1
v 27.9016 10 -11.4607
vt -26 1
v 27.9016 10 -10.4607
vt -26 0
f 1/1/1 2/2/1 3/3/1 4/4/1 

vt -1 0
vn -1 5.2575e-21 7.80381e-12
v 1.90164 10.125 -10.4607
vt 0 0.125
v 1.90164 10.125 -11.4607
vt -1 0.125
f 2/5/2 1/1/2 5/6/2 6/7/2 

vn 7.80381e-12 6.73715e-10 1
vt 26 0
v 27.9016 10.125 -10.4607
vt 26 0.125
f 1/1/3 4/8/3 7/9/3 5/6/3 

vn 1 -5.2575e-21 -7.80381e-12
vt 1 0
v 27.9016 10.125 -11.4607
vt 1 0.125
f 4/1/4 3/10/4 8/11/4 7/6/4 

vn -7.80381e-12 -6.73715e-10 -1
vt -26 0.125
f 3/4/5 2/1/5 6/6/5 8/12/5 

vn -5.16988e-26 1 -6.73715e-10
vt 26 1
f 6/2/6 5/1/6 7/8/6 8/13/6 

g Mesh2 Group5 Group3 Group2 Group1 Model

v 19.9016 10 -1.96067
vt -1 2.7391e-33
vn -2.22045e-16 -1 6.73715e-10
v 18.9016 10 -1.96067
vt 9.86076e-32 5.4782e-33
v 18.9016 10 -19.9607
vt 9.86076e-32 18
v 19.9016 10 -19.9607
vt -1 18
f 9/14/7 10/15/7 11/16/7 12/17/7 

vt 0 4.44089e-16
vt 1 -6.75781e-50
v 19.9016 10.125 -1.96067
v 18.9016 10.125 -1.96067
f 10/18/3 9/19/3 13/11/3 14/6/3 

vt -5.4782e-33 2.22045e-16
vn 1 -2.2205e-16 -7.80381e-12
vt 18 6.66134e-16
v 19.9016 10.125 -19.9607
vt 18 0.125
vt -5.4782e-33 0.125
f 9/20/8 12/21/8 15/22/8 13/23/8 

vt -1 2.22045e-16
vt 0 2.22045e-16
v 18.9016 10.125 -19.9607
f 12/24/5 11/25/5 16/6/5 15/7/5 

vt -18 4.44089e-16
vn -1 2.2205e-16 7.80381e-12
vt -18 0.125
f 11/26/9 10/18/9 14/6/9 16/27/9 

vt -2.77556e-17 1.54198e-18
vn 2.22045e-16 1 -6.73715e-10
vt 1 1.54198e-18
vt 1 18
vt -2.77556e-17 18
f 14/28/10 13/29/10 15/30/10 16/31/10 

g Mesh3 Group6 Group3 Group2 Group1 Model

v 10.9016 10 -1.96067
v 9.90164 10 -1.96067
v 9.90164 10 -19.9607
v 10.9016 10 -19.9607
f 17/14/7 18/15/7 19/16/7 20/17/7 

v 10.9016 10.125 -1.96067
v 9.90164 10.125 -1.96067
f 18/18/3 17/19/3 21/11/3 22/6/3 

v 10.9016 10.125 -19.9607
f 17/20/8 20/21/8 23/22/8 21/23/8 

v 9.90164 10.125 -19.9607
f 20/24/5 19/25/5 24/6/5 23/7/5 

f 19/26/9 18/18/9 22/6/9 24/27/9 

f 22/28/10 21/29/10 23/30/10 24/31/10 

g Mesh4 Group8 Group7 Group2 Group1 Model

v 1.90164 8 -1.96067
vt -2 2
v 27.9016 8 -1.96067
vt -28 2
v 29.9016 8 0.0393281
vt -30 0
v -0.098364 8 0.0393281
f 25/32/1 26/33/1 27/34/1 28/1/1 

vt -28 0
vt -2 0
v 1.90164 10 -1.96067
v 27.9016 10 -1.96067
f 26/35/5 25/36/5 29/32/5 30/33/5 

vt -2.82843 0
vn -0.707107 -4.76389e-10 -0.707107
v -0.098364 10 0.0393281
vt 0 2
vt -2.82843 2
f 25/37/11 28/1/11 31/38/11 29/39/11 

vt 30 0
v 29.9016 10 0.0393281
vt 30 2
f 28/1/3 27/40/3 32/41/3 31/38/3 

vt -21.2132 0
vn 0.707107 -4.76389e-10 -0.707107
vt -18.3848 0
vt -18.3848 2
vt -21.2132 2
f 27/42/12 26/43/12 30/44/12 32/45/12 

vt 28 2
vt 2 2
f 30/46/6 29/47/6 31/1/6 32/40/6 

g Mesh5 Group9 Group7 Group2 Group1 Model

v -0.098364 8 -21.9607
vt 0 22
v 1.90164 8 -19.9607
vt -2 20
f 33/48/1 34/49/1 25/32/1 28/1/1 

vt 12.7279 0
vt 15.5563 0
v -0.098364 10 -21.9607
vt 15.5563 2
v 1.90164 10 -19.9607
vt 12.7279 2
f 34/50/12 33/51/12 35/52/12 36/53/12 

vt -22 2
f 33/49/2 28/1/2 31/38/2 35/54/2 

vn 0.707107 4.76389e-10 0.707107
vt 2.82843 0
vt 2.82843 2
f 28/1/13 25/55/13 29/56/13 31/38/13 

vt 2 0
vt 20 0
vt 20 2
f 25/57/4 34/58/4 36/59/4 29/47/4 

vt 2 20
f 36/60/6 35/48/6 31/1/6 29/47/6 

g Mesh6 Group10 Group7 Group2 Group1 Model

v 29.9016 10 -21.9607
vt 2 22
v 27.9016 10 -19.9607
vt 0 20
f 30/38/6 32/57/6 37/61/6 38/62/6 

vt -1.41421 0
vn -0.707107 4.76389e-10 0.707107
vt 1.41421 0
vt 1.41421 2
vt -1.41421 2
f 26/63/14 27/64/14 32/65/14 30/66/14 

v 27.9016 8 -19.9607
v 29.9016 8 -21.9607
f 27/36/1 26/38/1 39/62/1 40/54/1 

vt -20 0
vt -20 2
f 39/67/2 26/36/2 30/32/2 38/68/2 

vt -16.9706 0
vt -14.1421 0
vt -14.1421 2
vt -16.9706 2
f 40/69/11 39/70/11 38/71/11 37/72/11 

f 27/1/4 40/60/4 37/61/4 32/38/4 

g Mesh7 Group11 Group7 Group2 Group1 Model

v 27.9016 8 -19.9607
vt -30 2
f 41/35/1 34/36/1 33/38/1 40/73/1 

vt 28 0
v 27.9016 10 -19.9607
f 34/57/3 41/74/3 42/46/3 36/47/3 

vt 19.799 0
vt 22.6274 0
vt 22.6274 2
vt 19.799 2
f 41/75/13 40/76/13 37/77/13 42/78/13 

f 40/34/5 33/1/5 35/38/5 37/73/5 

f 33/63/14 34/64/14 36/65/14 35/66/14 

f 36/57/6 42/74/6 37/41/6 35/38/6 

g Mesh8 Group12 Group2 Group1 Model

v 1.90164 8 0.0393281
v -0.098364 8 -1.96067
f 43/57/6 25/47/6 44/38/6 28/1/6 

vt 2 8
vt 0 8
v 1.90164 1.48217e-08 0.0393282
v 1.90164 1.34743e-08 -1.96067
f 25/79/4 43/80/4 45/1/4 46/57/4 

v -0.098364 1.48217e-08 0.0393282
f 43/79/3 28/80/3 47/1/3 45/57/3 

vt -2 8
v -0.098364 1.34743e-08 -1.96067
f 28/80/2 44/81/2 48/36/2 47/1/2 

f 44/80/5 25/81/5 46/36/5 48/1/5 

f 46/32/1 45/36/1 47/1/1 48/38/1 

g Mesh9 Group13 Group2 Group1 Model

v 1.90164 8 -19.9607
v 1.90164 8 -21.9607
v -0.098364 8 -21.9607
v -0.098364 8 -19.9607
f 49/57/6 50/47/6 51/38/6 52/1/6 

v 1.90164 1.34743e-09 -19.9607
v 1.90164 -3.37012e-15 -21.9607
f 50/79/4 49/80/4 53/1/4 54/57/4 

v -0.098364 1.34743e-09 -19.9607
f 49/79/3 52/80/3 55/1/3 53/57/3 

v -0.098364 -3.37011e-15 -21.9607
f 52/80/2 51/81/2 56/36/2 55/1/2 

f 51/80/5 50/81/5 54/36/5 56/1/5 

f 54/32/1 53/36/1 55/1/1 56/38/1 

g Mesh10 Group14 Group2 Group1 Model

v 29.9016 8 -1.96067
v 27.9016 8 0.0393281
f 27/57/6 57/47/6 26/38/6 58/1/6 

v 29.9016 1.48217e-08 0.0393282
v 29.9016 1.34743e-08 -1.96067
f 57/79/4 27/80/4 59/1/4 60/57/4 

v 27.9016 1.48217e-08 0.0393282
f 27/79/3 58/80/3 61/1/3 59/57/3 

v 27.9016 1.34743e-08 -1.96067
f 58/80/2 26/81/2 62/36/2 61/1/2 

f 26/80/5 57/81/5 60/36/5 62/1/5 

f 60/32/1 59/36/1 61/1/1 62/38/1 

g Mesh11 Group15 Group2 Group1 Model

v 29.9016 8 -19.9607
v 29.9016 8 -21.9607
v 27.9016 8 -21.9607
f 63/57/6 64/47/6 65/38/6 41/1/6 

v 29.9016 1.34743e-09 -19.9607
v 29.9016 -3.37027e-15 -21.9607
f 64/79/4 63/80/4 66/1/4 67/57/4 

v 27.9016 1.34743e-09 -19.9607
f 63/79/3 41/80/3 68/1/3 66/57/3 

v 27.9016 -3.37026e-15 -21.9607
f 41/80/2 65/81/2 69/36/2 68/1/2 

f 65/80/5 64/81/5 67/36/5 69/1/5 

f 67/32/1 66/36/1 68/1/1 69/38/1 

g Mesh12 Group16 Group1 Model

usemtl FrontColor
v 29.9016 16 0.0393281
vt 30 6
v -0.098364 16 0.0393281
vt 0 6
f 31/1/3 32/40/3 70/82/3 71/83/3 

v 29.9016 10 -21.9607
vt -30 22
v -0.098364 10 -21.9607
f 72/84/1 32/34/1 31/1/1 73/48/1 

v 29.9016 16 -21.9607
vt 22 6
f 32/1/4 72/60/4 74/85/4 70/83/4 

v -0.098364 16 -21.9607
vt -30 6
f 72/34/5 73/1/5 75/83/5 74/86/5 

vt -22 6
f 73/49/2 31/1/2 71/83/2 75/87/2 

vt 30 22
f 70/40/6 74/88/6 75/48/6 71/1/6 

g Mesh13 Component_86_1 Group1 Model

v 3.90164 8 0.0393281
v 3.90164 10 0.0393281
v 4.90164 10 0.0393281
vt -1 2
v 4.90164 8 0.0393281
f 76/1/5 77/38/5 78/89/5 79/5/5 

v 3.90164 8 0.139328
vt 0.1 0
v 3.90164 10 0.139328
vt 0.1 2
f 77/38/2 76/1/2 80/90/2 81/91/2 

v 4.90164 8 0.139328
vt -1 -0.1
vt 0 -0.1
f 76/1/1 79/5/1 82/92/1 80/93/1 

v 4.90164 10 0.139328
vt -0.1 2
vt -0.1 0
f 79/1/4 78/38/4 83/94/4 82/95/4 

vt 1 -0.1
f 78/10/6 77/1/6 81/93/6 83/96/6 

vt 1 2
f 81/38/3 80/1/3 82/10/3 83/97/3 

g Mesh14 Component_86_2 Group1 Model

v 24.9016 8 0.0393281
v 24.9016 10 0.0393281
v 25.9016 10 0.0393281
v 25.9016 8 0.0393281
f 84/1/5 85/38/5 86/89/5 87/5/5 

v 24.9016 8 0.139328
v 24.9016 10 0.139328
f 85/38/2 84/1/2 88/90/2 89/91/2 

v 25.9016 8 0.139328
f 84/1/1 87/5/1 90/92/1 88/93/1 

v 25.9016 10 0.139328
f 87/1/4 86/38/4 91/94/4 90/95/4 

f 86/10/6 85/1/6 89/93/6 91/96/6 

f 89/38/3 88/1/3 90/10/3 91/97/3 

g Mesh15 Component_86_3 Group1 Model

v 24.9016 8 -22.0607
v 24.9016 10 -22.0607
v 25.9016 10 -22.0607
v 25.9016 8 -22.0607
f 92/1/5 93/38/5 94/89/5 95/5/5 

v 24.9016 8 -21.9607
v 24.9016 10 -21.9607
f 93/38/2 92/1/2 96/90/2 97/91/2 

v 25.9016 8 -21.9607
f 92/1/1 95/5/1 98/92/1 96/93/1 

v 25.9016 10 -21.9607
f 95/1/4 94/38/4 99/94/4 98/95/4 

f 94/10/6 93/1/6 97/93/6 99/96/6 

f 97/38/3 96/1/3 98/10/3 99/97/3 

g Mesh16 Component_86_4 Group1 Model

v 3.90164 8 -22.0607
v 3.90164 10 -22.0607
v 4.90164 10 -22.0607
v 4.90164 8 -22.0607
f 100/1/5 101/38/5 102/89/5 103/5/5 

v 3.90164 8 -21.9607
v 3.90164 10 -21.9607
f 101/38/2 100/1/2 104/90/2 105/91/2 

v 4.90164 8 -21.9607
f 100/1/1 103/5/1 106/92/1 104/93/1 

v 4.90164 10 -21.9607
f 103/1/4 102/38/4 107/94/4 106/95/4 

f 102/10/6 101/1/6 105/93/6 107/96/6 

f 105/38/3 104/1/3 106/10/3 107/97/3 

