# Alias OBJ Model File
# Exported from SketchUp, (c) 2000-2012 Trimble Navigation Limited
# File units = inches

mtllib 51 BROOKLYN ottoman 42 x 22.mtl

g Mesh1 Group3 Group2 Group1 Model

usemtl _Color_M06_5
v 38.3547 0.25 -21.4142
vt 0.157559 6.13669e-12
vn -0.752577 -4.84864e-12 -0.658505
v 38.2639 0.25 -21.3107
vt 0.0270329 6.65006e-12
vn -0.89257 -3.76933e-12 -0.45091
v 38.2639 1 -21.3107
vt 0.0270329 0.75
v 38.3547 1 -21.4142
vt 0.157559 0.75
f 1/1/1 2/2/2 3/3/2 4/4/1 

v 39.2537 0.25 -20.8107
vt -0.0669873 0.25
vn 1.55535e-12 -1 6.00219e-12
v 39.1628 0.25 -20.7071
vt -0.146447 0.146447
v 39.0445 0.25 -20.6277
vt -0.25 0.0669873
v 38.9067 0.25 -20.5777
vt -0.37059 0.0170371
v 38.7588 0.25 -20.5607
vt -0.5 -4.05537e-23
v 38.6109 0.25 -20.5777
vt -0.62941 0.0170371
v 38.4731 0.25 -20.6277
vt -0.75 0.0669873
v 38.3547 0.25 -20.7071
vt -0.853553 0.146447
v 38.2639 0.25 -20.8107
vt -0.933013 0.25
v 38.2068 0.25 -20.9313
vt -0.982963 0.37059
v 38.1874 0.25 -21.0607
vt -1 0.5
v 38.2068 0.25 -21.1901
vt -0.982963 0.62941
vt -0.933013 0.75
vt -0.853553 0.853553
v 38.4731 0.25 -21.4937
vt -0.75 0.933013
v 38.6109 0.25 -21.5436
vt -0.62941 0.982963
v 38.7588 0.25 -21.5607
vt -0.5 1
v 38.9067 0.25 -21.5436
vt -0.37059 0.982963
v 39.0445 0.25 -21.4937
vt -0.25 0.933013
v 39.1628 0.25 -21.4142
vt -0.146447 0.853553
v 39.2537 0.25 -21.3107
vt -0.0669873 0.75
v 39.3107 0.25 -21.1901
vt -0.0170371 0.62941
v 39.3302 0.25 -21.0607
vt 5.11058e-24 0.5
v 39.3107 0.25 -20.9313
vt -0.0170371 0.37059
f 5/5/3 6/6/3 7/7/3 8/8/3 9/9/3 10/10/3 11/11/3 12/12/3 13/13/3 14/14/3 15/15/3 16/16/3 2/17/3 1/18/3 17/19/3 18/20/3 19/21/3 20/22/3 21/23/3 22/24/3 23/25/3 24/26/3 25/27/3 26/28/3 

vt -0.0270329 6.6501e-12
vn 0.752577 4.84864e-12 0.658505
vt -0.157559 6.13673e-12
vn 0.89257 3.76933e-12 0.45091
v 39.2537 1 -20.8107
vt -0.157559 0.75
v 39.1628 1 -20.7071
vt -0.0270329 0.75
f 6/29/4 5/30/5 27/31/5 28/32/4 

vt -0.205335 5.72477e-12
vt -0.335861 5.06885e-12
vn 0.973599 2.52947e-12 0.228266
v 39.3107 1 -20.9313
vt -0.335861 0.75
vt -0.205335 0.75
f 5/33/5 26/34/6 29/35/6 27/36/5 

vt -0.365196 4.64803e-12
vt -0.495722 3.89441e-12
vn 1 1.19081e-12 -1.01064e-15
v 39.3302 1 -21.0607
vt -0.495722 0.75
vt -0.365196 0.75
f 26/37/6 25/38/7 30/39/7 29/40/6 

vt -0.495722 3.71829e-12
vt -0.626249 2.91849e-12
vn 0.973599 -2.10719e-13 -0.228266
v 39.3107 1 -21.1901
vt -0.626249 0.75
f 25/41/7 24/42/8 31/43/8 30/39/7 

vt -0.588018 3.18945e-12
vt -0.718545 2.39764e-12
vn 0.89257 -1.64356e-12 -0.45091
v 39.2537 1 -21.3107
vt -0.718545 0.75
vt -0.588018 0.75
f 24/44/8 23/45/9 32/46/9 31/47/8 

vt -0.635794 3.2021e-12
vt -0.76632 2.47247e-12
vn 0.752577 -3.05629e-12 -0.658505
v 39.1628 1 -21.4142
vt -0.76632 0.75
vt -0.635794 0.75
f 23/48/9 22/49/10 33/50/10 32/51/9 

vt -0.635794 3.74686e-12
vt -0.76632 3.12913e-12
vn 0.550743 -4.35404e-12 -0.834675
v 39.0445 1 -21.4937
f 22/52/10 21/53/11 34/50/11 33/51/10 

vt -0.588018 4.66661e-12
vt -0.718545 4.20253e-12
vn 0.292806 -5.39044e-12 -0.956172
v 38.9067 1 -21.5436
f 21/54/11 20/55/12 35/46/12 34/47/11 

vt -0.495722 5.69919e-12
vt -0.626249 5.42075e-12
vn -1.01064e-15 -6.00219e-12 -1
v 38.7588 1 -21.5607
f 20/56/12 19/57/13 36/43/13 35/39/12 

vt -0.365196 6.54972e-12
vt -0.495722 6.47601e-12
vn -0.292806 -6.0878e-12 -0.956172
v 38.6109 1 -21.5436
f 19/58/13 18/59/14 37/39/14 36/40/13 

vt -0.205335 6.96997e-12
vt -0.335861 7.10542e-12
vn -0.550743 -5.66571e-12 -0.834675
v 38.4731 1 -21.4937
f 18/60/14 17/61/15 38/35/15 37/36/14 

vt -0.0270329 6.82585e-12
vt -0.157559 7.16202e-12
f 17/62/15 1/63/1 4/31/1 38/32/15 

vt 0.0170371 0.62941
vn -1.55535e-12 1 -6.00219e-12
vt 0.0669873 0.75
vt 0.146447 0.853553
vt 0.25 0.933013
vt 0.37059 0.982963
vt 0.5 1
vt 0.62941 0.982963
vt 0.75 0.933013
vt 0.853553 0.853553
vt 0.933013 0.75
v 38.2068 1 -21.1901
vt 0.982963 0.62941
v 38.1874 1 -21.0607
vt 1 0.5
v 38.2068 1 -20.9313
vt 0.982963 0.37059
v 38.2639 1 -20.8107
vt 0.933013 0.25
v 38.3547 1 -20.7071
vt 0.853553 0.146447
v 38.4731 1 -20.6277
vt 0.75 0.0669873
v 38.6109 1 -20.5777
vt 0.62941 0.0170371
v 38.7588 1 -20.5607
vt 0.5 4.58347e-14
v 38.9067 1 -20.5777
vt 0.37059 0.0170371
v 39.0445 1 -20.6277
vt 0.25 0.0669873
vt 0.146447 0.146447
vt 0.0669873 0.25
vt 0.0170371 0.37059
vt 2.48515e-15 0.5
f 31/64/16 32/65/16 33/66/16 34/67/16 35/68/16 36/69/16 37/70/16 38/71/16 4/72/16 3/73/16 39/74/16 40/75/16 41/76/16 42/77/16 43/78/16 44/79/16 45/80/16 46/81/16 47/82/16 48/83/16 28/84/16 27/85/16 29/86/16 30/87/16 

vt 0.335861 5.06886e-12
vt 0.205335 5.72478e-12
vn -0.973599 -2.52947e-12 -0.228266
vt 0.205335 0.75
vt 0.335861 0.75
f 2/88/2 16/89/17 39/90/17 3/91/2 

vt 0.495722 3.89458e-12
vt 0.365196 4.6482e-12
vn -1 -1.19081e-12 1.01064e-15
vt 0.365196 0.75
vt 0.495722 0.75
f 16/92/17 15/93/18 40/94/18 39/95/17 

vt 0.626249 2.9186e-12
vt 0.495722 3.71841e-12
vn -0.973599 2.10719e-13 0.228266
vt 0.626249 0.75
f 15/96/18 14/97/19 41/95/19 40/98/18 

vt 0.718545 2.39766e-12
vt 0.588018 3.18948e-12
vn -0.89257 1.64356e-12 0.45091
vt 0.588018 0.75
vt 0.718545 0.75
f 14/99/19 13/100/20 42/101/20 41/102/19 

vt 0.76632 2.47247e-12
vt 0.635794 3.20211e-12
vn -0.752577 3.05629e-12 0.658505
vt 0.635794 0.75
vt 0.76632 0.75
f 13/103/20 12/104/21 43/105/21 42/106/20 

vt 0.76632 3.12896e-12
vt 0.635794 3.74668e-12
vn -0.550743 4.35404e-12 0.834675
f 12/107/21 11/108/22 44/105/22 43/106/21 

vt 0.718545 4.20238e-12
vt 0.588018 4.66645e-12
vn -0.292806 5.39044e-12 0.956172
f 11/109/22 10/110/23 45/101/23 44/102/22 

vt 0.626249 5.42081e-12
vt 0.495722 5.69925e-12
vn 1.01064e-15 6.00219e-12 1
f 10/111/23 9/112/24 46/95/24 45/98/23 

vt 0.495722 6.47599e-12
vt 0.365196 6.54971e-12
vn 0.292806 6.0878e-12 0.956172
f 9/113/24 8/114/25 47/94/25 46/95/24 

vt 0.335861 7.10552e-12
vt 0.205335 6.97007e-12
vn 0.550743 5.66571e-12 0.834675
f 8/115/25 7/116/26 48/90/26 47/91/25 

vt 0.157559 7.16219e-12
vt 0.0270329 6.82602e-12
f 7/117/26 6/118/4 28/3/4 48/4/26 

g Mesh2 Group4 Group2 Group1 Model

v 38.3547 0.25 -1.41423
v 38.2639 0.25 -1.31067
v 38.2639 1 -1.31067
v 38.3547 1 -1.41423
f 49/1/1 50/2/2 51/3/2 52/4/1 

v 39.2537 0.25 -0.810672
v 39.1628 0.25 -0.707118
v 39.0445 0.25 -0.627659
v 38.9067 0.25 -0.577709
v 38.7588 0.25 -0.560672
v 38.6109 0.25 -0.577709
v 38.4731 0.25 -0.627659
v 38.3547 0.25 -0.707118
v 38.2639 0.25 -0.810672
v 38.2068 0.25 -0.931262
v 38.1874 0.25 -1.06067
v 38.2068 0.25 -1.19008
v 38.4731 0.25 -1.49368
v 38.6109 0.25 -1.54363
v 38.7588 0.25 -1.56067
v 38.9067 0.25 -1.54363
v 39.0445 0.25 -1.49368
v 39.1628 0.25 -1.41423
v 39.2537 0.25 -1.31067
v 39.3107 0.25 -1.19008
v 39.3302 0.25 -1.06067
v 39.3107 0.25 -0.931262
f 53/5/3 54/6/3 55/7/3 56/8/3 57/9/3 58/10/3 59/11/3 60/12/3 61/13/3 62/14/3 63/15/3 64/16/3 50/17/3 49/18/3 65/19/3 66/20/3 67/21/3 68/22/3 69/23/3 70/24/3 71/25/3 72/26/3 73/27/3 74/28/3 

v 39.2537 1 -0.810672
v 39.1628 1 -0.707118
f 54/29/4 53/30/5 75/31/5 76/32/4 

v 39.3107 1 -0.931262
f 53/33/5 74/34/6 77/35/6 75/36/5 

v 39.3302 1 -1.06067
f 74/37/6 73/38/7 78/39/7 77/40/6 

v 39.3107 1 -1.19008
f 73/41/7 72/42/8 79/43/8 78/39/7 

v 39.2537 1 -1.31067
f 72/44/8 71/45/9 80/46/9 79/47/8 

v 39.1628 1 -1.41423
f 71/48/9 70/49/10 81/50/10 80/51/9 

v 39.0445 1 -1.49368
f 70/52/10 69/53/11 82/50/11 81/51/10 

v 38.9067 1 -1.54363
f 69/54/11 68/55/12 83/46/12 82/47/11 

v 38.7588 1 -1.56067
f 68/56/12 67/57/13 84/43/13 83/39/12 

v 38.6109 1 -1.54363
f 67/58/13 66/59/14 85/39/14 84/40/13 

v 38.4731 1 -1.49368
f 66/60/14 65/61/15 86/35/15 85/36/14 

f 65/62/15 49/63/1 52/31/1 86/32/15 

v 38.2068 1 -1.19008
v 38.1874 1 -1.06067
v 38.2068 1 -0.931262
v 38.2639 1 -0.810672
v 38.3547 1 -0.707118
v 38.4731 1 -0.627659
v 38.6109 1 -0.577709
v 38.7588 1 -0.560672
v 38.9067 1 -0.577709
v 39.0445 1 -0.627659
f 79/64/16 80/65/16 81/66/16 82/67/16 83/68/16 84/69/16 85/70/16 86/71/16 52/72/16 51/73/16 87/74/16 88/75/16 89/76/16 90/77/16 91/78/16 92/79/16 93/80/16 94/81/16 95/82/16 96/83/16 76/84/16 75/85/16 77/86/16 78/87/16 

f 50/88/2 64/89/17 87/90/17 51/91/2 

f 64/92/17 63/93/18 88/94/18 87/95/17 

f 63/96/18 62/97/19 89/95/19 88/98/18 

f 62/99/19 61/100/20 90/101/20 89/102/19 

f 61/103/20 60/104/21 91/105/21 90/106/20 

f 60/107/21 59/108/22 92/105/22 91/106/21 

f 59/109/22 58/110/23 93/101/23 92/102/22 

f 58/111/23 57/112/24 94/95/24 93/98/23 

f 57/113/24 56/114/25 95/94/25 94/95/24 

f 56/115/25 55/116/26 96/90/26 95/91/25 

f 55/117/26 54/118/4 76/3/4 96/4/26 

g Mesh3 Group5 Group2 Group1 Model

usemtl _Color_M06_4
v 39.9016 4 -22.0607
vt 2.14173e-11 22
vn 8.20195e-12 1 8.46198e-13
v 37.6159 4 -22.0607
vt 2 22
v 37.6159 4 -0.0606719
vt 2 2.53859e-12
v 39.9016 4 -0.0606719
vt 2.15301e-11 2.53859e-12
f 97/119/27 98/120/27 99/121/27 100/122/27 

v 39.9016 1 -22.0607
vt -2.12603e-11 -1.4354e-11
vn -1.01064e-15 8.46198e-13 -1
v 37.6159 1 -22.0607
vt -2 2.70778e-11
vt -2 3
vt 1.12799e-13 3
f 101/123/28 102/124/28 98/125/28 97/126/28 

vt -2 22
vn -8.20195e-12 -1 -8.46198e-13
vt -2.12603e-11 22
v 39.9016 1 -0.0606719
vt -2.13731e-11 2.72848e-12
v 37.6159 1 -0.0606719
vt -2 2.72848e-12
f 102/127/29 101/128/29 103/129/29 104/130/29 

vt -2.72848e-12 1.2724e-11
vn 1 -6.27962e-12 -1.01064e-15
vt -22 4.26237e-12
vt -22 3
vt 0 3
f 103/131/30 101/132/30 97/133/30 100/134/30 

vt 2 -2.30884e-24
vn 1.01064e-15 -8.46198e-13 1
vt 2.13731e-11 1.2724e-11
vt 2 3
f 104/135/31 103/136/31 100/134/31 99/137/31 

vt 22 3.13407e-11
vn -1 6.27962e-12 1.01064e-15
vt 2.72848e-12 -1.43534e-11
vt 2.42917e-23 3
vt 22 3
f 102/138/32 104/139/32 99/140/32 98/141/32 

g Mesh4 Group7 Group6 Group1 Model

usemtl _Color_M06_5
v 2.64043 0.25 -21.4142
v 2.54962 0.25 -21.3107
v 2.54962 1 -21.3107
v 2.64043 1 -21.4142
f 105/1/1 106/2/2 107/3/2 108/4/1 

v 3.53936 0.25 -20.8107
v 3.44855 0.25 -20.7071
v 3.33021 0.25 -20.6277
v 3.19239 0.25 -20.5777
v 3.04449 0.25 -20.5607
v 2.8966 0.25 -20.5777
v 2.75878 0.25 -20.6277
v 2.64043 0.25 -20.7071
v 2.54962 0.25 -20.8107
v 2.49254 0.25 -20.9313
v 2.47306 0.25 -21.0607
v 2.49254 0.25 -21.1901
v 2.75878 0.25 -21.4937
v 2.8966 0.25 -21.5436
v 3.04449 0.25 -21.5607
v 3.19239 0.25 -21.5436
v 3.33021 0.25 -21.4937
v 3.44855 0.25 -21.4142
v 3.53936 0.25 -21.3107
v 3.59645 0.25 -21.1901
v 3.61592 0.25 -21.0607
v 3.59645 0.25 -20.9313
f 109/5/3 110/6/3 111/7/3 112/8/3 113/9/3 114/10/3 115/11/3 116/12/3 117/13/3 118/14/3 119/15/3 120/16/3 106/17/3 105/18/3 121/19/3 122/20/3 123/21/3 124/22/3 125/23/3 126/24/3 127/25/3 128/26/3 129/27/3 130/28/3 

v 3.53936 1 -20.8107
v 3.44855 1 -20.7071
f 110/29/4 109/30/5 131/31/5 132/32/4 

v 3.59645 1 -20.9313
f 109/33/5 130/34/6 133/35/6 131/36/5 

v 3.61592 1 -21.0607
f 130/37/6 129/38/7 134/39/7 133/40/6 

v 3.59645 1 -21.1901
f 129/41/7 128/42/8 135/43/8 134/39/7 

v 3.53936 1 -21.3107
f 128/44/8 127/45/9 136/46/9 135/47/8 

v 3.44855 1 -21.4142
f 127/48/9 126/49/10 137/50/10 136/51/9 

v 3.33021 1 -21.4937
f 126/52/10 125/53/11 138/50/11 137/51/10 

v 3.19239 1 -21.5436
f 125/54/11 124/55/12 139/46/12 138/47/11 

v 3.04449 1 -21.5607
f 124/56/12 123/57/13 140/43/13 139/39/12 

v 2.8966 1 -21.5436
f 123/58/13 122/59/14 141/39/14 140/40/13 

v 2.75878 1 -21.4937
f 122/60/14 121/61/15 142/35/15 141/36/14 

f 121/62/15 105/63/1 108/31/1 142/32/15 

v 2.49254 1 -21.1901
v 2.47306 1 -21.0607
v 2.49254 1 -20.9313
v 2.54962 1 -20.8107
v 2.64043 1 -20.7071
v 2.75878 1 -20.6277
v 2.8966 1 -20.5777
v 3.04449 1 -20.5607
v 3.19239 1 -20.5777
v 3.33021 1 -20.6277
f 135/64/16 136/65/16 137/66/16 138/67/16 139/68/16 140/69/16 141/70/16 142/71/16 108/72/16 107/73/16 143/74/16 144/75/16 145/76/16 146/77/16 147/78/16 148/79/16 149/80/16 150/81/16 151/82/16 152/83/16 132/84/16 131/85/16 133/86/16 134/87/16 

f 106/88/2 120/89/17 143/90/17 107/91/2 

f 120/92/17 119/93/18 144/94/18 143/95/17 

f 119/96/18 118/97/19 145/95/19 144/98/18 

f 118/99/19 117/100/20 146/101/20 145/102/19 

f 117/103/20 116/104/21 147/105/21 146/106/20 

f 116/107/21 115/108/22 148/105/22 147/106/21 

f 115/109/22 114/110/23 149/101/23 148/102/22 

f 114/111/23 113/112/24 150/95/24 149/98/23 

f 113/113/24 112/114/25 151/94/25 150/95/24 

f 112/115/25 111/116/26 152/90/26 151/91/25 

f 111/117/26 110/118/4 132/3/4 152/4/26 

g Mesh5 Group8 Group6 Group1 Model

v 2.64043 0.25 -1.41423
v 2.54962 0.25 -1.31067
v 2.54962 1 -1.31067
v 2.64043 1 -1.41423
f 153/1/1 154/2/2 155/3/2 156/4/1 

v 3.53936 0.25 -0.810672
v 3.44855 0.25 -0.707118
v 3.33021 0.25 -0.627659
v 3.19239 0.25 -0.577709
v 3.04449 0.25 -0.560672
v 2.8966 0.25 -0.577709
v 2.75878 0.25 -0.627659
v 2.64043 0.25 -0.707118
v 2.54962 0.25 -0.810672
v 2.49254 0.25 -0.931262
v 2.47306 0.25 -1.06067
v 2.49254 0.25 -1.19008
v 2.75878 0.25 -1.49368
v 2.8966 0.25 -1.54363
v 3.04449 0.25 -1.56067
v 3.19239 0.25 -1.54363
v 3.33021 0.25 -1.49368
v 3.44855 0.25 -1.41423
v 3.53936 0.25 -1.31067
v 3.59645 0.25 -1.19008
v 3.61592 0.25 -1.06067
v 3.59645 0.25 -0.931262
f 157/5/3 158/6/3 159/7/3 160/8/3 161/9/3 162/10/3 163/11/3 164/12/3 165/13/3 166/14/3 167/15/3 168/16/3 154/17/3 153/18/3 169/19/3 170/20/3 171/21/3 172/22/3 173/23/3 174/24/3 175/25/3 176/26/3 177/27/3 178/28/3 

v 3.53936 1 -0.810672
v 3.44855 1 -0.707118
f 158/29/4 157/30/5 179/31/5 180/32/4 

v 3.59645 1 -0.931262
f 157/33/5 178/34/6 181/35/6 179/36/5 

v 3.61592 1 -1.06067
f 178/37/6 177/38/7 182/39/7 181/40/6 

v 3.59645 1 -1.19008
f 177/41/7 176/42/8 183/43/8 182/39/7 

v 3.53936 1 -1.31067
f 176/44/8 175/45/9 184/46/9 183/47/8 

v 3.44855 1 -1.41423
f 175/48/9 174/49/10 185/50/10 184/51/9 

v 3.33021 1 -1.49368
f 174/52/10 173/53/11 186/50/11 185/51/10 

v 3.19239 1 -1.54363
f 173/54/11 172/55/12 187/46/12 186/47/11 

v 3.04449 1 -1.56067
f 172/56/12 171/57/13 188/43/13 187/39/12 

v 2.8966 1 -1.54363
f 171/58/13 170/59/14 189/39/14 188/40/13 

v 2.75878 1 -1.49368
f 170/60/14 169/61/15 190/35/15 189/36/14 

f 169/62/15 153/63/1 156/31/1 190/32/15 

v 2.49254 1 -1.19008
v 2.47306 1 -1.06067
v 2.49254 1 -0.931262
v 2.54962 1 -0.810672
v 2.64043 1 -0.707118
v 2.75878 1 -0.627659
v 2.8966 1 -0.577709
v 3.04449 1 -0.560672
v 3.19239 1 -0.577709
v 3.33021 1 -0.627659
f 183/64/16 184/65/16 185/66/16 186/67/16 187/68/16 188/69/16 189/70/16 190/71/16 156/72/16 155/73/16 191/74/16 192/75/16 193/76/16 194/77/16 195/78/16 196/79/16 197/80/16 198/81/16 199/82/16 200/83/16 180/84/16 179/85/16 181/86/16 182/87/16 

f 154/88/2 168/89/17 191/90/17 155/91/2 

f 168/92/17 167/93/18 192/94/18 191/95/17 

f 167/96/18 166/97/19 193/95/19 192/98/18 

f 166/99/19 165/100/20 194/101/20 193/102/19 

f 165/103/20 164/104/21 195/105/21 194/106/20 

f 164/107/21 163/108/22 196/105/22 195/106/21 

f 163/109/22 162/110/23 197/101/23 196/102/22 

f 162/111/23 161/112/24 198/95/24 197/98/23 

f 161/113/24 160/114/25 199/94/25 198/95/24 

f 160/115/25 159/116/26 200/90/26 199/91/25 

f 159/117/26 158/118/4 180/3/4 200/4/26 

g Mesh6 Group9 Group6 Group1 Model

usemtl _Color_M06_4
v 4.18735 4 -22.0607
v 1.90164 4 -22.0607
v 1.90164 4 -0.0606718
v 4.18735 4 -0.0606718
f 201/119/27 202/120/27 203/121/27 204/122/27 

v 4.18735 1 -22.0607
v 1.90164 1 -22.0607
f 205/123/28 206/124/28 202/125/28 201/126/28 

v 4.18735 1 -0.0606718
v 1.90164 1 -0.0606718
f 206/127/29 205/128/29 207/129/29 208/130/29 

f 207/131/30 205/132/30 201/133/30 204/134/30 

f 208/135/31 207/136/31 204/134/31 203/137/31 

f 206/138/32 208/139/32 203/140/32 202/141/32 

g Mesh7 Group11 Group10 Group1 Model

usemtl FrontColor
v 41.9016 17 -0.0606719
vt 3.81745e-11 22
vn 6.81003e-10 1 -3.81745e-12
v 41.9016 17 -22.0607
vt 3.81745e-11 -5.40981e-15
v -0.098364 17 -22.0607
vt 42 -5.40981e-15
v -0.098364 17 -0.0606718
vt 42 22
f 209/142/33 210/143/33 211/144/33 212/145/33 

v 41.9016 7 -0.0606719
vt -22 -1.45714e-22
vn 1 -6.81003e-10 -7.80404e-12
v 41.9016 7 -22.0607
vt 0 -1.45714e-22
vt -7.28733e-11 10
vt -22 10
f 213/146/34 214/147/34 210/148/34 209/149/34 

vt -3.81704e-11 1.06194e-33
vn -6.81003e-10 -1 3.81745e-12
vt -3.81704e-11 22
v -0.098364 7 -0.0606718
vt -42 22
v -0.098364 7 -22.0607
vt -42 -1.16849e-21
f 214/150/35 213/151/35 215/152/35 216/153/35 

vt -42 1.60333e-10
vn 7.80404e-12 3.81745e-12 1
vt -3.81704e-11 1.60333e-10
vt 0 10
vt -42 10
f 215/154/36 213/155/36 209/156/36 212/157/36 

vt -2.33697e-21 1.60333e-10
vn -1 6.81003e-10 7.80404e-12
vt 22 -1.60333e-10
vt 22 10
vt 7.28733e-11 10
f 216/158/37 215/159/37 212/160/37 211/161/37 

vt 3.81704e-11 1.54786e-44
vn -7.80404e-12 -3.81745e-12 -1
vt 42 3.20666e-10
vt 42 10
vt -4.05483e-33 10
f 214/162/38 216/163/38 211/164/38 210/165/38 

g Mesh8 Group16 Group15 Group14 Group13 Group12 Group10 Group1 Model

usemtl _Color_M06_4
v 41.9016 4 -22.0607
vt -1.86152e-22 1.40061e-10
vn -6.91793e-12 -1.02509e-12 -1
v -0.098364 4 -22.0607
vt 42 2.42746e-10
v -0.098364 7 -22.0607
vt 42 3
v 41.9016 7 -22.0607
vt 1.00044e-11 3
f 217/166/39 218/167/39 219/168/39 220/169/39 

vt -42 -9.37348e-11
vn -6.78377e-10 -1 -1.50024e-11
vt -1.66794e-22 2.10079e-10
v 39.9016 4 -20.0607
vt -2 2
v 1.90164 4 -20.0607
vt -40 2
f 218/170/40 217/171/40 221/172/40 222/173/40 

vt -1.55623e-10 3
vn 0.707107 -4.61772e-10 0.707107
v 39.9016 7 -20.0607
vt -2.82843 3
vt -2.82843 1.36883e-10
vt -1.48548e-10 1.40061e-10
f 220/174/41 223/175/41 221/176/41 217/177/41 

vt -3.04325e-13 1.1737e-10
vn 6.7375e-10 1 1.97977e-11
vt 42 -1.9367e-11
v 1.90164 7 -20.0607
vt 40 2
vt 2 2
f 220/178/42 219/179/42 224/180/42 223/181/42 

vt -26.8701 3
vn -0.707107 4.5321e-10 0.707107
vt -29.6985 3
vt -29.6985 1.23721e-09
vt -26.8701 1.15916e-09
f 224/182/43 219/183/43 218/184/43 222/185/43 

vt -40 3
vn 1.22908e-12 -1.67408e-11 1
vt -40 2.20389e-10
vt -2 1.92576e-10
f 224/186/44 222/187/44 221/188/44 223/125/44 

g Mesh9 Group17 Group15 Group14 Group13 Group12 Group10 Group1 Model

v -0.098364 7 -22.0607
vt 7.57492e-11 3
vn -1 6.7747e-10 6.60055e-12
v -0.098364 4 -22.0607
vt -3.96287e-11 2.16993e-10
v -0.098364 4 -0.0606718
vt 22 1.18829e-10
v -0.098364 7 -0.0606718
f 225/189/45 226/190/45 227/191/45 228/141/45 

vt 1.41421 3
vn 0.707107 -4.59911e-10 -0.707107
v 1.90164 7 -20.0607
vt -1.41421 3
v 1.90164 4 -20.0607
vt -1.41421 1.77391e-10
vt 1.41421 2.5544e-10
f 225/192/46 229/193/46 230/194/46 226/195/46 

vt 2 2.9889e-11
vn 7.06132e-10 1 3.37908e-12
v 1.90164 7 -2.06067
vt 1.35953e-10 20
vt 9.86633e-11 2
f 225/196/47 228/120/47 231/197/47 229/198/47 

vt -14.1421 3
vn 0.707107 -4.83748e-10 0.707107
vt -16.9706 3
vt -16.9706 2.99827e-10
v 1.90164 4 -2.06067
vt -14.1421 2.6209e-10
f 231/199/48 228/200/48 227/201/48 232/202/48 

vn -6.99028e-10 -1 7.3751e-12
vt -2 -4.20357e-11
vt -1.35287e-11 2
vt -1.00755e-10 20
f 227/127/49 226/203/49 230/204/49 232/205/49 

vt -20 3
vn 1 -6.86077e-10 -4.34527e-12
vt -20 8.166e-11
vt -2 1.39512e-10
f 231/206/50 232/207/50 230/208/50 229/125/50 

g Mesh10 Group18 Group15 Group14 Group13 Group12 Group10 Group1 Model

v 39.9016 4 -2.06067
vt 2 2.09357e-10
vn -4.17558e-12 -1.45799e-11 -1
v 1.90164 4 -2.06067
vt 40 3.37312e-10
v 1.90164 7 -2.06067
vt 40 3
v 39.9016 7 -2.06067
f 233/209/51 234/210/51 235/211/51 236/137/51 

vt -40 9.16174e-11
vn -6.80308e-10 -1 -1.41098e-11
vt -2 2.05091e-10
v 41.9016 4 -0.0606719
vt -1.00044e-11 2
v -0.098364 4 -0.0606718
vt -42 2
f 234/212/52 233/213/52 237/214/52 238/215/52 

vn 0.707107 -4.91465e-10 -0.707107
v 41.9016 7 -0.0606719
vt -1.41421 1.33316e-10
vt 1.41421 2.02612e-10
f 236/192/53 239/193/53 237/216/53 233/217/53 

vt 2 2.13209e-10
vn 6.76668e-10 1 -1.38114e-11
vt 40 4.31337e-11
v -0.098364 7 -0.0606718
vt 42 2
vt 8.45072e-12 2
f 236/218/54 235/219/54 240/220/54 239/221/54 

vt 31.1127 3
vn -0.707107 4.57649e-10 -0.707107
vt 28.2843 3
vt 28.2843 7.14658e-10
vt 31.1127 7.52395e-10
f 240/222/55 235/223/55 234/224/55 238/225/55 

vt -42 3
vn 7.34506e-12 2.0539e-11 1
vt -42 3.56182e-10
vt -9.08649e-12 1.21194e-10
vt -9.08649e-12 3
f 240/226/56 238/227/56 237/228/56 239/229/56 

g Mesh11 Group19 Group15 Group14 Group13 Group12 Group10 Group1 Model

v 39.9016 4 -20.0607
vt 2 1.84873e-10
vn -1 6.7805e-10 3.63433e-12
v 39.9016 4 -2.06067
vt 20 1.28107e-10
v 39.9016 7 -2.06067
vt 20 3
v 39.9016 7 -20.0607
f 241/230/57 242/231/57 243/232/57 244/137/57 

vt -2 20
vn -6.76636e-10 -1 6.10229e-12
v 41.9016 4 -22.0607
vt 5.96714e-11 1.74069e-10
v 41.9016 4 -0.0606719
vt -9.99307e-11 22
f 242/233/58 241/172/58 245/234/58 246/235/58 

vt 2.82843 3
vn -0.707107 4.70985e-10 -0.707107
v 41.9016 7 -22.0607
vt 1.29255e-10 3
vt 8.08912e-11 2.33717e-10
vt 2.82843 1.86602e-10
f 244/236/59 247/237/59 245/238/59 241/239/59 

vn 6.71856e-10 1 5.92841e-12
vt 2 20
v 41.9016 7 -0.0606719
vt 4.3582e-11 22
vt -4.04325e-11 1.56136e-10
f 244/181/60 243/240/60 248/241/60 247/242/60 

vt 15.5563 3
vn -0.707107 4.96208e-10 0.707107
vt 12.7279 3
vt 12.7279 -1.81467e-11
vt 15.5563 -4.50585e-11
f 248/243/61 243/244/61 242/245/61 246/246/61 

vn 1 -6.78041e-10 -2.26729e-12
vt -22 1.02924e-10
vt -1.74069e-10 2.33717e-10
vt -2.07237e-10 3
f 248/133/62 246/247/62 245/248/62 247/249/62 

g Mesh12 Group21 Group20 Group14 Group13 Group12 Group10 Group1 Model

v 39.9016 7 -11.5607
vt 0 0
vn -6.77186e-10 -1 1.11053e-11
v 39.9016 7 -10.5607
vt 0 1
v 1.90164 7 -10.5607
vt -26 1
v 1.90164 7 -11.5607
vt -26 0
f 249/250/63 250/251/63 251/252/63 252/253/63 

vt -1 0
vn 1 -6.77186e-10 -7.80404e-12
v 39.9016 7.125 -11.5607
vt 0 0.125
v 39.9016 7.125 -10.5607
vt -1 0.125
f 250/254/64 249/250/64 253/255/64 254/256/64 

vn -7.80404e-12 -1.11053e-11 -1
vt 26 0
v 1.90164 7.125 -11.5607
vt 26 0.125
f 249/250/65 252/257/65 255/258/65 253/255/65 

vn -1 6.77186e-10 7.80404e-12
vt 1 0
v 1.90164 7.125 -10.5607
vt 1 0.125
f 252/250/66 251/259/66 256/260/66 255/255/66 

vn 7.80404e-12 1.11053e-11 1
vt -26 0.125
f 251/253/67 250/250/67 254/255/67 256/261/67 

vn 6.77186e-10 1 -1.11053e-11
vt 26 1
f 254/251/68 253/250/68 255/257/68 256/262/68 

g Mesh13 Group22 Group20 Group14 Group13 Group12 Group10 Group1 Model

v 29.9016 7 -20.0607
vt -1 2.7391e-33
v 30.9016 7 -20.0607
vt 9.86076e-32 5.4782e-33
v 30.9016 7 -2.06067
vt 9.86076e-32 18
v 29.9016 7 -2.06067
vt -1 18
f 257/263/63 258/264/63 259/265/63 260/266/63 

vt 0 4.44089e-16
vt 1 -6.75781e-50
v 29.9016 7.125 -20.0607
v 30.9016 7.125 -20.0607
f 258/267/65 257/268/65 261/260/65 262/255/65 

vt -5.4782e-33 2.22045e-16
vt 18 6.66134e-16
v 29.9016 7.125 -2.06067
vt 18 0.125
vt -5.4782e-33 0.125
f 257/269/66 260/270/66 263/271/66 261/272/66 

vt -1 2.22045e-16
vt 0 2.22045e-16
v 30.9016 7.125 -2.06067
f 260/273/67 259/274/67 264/255/67 263/256/67 

vt -18 4.44089e-16
vt -18 0.125
f 259/275/64 258/267/64 262/255/64 264/276/64 

vt -2.77556e-17 1.54198e-18
vt 1 1.54198e-18
vt 1 18
vt -2.77556e-17 18
f 262/277/68 261/278/68 263/279/68 264/280/68 

g Mesh14 Group23 Group20 Group14 Group13 Group12 Group10 Group1 Model

v 19.9016 7 -20.0607
v 20.9016 7 -20.0607
v 20.9016 7 -2.06067
v 19.9016 7 -2.06067
f 265/263/63 266/264/63 267/265/63 268/266/63 

v 19.9016 7.125 -20.0607
v 20.9016 7.125 -20.0607
f 266/267/65 265/268/65 269/260/65 270/255/65 

v 19.9016 7.125 -2.06067
f 265/269/66 268/270/66 271/271/66 269/272/66 

v 20.9016 7.125 -2.06067
f 268/273/67 267/274/67 272/255/67 271/256/67 

f 267/275/64 266/267/64 270/255/64 272/276/64 

f 270/277/68 269/278/68 271/279/68 272/280/68 

g Mesh15 Group24 Group20 Group14 Group13 Group12 Group10 Group1 Model

v 9.90164 7 -20.0607
v 10.9016 7 -20.0607
v 10.9016 7 -2.06067
v 9.90164 7 -2.06067
f 273/263/63 274/264/63 275/265/63 276/266/63 

v 9.90164 7.125 -20.0607
v 10.9016 7.125 -20.0607
f 274/267/65 273/268/65 277/260/65 278/255/65 

v 9.90164 7.125 -2.06067
f 273/269/66 276/270/66 279/271/66 277/272/66 

v 10.9016 7.125 -2.06067
f 276/273/67 275/274/67 280/255/67 279/256/67 

f 275/275/64 274/267/64 278/255/64 280/276/64 

f 278/277/68 277/278/68 279/279/68 280/280/68 

g Mesh16 Component_80_1 Group10 Group1 Model

usemtl FrontColor
v 36.9016 4 -22.0607
vt -7.27596e-12 7.33433e-23
vn 5.28078e-13 1.02509e-12 1
v 36.9016 7 -22.0607
vt 2.7297e-22 3
v 35.9016 7 -22.0607
vt -1 3
v 35.9016 4 -22.0607
vt -1 2.44427e-12
f 281/281/69 282/282/69 283/283/69 284/284/69 

vt -3.75167e-11 3
vn 1 -6.79611e-10 -5.28078e-13
vt -7.27596e-12 -1.76465e-23
v 36.9016 4 -22.1607
vt 0.1 1.00719e-12
v 36.9016 7 -22.1607
vt 0.1 3
f 282/285/70 281/286/70 285/287/70 286/288/70 

vt -7.27596e-12 7.27596e-12
vn -6.7963e-10 -1 1.02509e-12
vt -1 -5.60044e-34
v 35.9016 4 -22.1607
vt -1 -0.1
vt -6.59384e-12 -0.1
f 281/289/71 284/290/71 287/291/71 285/292/71 

vt 7.27596e-12 1.89478e-14
vn -1 6.79611e-10 5.28078e-13
vt 3.75167e-11 3
v 35.9016 7 -22.1607
vt -0.1 3
vt -0.1 1.02614e-12
f 284/293/72 283/294/72 288/295/72 287/296/72 

vt 1 -4.1359e-25
vn 6.7963e-10 1 -1.02509e-12
vt 7.3328e-12 7.27596e-12
vt 6.65068e-12 -0.1
vt 1 -0.1
f 283/297/73 282/298/73 286/299/73 288/300/73 

vt 4.54747e-14 3
vn -5.28078e-13 -1.02509e-12 -1
vt 7.32143e-12 -8.28966e-16
vt 1 2.44344e-12
vt 1 3
f 286/301/74 285/302/74 287/303/74 288/304/74 

g Mesh17 Component_80_2 Group10 Group1 Model

v 5.90164 4 -22.0607
v 5.90164 7 -22.0607
v 4.90164 7 -22.0607
v 4.90164 4 -22.0607
f 289/281/69 290/282/69 291/283/69 292/284/69 

v 5.90164 4 -22.1607
v 5.90164 7 -22.1607
f 290/285/70 289/286/70 293/287/70 294/288/70 

v 4.90164 4 -22.1607
f 289/289/71 292/290/71 295/291/71 293/292/71 

v 4.90164 7 -22.1607
f 292/293/72 291/294/72 296/295/72 295/296/72 

f 291/297/73 290/298/73 294/299/73 296/300/73 

f 294/301/74 293/302/74 295/303/74 296/304/74 

g Mesh18 Component_80_3 Group10 Group1 Model

v 5.90164 4 0.0393282
v 5.90164 7 0.0393282
v 4.90164 7 0.0393282
v 4.90164 4 0.0393282
f 297/281/69 298/282/69 299/283/69 300/284/69 

v 5.90164 4 -0.0606718
v 5.90164 7 -0.0606718
f 298/285/70 297/286/70 301/287/70 302/288/70 

v 4.90164 4 -0.0606718
f 297/289/71 300/290/71 303/291/71 301/292/71 

v 4.90164 7 -0.0606718
f 300/293/72 299/294/72 304/295/72 303/296/72 

f 299/297/73 298/298/73 302/299/73 304/300/73 

f 302/301/74 301/302/74 303/303/74 304/304/74 

g Mesh19 Component_80_4 Group10 Group1 Model

v 36.9016 4 0.0393281
v 36.9016 7 0.0393281
v 35.9016 7 0.0393281
v 35.9016 4 0.0393281
f 305/281/69 306/282/69 307/283/69 308/284/69 

v 36.9016 4 -0.0606719
v 36.9016 7 -0.0606719
f 306/285/70 305/286/70 309/287/70 310/288/70 

v 35.9016 4 -0.0606719
f 305/289/71 308/290/71 311/291/71 309/292/71 

v 35.9016 7 -0.0606719
f 308/293/72 307/294/72 312/295/72 311/296/72 

f 307/297/73 306/298/73 310/299/73 312/300/73 

f 310/301/74 309/302/74 311/303/74 312/304/74 

