# Alias OBJ Model File
# Exported from SketchUp, (c) 2000-2012 Trimble Navigation Limited
# File units = inches

mtllib 52 OCEAN ottoman 30 x 22.mtl

g Mesh1 Group3 OuterShell Group2 Group1 Model

usemtl _Color_M05_4
v 30 10 -22
vt 18 2
vn -7.81067e-12 -1.11195e-11 -1
v 30 8 -22
vt 18 1.86517e-13
v 5.24581e-09 8 -22
vt 48 1.29247e-27
v 6.60018e-09 10 -22
vt 48 2
f 1/1/1 2/2/1 3/3/1 4/4/1 

vt -12.7279 2
vn 0.707107 -4.7097e-10 0.707107
v 28 10 -20
vt -15.5563 2
v 28 8 -20
vt -15.5563 5.13367e-13
vt -12.7279 4.42313e-13
f 1/5/2 5/6/2 6/7/2 2/8/2 

v 2 10 -20
vt 46 2
vn 6.77184e-10 1 -1.11657e-11
vt 20 2
vt 18 1.20792e-13
vt 48 3.48166e-13
f 7/9/3 5/10/3 1/11/3 4/12/3 

v 2 8 -20
vt -46 -4.79616e-14
vn 7.82043e-12 1.12332e-11 1
vt -20 1.77636e-15
vt -20 2
vt -46 2
f 8/13/4 6/14/4 5/15/4 7/16/4 

vt -48 2.27374e-13
vn -6.77184e-10 -1 1.11553e-11
vt -18 5.68434e-14
f 3/17/5 2/18/5 6/15/5 8/16/5 

vt -31.1127 2
vn -0.707107 4.86776e-10 0.707107
vt -33.9411 2
vt -33.9411 -2.72848e-12
vt -31.1127 -2.52065e-12
f 7/19/6 4/20/6 3/21/6 8/22/6 

g Mesh2 Group4 OuterShell Group2 Group1 Model

v 5.4175e-09 8 -8.91669e-11
vt -48 9.59233e-14
vn 7.79456e-12 1.11337e-11 1
v 30 8 -3.22947e-10
vt -18 2.22045e-13
v 30 10 -3.45271e-10
vt -18 2
v 6.77187e-09 10 -1.11378e-10
vt -48 2
f 9/23/7 10/24/7 11/25/7 12/26/7 

v 2 8 -2
vt -46 1.02318e-12
vn -6.77182e-10 -1 1.11628e-11
v 28 8 -2
vt -20 4.54747e-13
f 13/27/8 14/28/8 10/25/8 9/26/8 

v 28 10 -2
vn -7.82153e-12 -1.1219e-11 -1
vt 20 2.66454e-14
vt 46 -2.48552e-26
v 2 10 -2
f 15/10/9 14/29/9 13/30/9 16/9/9 

vt 14.1421 2
vn 0.707107 -4.86736e-10 -0.707107
vt 11.3137 2
vt 11.3137 -2.89546e-13
vt 14.1421 -5.41789e-13
f 15/31/10 11/32/10 10/33/10 14/34/10 

vn 6.77184e-10 1 -1.1211e-11
vt 20 5.52447e-13
vt 46 8.93507e-13
f 12/4/11 11/1/11 15/35/11 16/36/11 

vt 35.3553 2
vn -0.707107 4.7093e-10 -0.707107
vt 32.5269 2
vt 32.5269 1.9611e-12
vt 35.3553 2.11386e-12
f 12/37/12 16/38/12 13/39/12 9/40/12 

g Mesh3 Group5 OuterShell Group2 Group1 Model

v 2 8 -2
vt -20 -7.33251e-41
vn 1 -6.77172e-10 -7.80404e-12
v 2 8 -20
vt -2 3.59712e-13
v 2 10 -20
vt -2 2
v 2 10 -2
f 17/41/13 18/42/13 19/43/13 20/15/13 

v 5.24581e-09 8 -22
vt -2 -1.42548e-27
vn -6.77172e-10 -1 1.10974e-11
vt 4.8722e-27 2
vt 0 20
v 5.4175e-09 8 -8.9166e-11
vt -2 22
f 21/44/14 18/45/14 17/46/14 22/47/14 

vt -1.41421 3.81222e-13
vn 0.707107 -4.8668e-10 -0.707107
vt 1.41421 1.73388e-13
v 6.60018e-09 10 -22
vt 1.41421 2
vt -1.41421 2
f 18/48/15 21/49/15 23/50/15 19/51/15 

vt -2.1873e-30 1.78968e-13
vn -1 6.77172e-10 7.80404e-12
vt 22 1.80744e-13
v 6.77187e-09 10 -1.11378e-10
vt 22 2
vt -2.1873e-30 2
f 21/52/16 22/53/16 24/54/16 23/55/16 

vt -16.9706 9.78579e-14
vn 0.707107 -4.70986e-10 0.707107
vt -14.1421 -5.5797e-14
vt -14.1421 2
vt -16.9706 2
f 22/56/17 17/57/17 20/58/17 24/59/17 

vt -2.70894e-14 2
vn 6.77172e-10 1 -1.10974e-11
vt 2 -1.59301e-14
vt -2.70894e-14 20
f 19/60/18 23/61/18 24/54/18 20/62/18 

g Mesh4 Group6 OuterShell Group2 Group1 Model

v 30 8 -3.23059e-10
vt 1.15223e-26 22
vn -6.7714e-10 -1 1.10963e-11
v 28 8 -2
vt -2 20
v 28 8 -20
v 30 8 -22
vt 1.31395e-26 -2.59236e-27
f 25/63/19 26/64/19 27/43/19 28/65/19 

vt 12.7279 5.99498e-13
vn -0.707107 4.86657e-10 0.707107
vt 15.5563 8.52629e-13
v 30 10 -3.4527e-10
vt 15.5563 2
v 28 10 -2
vt 12.7279 2
f 26/66/20 25/67/20 29/68/20 30/69/20 

vt -22 2.53131e-13
vn 1 -6.7714e-10 -7.80404e-12
vt 0 2.88658e-13
vt 0 2
f 25/70/21 28/71/21 1/72/21 29/47/21 

vn -0.707107 4.70964e-10 -0.707107
vt 2.82843 3.59712e-13
vt 2.82843 2
f 28/71/22 27/73/22 5/74/22 1/72/22 

vt 2 4.50751e-13
vn -1 6.7714e-10 7.80404e-12
vt 20 9.10383e-14
vt 2 2
f 27/75/23 26/76/23 30/10/23 5/77/23 

vt 2 20
vn 6.7714e-10 1 -1.10963e-11
vt -9.10383e-14 22
vt -9.10383e-14 -1.79614e-14
f 30/78/24 29/79/24 1/80/24 5/77/24 

g Mesh5 Group8 Group7 OuterShell Group2 Group1 Model

v 2 -1.59868e-09 -22
vt -5.98617e-27 -5.98937e-28
vn -6.77224e-10 -1 1.11015e-11
v 2 -1.35452e-09 -1.55893e-11
vt 0 22
v 7.32747e-15 3.92911e-24 1.77636e-14
v -1.71681e-10 -2.44309e-10 -22
vt -2 -3.13809e-28
f 31/81/25 32/82/25 33/47/25 34/83/25 

vn 1 -6.77186e-10 -7.80404e-12
vt 0 1.58584e-13
v 2 2 -20
v 2 2 -2
f 32/64/26 31/84/26 35/43/26 36/15/26 

vt 2 1.12136e-13
vn 4.73324e-10 0.707107 -0.707107
v 1.1983e-09 2 -20
vt 2 2.82843
vt 0 2.82843
vt 0 1.12136e-13
f 34/85/27 37/86/27 35/87/27 31/88/27 

v 1.33877e-09 2 -2
vn -1 6.77186e-10 7.80404e-12
vt 22 1.5099e-13
f 38/10/28 37/77/28 34/84/28 33/89/28 

vn 6.77186e-10 1 -1.1105e-11
f 37/77/29 38/78/29 36/46/29 35/72/29 

vt -2 -12.7279
vn 4.84388e-10 0.707107 0.707107
vt -2 -15.5563
vt -8.30447e-13 -15.5563
vt -7.54952e-13 -12.7279
f 38/90/30 33/91/30 32/92/30 36/93/30 

g Mesh6 Group9 Group7 OuterShell Group2 Group1 Model

v 5.41749e-09 8 -8.91649e-11
vt -2 8
vn 7.80404e-12 1.1148e-11 1
v 7.32747e-15 3.92911e-24 1.86517e-14
vt -2 -8.52651e-14
v 2 -1.35437e-09 -1.55893e-11
vt 0 -8.52651e-14
v 2 8 -1.04773e-10
vt 0 8
f 39/94/31 40/95/31 41/96/31 42/97/31 

v 1.33877e-09 2 -2
vt 3.41061e-13 2
vt 2 0
vt 2 8
v 5.40189e-09 8 -2
f 43/98/28 40/99/28 39/100/28 44/97/28 

vt 2 -1.41421
vn -4.84361e-10 -0.707107 -0.707107
vt 2 1.41421
v 2 2 -2
vt 0 1.41421
vt 0 -1.41421
f 40/101/32 43/102/32 45/103/32 41/104/32 

vn -7.80404e-12 -1.11622e-11 -1
v 2 8 -2
f 43/77/33 44/100/33 46/97/33 45/72/33 

vn 6.77186e-10 1 -1.11053e-11
vt 0 0
f 44/99/34 39/77/34 42/72/34 46/105/34 

vt -2 0
vt -3.41061e-13 2
f 41/106/26 45/107/26 46/97/26 42/94/26 

g Mesh7 Group10 Group7 OuterShell Group2 Group1 Model

v 2 2 -20
v 2 -1.59884e-09 -22
v 2 8 -22
v 2 8 -20
f 47/43/26 48/105/26 49/97/26 50/94/26 

vn -4.73324e-10 -0.707107 0.707107
v 1.1983e-09 2 -20
vt -2 2.82843
v -1.71681e-10 -2.44468e-10 -22
f 48/105/35 47/87/35 51/108/35 52/106/35 

vn 7.80404e-12 1.10295e-11 1
v 5.26141e-09 8 -20
f 47/72/36 50/97/36 53/94/36 51/43/36 

vn 6.77186e-10 1 -1.12066e-11
vt 0 8.10019e-13
v 5.24581e-09 8 -22
vt 2 8.10019e-13
f 50/72/37 49/109/37 54/110/37 53/77/37 

vn -7.80404e-12 -1.11053e-11 -1
f 49/97/38 48/105/38 52/99/38 54/100/38 

f 52/105/28 51/77/28 53/100/28 54/97/28 

g Mesh8 Group12 Group11 OuterShell Group2 Group1 Model

v 30 -2.056e-08 -22
v 30 -2.03158e-08 -2.34216e-10
v 28 -1.89613e-08 -2.18609e-10
v 28 -1.92056e-08 -22
f 55/81/25 56/82/25 57/47/25 58/83/25 

v 30 2 -20
v 30 2 -2
f 56/64/26 55/84/26 59/43/26 60/15/26 

v 28 2 -20
f 58/85/27 61/86/27 59/87/27 55/88/27 

v 28 2 -2
f 62/10/28 61/77/28 58/84/28 57/89/28 

f 61/77/29 62/78/29 60/46/29 59/72/29 

f 62/90/30 57/91/30 56/92/30 60/93/30 

g Mesh9 Group13 Group11 OuterShell Group2 Group1 Model

v 28 8 -3.07792e-10
v 28 -1.89613e-08 -2.18608e-10
v 30 -2.03157e-08 -2.34216e-10
v 30 8 -3.234e-10
f 63/94/31 64/95/31 65/96/31 66/97/31 

v 28 2 -2
v 28 8 -2
f 67/98/28 64/99/28 63/100/28 68/97/28 

v 30 2 -2
f 64/101/32 67/102/32 69/103/32 65/104/32 

v 30 8 -2
f 67/77/33 68/100/33 70/97/33 69/72/33 

f 68/99/34 63/77/34 66/72/34 70/105/34 

f 65/106/26 69/107/26 70/97/26 66/94/26 

g Mesh10 Group14 Group11 OuterShell Group2 Group1 Model

v 30 2 -20
v 30 -2.05602e-08 -22
v 30 8 -22
v 30 8 -20
f 71/43/26 72/105/26 73/97/26 74/94/26 

v 28 2 -20
v 28 -1.92058e-08 -22
f 72/105/35 71/87/35 75/108/35 76/106/35 

v 28 8 -20
f 71/72/36 74/97/36 77/94/36 75/43/36 

v 28 8 -22
f 74/72/37 73/109/37 78/110/37 77/77/37 

f 73/97/38 72/105/38 76/99/38 78/100/38 

f 76/105/28 75/77/28 77/100/28 78/97/28 

g Mesh11 Group18 Group17 Group16 Group15 Group2 Group1 Model

v 28 10 -11.5
vt -10.6364 0
vn -6.77186e-10 -1 1.11053e-11
v 28 10 -10.5
vt -10.6364 1
v 2 10 -10.5
vt -26 1
v 2 10 -11.5
vt -26 0
f 79/111/39 80/112/39 81/113/39 82/114/39 

vt -1 0
v 28 10.125 -11.5
vt 0 0.125
v 28 10.125 -10.5
vt -1 0.125
f 80/115/26 79/105/26 83/116/26 84/117/26 

vt 10.6364 0
vt 26 0
v 2 10.125 -11.5
vt 26 0.125
vt 10.6364 0.125
f 79/118/38 82/119/38 85/120/38 83/121/38 

vt 1 0
v 2 10.125 -10.5
vt 1 0.125
f 82/105/28 81/122/28 86/123/28 85/116/28 

vn 7.80404e-12 1.11053e-11 1
vt -10.6364 0.125
vt -26 0.125
f 81/114/40 80/111/40 84/124/40 86/125/40 

vt 10.6364 1
vt 26 1
f 84/126/34 83/118/34 85/119/34 86/127/34 

g Mesh12 Group19 Group17 Group16 Group15 Group2 Group1 Model

v 18 10 -20
vt -1 2.7391e-33
v 19 10 -20
vt 9.86076e-32 5.4782e-33
v 19 10 -2
vt 9.86076e-32 18
v 18 10 -2
vt -1 18
f 87/128/39 88/129/39 89/130/39 90/131/39 

vt 0 4.44089e-16
vt 1 -6.75781e-50
v 18 10.125 -20
v 19 10.125 -20
f 88/132/38 87/133/38 91/123/38 92/116/38 

vt -5.4782e-33 2.22045e-16
vt 18 6.66134e-16
v 18 10.125 -2
vt 18 0.125
vt -5.4782e-33 0.125
f 87/134/28 90/135/28 93/136/28 91/137/28 

vt -1 2.22045e-16
vt 0 2.22045e-16
v 19 10.125 -2
f 90/138/40 89/139/40 94/116/40 93/117/40 

vt -18 4.44089e-16
vt -18 0.125
f 89/140/26 88/132/26 92/116/26 94/141/26 

vt -2.77556e-17 1.54198e-18
vt 1 1.54198e-18
vt 1 18
vt -2.77556e-17 18
f 92/142/34 91/143/34 93/144/34 94/145/34 

g Mesh13 Group20 Group17 Group16 Group15 Group2 Group1 Model

v 8.5 10 -20
v 9.5 10 -20
v 9.5 10 -2
v 8.5 10 -2
f 95/128/39 96/129/39 97/130/39 98/131/39 

v 8.5 10.125 -20
v 9.5 10.125 -20
f 96/132/38 95/133/38 99/123/38 100/116/38 

v 8.5 10.125 -2
f 95/134/28 98/135/28 101/136/28 99/137/28 

v 9.5 10.125 -2
f 98/138/40 97/139/40 102/116/40 101/117/40 

f 97/140/26 96/132/26 100/116/26 102/141/26 

f 100/142/34 99/143/34 101/144/34 102/145/34 

g Mesh14 Component_96_1 Group1 Model

usemtl _Color_M02_1
v 30 16 -22
vt -5.37403e-66 6
v 30 16 -4.11902e-10
vt -22 6
v 30 10 -3.4527e-10
vt -22 5.32907e-15
v 30 10 -22
vt -5.37403e-66 1.77636e-14
f 103/146/26 104/147/26 105/148/26 106/149/26 

vt 20 -9.68922e-16
vn 6.77186e-10 1 -1.11052e-11
v 1.06628e-08 16 -22
vt 50 2.26405e-13
v 1.08345e-08 16 -1.78009e-10
vt 50 22
vt 20 22
f 103/150/41 107/151/41 108/152/41 104/153/41 

v 6.59972e-09 10 -22
vt 50 1.81258e-56
vn -7.80877e-12 -1.11053e-11 -1
vt 50 6
vt 20 6
vt 20 1.77636e-14
f 109/154/42 107/155/42 103/156/42 106/157/42 

vt 2.27374e-13 0
v 6.77141e-09 10 -1.11378e-10
vt 22 5.32907e-15
vt 22 6
vt 2.27374e-13 6
f 109/158/28 110/159/28 108/160/28 107/161/28 

vt -20 22
vn -6.77186e-10 -1 1.11052e-11
vt -50 22
vt -50 2.27374e-13
vt -20 -3.46621e-30
f 105/162/43 110/163/43 109/164/43 106/165/43 

vt -20 5.32907e-15
vn 7.7993e-12 1.11053e-11 1
vt -20 6
vt -50 6
vt -50 5.32907e-15
f 105/166/44 104/167/44 108/168/44 110/169/44 

g Mesh15 Component_76_1 Group1 Model

usemtl FrontColor
v 26 10 -22
vn 7.86088e-12 1.11337e-11 1
v 25 10 -22
vt -1 2
v 25 8 -22
vt -1 -1.61559e-27
v 26 8 -22
f 111/72/45 112/170/45 113/171/45 114/105/45 

vt 1 5.68434e-14
vn 6.77186e-10 1 -1.11337e-11
vt 0 5.68434e-14
v 26 10 -22.1
vt 0 -0.1
v 25 10 -22.1
vt 1 -0.1
f 112/172/46 111/173/46 115/174/46 116/175/46 

vn 1 -6.77186e-10 -7.86088e-12
v 26 8 -22.1
vt 0.1 -3.55271e-15
vt 0.1 2
f 111/72/47 114/105/47 117/176/47 115/177/47 

vn -6.77186e-10 -1 1.11337e-11
vt -1 1.13687e-13
v 25 8 -22.1
vt -1 -0.1
vt -1.14794e-41 -0.1
f 114/105/48 113/178/48 118/179/48 117/180/48 

vt 5.68434e-14 -3.23117e-27
vn -1 6.77186e-10 7.86088e-12
vt -5.68434e-14 2
vt -0.1 2
vt -0.1 -3.55271e-15
f 113/181/49 112/182/49 116/183/49 118/184/49 

vt 1 2
vn -7.86088e-12 -1.11337e-11 -1
vt -5.68434e-15 2
vt -5.68434e-15 -7.10543e-16
vt 1 -7.10543e-16
f 116/185/50 115/186/50 117/187/50 118/188/50 

g Mesh16 Component_76_2 Group1 Model

v 5 10 -22
v 4 10 -22
v 4 8 -22
v 5 8 -22
f 119/72/45 120/170/45 121/171/45 122/105/45 

v 5 10 -22.1
v 4 10 -22.1
f 120/172/46 119/173/46 123/174/46 124/175/46 

v 5 8 -22.1
f 119/72/47 122/105/47 125/176/47 123/177/47 

v 4 8 -22.1
f 122/105/48 121/178/48 126/179/48 125/180/48 

f 121/181/49 120/182/49 124/183/49 126/184/49 

f 124/185/50 123/186/50 125/187/50 126/188/50 

g Mesh17 Component_76_3 Group1 Model

v 26 10 0.1
v 25 10 0.1
v 25 8 0.1
v 26 8 0.1
f 127/72/45 128/170/45 129/171/45 130/105/45 

v 26 10 -3.1451e-10
v 25 10 -3.06706e-10
f 128/172/46 127/173/46 131/174/46 132/175/46 

v 26 8 -2.923e-10
f 127/72/47 130/105/47 133/176/47 131/177/47 

v 25 8 -2.84382e-10
f 130/105/48 129/178/48 134/179/48 133/180/48 

f 129/181/49 128/182/49 132/183/49 134/184/49 

f 132/185/50 131/186/50 133/187/50 134/188/50 

g Mesh18 Component_76_4 Group1 Model

v 5 10 0.1
v 4 10 0.1
v 4 8 0.1
v 5 8 0.1
f 135/72/45 136/170/45 137/171/45 138/105/45 

v 5 10 -1.5051e-10
v 4 10 -1.42706e-10
f 136/172/46 135/173/46 139/174/46 140/175/46 

v 5 8 -1.28299e-10
f 135/72/47 138/105/47 141/176/47 139/177/47 

v 4 8 -1.20381e-10
f 138/105/48 137/178/48 142/179/48 141/180/48 

f 137/181/49 136/182/49 140/183/49 142/184/49 

f 140/185/50 139/186/50 141/187/50 142/188/50 

