# Alias OBJ Model File
# Exported from SketchUp, (c) 2000-2012 Trimble Navigation Limited
# File units = inches

mtllib 53 Cube ottoman 22 x 22.mtl

g Mesh1 Group4 Group3 Group2 Group1 Model

usemtl _Color_M05_4
v 8.6 2 -2.1
vt -18 1
vn -6.73715e-10 -1 -0
v 7.6 2 -2.1
vt -18 0
v 7.6 2 -20.1
vt 0 0
v 8.6 2 -20.1
vt 0 1
f 1/1/1 2/2/1 3/3/1 4/4/1 

vn 7.80405e-12 -5.25771e-21 1
vt 1 0
v 8.6 2.125 -2.1
vt 1 0.125
v 7.6 2.125 -2.1
vt 0 0.125
f 2/3/2 1/5/2 5/6/2 6/7/2 

vn 1 -6.73715e-10 -7.80405e-12
v 8.6 2.125 -20.1
vt -18 0.125
f 1/2/3 4/3/3 7/7/3 5/8/3 

vt -1 0
vn -7.80405e-12 5.25771e-21 -1
v 7.6 2.125 -20.1
vt -1 0.125
f 4/9/4 3/3/4 8/7/4 7/10/4 

vn -1 6.73715e-10 7.80405e-12
vt 18 0
vt 18 0.125
f 3/3/5 2/11/5 6/12/5 8/7/5 

vn 6.73715e-10 1 -0
vt 18 1
f 6/11/6 5/13/6 7/4/6 8/3/6 

g Mesh2 Group5 Group3 Group2 Group1 Model

v 20.1 2 -11.6
vt 0 18
v 20.1 2 -10.6
vt -1 18
v 2.1 2 -10.6
v 2.1 2 -11.6
f 9/14/1 10/15/1 11/9/1 12/3/1 

v 20.1 2.125 -11.6
v 20.1 2.125 -10.6
f 10/9/3 9/3/3 13/7/3 14/10/3 

v 2.1 2.125 -11.6
f 9/2/4 12/3/4 15/7/4 13/8/4 

v 2.1 2.125 -10.6
f 12/3/5 11/5/5 16/6/5 15/7/5 

f 11/3/2 10/11/2 14/12/2 16/7/2 

vt 1 18
f 14/16/6 13/14/6 15/3/6 16/5/6 

g Mesh3 Group6 Group3 Group2 Group1 Model

v 14.6 2 -2.1
v 13.6 2 -2.1
v 13.6 2 -20.1
v 14.6 2 -20.1
f 17/1/1 18/2/1 19/3/1 20/4/1 

v 14.6 2.125 -2.1
v 13.6 2.125 -2.1
f 18/3/2 17/5/2 21/6/2 22/7/2 

v 14.6 2.125 -20.1
f 17/2/3 20/3/3 23/7/3 21/8/3 

v 13.6 2.125 -20.1
f 20/9/4 19/3/4 24/7/4 23/10/4 

f 19/3/5 18/11/5 22/12/5 24/7/5 

f 22/11/6 21/13/6 23/4/6 24/3/6 

g Mesh4 Group8 Group7 Group2 Group1 Model

v 22.1 6.7372e-11 -22.1
vt -22 0
v 0.1 1.48891e-08 -22.1
v 0.1 2 -22.1
vt 0 2
v 22.1 2 -22.1
vt -22 2
f 25/17/4 26/3/4 27/18/4 28/19/4 

vt 0 22
v 20.1 1.4148e-09 -20.1
v 2.1 1.35417e-08 -20.1
vt -2 2
f 26/3/1 25/20/1 29/17/1 30/21/1 

vt 12.7279 0
vn 0.707107 -4.76389e-10 0.707107
vt 15.5563 0
vt 15.5563 2
v 20.1 2 -20.1
vt 12.7279 2
f 29/22/7 25/23/7 28/24/7 31/25/7 

v 2.1 2 -20.1
vt 2 2
vt 2 20
f 28/20/6 27/3/6 32/26/6 31/27/6 

vn -0.707107 4.76389e-10 0.707107
vt 2.82843 0
vt 2.82843 2
f 26/3/8 30/28/8 32/29/8 27/18/8 

vt 2 0
vt 20 0
vt 20 2
f 30/30/2 29/31/2 31/32/2 32/26/2 

g Mesh5 Group9 Group7 Group2 Group1 Model

v 20.1 1.4148e-09 -20.1
v 20.1 1.4148e-09 -2.1
v 20.1 2 -2.1
f 33/30/5 34/31/5 35/32/5 31/26/5 

v 22.1 6.7372e-11 -0.1
vt -20 0
vt -2 0
v 22.1 6.7372e-11 -22.1
f 36/19/1 34/33/1 33/34/1 37/18/1 

vt 14.1421 0
vt 16.9706 0
v 22.1 2 -0.1
vt 16.9706 2
vt 14.1421 2
f 34/35/8 36/36/8 38/37/8 35/38/8 

f 36/17/3 37/3/3 28/18/3 38/19/3 

vt -1.41421 0
vn -0.707107 4.76389e-10 -0.707107
vt 1.41421 0
vt 1.41421 2
vt -1.41421 2
f 37/39/9 33/40/9 31/41/9 28/42/9 

vt 22 2
f 35/31/6 38/43/6 28/18/6 31/30/6 

g Mesh6 Group10 Group7 Group2 Group1 Model

v 22.1 6.7372e-11 -0.1
vt -16.9706 0
vn 0.707107 -4.76389e-10 -0.707107
v 20.1 1.4148e-09 -2.1
vt -14.1421 0
v 20.1 2 -2.1
vt -14.1421 2
v 22.1 2 -0.1
vt -16.9706 2
f 39/44/10 40/45/10 41/46/10 42/47/10 

v 0.1 1.48891e-08 -0.1
v 2.1 1.35417e-08 -2.1
vt 0 20
f 39/19/1 43/34/1 44/18/1 40/48/1 

v 0.1 2 -0.1
f 43/3/2 39/27/2 42/43/2 45/18/2 

v 2.1 2 -2.1
f 45/30/6 42/43/6 41/48/6 46/18/6 

vt -20 2
f 40/33/4 44/34/4 46/21/4 41/49/4 

f 44/39/9 43/40/9 45/41/9 46/42/9 

g Mesh7 Group11 Group7 Group2 Group1 Model

v 0.1 2 -0.1
v 2.1 2 -2.1
f 32/26/6 27/3/6 47/27/6 48/32/6 

vt -2.82843 0
vt -2.82843 2
f 30/50/10 26/3/10 27/18/10 32/51/10 

v 2.1 1.35417e-08 -2.1
v 0.1 1.48891e-08 -0.1
f 26/3/1 30/21/1 49/49/1 50/17/1 

f 49/33/3 30/34/3 32/21/3 48/49/3 

vt -15.5563 0
vt -12.7279 0
vt -12.7279 2
vt -15.5563 2
f 50/52/7 49/53/7 48/54/7 47/55/7 

f 26/3/5 50/27/5 47/43/5 27/18/5 

g Mesh8 Group12 Group1 Model

usemtl FrontColor
v 22.1 2 -0.1
v 22.1 16 -22.1
vt 0 14
v 22.1 16 -0.1
vt -22 14
f 51/17/3 28/3/3 52/56/3 53/57/3 

v 0.1 2 -0.1
vt -22 22
f 54/17/1 27/3/1 28/20/1 51/58/1 

v 0.1 16 -0.1
vt 22 14
v 0.1 16 -22.1
f 27/3/5 54/27/5 55/59/5 56/56/5 

f 54/3/2 51/27/2 53/59/2 55/56/2 

vt 22 22
f 56/3/6 55/27/6 53/60/6 52/20/6 

f 28/17/4 27/3/4 56/56/4 52/57/4 

g Mesh9 Component_56_1 Group1 Model

v 0.1 2 -18.1
v 0.1 2 -17.1
vt -1 2
v 0.1 1.48891e-08 -17.1
v 0.1 1.48891e-08 -18.1
f 57/18/3 58/61/3 59/9/3 60/3/3 

v 2.78792e-08 2 -18.1
vt 0 -0.1
v 2.7887e-08 2 -17.1
vt 1 -0.1
f 58/5/6 57/3/6 61/62/6 62/63/6 

v 2.65317e-08 1.49565e-08 -18.1
vt 0.1 0
vt 0.1 2
f 57/18/4 60/3/4 63/64/4 61/65/4 

v 2.65395e-08 1.49565e-08 -17.1
vt -1 -0.1
f 60/3/1 59/9/1 64/66/1 63/62/1 

vt -0.1 2
vt -0.1 0
f 59/3/2 58/18/2 62/67/2 64/68/2 

vt 1 2
f 62/69/5 61/18/5 63/3/5 64/5/5 

g Mesh10 Component_56_2 Group1 Model

v 0.1 2 -5.1
v 0.1 2 -4.1
v 0.1 1.48891e-08 -4.1
v 0.1 1.48891e-08 -5.1
f 65/18/3 66/61/3 67/9/3 68/3/3 

v 2.79806e-08 2 -5.1
v 2.79884e-08 2 -4.1
f 66/5/6 65/3/6 69/62/6 70/63/6 

v 2.66332e-08 1.49565e-08 -5.1
f 65/18/4 68/3/4 71/64/4 69/65/4 

v 2.6641e-08 1.49565e-08 -4.1
f 68/3/1 67/9/1 72/66/1 71/62/1 

f 67/3/2 66/18/2 70/67/2 72/68/2 

f 70/69/5 69/18/5 71/3/5 72/5/5 

g Mesh11 Component_56_3 Group1 Model

v 22.2 2 -5.1
v 22.2 2 -4.1
v 22.2 5.01504e-16 -4.1
v 22.2 5.01509e-16 -5.1
f 73/18/3 74/61/3 75/9/3 76/3/3 

v 22.1 2 -5.1
v 22.1 2 -4.1
f 74/5/6 73/3/6 77/62/6 78/63/6 

v 22.1 6.7372e-11 -5.1
f 73/18/4 76/3/4 79/64/4 77/65/4 

v 22.1 6.7372e-11 -4.1
f 76/3/1 75/9/1 80/66/1 79/62/1 

f 75/3/2 74/18/2 78/67/2 80/68/2 

f 78/69/5 77/18/5 79/3/5 80/5/5 

g Mesh12 Component_56_4 Group1 Model

v 22.2 2 -18.1
v 22.2 2 -17.1
v 22.2 5.01573e-16 -17.1
v 22.2 5.01578e-16 -18.1
f 81/18/3 82/61/3 83/9/3 84/3/3 

v 22.1 2 -18.1
v 22.1 2 -17.1
f 82/5/6 81/3/6 85/62/6 86/63/6 

v 22.1 6.7372e-11 -18.1
f 81/18/4 84/3/4 87/64/4 85/65/4 

v 22.1 6.7372e-11 -17.1
f 84/3/1 83/9/1 88/66/1 87/62/1 

f 83/3/2 82/18/2 86/67/2 88/68/2 

f 86/69/5 85/18/5 87/3/5 88/5/5 

g Mesh13 Component_56_5 Group1 Model

v 18.1 2 -22.1
vn 7.80366e-12 -5.58734e-12 1
v 17.1 2 -22.1
v 17.1 3.4242e-09 -22.1
v 18.1 2.76167e-09 -22.1
f 89/18/11 90/61/11 91/9/11 92/3/11 

vn 6.62522e-10 1 5.58734e-12
v 18.1 2 -22.2
v 17.1 2 -22.2
f 90/5/12 89/3/12 93/62/12 94/63/12 

vn 1 -6.62522e-10 -7.80366e-12
v 18.1 2.76223e-09 -22.2
f 89/18/13 92/3/13 95/64/13 93/65/13 

vn -6.62522e-10 -1 -5.58734e-12
v 17.1 3.42476e-09 -22.2
f 92/3/14 91/9/14 96/66/14 95/62/14 

vn -1 6.62522e-10 7.80366e-12
f 91/3/15 90/18/15 94/67/15 96/68/15 

vn -7.80366e-12 5.58734e-12 -1
f 94/69/16 93/18/16 95/3/16 96/5/16 

g Mesh14 Component_56_6 Group1 Model

v 5.1 2 -22.1
v 4.1 2 -22.1
v 4.1 1.2037e-08 -22.1
v 5.1 1.13745e-08 -22.1
f 97/18/11 98/61/11 99/9/11 100/3/11 

v 5.1 2 -22.2
v 4.1 2 -22.2
f 98/5/12 97/3/12 101/62/12 102/63/12 

v 5.1 1.1375e-08 -22.2
f 97/18/13 100/3/13 103/64/13 101/65/13 

v 4.1 1.20375e-08 -22.2
f 100/3/14 99/9/14 104/66/14 103/62/14 

f 99/3/15 98/18/15 102/67/15 104/68/15 

f 102/69/16 101/18/16 103/3/16 104/5/16 

g Mesh15 Component_56_7 Group1 Model

v 18.1 2 -4.47441e-09
v 17.1 2 -4.46661e-09
v 17.1 3.4242e-09 -4.47778e-09
v 18.1 2.76167e-09 -4.48559e-09
f 105/18/11 106/61/11 107/9/11 108/3/11 

v 18.1 2 -0.1
v 17.1 2 -0.1
f 106/5/12 105/3/12 109/62/12 110/63/12 

v 18.1 2.76223e-09 -0.1
f 105/18/13 108/3/13 111/64/13 109/65/13 

v 17.1 3.42476e-09 -0.1
f 108/3/14 107/9/14 112/66/14 111/62/14 

f 107/3/15 106/18/15 110/67/15 112/68/15 

f 110/69/16 109/18/16 111/3/16 112/5/16 

g Mesh16 Component_56_8 Group1 Model

v 5.1 2 -4.37296e-09
v 4.1 2 -4.36515e-09
v 4.1 1.2037e-08 -4.37633e-09
v 5.1 1.13745e-08 -4.38413e-09
f 113/18/11 114/61/11 115/9/11 116/3/11 

v 5.1 2 -0.1
v 4.1 2 -0.1
f 114/5/12 113/3/12 117/62/12 118/63/12 

v 5.1 1.1375e-08 -0.1
f 113/18/13 116/3/13 119/64/13 117/65/13 

v 4.1 1.20375e-08 -0.1
f 116/3/14 115/9/14 120/66/14 119/62/14 

f 115/3/15 114/18/15 118/67/15 120/68/15 

f 118/69/16 117/18/16 119/3/16 120/5/16 

