# Alias OBJ Model File
# Exported from SketchUp, (c) 2000-2012 Trimble Navigation Limited
# File units = inches

mtllib 58 Flexy twin no base.mtl

g Mesh1 Group3 Group2 Group1 Model

usemtl FrontColor
v 102.953 89.8763 -59.1139
vt 3.15595e-10 5.90396e-09
vn 1.59971e-12 -0.965926 0.258819
v 198.953 89.8763 -59.1139
vt 3.16504e-10 208
v 198.953 90.3939 -57.1821
vt -2 208
v 102.953 90.3939 -57.1821
vt -2 5.90396e-09
f 1/1/1 2/2/1 3/3/1 4/4/1 

vt -208 0
vn -6.17789e-12 -0.258819 -0.965926
vt -5.90396e-09 0
v 102.953 94.7059 -60.408
vt -5.90396e-09 5
v 198.953 94.7059 -60.408
vt -208 5
f 2/5/2 1/6/2 5/7/2 6/8/2 

vt -3.15595e-10 0
vn -1 1.12161e-12 1.03667e-11
vt 2 0
v 102.953 95.2235 -58.4762
vt 2 5
vt -3.15595e-10 5
f 1/9/3 4/10/3 7/11/3 5/12/3 

vt 5.90396e-09 0
vn 6.74901e-12 0.258819 0.965926
vt 208 0
v 198.953 95.2235 -58.4762
vt 208 5
vt 5.90396e-09 5
f 4/13/4 3/14/4 8/15/4 7/16/4 

vt -2 0
vn 1 -4.27302e-13 -7.77553e-12
vt 3.16562e-10 0
vt 3.16562e-10 5
vt -2 5
f 3/17/5 2/18/5 6/19/5 8/20/5 

vt -3.16504e-10 208
vn -1.59971e-12 0.965926 -0.258819
vt -3.15595e-10 5.90396e-09
vt 2 5.90396e-09
vt 2 208
f 6/21/6 5/22/6 7/23/6 8/24/6 

g Mesh2 Group4 Group2 Group1 Model

v 198.953 91.1704 -54.2843
vt 5 2.13163e-13
vn -1 5.38591e-13 7.32674e-12
v 198.953 96 -55.5784
vt 5 5
v 198.953 94.7059 -60.408
vt -3.17414e-10 5
v 198.953 89.8763 -59.1139
vt -3.17414e-10 2.13163e-13
f 9/25/7 10/26/7 11/27/7 12/28/7 

v 199.906 91.1704 -54.2843
vt 1 0
vn 4.81524e-12 0.258819 0.965926
v 199.906 96 -55.5784
vt 1 5
vt 5.90749e-09 5
vt 5.90749e-09 2.13163e-13
f 13/29/8 14/30/8 10/31/8 9/32/8 

vt -5 5
vn 1 -5.38591e-13 -7.32674e-12
vt -5 2.13163e-13
v 199.906 89.8763 -59.1139
vt 3.17625e-10 2.13163e-13
v 199.906 94.7059 -60.408
vt 3.17625e-10 5
f 14/33/9 13/34/9 15/35/9 16/36/9 

vt 3.17414e-10 1
vn 1.39655e-12 -0.965926 0.258819
vt -5 1
vt -5 5.90023e-09
vt 3.17414e-10 5.90643e-09
f 15/37/10 13/38/10 9/39/10 12/40/10 

vt -1 5
vn -4.81524e-12 -0.258819 -0.965926
vt -1 5.21594e-35
vt -5.90643e-09 2.13163e-13
vt -5.90856e-09 5
f 16/41/11 15/42/11 12/43/11 11/44/11 

vt 5 1
vn -1.39655e-12 0.965926 -0.258819
vt -3.17414e-10 1
vt -3.17414e-10 5.90749e-09
vt 5 5.89917e-09
f 14/45/12 16/46/12 11/47/12 10/48/12 

g Mesh3 Group5 Group2 Group1 Model

v 102 91.1704 -54.2843
v 102 96 -55.5784
v 102 94.7059 -60.408
v 102 89.8763 -59.1139
f 17/25/7 18/26/7 19/27/7 20/28/7 

v 102.953 91.1704 -54.2843
v 102.953 96 -55.5784
f 21/29/8 22/30/8 18/31/8 17/32/8 

v 102.953 89.8763 -59.1139
v 102.953 94.7059 -60.408
f 22/33/9 21/34/9 23/35/9 24/36/9 

f 23/37/10 21/38/10 17/39/10 20/40/10 

f 24/41/11 23/42/11 20/43/11 19/44/11 

f 22/45/12 24/46/12 19/47/12 18/48/12 

g Mesh4 Group6 Group2 Group1 Model

v 102.953 90.6527 -56.2162
v 198.953 90.6527 -56.2162
v 198.953 91.1704 -54.2843
v 102.953 91.1704 -54.2843
f 25/1/1 26/2/1 27/3/1 28/4/1 

v 102.953 95.4824 -57.5103
v 198.953 95.4824 -57.5103
f 26/5/2 25/6/2 29/7/2 30/8/2 

v 102.953 96 -55.5784
f 25/9/3 28/10/3 31/11/3 29/12/3 

v 198.953 96 -55.5784
f 28/13/4 27/14/4 32/15/4 31/16/4 

f 27/17/5 26/18/5 30/19/5 32/20/5 

f 30/21/6 29/22/6 31/23/6 32/24/6 

g Mesh5 Group8 Group7 Group2 Group1 Model

v 146.638 73.7566 -115.943
vt 8.45255e-11 9.73551
vn 0.0480329 -0.964811 0.25852
v 148.488 73.8492 -115.968
vt 8.45192e-11 10.8195
vn 0.0640217 -0.963944 0.258288
v 148.488 104.907 -0.0566833
vt -69.0428 10.8195
v 146.638 104.815 -0.0318888
vt -69.0428 9.73551
f 33/49/13 34/50/14 35/51/14 36/52/13 

vt 8.45192e-11 10.8113
v 150.337 73.9681 -116
vt 8.45128e-11 11.8953
vn 0.0799916 -0.962831 0.25799
v 150.337 105.026 -0.088552
vt -69.0428 11.8953
vt -69.0428 10.8113
f 34/53/14 37/54/15 38/55/15 35/56/14 

vt 8.45479e-11 11.8844
v 152.183 74.1134 -116.039
vt 8.45447e-11 12.9684
vn 0.0879679 -0.962181 0.257816
v 152.183 105.172 -0.127487
vt -69.0428 12.9684
vt -69.0428 11.8844
f 37/57/15 39/58/16 40/59/16 38/60/15 

v 144.786 73.6905 -115.925
vt 8.45319e-11 8.65729
vn 0.0320298 -0.96543 0.258686
vt 8.45255e-11 9.74127
vt -69.0428 9.74127
v 144.786 104.749 -0.0141742
vt -69.0428 8.65729
f 41/61/17 33/62/13 36/63/13 42/64/17 

v 142.934 73.6509 -115.915
vt 8.45383e-11 7.57689
vn 0.0160173 -0.965802 0.258786
vt 8.45319e-11 8.66087
vt -69.0428 8.66087
v 142.934 104.709 -0.00354382
vt -69.0428 7.57689
f 43/65/18 41/66/17 42/67/17 44/68/18 

v 141.081 73.6376 -115.911
vt 8.45447e-11 6.49456
vn 1.59972e-12 -0.965926 0.258819
vt 8.45383e-11 7.57855
vt -69.0428 7.57855
v 141.081 104.696 -7.17774e-08
vt -69.0428 6.49456
f 45/69/19 43/70/18 44/71/18 46/72/19 

v 139.228 73.6509 -115.915
vt -8.45511e-11 -5.41058
vn -0.0160173 -0.965802 0.258786
vt -8.45447e-11 -6.49456
vt 69.0428 -6.49456
v 139.228 104.709 -0.00354382
vt 69.0428 -5.41058
f 47/73/20 45/74/19 46/75/19 48/76/20 

v 137.376 73.6905 -115.925
vt -8.45575e-11 -4.32518
vn -0.0320298 -0.96543 0.258686
vt -8.45511e-11 -5.40917
vt 69.0428 -5.40917
v 137.376 104.749 -0.0141742
vt 69.0428 -4.32518
f 49/77/21 47/78/20 48/79/20 50/80/21 

v 135.524 73.7566 -115.943
vt -8.45639e-11 -3.23863
vn -0.0480329 -0.964811 0.25852
vt -8.45575e-11 -4.32262
vt 69.0428 -4.32262
v 135.524 104.815 -0.0318888
vt 69.0428 -3.23863
f 51/81/22 49/82/21 50/83/21 52/84/22 

v 133.674 73.8492 -115.968
vt -8.45703e-11 -2.15119
vn -0.0640217 -0.963944 0.258288
vt -8.45639e-11 -3.23517
vt 69.0428 -3.23517
v 133.674 104.907 -0.0566833
vt 69.0428 -2.15119
f 53/85/23 51/86/22 52/87/22 54/88/23 

v 131.826 73.9681 -116
vt -8.45766e-11 -1.0631
vn -0.0799916 -0.962831 0.25799
vt -8.45703e-11 -2.14709
vt 69.0428 -2.14709
v 131.826 105.026 -0.088552
vt 69.0428 -1.0631
f 55/89/24 53/90/23 54/91/23 56/92/24 

v 129.979 74.1134 -116.039
vt -8.4583e-11 0.0253568
vn -0.0879679 -0.962181 0.257816
vt -8.458e-11 -1.05863
vt 69.0428 -1.05863
v 129.979 105.172 -0.127487
vt 69.0428 0.0253568
f 57/93/25 55/94/24 56/95/24 58/96/25 

g Mesh6 Group9 Group7 Group2 Group1 Model

v 175.174 74.5892 -116.166
vt -8.36735e-11 5.90878e-09
v 175.174 105.647 -0.254974
vt 69.0428 5.90878e-09
v 175.962 105.647 -0.254974
vt 69.0428 0.460802
v 175.962 74.5892 -116.166
vt -8.4583e-11 0.460802
f 59/97/6 60/98/6 61/99/6 62/100/6 

v 175.174 74.1134 -116.039
vt -8.36735e-11 0
vn -1 7.70451e-13 9.05618e-12
v 175.174 105.172 -0.127487
vt 69.0428 0
vt 69.0428 0.3
vt -8.36735e-11 0.3
f 63/101/26 64/102/26 60/103/26 59/104/26 

vt -69.0428 5.90878e-09
vt 8.36735e-11 5.90878e-09
v 175.962 74.1134 -116.039
vt 8.4583e-11 0.460802
v 175.962 105.172 -0.127487
vt -69.0428 0.460802
f 64/105/1 63/106/1 65/107/1 66/108/1 

vt -0.460802 0
vn -3.43039e-12 -0.258819 -0.965926
vt -5.90878e-09 0
vt -5.90878e-09 0.3
vt -0.460802 0.3
f 65/109/27 63/110/27 59/111/27 62/112/27 

vt -69.0428 0
vn 1 -4.44159e-13 -7.83844e-12
vt 8.4583e-11 0
vt 8.4583e-11 0.3
vt -69.0428 0.3
f 66/113/28 65/114/28 62/115/28 61/116/28 

vt 5.98251e-09 0
vn 2.25469e-12 0.258819 0.965926
vt 0.460802 0
vt 0.460802 0.3
vt 5.98251e-09 0.3
f 64/117/29 66/118/29 61/119/29 60/120/29 

g Mesh7 Group10 Group7 Group2 Group1 Model

v 106.2 74.5892 -116.166
v 106.2 105.647 -0.254974
v 106.988 105.647 -0.254974
v 106.988 74.5892 -116.166
f 67/97/6 68/98/6 69/99/6 70/100/6 

v 106.2 74.1134 -116.039
v 106.2 105.172 -0.127487
f 71/101/26 72/102/26 68/103/26 67/104/26 

v 106.988 74.1134 -116.039
v 106.988 105.172 -0.127487
f 72/105/1 71/106/1 73/107/1 74/108/1 

f 73/109/27 71/110/27 67/111/27 70/112/27 

f 74/113/28 73/114/28 70/115/28 69/116/28 

f 72/117/29 74/118/29 69/119/29 68/120/29 

g Mesh8 Group11 Group7 Group2 Group1 Model

v 198.165 74.5892 -116.166
v 198.165 105.647 -0.254974
v 198.953 105.647 -0.254974
v 198.953 74.5892 -116.166
f 75/97/6 76/98/6 77/99/6 78/100/6 

v 198.165 74.1134 -116.039
v 198.165 105.172 -0.127487
f 79/101/26 80/102/26 76/103/26 75/104/26 

v 198.953 74.1134 -116.039
v 198.953 105.172 -0.127487
f 80/105/1 79/106/1 81/107/1 82/108/1 

f 81/109/27 79/110/27 75/111/27 78/112/27 

f 82/113/28 81/114/28 78/115/28 77/116/28 

f 80/117/29 82/118/29 77/119/29 76/120/29 

g Mesh9 Group12 Group7 Group2 Group1 Model

v 169.629 73.7566 -115.943
v 171.479 73.8492 -115.968
v 171.479 104.907 -0.0566833
v 169.629 104.815 -0.0318888
f 83/49/13 84/50/14 85/51/14 86/52/13 

v 173.328 73.9681 -116
v 173.328 105.026 -0.088552
f 84/53/14 87/54/15 88/55/15 85/56/14 

v 175.174 74.1134 -116.039
v 175.174 105.172 -0.127487
f 87/57/15 89/58/16 90/59/16 88/60/15 

v 167.778 73.6905 -115.925
v 167.778 104.749 -0.0141742
f 91/61/17 83/62/13 86/63/13 92/64/17 

v 165.925 73.6509 -115.915
v 165.925 104.709 -0.00354382
f 93/65/18 91/66/17 92/67/17 94/68/18 

v 164.072 73.6376 -115.911
v 164.072 104.696 -7.20554e-08
f 95/69/19 93/70/18 94/71/18 96/72/19 

v 162.22 73.6509 -115.915
v 162.22 104.709 -0.00354382
f 97/73/20 95/74/19 96/75/19 98/76/20 

v 160.367 73.6905 -115.925
v 160.367 104.749 -0.0141742
f 99/77/21 97/78/20 98/79/20 100/80/21 

v 158.516 73.7566 -115.943
v 158.516 104.815 -0.0318888
f 101/81/22 99/82/21 100/83/21 102/84/22 

v 156.665 73.8492 -115.968
v 156.665 104.907 -0.0566833
f 103/85/23 101/86/22 102/87/22 104/88/23 

v 154.817 73.9681 -116
v 154.817 105.026 -0.088552
f 105/89/24 103/90/23 104/91/23 106/92/24 

v 152.971 74.1134 -116.039
v 152.971 105.172 -0.127487
f 107/93/25 105/94/24 106/95/24 108/96/25 

g Mesh10 Group13 Group7 Group2 Group1 Model

v 152.183 74.5892 -116.166
v 152.183 105.647 -0.254974
v 152.971 105.647 -0.254974
v 152.971 74.5892 -116.166
f 109/97/6 110/98/6 111/99/6 112/100/6 

v 152.183 74.1134 -116.039
v 152.183 105.172 -0.127487
f 113/101/26 114/102/26 110/103/26 109/104/26 

v 152.971 74.1134 -116.039
v 152.971 105.172 -0.127487
f 114/105/1 113/106/1 115/107/1 116/108/1 

f 115/109/27 113/110/27 109/111/27 112/112/27 

f 116/113/28 115/114/28 112/115/28 111/116/28 

f 114/117/29 116/118/29 111/119/29 110/120/29 

g Mesh11 Group14 Group7 Group2 Group1 Model

v 192.62 73.7566 -115.943
v 194.471 73.8492 -115.968
v 194.471 104.907 -0.0566833
v 192.62 104.815 -0.0318888
f 117/49/13 118/50/14 119/51/14 120/52/13 

v 196.319 73.9681 -116
v 196.319 105.026 -0.088552
f 118/53/14 121/54/15 122/55/15 119/56/14 

v 198.165 74.1134 -116.039
v 198.165 105.172 -0.127487
f 121/57/15 123/58/16 124/59/16 122/60/15 

v 190.769 73.6905 -115.925
v 190.769 104.749 -0.0141742
f 125/61/17 117/62/13 120/63/13 126/64/17 

v 188.916 73.6509 -115.915
v 188.916 104.709 -0.00354383
f 127/65/18 125/66/17 126/67/17 128/68/18 

v 187.064 73.6376 -115.911
v 187.064 104.696 -7.23276e-08
f 129/69/19 127/70/18 128/71/18 130/72/19 

v 185.211 73.6509 -115.915
v 185.211 104.709 -0.00354382
f 131/73/20 129/74/19 130/75/19 132/76/20 

v 183.358 73.6905 -115.925
v 183.358 104.749 -0.0141742
f 133/77/21 131/78/20 132/79/20 134/80/21 

v 181.507 73.7566 -115.943
v 181.507 104.815 -0.0318888
f 135/81/22 133/82/21 134/83/21 136/84/22 

v 179.657 73.8492 -115.968
v 179.657 104.907 -0.0566833
f 137/85/23 135/86/22 136/87/22 138/88/23 

v 177.808 73.9681 -116
v 177.808 105.026 -0.088552
f 139/89/24 137/90/23 138/91/23 140/92/24 

v 175.962 74.1134 -116.039
v 175.962 105.172 -0.127487
f 141/93/25 139/94/24 140/95/24 142/96/25 

g Mesh12 Group15 Group7 Group2 Group1 Model

v 123.647 73.7566 -115.943
v 125.497 73.8492 -115.968
v 125.497 104.907 -0.0566833
v 123.647 104.815 -0.0318888
f 143/49/13 144/50/14 145/51/14 146/52/13 

v 127.345 73.9681 -116
v 127.345 105.026 -0.088552
f 144/53/14 147/54/15 148/55/15 145/56/14 

v 129.192 74.1134 -116.039
v 129.192 105.172 -0.127487
f 147/57/15 149/58/16 150/59/16 148/60/15 

v 121.795 73.6905 -115.925
v 121.795 104.749 -0.0141742
f 151/61/17 143/62/13 146/63/13 152/64/17 

v 119.943 73.6509 -115.915
v 119.943 104.709 -0.00354382
f 153/65/18 151/66/17 152/67/17 154/68/18 

v 118.09 73.6376 -115.911
v 118.09 104.696 -7.14953e-08
f 155/69/19 153/70/18 154/71/18 156/72/19 

v 116.237 73.6509 -115.915
v 116.237 104.709 -0.00354382
f 157/73/20 155/74/19 156/75/19 158/76/20 

v 114.385 73.6905 -115.925
v 114.385 104.749 -0.0141742
f 159/77/21 157/78/20 158/79/20 160/80/21 

v 112.533 73.7566 -115.943
v 112.533 104.815 -0.0318888
f 161/81/22 159/82/21 160/83/21 162/84/22 

v 110.683 73.8492 -115.968
v 110.683 104.907 -0.0566833
f 163/85/23 161/86/22 162/87/22 164/88/23 

v 108.834 73.9681 -116
v 108.834 105.026 -0.088552
f 165/89/24 163/90/23 164/91/23 166/92/24 

v 106.988 74.1134 -116.039
v 106.988 105.172 -0.127487
f 167/93/25 165/94/24 166/95/24 168/96/25 

g Mesh13 Group16 Group7 Group2 Group1 Model

v 129.192 74.5892 -116.166
v 129.192 105.647 -0.254974
v 129.979 105.647 -0.254974
v 129.979 74.5892 -116.166
f 169/97/6 170/98/6 171/99/6 172/100/6 

v 129.192 74.1134 -116.039
v 129.192 105.172 -0.127487
f 173/101/26 174/102/26 170/103/26 169/104/26 

v 129.979 74.1134 -116.039
v 129.979 105.172 -0.127487
f 174/105/1 173/106/1 175/107/1 176/108/1 

f 175/109/27 173/110/27 169/111/27 172/112/27 

f 176/113/28 175/114/28 172/115/28 171/116/28 

f 174/117/29 176/118/29 171/119/29 170/120/29 

g Mesh14 Group17 Group1 Model

v 102 96 -55.5784
vt -0.692415 96
vn 0.654407 5.09425e-10 0.756143
v 101.721 96 -55.3368
vt -1.06168 96
vn 0.604026 5.36927e-10 0.796964
v 101.721 -3.72812e-08 -55.3368
vt -1.06168 -6.61744e-24
v 102 -3.7444e-08 -55.5784
vt -0.692415 -6.61744e-24
f 177/121/30 178/122/31 179/123/31 180/124/30 

v 99.6315 96 -54.7823
vt 6.47607 1.63151
vn 2.58494e-26 1 -6.73715e-10
v 100 96 -54.7583
vt 6.5 2
v 100.368 96 -54.7823
vt 6.47607 2.36849
v 100.731 96 -54.8537
vt 6.40468 2.73078
v 101.081 96 -54.9713
vt 6.28702 3.0808
v 101.413 96 -55.1333
vt 6.12508 3.41266
vt 5.92158 3.72078
vt 5.67993 4
v 102 96 -60.5112
vt 0.747087 4
v 101.712 96 -60.7327
vt 0.525658 3.71197
v 101.4 96 -60.9183
vt 0.340041 3.39966
v 101.067 96 -61.0655
vt 0.192869 3.06749
v 100.72 96 -61.1721
vt 0.0862289 2.72018
v 100.363 96 -61.2367
vt 0.0216339 2.36266
v 100 96 -61.2583
vt -6.59384e-10 2
v 99.6373 96 -61.2367
vt 0.0216339 1.63734
v 99.2798 96 -61.1721
vt 0.0862289 1.27982
v 98.9325 96 -61.0655
vt 0.192869 0.93251
v 98.6003 96 -60.9183
vt 0.340041 0.600345
v 98.288 96 -60.7327
vt 0.525658 0.288032
v 98 96 -60.5112
vt 0.747087 5.71504e-09
v 98 96 -55.5784
vt 5.67993 5.70822e-09
v 98.2792 96 -55.3368
vt 5.92158 0.279215
v 98.5873 96 -55.1333
vt 6.12508 0.587341
v 98.9192 96 -54.9713
vt 6.28702 0.9192
v 99.2692 96 -54.8537
vt 6.40468 1.26922
f 181/125/32 182/126/32 183/127/32 184/128/32 185/129/32 186/130/32 178/131/32 177/132/32 187/133/32 188/134/32 189/135/32 190/136/32 191/137/32 192/138/32 193/139/32 194/140/32 195/141/32 196/142/32 197/143/32 198/144/32 199/145/32 200/146/32 201/147/32 202/148/32 203/149/32 204/150/32 

vt 2.41705 96
vn -0.0648089 6.72299e-10 0.997898
vt 2.04779 96
vn -0.129345 6.68056e-10 0.9916
v 99.6315 -3.69077e-08 -54.7823
vt 2.04779 0
v 100 -3.68915e-08 -54.7583
vt 2.41705 0
f 182/151/33 181/152/34 205/153/34 206/154/33 

vt 2.8528 96
vt 2.48354 96
vn -0.256517 6.51173e-10 0.96654
v 99.2692 -3.69558e-08 -54.8537
vt 2.48354 0
vt 2.8528 0
f 181/155/34 204/156/35 207/157/35 205/158/34 

vt 3.24372 96
vt 2.87446 96
vn -0.37938 6.23349e-10 0.925241
v 98.9192 -3.7035e-08 -54.9713
vt 2.87446 0
vt 3.24372 0
f 204/159/35 203/160/36 208/161/36 207/162/35 

vt 3.58324 96
vt 3.21398 96
vn -0.495869 5.85053e-10 0.868398
v 98.5873 -3.71441e-08 -55.1333
vt 3.21398 0
vt 3.58324 0
f 203/163/36 202/164/37 209/165/37 208/166/36 

vt 3.86567 96
vt 3.49641 96
vn -0.604026 5.36927e-10 0.796964
v 98.2792 -3.72812e-08 -55.3368
vt 3.49641 -4.94995e-25
vt 3.86567 -4.94995e-25
f 202/167/37 201/168/38 210/169/38 209/170/37 

vt 4.08625 96
vt 3.71699 96
vn -0.654407 5.09425e-10 0.756143
v 98 -3.7444e-08 -55.5784
vt 3.71699 0
vt 4.08625 0
f 201/171/38 200/172/39 211/173/39 210/174/38 

vt 0.747087 96
vn -1 6.50529e-21 9.6558e-12
v 98 -4.07674e-08 -60.5112
vt 0.747087 4.29959e-45
vt 5.67993 4.29498e-45
vt 5.67993 96
f 199/175/40 212/176/40 211/177/40 200/178/40 

vt 0.455334 96
vn -0.60948 -5.34123e-10 -0.792802
vt 0.0920258 96
vn -0.561189 -5.57626e-10 -0.827687
v 98.288 -4.09165e-08 -60.7327
vt 0.0920258 -6.61744e-24
vt 0.455334 0
f 199/179/41 198/180/42 213/181/42 212/182/41 

vt 0.0209599 96
vt -0.342349 96
vn -0.458812 -5.98619e-10 -0.888533
v 98.6003 -4.10416e-08 -60.9183
vt -0.342349 -6.19384e-26
vt 0.0209599 -6.67938e-24
f 198/183/42 197/184/43 214/185/43 213/186/42 

vt -0.411135 96
vt -0.774444 96
vn -0.349927 -6.31121e-10 -0.936777
v 98.9325 -4.11407e-08 -61.0655
vt -0.774444 -6.61744e-24
vt -0.411135 0
f 197/187/43 196/188/44 215/189/44 214/190/43 

vt -0.834823 96
vt -1.19813 96
vn -0.236079 -6.54672e-10 -0.971734
v 99.2798 -4.12126e-08 -61.1721
vt -1.19813 0
vt -0.834823 -6.61744e-24
f 196/191/44 195/192/45 216/193/45 215/194/44 

vt -1.24409 96
vt -1.6074 96
vn -0.118883 -6.68938e-10 -0.992908
v 99.6373 -4.12561e-08 -61.2367
vt -1.6074 0
vt -1.24409 0
f 195/195/45 194/196/46 217/197/46 216/198/45 

vt -1.63314 96
vt -1.99645 96
vn -0.059547 -6.7252e-10 -0.998226
v 100 -4.12707e-08 -61.2583
vt -1.99645 -6.61744e-24
vt -1.63314 0
f 194/199/46 193/200/47 218/201/47 217/202/46 

vn 0.059547 -6.7252e-10 -0.998226
vt -2.35976 96
vn 0.118883 -6.68938e-10 -0.992908
v 100.363 -4.12561e-08 -61.2367
vt -2.35976 0
f 193/200/48 192/203/49 219/204/49 218/201/48 

vt -2.32887 96
vt -2.69218 96
vn 0.236079 -6.54672e-10 -0.971734
v 100.72 -4.12126e-08 -61.1721
vt -2.69218 -6.61744e-24
vt -2.32887 0
f 192/205/49 191/206/50 220/207/50 219/208/49 

vt -2.62568 96
vt -2.98898 96
vn 0.349927 -6.31121e-10 -0.936777
v 101.067 -4.11407e-08 -61.0655
vt -2.98898 0
vt -2.62568 -6.61744e-24
f 191/209/50 190/210/51 221/211/51 220/212/50 

vt -2.88267 96
vt -3.24597 96
vn 0.458812 -5.98619e-10 -0.888533
v 101.4 -4.10416e-08 -60.9183
vt -3.24597 0
vt -2.88267 0
f 190/213/51 189/214/52 222/215/52 221/216/51 

vt -3.09619 96
vt -3.4595 96
vn 0.561189 -5.57626e-10 -0.827687
v 101.712 -4.09165e-08 -60.7327
vt -3.4595 0
vt -3.09619 0
f 189/217/52 188/218/53 223/219/53 222/220/52 

vt -3.26323 96
vt -3.62654 96
vn 0.60948 -5.34123e-10 -0.792802
v 102 -4.07674e-08 -60.5112
vt -3.62654 0
vt -3.26323 0
f 188/221/53 187/222/54 224/223/54 223/224/53 

vt -5.67993 -6.61744e-24
vn 1 -7.51455e-21 -1.11539e-11
vt -0.747087 0
vt -0.747087 96
vt -5.67993 96
f 180/225/55 224/226/55 187/227/55 177/228/55 

vt -5.67993 5.70822e-09
vn -2.58494e-26 -1 6.73715e-10
vt -0.747087 5.71504e-09
vt -0.525658 0.288032
vt -0.340041 0.600345
vt -0.192869 0.93251
vt -0.0862289 1.27982
vt -0.0216339 1.63734
vt 6.59384e-10 2
vt -0.0216339 2.36266
vt -0.0862289 2.72018
vt -0.192869 3.06749
vt -0.340041 3.39966
vt -0.525658 3.71197
vt -0.747087 4
vt -5.67993 4
vt -5.92158 3.72078
v 101.413 -3.71441e-08 -55.1333
vt -6.12508 3.41266
v 101.081 -3.7035e-08 -54.9713
vt -6.28702 3.0808
v 100.731 -3.69558e-08 -54.8537
vt -6.40468 2.73078
v 100.368 -3.69077e-08 -54.7823
vt -6.47607 2.36849
vt -6.5 2
vt -6.47607 1.63151
vt -6.40468 1.26922
vt -6.28702 0.9192
vt -6.12508 0.587341
vt -5.92158 0.279215
f 211/229/56 212/230/56 213/231/56 214/232/56 215/233/56 216/234/56 217/235/56 218/236/56 219/237/56 220/238/56 221/239/56 222/240/56 223/241/56 224/242/56 180/243/56 179/244/56 225/245/56 226/246/56 227/247/56 228/248/56 206/249/56 205/250/56 207/251/56 208/252/56 209/253/56 210/254/56 

vt -0.158665 96
vt -0.527927 96
vn 0.495869 5.85053e-10 0.868398
vt -0.527927 7.22927e-25
vt -0.158665 -5.89452e-24
f 178/255/31 186/256/57 225/257/57 179/258/31 

vt 0.380854 96
vt 0.0115913 96
vn 0.37938 6.23349e-10 0.925241
vt 0.0115913 0
vt 0.380854 0
f 186/259/57 185/260/58 226/261/58 225/262/57 

vt 0.917076 96
vt 0.547813 96
vn 0.256517 6.51173e-10 0.96654
vt 0.547813 -6.61744e-24
vt 0.917076 0
f 185/263/58 184/264/59 227/265/59 226/266/58 

vt 1.44099 96
vt 1.07173 96
vn 0.129345 6.68056e-10 0.9916
vt 1.07173 -6.61744e-24
vt 1.44099 -6.61744e-24
f 184/267/59 183/268/60 228/269/60 227/270/59 

vt 1.9438 96
vt 1.57454 96
vn 0.0648089 6.72299e-10 0.997898
vt 1.57454 0
vt 1.9438 -6.61744e-24
f 183/271/60 182/272/61 206/273/61 228/274/60 

g Mesh15 Group19 Group18 Group1 Model

v 0.953101 89.8763 -59.1139
v 96.9531 89.8763 -59.1139
v 96.9531 90.3939 -57.1821
v 0.953101 90.3939 -57.1821
f 229/1/1 230/2/1 231/3/1 232/4/1 

v 0.953101 94.7059 -60.408
v 96.9531 94.7059 -60.408
f 230/5/2 229/6/2 233/7/2 234/8/2 

v 0.953101 95.2235 -58.4762
f 229/9/3 232/10/3 235/11/3 233/12/3 

v 96.9531 95.2235 -58.4762
f 232/13/4 231/14/4 236/15/4 235/16/4 

f 231/17/5 230/18/5 234/19/5 236/20/5 

f 234/21/6 233/22/6 235/23/6 236/24/6 

g Mesh16 Group20 Group18 Group1 Model

v 96.9531 91.1704 -54.2843
v 96.9531 96 -55.5784
v 96.9531 94.7059 -60.408
v 96.9531 89.8763 -59.1139
f 237/25/7 238/26/7 239/27/7 240/28/7 

v 97.9062 91.1704 -54.2843
v 97.9062 96 -55.5784
f 241/29/8 242/30/8 238/31/8 237/32/8 

v 97.9062 89.8763 -59.1139
v 97.9062 94.7059 -60.408
f 242/33/9 241/34/9 243/35/9 244/36/9 

f 243/37/10 241/38/10 237/39/10 240/40/10 

f 244/41/11 243/42/11 240/43/11 239/44/11 

f 242/45/12 244/46/12 239/47/12 238/48/12 

g Mesh17 Group21 Group18 Group1 Model

v -4.08035e-10 91.1704 -54.2843
v -4.16033e-10 96 -55.5784
v -4.3909e-10 94.7059 -60.408
v -4.33123e-10 89.8763 -59.1139
f 245/25/7 246/26/7 247/27/7 248/28/7 

v 0.953101 91.1704 -54.2843
v 0.953101 96 -55.5784
f 249/29/8 250/30/8 246/31/8 245/32/8 

v 0.953101 89.8763 -59.1139
v 0.953101 94.7059 -60.408
f 250/33/9 249/34/9 251/35/9 252/36/9 

f 251/37/10 249/38/10 245/39/10 248/40/10 

f 252/41/11 251/42/11 248/43/11 247/44/11 

f 250/45/12 252/46/12 247/47/12 246/48/12 

g Mesh18 Group22 Group18 Group1 Model

v 0.953101 90.6527 -56.2162
v 96.9531 90.6527 -56.2162
v 96.9531 91.1704 -54.2843
v 0.953101 91.1704 -54.2843
f 253/1/1 254/2/1 255/3/1 256/4/1 

v 0.953101 95.4824 -57.5103
v 96.9531 95.4824 -57.5103
f 254/5/2 253/6/2 257/7/2 258/8/2 

v 0.953101 96 -55.5784
f 253/9/3 256/10/3 259/11/3 257/12/3 

v 96.9531 96 -55.5784
f 256/13/4 255/14/4 260/15/4 259/16/4 

f 255/17/5 254/18/5 258/19/5 260/20/5 

f 258/21/6 257/22/6 259/23/6 260/24/6 

g Mesh19 Group24 Group23 Group18 Group1 Model

v 44.638 73.7566 -115.943
v 46.4882 73.8492 -115.968
v 46.4882 104.907 -0.0566833
v 44.638 104.815 -0.0318888
f 261/49/13 262/50/14 263/51/14 264/52/13 

v 48.3367 73.9681 -116
v 48.3367 105.026 -0.0885519
f 262/53/14 265/54/15 266/55/15 263/56/14 

v 50.1829 74.1134 -116.039
v 50.1829 105.172 -0.127487
f 265/57/15 267/58/16 268/59/16 266/60/15 

v 42.7864 73.6905 -115.925
v 42.7864 104.749 -0.0141742
f 269/61/17 261/62/13 264/63/13 270/64/17 

v 40.934 73.6509 -115.915
v 40.934 104.709 -0.00354382
f 271/65/18 269/66/17 270/67/17 272/68/18 

v 39.0812 73.6376 -115.911
v 39.0812 104.696 -7.09814e-08
f 273/69/19 271/70/18 272/71/18 274/72/19 

v 37.2283 73.6509 -115.915
v 37.2283 104.709 -0.00354382
f 275/73/20 273/74/19 274/75/19 276/76/20 

v 35.3759 73.6905 -115.925
v 35.3759 104.749 -0.0141742
f 277/77/21 275/78/20 276/79/20 278/80/21 

v 33.5243 73.7566 -115.943
v 33.5243 104.815 -0.0318888
f 279/81/22 277/82/21 278/83/21 280/84/22 

v 31.6741 73.8492 -115.968
v 31.6741 104.907 -0.0566833
f 281/85/23 279/86/22 280/87/22 282/88/23 

v 29.8256 73.9681 -116
v 29.8256 105.026 -0.0885519
f 283/89/24 281/90/23 282/91/23 284/92/24 

v 27.9794 74.1134 -116.039
v 27.9794 105.172 -0.127487
f 285/93/25 283/94/24 284/95/24 286/96/25 

g Mesh20 Group25 Group23 Group18 Group1 Model

v 73.1742 74.5892 -116.166
v 73.1742 105.647 -0.254974
v 73.9619 105.647 -0.254974
v 73.9619 74.5892 -116.166
f 287/97/6 288/98/6 289/99/6 290/100/6 

v 73.1742 74.1134 -116.039
v 73.1742 105.172 -0.127487
f 291/101/26 292/102/26 288/103/26 287/104/26 

v 73.9619 74.1134 -116.039
v 73.9619 105.172 -0.127487
f 292/105/1 291/106/1 293/107/1 294/108/1 

f 293/109/27 291/110/27 287/111/27 290/112/27 

f 294/113/28 293/114/28 290/115/28 289/116/28 

f 292/117/29 294/118/29 289/119/29 288/120/29 

g Mesh21 Group26 Group23 Group18 Group1 Model

v 4.20045 74.5892 -116.166
v 4.20045 105.647 -0.254974
v 4.98812 105.647 -0.254974
v 4.98812 74.5892 -116.166
f 295/97/6 296/98/6 297/99/6 298/100/6 

v 4.20045 74.1134 -116.039
v 4.20045 105.172 -0.127487
f 299/101/26 300/102/26 296/103/26 295/104/26 

v 4.98812 74.1134 -116.039
v 4.98812 105.172 -0.127487
f 300/105/1 299/106/1 301/107/1 302/108/1 

f 301/109/27 299/110/27 295/111/27 298/112/27 

f 302/113/28 301/114/28 298/115/28 297/116/28 

f 300/117/29 302/118/29 297/119/29 296/120/29 

g Mesh22 Group27 Group23 Group18 Group1 Model

v 96.1654 74.5892 -116.166
v 96.1654 105.647 -0.254974
v 96.9531 105.647 -0.254974
v 96.9531 74.5892 -116.166
f 303/97/6 304/98/6 305/99/6 306/100/6 

v 96.1654 74.1134 -116.039
v 96.1654 105.172 -0.127487
f 307/101/26 308/102/26 304/103/26 303/104/26 

v 96.9531 74.1134 -116.039
v 96.9531 105.172 -0.127487
f 308/105/1 307/106/1 309/107/1 310/108/1 

f 309/109/27 307/110/27 303/111/27 306/112/27 

f 310/113/28 309/114/28 306/115/28 305/116/28 

f 308/117/29 310/118/29 305/119/29 304/120/29 

g Mesh23 Group28 Group23 Group18 Group1 Model

v 67.6292 73.7566 -115.943
v 69.4794 73.8492 -115.968
v 69.4794 104.907 -0.0566833
v 67.6292 104.815 -0.0318888
f 311/49/13 312/50/14 313/51/14 314/52/13 

v 71.3279 73.9681 -116
v 71.3279 105.026 -0.0885519
f 312/53/14 315/54/15 316/55/15 313/56/14 

v 73.1742 74.1134 -116.039
v 73.1742 105.172 -0.127487
f 315/57/15 317/58/16 318/59/16 316/60/15 

v 65.7777 73.6905 -115.925
v 65.7777 104.749 -0.0141742
f 319/61/17 311/62/13 314/63/13 320/64/17 

v 63.9253 73.6509 -115.915
v 63.9253 104.709 -0.00354382
f 321/65/18 319/66/17 320/67/17 322/68/18 

v 62.0724 73.6376 -115.911
v 62.0724 104.696 -7.12595e-08
f 323/69/19 321/70/18 322/71/18 324/72/19 

v 60.2195 73.6509 -115.915
v 60.2195 104.709 -0.00354382
f 325/73/20 323/74/19 324/75/19 326/76/20 

v 58.3671 73.6905 -115.925
v 58.3671 104.749 -0.0141742
f 327/77/21 325/78/20 326/79/20 328/80/21 

v 56.5156 73.7566 -115.943
v 56.5156 104.815 -0.0318888
f 329/81/22 327/82/21 328/83/21 330/84/22 

v 54.6654 73.8492 -115.968
v 54.6654 104.907 -0.0566833
f 331/85/23 329/86/22 330/87/22 332/88/23 

v 52.8169 73.9681 -116
v 52.8169 105.026 -0.0885519
f 333/89/24 331/90/23 332/91/23 334/92/24 

v 50.9706 74.1134 -116.039
v 50.9706 105.172 -0.127487
f 335/93/25 333/94/24 334/95/24 336/96/25 

g Mesh24 Group29 Group23 Group18 Group1 Model

v 50.1829 74.5892 -116.166
v 50.1829 105.647 -0.254974
v 50.9706 105.647 -0.254974
v 50.9706 74.5892 -116.166
f 337/97/6 338/98/6 339/99/6 340/100/6 

v 50.1829 74.1134 -116.039
v 50.1829 105.172 -0.127487
f 341/101/26 342/102/26 338/103/26 337/104/26 

v 50.9706 74.1134 -116.039
v 50.9706 105.172 -0.127487
f 342/105/1 341/106/1 343/107/1 344/108/1 

f 343/109/27 341/110/27 337/111/27 340/112/27 

f 344/113/28 343/114/28 340/115/28 339/116/28 

f 342/117/29 344/118/29 339/119/29 338/120/29 

g Mesh25 Group30 Group23 Group18 Group1 Model

v 90.6205 73.7566 -115.943
v 92.4707 73.8492 -115.968
v 92.4707 104.907 -0.0566833
v 90.6205 104.815 -0.0318888
f 345/49/13 346/50/14 347/51/14 348/52/13 

v 94.3192 73.9681 -116
v 94.3192 105.026 -0.088552
f 346/53/14 349/54/15 350/55/15 347/56/14 

v 96.1654 74.1134 -116.039
v 96.1654 105.172 -0.127487
f 349/57/15 351/58/16 352/59/16 350/60/15 

v 88.7689 73.6905 -115.925
v 88.7689 104.749 -0.0141742
f 353/61/17 345/62/13 348/63/13 354/64/17 

v 86.9165 73.6509 -115.915
v 86.9165 104.709 -0.00354382
f 355/65/18 353/66/17 354/67/17 356/68/18 

v 85.0636 73.6376 -115.911
v 85.0636 104.696 -7.15316e-08
f 357/69/19 355/70/18 356/71/18 358/72/19 

v 83.2108 73.6509 -115.915
v 83.2108 104.709 -0.00354382
f 359/73/20 357/74/19 358/75/19 360/76/20 

v 81.3584 73.6905 -115.925
v 81.3584 104.749 -0.0141742
f 361/77/21 359/78/20 360/79/20 362/80/21 

v 79.5068 73.7566 -115.943
v 79.5068 104.815 -0.0318888
f 363/81/22 361/82/21 362/83/21 364/84/22 

v 77.6566 73.8492 -115.968
v 77.6566 104.907 -0.0566833
f 365/85/23 363/86/22 364/87/22 366/88/23 

v 75.8081 73.9681 -116
v 75.8081 105.026 -0.088552
f 367/89/24 365/90/23 366/91/23 368/92/24 

v 73.9619 74.1134 -116.039
v 73.9619 105.172 -0.127487
f 369/93/25 367/94/24 368/95/24 370/96/25 

g Mesh26 Group31 Group23 Group18 Group1 Model

v 21.6467 73.7566 -115.943
v 23.4969 73.8492 -115.968
v 23.4969 104.907 -0.0566833
v 21.6467 104.815 -0.0318888
f 371/49/13 372/50/14 373/51/14 374/52/13 

v 25.3454 73.9681 -116
v 25.3454 105.026 -0.0885519
f 372/53/14 375/54/15 376/55/15 373/56/14 

v 27.1917 74.1134 -116.039
v 27.1917 105.172 -0.127487
f 375/57/15 377/58/16 378/59/16 376/60/15 

v 19.7952 73.6905 -115.925
v 19.7952 104.749 -0.0141742
f 379/61/17 371/62/13 374/63/13 380/64/17 

v 17.9428 73.6509 -115.915
v 17.9428 104.709 -0.00354382
f 381/65/18 379/66/17 380/67/17 382/68/18 

v 16.0899 73.6376 -115.911
v 16.0899 104.696 -7.06993e-08
f 383/69/19 381/70/18 382/71/18 384/72/19 

v 14.237 73.6509 -115.915
v 14.237 104.709 -0.00354382
f 385/73/20 383/74/19 384/75/19 386/76/20 

v 12.3846 73.6905 -115.925
v 12.3846 104.749 -0.0141742
f 387/77/21 385/78/20 386/79/20 388/80/21 

v 10.5331 73.7566 -115.943
v 10.5331 104.815 -0.0318888
f 389/81/22 387/82/21 388/83/21 390/84/22 

v 8.68287 73.8492 -115.968
v 8.68287 104.907 -0.0566833
f 391/85/23 389/86/22 390/87/22 392/88/23 

v 6.8344 73.9681 -116
v 6.8344 105.026 -0.0885519
f 393/89/24 391/90/23 392/91/23 394/92/24 

v 4.98812 74.1134 -116.039
v 4.98812 105.172 -0.127487
f 395/93/25 393/94/24 394/95/24 396/96/25 

g Mesh27 Group32 Group23 Group18 Group1 Model

v 27.1917 74.5892 -116.166
v 27.1917 105.647 -0.254974
v 27.9794 105.647 -0.254974
v 27.9794 74.5892 -116.166
f 397/97/6 398/98/6 399/99/6 400/100/6 

v 27.1917 74.1134 -116.039
v 27.1917 105.172 -0.127487
f 401/101/26 402/102/26 398/103/26 397/104/26 

v 27.9794 74.1134 -116.039
v 27.9794 105.172 -0.127487
f 402/105/1 401/106/1 403/107/1 404/108/1 

f 403/109/27 401/110/27 397/111/27 400/112/27 

f 404/113/28 403/114/28 400/115/28 399/116/28 

f 402/117/29 404/118/29 399/119/29 398/120/29 

